%TF.GenerationSoftware,KiCad,Pcbnew,9.0.6*%
%TF.CreationDate,2026-03-09T14:42:49+03:00*%
%TF.ProjectId,mic_project_original,6d69635f-7072-46f6-9a65-63745f6f7269,rev?*%
%TF.SameCoordinates,Original*%
%TF.FileFunction,Legend,Top*%
%TF.FilePolarity,Positive*%
%FSLAX46Y46*%
G04 Gerber Fmt 4.6, Leading zero omitted, Abs format (unit mm)*
G04 Created by KiCad (PCBNEW 9.0.6) date 2026-03-09 14:42:49*
%MOMM*%
%LPD*%
G01*
G04 APERTURE LIST*
%ADD10C,0.160000*%
%ADD11C,0.200000*%
%ADD12C,0.140000*%
%ADD13C,0.120000*%
%ADD14C,0.050000*%
%ADD15C,0.000000*%
%ADD16C,0.100000*%
G04 APERTURE END LIST*
D10*
X155754299Y-24799999D02*
X154754299Y-24799999D01*
X154754299Y-24799999D02*
X154754299Y-24533332D01*
X154754299Y-24533332D02*
X154801918Y-24466666D01*
X154801918Y-24466666D02*
X154849537Y-24433332D01*
X154849537Y-24433332D02*
X154944775Y-24399999D01*
X154944775Y-24399999D02*
X155087632Y-24399999D01*
X155087632Y-24399999D02*
X155182870Y-24433332D01*
X155182870Y-24433332D02*
X155230489Y-24466666D01*
X155230489Y-24466666D02*
X155278108Y-24533332D01*
X155278108Y-24533332D02*
X155278108Y-24799999D01*
X155754299Y-24099999D02*
X154754299Y-24099999D01*
X154754299Y-24099999D02*
X154754299Y-23933332D01*
X154754299Y-23933332D02*
X154801918Y-23833332D01*
X154801918Y-23833332D02*
X154897156Y-23766666D01*
X154897156Y-23766666D02*
X154992394Y-23733332D01*
X154992394Y-23733332D02*
X155182870Y-23699999D01*
X155182870Y-23699999D02*
X155325727Y-23699999D01*
X155325727Y-23699999D02*
X155516203Y-23733332D01*
X155516203Y-23733332D02*
X155611441Y-23766666D01*
X155611441Y-23766666D02*
X155706680Y-23833332D01*
X155706680Y-23833332D02*
X155754299Y-23933332D01*
X155754299Y-23933332D02*
X155754299Y-24099999D01*
X154754299Y-23066666D02*
X154754299Y-23399999D01*
X154754299Y-23399999D02*
X155230489Y-23433332D01*
X155230489Y-23433332D02*
X155182870Y-23399999D01*
X155182870Y-23399999D02*
X155135251Y-23333332D01*
X155135251Y-23333332D02*
X155135251Y-23166666D01*
X155135251Y-23166666D02*
X155182870Y-23099999D01*
X155182870Y-23099999D02*
X155230489Y-23066666D01*
X155230489Y-23066666D02*
X155325727Y-23033332D01*
X155325727Y-23033332D02*
X155563822Y-23033332D01*
X155563822Y-23033332D02*
X155659060Y-23066666D01*
X155659060Y-23066666D02*
X155706680Y-23099999D01*
X155706680Y-23099999D02*
X155754299Y-23166666D01*
X155754299Y-23166666D02*
X155754299Y-23333332D01*
X155754299Y-23333332D02*
X155706680Y-23399999D01*
X155706680Y-23399999D02*
X155659060Y-23433332D01*
X170954299Y-24766666D02*
X169954299Y-24766666D01*
X169954299Y-24766666D02*
X169954299Y-24499999D01*
X169954299Y-24499999D02*
X170001918Y-24433333D01*
X170001918Y-24433333D02*
X170049537Y-24399999D01*
X170049537Y-24399999D02*
X170144775Y-24366666D01*
X170144775Y-24366666D02*
X170287632Y-24366666D01*
X170287632Y-24366666D02*
X170382870Y-24399999D01*
X170382870Y-24399999D02*
X170430489Y-24433333D01*
X170430489Y-24433333D02*
X170478108Y-24499999D01*
X170478108Y-24499999D02*
X170478108Y-24766666D01*
X170859060Y-23666666D02*
X170906680Y-23699999D01*
X170906680Y-23699999D02*
X170954299Y-23799999D01*
X170954299Y-23799999D02*
X170954299Y-23866666D01*
X170954299Y-23866666D02*
X170906680Y-23966666D01*
X170906680Y-23966666D02*
X170811441Y-24033333D01*
X170811441Y-24033333D02*
X170716203Y-24066666D01*
X170716203Y-24066666D02*
X170525727Y-24099999D01*
X170525727Y-24099999D02*
X170382870Y-24099999D01*
X170382870Y-24099999D02*
X170192394Y-24066666D01*
X170192394Y-24066666D02*
X170097156Y-24033333D01*
X170097156Y-24033333D02*
X170001918Y-23966666D01*
X170001918Y-23966666D02*
X169954299Y-23866666D01*
X169954299Y-23866666D02*
X169954299Y-23799999D01*
X169954299Y-23799999D02*
X170001918Y-23699999D01*
X170001918Y-23699999D02*
X170049537Y-23666666D01*
X170954299Y-22999999D02*
X170954299Y-23399999D01*
X170954299Y-23199999D02*
X169954299Y-23199999D01*
X169954299Y-23199999D02*
X170097156Y-23266666D01*
X170097156Y-23266666D02*
X170192394Y-23333333D01*
X170192394Y-23333333D02*
X170240013Y-23399999D01*
X170049537Y-22733332D02*
X170001918Y-22699999D01*
X170001918Y-22699999D02*
X169954299Y-22633332D01*
X169954299Y-22633332D02*
X169954299Y-22466666D01*
X169954299Y-22466666D02*
X170001918Y-22399999D01*
X170001918Y-22399999D02*
X170049537Y-22366666D01*
X170049537Y-22366666D02*
X170144775Y-22333332D01*
X170144775Y-22333332D02*
X170240013Y-22333332D01*
X170240013Y-22333332D02*
X170382870Y-22366666D01*
X170382870Y-22366666D02*
X170954299Y-22766666D01*
X170954299Y-22766666D02*
X170954299Y-22333332D01*
D11*
X158057142Y-73714171D02*
X158171428Y-73771314D01*
X158171428Y-73771314D02*
X158209523Y-73828457D01*
X158209523Y-73828457D02*
X158247619Y-73942742D01*
X158247619Y-73942742D02*
X158247619Y-74114171D01*
X158247619Y-74114171D02*
X158209523Y-74228457D01*
X158209523Y-74228457D02*
X158171428Y-74285600D01*
X158171428Y-74285600D02*
X158095238Y-74342742D01*
X158095238Y-74342742D02*
X157790476Y-74342742D01*
X157790476Y-74342742D02*
X157790476Y-73142742D01*
X157790476Y-73142742D02*
X158057142Y-73142742D01*
X158057142Y-73142742D02*
X158133333Y-73199885D01*
X158133333Y-73199885D02*
X158171428Y-73257028D01*
X158171428Y-73257028D02*
X158209523Y-73371314D01*
X158209523Y-73371314D02*
X158209523Y-73485600D01*
X158209523Y-73485600D02*
X158171428Y-73599885D01*
X158171428Y-73599885D02*
X158133333Y-73657028D01*
X158133333Y-73657028D02*
X158057142Y-73714171D01*
X158057142Y-73714171D02*
X157790476Y-73714171D01*
X158742857Y-73142742D02*
X158895238Y-73142742D01*
X158895238Y-73142742D02*
X158971428Y-73199885D01*
X158971428Y-73199885D02*
X159047619Y-73314171D01*
X159047619Y-73314171D02*
X159085714Y-73542742D01*
X159085714Y-73542742D02*
X159085714Y-73942742D01*
X159085714Y-73942742D02*
X159047619Y-74171314D01*
X159047619Y-74171314D02*
X158971428Y-74285600D01*
X158971428Y-74285600D02*
X158895238Y-74342742D01*
X158895238Y-74342742D02*
X158742857Y-74342742D01*
X158742857Y-74342742D02*
X158666666Y-74285600D01*
X158666666Y-74285600D02*
X158590476Y-74171314D01*
X158590476Y-74171314D02*
X158552380Y-73942742D01*
X158552380Y-73942742D02*
X158552380Y-73542742D01*
X158552380Y-73542742D02*
X158590476Y-73314171D01*
X158590476Y-73314171D02*
X158666666Y-73199885D01*
X158666666Y-73199885D02*
X158742857Y-73142742D01*
X159999999Y-73257028D02*
X160038095Y-73199885D01*
X160038095Y-73199885D02*
X160114285Y-73142742D01*
X160114285Y-73142742D02*
X160304761Y-73142742D01*
X160304761Y-73142742D02*
X160380952Y-73199885D01*
X160380952Y-73199885D02*
X160419047Y-73257028D01*
X160419047Y-73257028D02*
X160457142Y-73371314D01*
X160457142Y-73371314D02*
X160457142Y-73485600D01*
X160457142Y-73485600D02*
X160419047Y-73657028D01*
X160419047Y-73657028D02*
X159961904Y-74342742D01*
X159961904Y-74342742D02*
X160457142Y-74342742D01*
X161371428Y-73085600D02*
X160685714Y-74628457D01*
X161599999Y-73257028D02*
X161638095Y-73199885D01*
X161638095Y-73199885D02*
X161714285Y-73142742D01*
X161714285Y-73142742D02*
X161904761Y-73142742D01*
X161904761Y-73142742D02*
X161980952Y-73199885D01*
X161980952Y-73199885D02*
X162019047Y-73257028D01*
X162019047Y-73257028D02*
X162057142Y-73371314D01*
X162057142Y-73371314D02*
X162057142Y-73485600D01*
X162057142Y-73485600D02*
X162019047Y-73657028D01*
X162019047Y-73657028D02*
X161561904Y-74342742D01*
X161561904Y-74342742D02*
X162057142Y-74342742D01*
X162742857Y-73142742D02*
X162590476Y-73142742D01*
X162590476Y-73142742D02*
X162514285Y-73199885D01*
X162514285Y-73199885D02*
X162476190Y-73257028D01*
X162476190Y-73257028D02*
X162400000Y-73428457D01*
X162400000Y-73428457D02*
X162361904Y-73657028D01*
X162361904Y-73657028D02*
X162361904Y-74114171D01*
X162361904Y-74114171D02*
X162400000Y-74228457D01*
X162400000Y-74228457D02*
X162438095Y-74285600D01*
X162438095Y-74285600D02*
X162514285Y-74342742D01*
X162514285Y-74342742D02*
X162666666Y-74342742D01*
X162666666Y-74342742D02*
X162742857Y-74285600D01*
X162742857Y-74285600D02*
X162780952Y-74228457D01*
X162780952Y-74228457D02*
X162819047Y-74114171D01*
X162819047Y-74114171D02*
X162819047Y-73828457D01*
X162819047Y-73828457D02*
X162780952Y-73714171D01*
X162780952Y-73714171D02*
X162742857Y-73657028D01*
X162742857Y-73657028D02*
X162666666Y-73599885D01*
X162666666Y-73599885D02*
X162514285Y-73599885D01*
X162514285Y-73599885D02*
X162438095Y-73657028D01*
X162438095Y-73657028D02*
X162400000Y-73714171D01*
X162400000Y-73714171D02*
X162361904Y-73828457D01*
X164228572Y-74342742D02*
X163961905Y-73771314D01*
X163771429Y-74342742D02*
X163771429Y-73142742D01*
X163771429Y-73142742D02*
X164076191Y-73142742D01*
X164076191Y-73142742D02*
X164152381Y-73199885D01*
X164152381Y-73199885D02*
X164190476Y-73257028D01*
X164190476Y-73257028D02*
X164228572Y-73371314D01*
X164228572Y-73371314D02*
X164228572Y-73542742D01*
X164228572Y-73542742D02*
X164190476Y-73657028D01*
X164190476Y-73657028D02*
X164152381Y-73714171D01*
X164152381Y-73714171D02*
X164076191Y-73771314D01*
X164076191Y-73771314D02*
X163771429Y-73771314D01*
X164571429Y-73714171D02*
X164838095Y-73714171D01*
X164952381Y-74342742D02*
X164571429Y-74342742D01*
X164571429Y-74342742D02*
X164571429Y-73142742D01*
X164571429Y-73142742D02*
X164952381Y-73142742D01*
X165180953Y-73142742D02*
X165447620Y-74342742D01*
X165447620Y-74342742D02*
X165714286Y-73142742D01*
X166857143Y-73714171D02*
X166971429Y-73771314D01*
X166971429Y-73771314D02*
X167009524Y-73828457D01*
X167009524Y-73828457D02*
X167047620Y-73942742D01*
X167047620Y-73942742D02*
X167047620Y-74114171D01*
X167047620Y-74114171D02*
X167009524Y-74228457D01*
X167009524Y-74228457D02*
X166971429Y-74285600D01*
X166971429Y-74285600D02*
X166895239Y-74342742D01*
X166895239Y-74342742D02*
X166590477Y-74342742D01*
X166590477Y-74342742D02*
X166590477Y-73142742D01*
X166590477Y-73142742D02*
X166857143Y-73142742D01*
X166857143Y-73142742D02*
X166933334Y-73199885D01*
X166933334Y-73199885D02*
X166971429Y-73257028D01*
X166971429Y-73257028D02*
X167009524Y-73371314D01*
X167009524Y-73371314D02*
X167009524Y-73485600D01*
X167009524Y-73485600D02*
X166971429Y-73599885D01*
X166971429Y-73599885D02*
X166933334Y-73657028D01*
X166933334Y-73657028D02*
X166857143Y-73714171D01*
X166857143Y-73714171D02*
X166590477Y-73714171D01*
D12*
X102133333Y-25007720D02*
X102233333Y-25055339D01*
X102233333Y-25055339D02*
X102400000Y-25055339D01*
X102400000Y-25055339D02*
X102466666Y-25007720D01*
X102466666Y-25007720D02*
X102500000Y-24960100D01*
X102500000Y-24960100D02*
X102533333Y-24864862D01*
X102533333Y-24864862D02*
X102533333Y-24769624D01*
X102533333Y-24769624D02*
X102500000Y-24674386D01*
X102500000Y-24674386D02*
X102466666Y-24626767D01*
X102466666Y-24626767D02*
X102400000Y-24579148D01*
X102400000Y-24579148D02*
X102266666Y-24531529D01*
X102266666Y-24531529D02*
X102200000Y-24483910D01*
X102200000Y-24483910D02*
X102166666Y-24436291D01*
X102166666Y-24436291D02*
X102133333Y-24341053D01*
X102133333Y-24341053D02*
X102133333Y-24245815D01*
X102133333Y-24245815D02*
X102166666Y-24150577D01*
X102166666Y-24150577D02*
X102200000Y-24102958D01*
X102200000Y-24102958D02*
X102266666Y-24055339D01*
X102266666Y-24055339D02*
X102433333Y-24055339D01*
X102433333Y-24055339D02*
X102533333Y-24102958D01*
X102833333Y-25055339D02*
X102833333Y-24055339D01*
X103533333Y-24102958D02*
X103466666Y-24055339D01*
X103466666Y-24055339D02*
X103366666Y-24055339D01*
X103366666Y-24055339D02*
X103266666Y-24102958D01*
X103266666Y-24102958D02*
X103200000Y-24198196D01*
X103200000Y-24198196D02*
X103166666Y-24293434D01*
X103166666Y-24293434D02*
X103133333Y-24483910D01*
X103133333Y-24483910D02*
X103133333Y-24626767D01*
X103133333Y-24626767D02*
X103166666Y-24817243D01*
X103166666Y-24817243D02*
X103200000Y-24912481D01*
X103200000Y-24912481D02*
X103266666Y-25007720D01*
X103266666Y-25007720D02*
X103366666Y-25055339D01*
X103366666Y-25055339D02*
X103433333Y-25055339D01*
X103433333Y-25055339D02*
X103533333Y-25007720D01*
X103533333Y-25007720D02*
X103566666Y-24960100D01*
X103566666Y-24960100D02*
X103566666Y-24626767D01*
X103566666Y-24626767D02*
X103433333Y-24626767D01*
X103866666Y-25055339D02*
X103866666Y-24055339D01*
X103866666Y-24055339D02*
X104266666Y-25055339D01*
X104266666Y-25055339D02*
X104266666Y-24055339D01*
X104566666Y-24769624D02*
X104899999Y-24769624D01*
X104499999Y-25055339D02*
X104733333Y-24055339D01*
X104733333Y-24055339D02*
X104966666Y-25055339D01*
X105533333Y-25055339D02*
X105199999Y-25055339D01*
X105199999Y-25055339D02*
X105199999Y-24055339D01*
D10*
X149954299Y-91916666D02*
X148954299Y-91916666D01*
X148954299Y-91916666D02*
X148954299Y-91649999D01*
X148954299Y-91649999D02*
X149001918Y-91583333D01*
X149001918Y-91583333D02*
X149049537Y-91549999D01*
X149049537Y-91549999D02*
X149144775Y-91516666D01*
X149144775Y-91516666D02*
X149287632Y-91516666D01*
X149287632Y-91516666D02*
X149382870Y-91549999D01*
X149382870Y-91549999D02*
X149430489Y-91583333D01*
X149430489Y-91583333D02*
X149478108Y-91649999D01*
X149478108Y-91649999D02*
X149478108Y-91916666D01*
X149668584Y-91249999D02*
X149668584Y-90916666D01*
X149954299Y-91316666D02*
X148954299Y-91083333D01*
X148954299Y-91083333D02*
X149954299Y-90849999D01*
X148954299Y-90316666D02*
X148954299Y-90449999D01*
X148954299Y-90449999D02*
X149001918Y-90516666D01*
X149001918Y-90516666D02*
X149049537Y-90549999D01*
X149049537Y-90549999D02*
X149192394Y-90616666D01*
X149192394Y-90616666D02*
X149382870Y-90649999D01*
X149382870Y-90649999D02*
X149763822Y-90649999D01*
X149763822Y-90649999D02*
X149859060Y-90616666D01*
X149859060Y-90616666D02*
X149906680Y-90583333D01*
X149906680Y-90583333D02*
X149954299Y-90516666D01*
X149954299Y-90516666D02*
X149954299Y-90383333D01*
X149954299Y-90383333D02*
X149906680Y-90316666D01*
X149906680Y-90316666D02*
X149859060Y-90283333D01*
X149859060Y-90283333D02*
X149763822Y-90249999D01*
X149763822Y-90249999D02*
X149525727Y-90249999D01*
X149525727Y-90249999D02*
X149430489Y-90283333D01*
X149430489Y-90283333D02*
X149382870Y-90316666D01*
X149382870Y-90316666D02*
X149335251Y-90383333D01*
X149335251Y-90383333D02*
X149335251Y-90516666D01*
X149335251Y-90516666D02*
X149382870Y-90583333D01*
X149382870Y-90583333D02*
X149430489Y-90616666D01*
X149430489Y-90616666D02*
X149525727Y-90649999D01*
X161650000Y-70454299D02*
X162050000Y-70454299D01*
X161850000Y-71454299D02*
X161850000Y-70454299D01*
X162283333Y-71454299D02*
X162283333Y-70454299D01*
X162283333Y-70454299D02*
X162550000Y-70454299D01*
X162550000Y-70454299D02*
X162616667Y-70501918D01*
X162616667Y-70501918D02*
X162650000Y-70549537D01*
X162650000Y-70549537D02*
X162683333Y-70644775D01*
X162683333Y-70644775D02*
X162683333Y-70787632D01*
X162683333Y-70787632D02*
X162650000Y-70882870D01*
X162650000Y-70882870D02*
X162616667Y-70930489D01*
X162616667Y-70930489D02*
X162550000Y-70978108D01*
X162550000Y-70978108D02*
X162283333Y-70978108D01*
X162816667Y-71549537D02*
X163350000Y-71549537D01*
X163450000Y-70454299D02*
X163883333Y-70454299D01*
X163883333Y-70454299D02*
X163650000Y-70835251D01*
X163650000Y-70835251D02*
X163750000Y-70835251D01*
X163750000Y-70835251D02*
X163816666Y-70882870D01*
X163816666Y-70882870D02*
X163850000Y-70930489D01*
X163850000Y-70930489D02*
X163883333Y-71025727D01*
X163883333Y-71025727D02*
X163883333Y-71263822D01*
X163883333Y-71263822D02*
X163850000Y-71359060D01*
X163850000Y-71359060D02*
X163816666Y-71406680D01*
X163816666Y-71406680D02*
X163750000Y-71454299D01*
X163750000Y-71454299D02*
X163550000Y-71454299D01*
X163550000Y-71454299D02*
X163483333Y-71406680D01*
X163483333Y-71406680D02*
X163450000Y-71359060D01*
X164183333Y-71359060D02*
X164216667Y-71406680D01*
X164216667Y-71406680D02*
X164183333Y-71454299D01*
X164183333Y-71454299D02*
X164150000Y-71406680D01*
X164150000Y-71406680D02*
X164183333Y-71359060D01*
X164183333Y-71359060D02*
X164183333Y-71454299D01*
X164450000Y-70454299D02*
X164883333Y-70454299D01*
X164883333Y-70454299D02*
X164650000Y-70835251D01*
X164650000Y-70835251D02*
X164750000Y-70835251D01*
X164750000Y-70835251D02*
X164816666Y-70882870D01*
X164816666Y-70882870D02*
X164850000Y-70930489D01*
X164850000Y-70930489D02*
X164883333Y-71025727D01*
X164883333Y-71025727D02*
X164883333Y-71263822D01*
X164883333Y-71263822D02*
X164850000Y-71359060D01*
X164850000Y-71359060D02*
X164816666Y-71406680D01*
X164816666Y-71406680D02*
X164750000Y-71454299D01*
X164750000Y-71454299D02*
X164550000Y-71454299D01*
X164550000Y-71454299D02*
X164483333Y-71406680D01*
X164483333Y-71406680D02*
X164450000Y-71359060D01*
X165083333Y-70454299D02*
X165316667Y-71454299D01*
X165316667Y-71454299D02*
X165550000Y-70454299D01*
X139501918Y-24433332D02*
X139454299Y-24499999D01*
X139454299Y-24499999D02*
X139454299Y-24599999D01*
X139454299Y-24599999D02*
X139501918Y-24699999D01*
X139501918Y-24699999D02*
X139597156Y-24766666D01*
X139597156Y-24766666D02*
X139692394Y-24799999D01*
X139692394Y-24799999D02*
X139882870Y-24833332D01*
X139882870Y-24833332D02*
X140025727Y-24833332D01*
X140025727Y-24833332D02*
X140216203Y-24799999D01*
X140216203Y-24799999D02*
X140311441Y-24766666D01*
X140311441Y-24766666D02*
X140406680Y-24699999D01*
X140406680Y-24699999D02*
X140454299Y-24599999D01*
X140454299Y-24599999D02*
X140454299Y-24533332D01*
X140454299Y-24533332D02*
X140406680Y-24433332D01*
X140406680Y-24433332D02*
X140359060Y-24399999D01*
X140359060Y-24399999D02*
X140025727Y-24399999D01*
X140025727Y-24399999D02*
X140025727Y-24533332D01*
X140454299Y-24099999D02*
X139454299Y-24099999D01*
X139454299Y-24099999D02*
X140454299Y-23699999D01*
X140454299Y-23699999D02*
X139454299Y-23699999D01*
X140454299Y-23366666D02*
X139454299Y-23366666D01*
X139454299Y-23366666D02*
X139454299Y-23199999D01*
X139454299Y-23199999D02*
X139501918Y-23099999D01*
X139501918Y-23099999D02*
X139597156Y-23033333D01*
X139597156Y-23033333D02*
X139692394Y-22999999D01*
X139692394Y-22999999D02*
X139882870Y-22966666D01*
X139882870Y-22966666D02*
X140025727Y-22966666D01*
X140025727Y-22966666D02*
X140216203Y-22999999D01*
X140216203Y-22999999D02*
X140311441Y-23033333D01*
X140311441Y-23033333D02*
X140406680Y-23099999D01*
X140406680Y-23099999D02*
X140454299Y-23199999D01*
X140454299Y-23199999D02*
X140454299Y-23366666D01*
X165154299Y-91949999D02*
X164154299Y-91949999D01*
X164154299Y-91949999D02*
X164154299Y-91683332D01*
X164154299Y-91683332D02*
X164201918Y-91616666D01*
X164201918Y-91616666D02*
X164249537Y-91583332D01*
X164249537Y-91583332D02*
X164344775Y-91549999D01*
X164344775Y-91549999D02*
X164487632Y-91549999D01*
X164487632Y-91549999D02*
X164582870Y-91583332D01*
X164582870Y-91583332D02*
X164630489Y-91616666D01*
X164630489Y-91616666D02*
X164678108Y-91683332D01*
X164678108Y-91683332D02*
X164678108Y-91949999D01*
X164630489Y-91249999D02*
X164630489Y-91016666D01*
X165154299Y-90916666D02*
X165154299Y-91249999D01*
X165154299Y-91249999D02*
X164154299Y-91249999D01*
X164154299Y-91249999D02*
X164154299Y-90916666D01*
X164582870Y-90516666D02*
X164535251Y-90583333D01*
X164535251Y-90583333D02*
X164487632Y-90616666D01*
X164487632Y-90616666D02*
X164392394Y-90649999D01*
X164392394Y-90649999D02*
X164344775Y-90649999D01*
X164344775Y-90649999D02*
X164249537Y-90616666D01*
X164249537Y-90616666D02*
X164201918Y-90583333D01*
X164201918Y-90583333D02*
X164154299Y-90516666D01*
X164154299Y-90516666D02*
X164154299Y-90383333D01*
X164154299Y-90383333D02*
X164201918Y-90316666D01*
X164201918Y-90316666D02*
X164249537Y-90283333D01*
X164249537Y-90283333D02*
X164344775Y-90249999D01*
X164344775Y-90249999D02*
X164392394Y-90249999D01*
X164392394Y-90249999D02*
X164487632Y-90283333D01*
X164487632Y-90283333D02*
X164535251Y-90316666D01*
X164535251Y-90316666D02*
X164582870Y-90383333D01*
X164582870Y-90383333D02*
X164582870Y-90516666D01*
X164582870Y-90516666D02*
X164630489Y-90583333D01*
X164630489Y-90583333D02*
X164678108Y-90616666D01*
X164678108Y-90616666D02*
X164773346Y-90649999D01*
X164773346Y-90649999D02*
X164963822Y-90649999D01*
X164963822Y-90649999D02*
X165059060Y-90616666D01*
X165059060Y-90616666D02*
X165106680Y-90583333D01*
X165106680Y-90583333D02*
X165154299Y-90516666D01*
X165154299Y-90516666D02*
X165154299Y-90383333D01*
X165154299Y-90383333D02*
X165106680Y-90316666D01*
X165106680Y-90316666D02*
X165059060Y-90283333D01*
X165059060Y-90283333D02*
X164963822Y-90249999D01*
X164963822Y-90249999D02*
X164773346Y-90249999D01*
X164773346Y-90249999D02*
X164678108Y-90283333D01*
X164678108Y-90283333D02*
X164630489Y-90316666D01*
X164630489Y-90316666D02*
X164582870Y-90383333D01*
D12*
X102033333Y-48607720D02*
X102133333Y-48655339D01*
X102133333Y-48655339D02*
X102300000Y-48655339D01*
X102300000Y-48655339D02*
X102366666Y-48607720D01*
X102366666Y-48607720D02*
X102400000Y-48560100D01*
X102400000Y-48560100D02*
X102433333Y-48464862D01*
X102433333Y-48464862D02*
X102433333Y-48369624D01*
X102433333Y-48369624D02*
X102400000Y-48274386D01*
X102400000Y-48274386D02*
X102366666Y-48226767D01*
X102366666Y-48226767D02*
X102300000Y-48179148D01*
X102300000Y-48179148D02*
X102166666Y-48131529D01*
X102166666Y-48131529D02*
X102100000Y-48083910D01*
X102100000Y-48083910D02*
X102066666Y-48036291D01*
X102066666Y-48036291D02*
X102033333Y-47941053D01*
X102033333Y-47941053D02*
X102033333Y-47845815D01*
X102033333Y-47845815D02*
X102066666Y-47750577D01*
X102066666Y-47750577D02*
X102100000Y-47702958D01*
X102100000Y-47702958D02*
X102166666Y-47655339D01*
X102166666Y-47655339D02*
X102333333Y-47655339D01*
X102333333Y-47655339D02*
X102433333Y-47702958D01*
X102733333Y-48655339D02*
X102733333Y-47655339D01*
X103433333Y-47702958D02*
X103366666Y-47655339D01*
X103366666Y-47655339D02*
X103266666Y-47655339D01*
X103266666Y-47655339D02*
X103166666Y-47702958D01*
X103166666Y-47702958D02*
X103100000Y-47798196D01*
X103100000Y-47798196D02*
X103066666Y-47893434D01*
X103066666Y-47893434D02*
X103033333Y-48083910D01*
X103033333Y-48083910D02*
X103033333Y-48226767D01*
X103033333Y-48226767D02*
X103066666Y-48417243D01*
X103066666Y-48417243D02*
X103100000Y-48512481D01*
X103100000Y-48512481D02*
X103166666Y-48607720D01*
X103166666Y-48607720D02*
X103266666Y-48655339D01*
X103266666Y-48655339D02*
X103333333Y-48655339D01*
X103333333Y-48655339D02*
X103433333Y-48607720D01*
X103433333Y-48607720D02*
X103466666Y-48560100D01*
X103466666Y-48560100D02*
X103466666Y-48226767D01*
X103466666Y-48226767D02*
X103333333Y-48226767D01*
X103766666Y-48655339D02*
X103766666Y-47655339D01*
X103766666Y-47655339D02*
X104166666Y-48655339D01*
X104166666Y-48655339D02*
X104166666Y-47655339D01*
X104466666Y-48369624D02*
X104799999Y-48369624D01*
X104399999Y-48655339D02*
X104633333Y-47655339D01*
X104633333Y-47655339D02*
X104866666Y-48655339D01*
X105433333Y-48655339D02*
X105099999Y-48655339D01*
X105099999Y-48655339D02*
X105099999Y-47655339D01*
D10*
X168354299Y-53899999D02*
X168354299Y-53499999D01*
X169354299Y-53699999D02*
X168354299Y-53699999D01*
X168354299Y-53333333D02*
X169354299Y-52866666D01*
X168354299Y-52866666D02*
X169354299Y-53333333D01*
X145554299Y-24799999D02*
X144554299Y-24799999D01*
X144554299Y-24799999D02*
X144554299Y-24533332D01*
X144554299Y-24533332D02*
X144601918Y-24466666D01*
X144601918Y-24466666D02*
X144649537Y-24433332D01*
X144649537Y-24433332D02*
X144744775Y-24399999D01*
X144744775Y-24399999D02*
X144887632Y-24399999D01*
X144887632Y-24399999D02*
X144982870Y-24433332D01*
X144982870Y-24433332D02*
X145030489Y-24466666D01*
X145030489Y-24466666D02*
X145078108Y-24533332D01*
X145078108Y-24533332D02*
X145078108Y-24799999D01*
X145030489Y-23866666D02*
X145078108Y-23766666D01*
X145078108Y-23766666D02*
X145125727Y-23733332D01*
X145125727Y-23733332D02*
X145220965Y-23699999D01*
X145220965Y-23699999D02*
X145363822Y-23699999D01*
X145363822Y-23699999D02*
X145459060Y-23733332D01*
X145459060Y-23733332D02*
X145506680Y-23766666D01*
X145506680Y-23766666D02*
X145554299Y-23833332D01*
X145554299Y-23833332D02*
X145554299Y-24099999D01*
X145554299Y-24099999D02*
X144554299Y-24099999D01*
X144554299Y-24099999D02*
X144554299Y-23866666D01*
X144554299Y-23866666D02*
X144601918Y-23799999D01*
X144601918Y-23799999D02*
X144649537Y-23766666D01*
X144649537Y-23766666D02*
X144744775Y-23733332D01*
X144744775Y-23733332D02*
X144840013Y-23733332D01*
X144840013Y-23733332D02*
X144935251Y-23766666D01*
X144935251Y-23766666D02*
X144982870Y-23799999D01*
X144982870Y-23799999D02*
X145030489Y-23866666D01*
X145030489Y-23866666D02*
X145030489Y-24099999D01*
X144887632Y-23099999D02*
X145554299Y-23099999D01*
X144506680Y-23266666D02*
X145220965Y-23433332D01*
X145220965Y-23433332D02*
X145220965Y-22999999D01*
X162654299Y-91949999D02*
X161654299Y-91949999D01*
X161654299Y-91949999D02*
X161654299Y-91683332D01*
X161654299Y-91683332D02*
X161701918Y-91616666D01*
X161701918Y-91616666D02*
X161749537Y-91583332D01*
X161749537Y-91583332D02*
X161844775Y-91549999D01*
X161844775Y-91549999D02*
X161987632Y-91549999D01*
X161987632Y-91549999D02*
X162082870Y-91583332D01*
X162082870Y-91583332D02*
X162130489Y-91616666D01*
X162130489Y-91616666D02*
X162178108Y-91683332D01*
X162178108Y-91683332D02*
X162178108Y-91949999D01*
X162130489Y-91249999D02*
X162130489Y-91016666D01*
X162654299Y-90916666D02*
X162654299Y-91249999D01*
X162654299Y-91249999D02*
X161654299Y-91249999D01*
X161654299Y-91249999D02*
X161654299Y-90916666D01*
X161654299Y-90683333D02*
X161654299Y-90216666D01*
X161654299Y-90216666D02*
X162654299Y-90516666D01*
X177133333Y-45254299D02*
X177533333Y-45254299D01*
X177333333Y-46254299D02*
X177333333Y-45254299D01*
X177766666Y-46254299D02*
X177766666Y-45254299D01*
X177766666Y-45254299D02*
X178033333Y-45254299D01*
X178033333Y-45254299D02*
X178100000Y-45301918D01*
X178100000Y-45301918D02*
X178133333Y-45349537D01*
X178133333Y-45349537D02*
X178166666Y-45444775D01*
X178166666Y-45444775D02*
X178166666Y-45587632D01*
X178166666Y-45587632D02*
X178133333Y-45682870D01*
X178133333Y-45682870D02*
X178100000Y-45730489D01*
X178100000Y-45730489D02*
X178033333Y-45778108D01*
X178033333Y-45778108D02*
X177766666Y-45778108D01*
X178300000Y-46349537D02*
X178833333Y-46349537D01*
X178899999Y-45254299D02*
X179133333Y-46254299D01*
X179133333Y-46254299D02*
X179366666Y-45254299D01*
X179833333Y-45730489D02*
X179933333Y-45778108D01*
X179933333Y-45778108D02*
X179966666Y-45825727D01*
X179966666Y-45825727D02*
X179999999Y-45920965D01*
X179999999Y-45920965D02*
X179999999Y-46063822D01*
X179999999Y-46063822D02*
X179966666Y-46159060D01*
X179966666Y-46159060D02*
X179933333Y-46206680D01*
X179933333Y-46206680D02*
X179866666Y-46254299D01*
X179866666Y-46254299D02*
X179599999Y-46254299D01*
X179599999Y-46254299D02*
X179599999Y-45254299D01*
X179599999Y-45254299D02*
X179833333Y-45254299D01*
X179833333Y-45254299D02*
X179899999Y-45301918D01*
X179899999Y-45301918D02*
X179933333Y-45349537D01*
X179933333Y-45349537D02*
X179966666Y-45444775D01*
X179966666Y-45444775D02*
X179966666Y-45540013D01*
X179966666Y-45540013D02*
X179933333Y-45635251D01*
X179933333Y-45635251D02*
X179899999Y-45682870D01*
X179899999Y-45682870D02*
X179833333Y-45730489D01*
X179833333Y-45730489D02*
X179599999Y-45730489D01*
X180299999Y-45254299D02*
X180299999Y-46063822D01*
X180299999Y-46063822D02*
X180333333Y-46159060D01*
X180333333Y-46159060D02*
X180366666Y-46206680D01*
X180366666Y-46206680D02*
X180433333Y-46254299D01*
X180433333Y-46254299D02*
X180566666Y-46254299D01*
X180566666Y-46254299D02*
X180633333Y-46206680D01*
X180633333Y-46206680D02*
X180666666Y-46159060D01*
X180666666Y-46159060D02*
X180699999Y-46063822D01*
X180699999Y-46063822D02*
X180699999Y-45254299D01*
X180999999Y-46206680D02*
X181099999Y-46254299D01*
X181099999Y-46254299D02*
X181266666Y-46254299D01*
X181266666Y-46254299D02*
X181333332Y-46206680D01*
X181333332Y-46206680D02*
X181366666Y-46159060D01*
X181366666Y-46159060D02*
X181399999Y-46063822D01*
X181399999Y-46063822D02*
X181399999Y-45968584D01*
X181399999Y-45968584D02*
X181366666Y-45873346D01*
X181366666Y-45873346D02*
X181333332Y-45825727D01*
X181333332Y-45825727D02*
X181266666Y-45778108D01*
X181266666Y-45778108D02*
X181133332Y-45730489D01*
X181133332Y-45730489D02*
X181066666Y-45682870D01*
X181066666Y-45682870D02*
X181033332Y-45635251D01*
X181033332Y-45635251D02*
X180999999Y-45540013D01*
X180999999Y-45540013D02*
X180999999Y-45444775D01*
X180999999Y-45444775D02*
X181033332Y-45349537D01*
X181033332Y-45349537D02*
X181066666Y-45301918D01*
X181066666Y-45301918D02*
X181133332Y-45254299D01*
X181133332Y-45254299D02*
X181299999Y-45254299D01*
X181299999Y-45254299D02*
X181399999Y-45301918D01*
X149654299Y-24866666D02*
X149654299Y-24433332D01*
X149654299Y-24433332D02*
X150035251Y-24666666D01*
X150035251Y-24666666D02*
X150035251Y-24566666D01*
X150035251Y-24566666D02*
X150082870Y-24499999D01*
X150082870Y-24499999D02*
X150130489Y-24466666D01*
X150130489Y-24466666D02*
X150225727Y-24433332D01*
X150225727Y-24433332D02*
X150463822Y-24433332D01*
X150463822Y-24433332D02*
X150559060Y-24466666D01*
X150559060Y-24466666D02*
X150606680Y-24499999D01*
X150606680Y-24499999D02*
X150654299Y-24566666D01*
X150654299Y-24566666D02*
X150654299Y-24766666D01*
X150654299Y-24766666D02*
X150606680Y-24833332D01*
X150606680Y-24833332D02*
X150559060Y-24866666D01*
X149654299Y-24233332D02*
X150654299Y-23999999D01*
X150654299Y-23999999D02*
X149654299Y-23766665D01*
X149654299Y-23599999D02*
X149654299Y-23166665D01*
X149654299Y-23166665D02*
X150035251Y-23399999D01*
X150035251Y-23399999D02*
X150035251Y-23299999D01*
X150035251Y-23299999D02*
X150082870Y-23233332D01*
X150082870Y-23233332D02*
X150130489Y-23199999D01*
X150130489Y-23199999D02*
X150225727Y-23166665D01*
X150225727Y-23166665D02*
X150463822Y-23166665D01*
X150463822Y-23166665D02*
X150559060Y-23199999D01*
X150559060Y-23199999D02*
X150606680Y-23233332D01*
X150606680Y-23233332D02*
X150654299Y-23299999D01*
X150654299Y-23299999D02*
X150654299Y-23499999D01*
X150654299Y-23499999D02*
X150606680Y-23566665D01*
X150606680Y-23566665D02*
X150559060Y-23599999D01*
X142954299Y-24799999D02*
X141954299Y-24799999D01*
X141954299Y-24799999D02*
X141954299Y-24533332D01*
X141954299Y-24533332D02*
X142001918Y-24466666D01*
X142001918Y-24466666D02*
X142049537Y-24433332D01*
X142049537Y-24433332D02*
X142144775Y-24399999D01*
X142144775Y-24399999D02*
X142287632Y-24399999D01*
X142287632Y-24399999D02*
X142382870Y-24433332D01*
X142382870Y-24433332D02*
X142430489Y-24466666D01*
X142430489Y-24466666D02*
X142478108Y-24533332D01*
X142478108Y-24533332D02*
X142478108Y-24799999D01*
X142430489Y-23866666D02*
X142478108Y-23766666D01*
X142478108Y-23766666D02*
X142525727Y-23733332D01*
X142525727Y-23733332D02*
X142620965Y-23699999D01*
X142620965Y-23699999D02*
X142763822Y-23699999D01*
X142763822Y-23699999D02*
X142859060Y-23733332D01*
X142859060Y-23733332D02*
X142906680Y-23766666D01*
X142906680Y-23766666D02*
X142954299Y-23833332D01*
X142954299Y-23833332D02*
X142954299Y-24099999D01*
X142954299Y-24099999D02*
X141954299Y-24099999D01*
X141954299Y-24099999D02*
X141954299Y-23866666D01*
X141954299Y-23866666D02*
X142001918Y-23799999D01*
X142001918Y-23799999D02*
X142049537Y-23766666D01*
X142049537Y-23766666D02*
X142144775Y-23733332D01*
X142144775Y-23733332D02*
X142240013Y-23733332D01*
X142240013Y-23733332D02*
X142335251Y-23766666D01*
X142335251Y-23766666D02*
X142382870Y-23799999D01*
X142382870Y-23799999D02*
X142430489Y-23866666D01*
X142430489Y-23866666D02*
X142430489Y-24099999D01*
X141954299Y-23466666D02*
X141954299Y-23033332D01*
X141954299Y-23033332D02*
X142335251Y-23266666D01*
X142335251Y-23266666D02*
X142335251Y-23166666D01*
X142335251Y-23166666D02*
X142382870Y-23099999D01*
X142382870Y-23099999D02*
X142430489Y-23066666D01*
X142430489Y-23066666D02*
X142525727Y-23033332D01*
X142525727Y-23033332D02*
X142763822Y-23033332D01*
X142763822Y-23033332D02*
X142859060Y-23066666D01*
X142859060Y-23066666D02*
X142906680Y-23099999D01*
X142906680Y-23099999D02*
X142954299Y-23166666D01*
X142954299Y-23166666D02*
X142954299Y-23366666D01*
X142954299Y-23366666D02*
X142906680Y-23433332D01*
X142906680Y-23433332D02*
X142859060Y-23466666D01*
X40150000Y-28154299D02*
X40550000Y-28154299D01*
X40350000Y-29154299D02*
X40350000Y-28154299D01*
X40783333Y-29154299D02*
X40783333Y-28154299D01*
X40783333Y-28154299D02*
X41050000Y-28154299D01*
X41050000Y-28154299D02*
X41116667Y-28201918D01*
X41116667Y-28201918D02*
X41150000Y-28249537D01*
X41150000Y-28249537D02*
X41183333Y-28344775D01*
X41183333Y-28344775D02*
X41183333Y-28487632D01*
X41183333Y-28487632D02*
X41150000Y-28582870D01*
X41150000Y-28582870D02*
X41116667Y-28630489D01*
X41116667Y-28630489D02*
X41050000Y-28678108D01*
X41050000Y-28678108D02*
X40783333Y-28678108D01*
X41316667Y-29249537D02*
X41850000Y-29249537D01*
X41950000Y-28154299D02*
X42383333Y-28154299D01*
X42383333Y-28154299D02*
X42150000Y-28535251D01*
X42150000Y-28535251D02*
X42250000Y-28535251D01*
X42250000Y-28535251D02*
X42316666Y-28582870D01*
X42316666Y-28582870D02*
X42350000Y-28630489D01*
X42350000Y-28630489D02*
X42383333Y-28725727D01*
X42383333Y-28725727D02*
X42383333Y-28963822D01*
X42383333Y-28963822D02*
X42350000Y-29059060D01*
X42350000Y-29059060D02*
X42316666Y-29106680D01*
X42316666Y-29106680D02*
X42250000Y-29154299D01*
X42250000Y-29154299D02*
X42050000Y-29154299D01*
X42050000Y-29154299D02*
X41983333Y-29106680D01*
X41983333Y-29106680D02*
X41950000Y-29059060D01*
X42683333Y-29059060D02*
X42716667Y-29106680D01*
X42716667Y-29106680D02*
X42683333Y-29154299D01*
X42683333Y-29154299D02*
X42650000Y-29106680D01*
X42650000Y-29106680D02*
X42683333Y-29059060D01*
X42683333Y-29059060D02*
X42683333Y-29154299D01*
X42950000Y-28154299D02*
X43383333Y-28154299D01*
X43383333Y-28154299D02*
X43150000Y-28535251D01*
X43150000Y-28535251D02*
X43250000Y-28535251D01*
X43250000Y-28535251D02*
X43316666Y-28582870D01*
X43316666Y-28582870D02*
X43350000Y-28630489D01*
X43350000Y-28630489D02*
X43383333Y-28725727D01*
X43383333Y-28725727D02*
X43383333Y-28963822D01*
X43383333Y-28963822D02*
X43350000Y-29059060D01*
X43350000Y-29059060D02*
X43316666Y-29106680D01*
X43316666Y-29106680D02*
X43250000Y-29154299D01*
X43250000Y-29154299D02*
X43050000Y-29154299D01*
X43050000Y-29154299D02*
X42983333Y-29106680D01*
X42983333Y-29106680D02*
X42950000Y-29059060D01*
X43583333Y-28154299D02*
X43816667Y-29154299D01*
X43816667Y-29154299D02*
X44050000Y-28154299D01*
X44250000Y-28868584D02*
X44583333Y-28868584D01*
X44183333Y-29154299D02*
X44416667Y-28154299D01*
X44416667Y-28154299D02*
X44650000Y-29154299D01*
X119716667Y-63154299D02*
X120116667Y-63154299D01*
X119916667Y-64154299D02*
X119916667Y-63154299D01*
X120350000Y-64154299D02*
X120350000Y-63154299D01*
X120350000Y-63154299D02*
X120616667Y-63154299D01*
X120616667Y-63154299D02*
X120683334Y-63201918D01*
X120683334Y-63201918D02*
X120716667Y-63249537D01*
X120716667Y-63249537D02*
X120750000Y-63344775D01*
X120750000Y-63344775D02*
X120750000Y-63487632D01*
X120750000Y-63487632D02*
X120716667Y-63582870D01*
X120716667Y-63582870D02*
X120683334Y-63630489D01*
X120683334Y-63630489D02*
X120616667Y-63678108D01*
X120616667Y-63678108D02*
X120350000Y-63678108D01*
X120883334Y-64249537D02*
X121416667Y-64249537D01*
X121950000Y-63201918D02*
X121883333Y-63154299D01*
X121883333Y-63154299D02*
X121783333Y-63154299D01*
X121783333Y-63154299D02*
X121683333Y-63201918D01*
X121683333Y-63201918D02*
X121616667Y-63297156D01*
X121616667Y-63297156D02*
X121583333Y-63392394D01*
X121583333Y-63392394D02*
X121550000Y-63582870D01*
X121550000Y-63582870D02*
X121550000Y-63725727D01*
X121550000Y-63725727D02*
X121583333Y-63916203D01*
X121583333Y-63916203D02*
X121616667Y-64011441D01*
X121616667Y-64011441D02*
X121683333Y-64106680D01*
X121683333Y-64106680D02*
X121783333Y-64154299D01*
X121783333Y-64154299D02*
X121850000Y-64154299D01*
X121850000Y-64154299D02*
X121950000Y-64106680D01*
X121950000Y-64106680D02*
X121983333Y-64059060D01*
X121983333Y-64059060D02*
X121983333Y-63725727D01*
X121983333Y-63725727D02*
X121850000Y-63725727D01*
X122283333Y-64154299D02*
X122283333Y-63154299D01*
X122283333Y-63154299D02*
X122683333Y-64154299D01*
X122683333Y-64154299D02*
X122683333Y-63154299D01*
X123016666Y-64154299D02*
X123016666Y-63154299D01*
X123016666Y-63154299D02*
X123183333Y-63154299D01*
X123183333Y-63154299D02*
X123283333Y-63201918D01*
X123283333Y-63201918D02*
X123350000Y-63297156D01*
X123350000Y-63297156D02*
X123383333Y-63392394D01*
X123383333Y-63392394D02*
X123416666Y-63582870D01*
X123416666Y-63582870D02*
X123416666Y-63725727D01*
X123416666Y-63725727D02*
X123383333Y-63916203D01*
X123383333Y-63916203D02*
X123350000Y-64011441D01*
X123350000Y-64011441D02*
X123283333Y-64106680D01*
X123283333Y-64106680D02*
X123183333Y-64154299D01*
X123183333Y-64154299D02*
X123016666Y-64154299D01*
X141354299Y-91950000D02*
X141354299Y-91516666D01*
X141354299Y-91516666D02*
X141735251Y-91750000D01*
X141735251Y-91750000D02*
X141735251Y-91650000D01*
X141735251Y-91650000D02*
X141782870Y-91583333D01*
X141782870Y-91583333D02*
X141830489Y-91550000D01*
X141830489Y-91550000D02*
X141925727Y-91516666D01*
X141925727Y-91516666D02*
X142163822Y-91516666D01*
X142163822Y-91516666D02*
X142259060Y-91550000D01*
X142259060Y-91550000D02*
X142306680Y-91583333D01*
X142306680Y-91583333D02*
X142354299Y-91650000D01*
X142354299Y-91650000D02*
X142354299Y-91850000D01*
X142354299Y-91850000D02*
X142306680Y-91916666D01*
X142306680Y-91916666D02*
X142259060Y-91950000D01*
X141354299Y-91316666D02*
X142354299Y-91083333D01*
X142354299Y-91083333D02*
X141354299Y-90849999D01*
X141354299Y-90683333D02*
X141354299Y-90249999D01*
X141354299Y-90249999D02*
X141735251Y-90483333D01*
X141735251Y-90483333D02*
X141735251Y-90383333D01*
X141735251Y-90383333D02*
X141782870Y-90316666D01*
X141782870Y-90316666D02*
X141830489Y-90283333D01*
X141830489Y-90283333D02*
X141925727Y-90249999D01*
X141925727Y-90249999D02*
X142163822Y-90249999D01*
X142163822Y-90249999D02*
X142259060Y-90283333D01*
X142259060Y-90283333D02*
X142306680Y-90316666D01*
X142306680Y-90316666D02*
X142354299Y-90383333D01*
X142354299Y-90383333D02*
X142354299Y-90583333D01*
X142354299Y-90583333D02*
X142306680Y-90649999D01*
X142306680Y-90649999D02*
X142259060Y-90683333D01*
X20473346Y-40228070D02*
X20473346Y-39694737D01*
X181954299Y-91950000D02*
X181954299Y-91516666D01*
X181954299Y-91516666D02*
X182335251Y-91750000D01*
X182335251Y-91750000D02*
X182335251Y-91650000D01*
X182335251Y-91650000D02*
X182382870Y-91583333D01*
X182382870Y-91583333D02*
X182430489Y-91550000D01*
X182430489Y-91550000D02*
X182525727Y-91516666D01*
X182525727Y-91516666D02*
X182763822Y-91516666D01*
X182763822Y-91516666D02*
X182859060Y-91550000D01*
X182859060Y-91550000D02*
X182906680Y-91583333D01*
X182906680Y-91583333D02*
X182954299Y-91650000D01*
X182954299Y-91650000D02*
X182954299Y-91850000D01*
X182954299Y-91850000D02*
X182906680Y-91916666D01*
X182906680Y-91916666D02*
X182859060Y-91950000D01*
X181954299Y-91316666D02*
X182954299Y-91083333D01*
X182954299Y-91083333D02*
X181954299Y-90849999D01*
X181954299Y-90683333D02*
X181954299Y-90249999D01*
X181954299Y-90249999D02*
X182335251Y-90483333D01*
X182335251Y-90483333D02*
X182335251Y-90383333D01*
X182335251Y-90383333D02*
X182382870Y-90316666D01*
X182382870Y-90316666D02*
X182430489Y-90283333D01*
X182430489Y-90283333D02*
X182525727Y-90249999D01*
X182525727Y-90249999D02*
X182763822Y-90249999D01*
X182763822Y-90249999D02*
X182859060Y-90283333D01*
X182859060Y-90283333D02*
X182906680Y-90316666D01*
X182906680Y-90316666D02*
X182954299Y-90383333D01*
X182954299Y-90383333D02*
X182954299Y-90583333D01*
X182954299Y-90583333D02*
X182906680Y-90649999D01*
X182906680Y-90649999D02*
X182859060Y-90683333D01*
X163354299Y-24866666D02*
X162354299Y-24866666D01*
X162354299Y-24866666D02*
X162354299Y-24599999D01*
X162354299Y-24599999D02*
X162401918Y-24533333D01*
X162401918Y-24533333D02*
X162449537Y-24499999D01*
X162449537Y-24499999D02*
X162544775Y-24466666D01*
X162544775Y-24466666D02*
X162687632Y-24466666D01*
X162687632Y-24466666D02*
X162782870Y-24499999D01*
X162782870Y-24499999D02*
X162830489Y-24533333D01*
X162830489Y-24533333D02*
X162878108Y-24599999D01*
X162878108Y-24599999D02*
X162878108Y-24866666D01*
X163354299Y-24166666D02*
X162354299Y-24166666D01*
X162354299Y-24166666D02*
X162354299Y-23999999D01*
X162354299Y-23999999D02*
X162401918Y-23899999D01*
X162401918Y-23899999D02*
X162497156Y-23833333D01*
X162497156Y-23833333D02*
X162592394Y-23799999D01*
X162592394Y-23799999D02*
X162782870Y-23766666D01*
X162782870Y-23766666D02*
X162925727Y-23766666D01*
X162925727Y-23766666D02*
X163116203Y-23799999D01*
X163116203Y-23799999D02*
X163211441Y-23833333D01*
X163211441Y-23833333D02*
X163306680Y-23899999D01*
X163306680Y-23899999D02*
X163354299Y-23999999D01*
X163354299Y-23999999D02*
X163354299Y-24166666D01*
X162449537Y-23499999D02*
X162401918Y-23466666D01*
X162401918Y-23466666D02*
X162354299Y-23399999D01*
X162354299Y-23399999D02*
X162354299Y-23233333D01*
X162354299Y-23233333D02*
X162401918Y-23166666D01*
X162401918Y-23166666D02*
X162449537Y-23133333D01*
X162449537Y-23133333D02*
X162544775Y-23099999D01*
X162544775Y-23099999D02*
X162640013Y-23099999D01*
X162640013Y-23099999D02*
X162782870Y-23133333D01*
X162782870Y-23133333D02*
X163354299Y-23533333D01*
X163354299Y-23533333D02*
X163354299Y-23099999D01*
X158254299Y-24799999D02*
X157254299Y-24799999D01*
X157254299Y-24799999D02*
X157254299Y-24533332D01*
X157254299Y-24533332D02*
X157301918Y-24466666D01*
X157301918Y-24466666D02*
X157349537Y-24433332D01*
X157349537Y-24433332D02*
X157444775Y-24399999D01*
X157444775Y-24399999D02*
X157587632Y-24399999D01*
X157587632Y-24399999D02*
X157682870Y-24433332D01*
X157682870Y-24433332D02*
X157730489Y-24466666D01*
X157730489Y-24466666D02*
X157778108Y-24533332D01*
X157778108Y-24533332D02*
X157778108Y-24799999D01*
X158254299Y-24099999D02*
X157254299Y-24099999D01*
X157254299Y-24099999D02*
X157254299Y-23933332D01*
X157254299Y-23933332D02*
X157301918Y-23833332D01*
X157301918Y-23833332D02*
X157397156Y-23766666D01*
X157397156Y-23766666D02*
X157492394Y-23733332D01*
X157492394Y-23733332D02*
X157682870Y-23699999D01*
X157682870Y-23699999D02*
X157825727Y-23699999D01*
X157825727Y-23699999D02*
X158016203Y-23733332D01*
X158016203Y-23733332D02*
X158111441Y-23766666D01*
X158111441Y-23766666D02*
X158206680Y-23833332D01*
X158206680Y-23833332D02*
X158254299Y-23933332D01*
X158254299Y-23933332D02*
X158254299Y-24099999D01*
X157587632Y-23099999D02*
X158254299Y-23099999D01*
X157206680Y-23266666D02*
X157920965Y-23433332D01*
X157920965Y-23433332D02*
X157920965Y-22999999D01*
X27883333Y-30154299D02*
X27883333Y-29154299D01*
X27883333Y-29154299D02*
X28150000Y-29154299D01*
X28150000Y-29154299D02*
X28216667Y-29201918D01*
X28216667Y-29201918D02*
X28250000Y-29249537D01*
X28250000Y-29249537D02*
X28283333Y-29344775D01*
X28283333Y-29344775D02*
X28283333Y-29487632D01*
X28283333Y-29487632D02*
X28250000Y-29582870D01*
X28250000Y-29582870D02*
X28216667Y-29630489D01*
X28216667Y-29630489D02*
X28150000Y-29678108D01*
X28150000Y-29678108D02*
X27883333Y-29678108D01*
X28716667Y-29154299D02*
X28850000Y-29154299D01*
X28850000Y-29154299D02*
X28916667Y-29201918D01*
X28916667Y-29201918D02*
X28983333Y-29297156D01*
X28983333Y-29297156D02*
X29016667Y-29487632D01*
X29016667Y-29487632D02*
X29016667Y-29820965D01*
X29016667Y-29820965D02*
X28983333Y-30011441D01*
X28983333Y-30011441D02*
X28916667Y-30106680D01*
X28916667Y-30106680D02*
X28850000Y-30154299D01*
X28850000Y-30154299D02*
X28716667Y-30154299D01*
X28716667Y-30154299D02*
X28650000Y-30106680D01*
X28650000Y-30106680D02*
X28583333Y-30011441D01*
X28583333Y-30011441D02*
X28550000Y-29820965D01*
X28550000Y-29820965D02*
X28550000Y-29487632D01*
X28550000Y-29487632D02*
X28583333Y-29297156D01*
X28583333Y-29297156D02*
X28650000Y-29201918D01*
X28650000Y-29201918D02*
X28716667Y-29154299D01*
X29250000Y-29154299D02*
X29416666Y-30154299D01*
X29416666Y-30154299D02*
X29550000Y-29440013D01*
X29550000Y-29440013D02*
X29683333Y-30154299D01*
X29683333Y-30154299D02*
X29850000Y-29154299D01*
X30116666Y-29630489D02*
X30350000Y-29630489D01*
X30450000Y-30154299D02*
X30116666Y-30154299D01*
X30116666Y-30154299D02*
X30116666Y-29154299D01*
X30116666Y-29154299D02*
X30450000Y-29154299D01*
X31149999Y-30154299D02*
X30916666Y-29678108D01*
X30749999Y-30154299D02*
X30749999Y-29154299D01*
X30749999Y-29154299D02*
X31016666Y-29154299D01*
X31016666Y-29154299D02*
X31083333Y-29201918D01*
X31083333Y-29201918D02*
X31116666Y-29249537D01*
X31116666Y-29249537D02*
X31149999Y-29344775D01*
X31149999Y-29344775D02*
X31149999Y-29487632D01*
X31149999Y-29487632D02*
X31116666Y-29582870D01*
X31116666Y-29582870D02*
X31083333Y-29630489D01*
X31083333Y-29630489D02*
X31016666Y-29678108D01*
X31016666Y-29678108D02*
X30749999Y-29678108D01*
X172854299Y-92616666D02*
X171854299Y-92616666D01*
X171854299Y-92616666D02*
X171854299Y-92349999D01*
X171854299Y-92349999D02*
X171901918Y-92283333D01*
X171901918Y-92283333D02*
X171949537Y-92249999D01*
X171949537Y-92249999D02*
X172044775Y-92216666D01*
X172044775Y-92216666D02*
X172187632Y-92216666D01*
X172187632Y-92216666D02*
X172282870Y-92249999D01*
X172282870Y-92249999D02*
X172330489Y-92283333D01*
X172330489Y-92283333D02*
X172378108Y-92349999D01*
X172378108Y-92349999D02*
X172378108Y-92616666D01*
X172330489Y-91916666D02*
X172330489Y-91683333D01*
X172854299Y-91583333D02*
X172854299Y-91916666D01*
X172854299Y-91916666D02*
X171854299Y-91916666D01*
X171854299Y-91916666D02*
X171854299Y-91583333D01*
X172854299Y-90916666D02*
X172854299Y-91316666D01*
X172854299Y-91116666D02*
X171854299Y-91116666D01*
X171854299Y-91116666D02*
X171997156Y-91183333D01*
X171997156Y-91183333D02*
X172092394Y-91250000D01*
X172092394Y-91250000D02*
X172140013Y-91316666D01*
X172854299Y-90249999D02*
X172854299Y-90649999D01*
X172854299Y-90449999D02*
X171854299Y-90449999D01*
X171854299Y-90449999D02*
X171997156Y-90516666D01*
X171997156Y-90516666D02*
X172092394Y-90583333D01*
X172092394Y-90583333D02*
X172140013Y-90649999D01*
X162654299Y-35099999D02*
X161654299Y-35099999D01*
X161654299Y-35099999D02*
X162654299Y-34699999D01*
X162654299Y-34699999D02*
X161654299Y-34699999D01*
X162654299Y-33966666D02*
X162178108Y-34199999D01*
X162654299Y-34366666D02*
X161654299Y-34366666D01*
X161654299Y-34366666D02*
X161654299Y-34099999D01*
X161654299Y-34099999D02*
X161701918Y-34033333D01*
X161701918Y-34033333D02*
X161749537Y-33999999D01*
X161749537Y-33999999D02*
X161844775Y-33966666D01*
X161844775Y-33966666D02*
X161987632Y-33966666D01*
X161987632Y-33966666D02*
X162082870Y-33999999D01*
X162082870Y-33999999D02*
X162130489Y-34033333D01*
X162130489Y-34033333D02*
X162178108Y-34099999D01*
X162178108Y-34099999D02*
X162178108Y-34366666D01*
X162606680Y-33699999D02*
X162654299Y-33599999D01*
X162654299Y-33599999D02*
X162654299Y-33433333D01*
X162654299Y-33433333D02*
X162606680Y-33366666D01*
X162606680Y-33366666D02*
X162559060Y-33333333D01*
X162559060Y-33333333D02*
X162463822Y-33299999D01*
X162463822Y-33299999D02*
X162368584Y-33299999D01*
X162368584Y-33299999D02*
X162273346Y-33333333D01*
X162273346Y-33333333D02*
X162225727Y-33366666D01*
X162225727Y-33366666D02*
X162178108Y-33433333D01*
X162178108Y-33433333D02*
X162130489Y-33566666D01*
X162130489Y-33566666D02*
X162082870Y-33633333D01*
X162082870Y-33633333D02*
X162035251Y-33666666D01*
X162035251Y-33666666D02*
X161940013Y-33699999D01*
X161940013Y-33699999D02*
X161844775Y-33699999D01*
X161844775Y-33699999D02*
X161749537Y-33666666D01*
X161749537Y-33666666D02*
X161701918Y-33633333D01*
X161701918Y-33633333D02*
X161654299Y-33566666D01*
X161654299Y-33566666D02*
X161654299Y-33399999D01*
X161654299Y-33399999D02*
X161701918Y-33299999D01*
X161654299Y-33099999D02*
X161654299Y-32699999D01*
X162654299Y-32899999D02*
X161654299Y-32899999D01*
X170254299Y-92616666D02*
X169254299Y-92616666D01*
X169254299Y-92616666D02*
X169254299Y-92349999D01*
X169254299Y-92349999D02*
X169301918Y-92283333D01*
X169301918Y-92283333D02*
X169349537Y-92249999D01*
X169349537Y-92249999D02*
X169444775Y-92216666D01*
X169444775Y-92216666D02*
X169587632Y-92216666D01*
X169587632Y-92216666D02*
X169682870Y-92249999D01*
X169682870Y-92249999D02*
X169730489Y-92283333D01*
X169730489Y-92283333D02*
X169778108Y-92349999D01*
X169778108Y-92349999D02*
X169778108Y-92616666D01*
X169730489Y-91916666D02*
X169730489Y-91683333D01*
X170254299Y-91583333D02*
X170254299Y-91916666D01*
X170254299Y-91916666D02*
X169254299Y-91916666D01*
X169254299Y-91916666D02*
X169254299Y-91583333D01*
X170254299Y-90916666D02*
X170254299Y-91316666D01*
X170254299Y-91116666D02*
X169254299Y-91116666D01*
X169254299Y-91116666D02*
X169397156Y-91183333D01*
X169397156Y-91183333D02*
X169492394Y-91250000D01*
X169492394Y-91250000D02*
X169540013Y-91316666D01*
X169254299Y-90483333D02*
X169254299Y-90416666D01*
X169254299Y-90416666D02*
X169301918Y-90349999D01*
X169301918Y-90349999D02*
X169349537Y-90316666D01*
X169349537Y-90316666D02*
X169444775Y-90283333D01*
X169444775Y-90283333D02*
X169635251Y-90249999D01*
X169635251Y-90249999D02*
X169873346Y-90249999D01*
X169873346Y-90249999D02*
X170063822Y-90283333D01*
X170063822Y-90283333D02*
X170159060Y-90316666D01*
X170159060Y-90316666D02*
X170206680Y-90349999D01*
X170206680Y-90349999D02*
X170254299Y-90416666D01*
X170254299Y-90416666D02*
X170254299Y-90483333D01*
X170254299Y-90483333D02*
X170206680Y-90549999D01*
X170206680Y-90549999D02*
X170159060Y-90583333D01*
X170159060Y-90583333D02*
X170063822Y-90616666D01*
X170063822Y-90616666D02*
X169873346Y-90649999D01*
X169873346Y-90649999D02*
X169635251Y-90649999D01*
X169635251Y-90649999D02*
X169444775Y-90616666D01*
X169444775Y-90616666D02*
X169349537Y-90583333D01*
X169349537Y-90583333D02*
X169301918Y-90549999D01*
X169301918Y-90549999D02*
X169254299Y-90483333D01*
X159201918Y-34733332D02*
X159154299Y-34799999D01*
X159154299Y-34799999D02*
X159154299Y-34899999D01*
X159154299Y-34899999D02*
X159201918Y-34999999D01*
X159201918Y-34999999D02*
X159297156Y-35066666D01*
X159297156Y-35066666D02*
X159392394Y-35099999D01*
X159392394Y-35099999D02*
X159582870Y-35133332D01*
X159582870Y-35133332D02*
X159725727Y-35133332D01*
X159725727Y-35133332D02*
X159916203Y-35099999D01*
X159916203Y-35099999D02*
X160011441Y-35066666D01*
X160011441Y-35066666D02*
X160106680Y-34999999D01*
X160106680Y-34999999D02*
X160154299Y-34899999D01*
X160154299Y-34899999D02*
X160154299Y-34833332D01*
X160154299Y-34833332D02*
X160106680Y-34733332D01*
X160106680Y-34733332D02*
X160059060Y-34699999D01*
X160059060Y-34699999D02*
X159725727Y-34699999D01*
X159725727Y-34699999D02*
X159725727Y-34833332D01*
X160154299Y-34399999D02*
X159154299Y-34399999D01*
X159154299Y-34399999D02*
X160154299Y-33999999D01*
X160154299Y-33999999D02*
X159154299Y-33999999D01*
X160154299Y-33666666D02*
X159154299Y-33666666D01*
X159154299Y-33666666D02*
X159154299Y-33499999D01*
X159154299Y-33499999D02*
X159201918Y-33399999D01*
X159201918Y-33399999D02*
X159297156Y-33333333D01*
X159297156Y-33333333D02*
X159392394Y-33299999D01*
X159392394Y-33299999D02*
X159582870Y-33266666D01*
X159582870Y-33266666D02*
X159725727Y-33266666D01*
X159725727Y-33266666D02*
X159916203Y-33299999D01*
X159916203Y-33299999D02*
X160011441Y-33333333D01*
X160011441Y-33333333D02*
X160106680Y-33399999D01*
X160106680Y-33399999D02*
X160154299Y-33499999D01*
X160154299Y-33499999D02*
X160154299Y-33666666D01*
X152201918Y-24433332D02*
X152154299Y-24499999D01*
X152154299Y-24499999D02*
X152154299Y-24599999D01*
X152154299Y-24599999D02*
X152201918Y-24699999D01*
X152201918Y-24699999D02*
X152297156Y-24766666D01*
X152297156Y-24766666D02*
X152392394Y-24799999D01*
X152392394Y-24799999D02*
X152582870Y-24833332D01*
X152582870Y-24833332D02*
X152725727Y-24833332D01*
X152725727Y-24833332D02*
X152916203Y-24799999D01*
X152916203Y-24799999D02*
X153011441Y-24766666D01*
X153011441Y-24766666D02*
X153106680Y-24699999D01*
X153106680Y-24699999D02*
X153154299Y-24599999D01*
X153154299Y-24599999D02*
X153154299Y-24533332D01*
X153154299Y-24533332D02*
X153106680Y-24433332D01*
X153106680Y-24433332D02*
X153059060Y-24399999D01*
X153059060Y-24399999D02*
X152725727Y-24399999D01*
X152725727Y-24399999D02*
X152725727Y-24533332D01*
X153154299Y-24099999D02*
X152154299Y-24099999D01*
X152154299Y-24099999D02*
X153154299Y-23699999D01*
X153154299Y-23699999D02*
X152154299Y-23699999D01*
X153154299Y-23366666D02*
X152154299Y-23366666D01*
X152154299Y-23366666D02*
X152154299Y-23199999D01*
X152154299Y-23199999D02*
X152201918Y-23099999D01*
X152201918Y-23099999D02*
X152297156Y-23033333D01*
X152297156Y-23033333D02*
X152392394Y-22999999D01*
X152392394Y-22999999D02*
X152582870Y-22966666D01*
X152582870Y-22966666D02*
X152725727Y-22966666D01*
X152725727Y-22966666D02*
X152916203Y-22999999D01*
X152916203Y-22999999D02*
X153011441Y-23033333D01*
X153011441Y-23033333D02*
X153106680Y-23099999D01*
X153106680Y-23099999D02*
X153154299Y-23199999D01*
X153154299Y-23199999D02*
X153154299Y-23366666D01*
X156554299Y-91950000D02*
X156554299Y-91516666D01*
X156554299Y-91516666D02*
X156935251Y-91750000D01*
X156935251Y-91750000D02*
X156935251Y-91650000D01*
X156935251Y-91650000D02*
X156982870Y-91583333D01*
X156982870Y-91583333D02*
X157030489Y-91550000D01*
X157030489Y-91550000D02*
X157125727Y-91516666D01*
X157125727Y-91516666D02*
X157363822Y-91516666D01*
X157363822Y-91516666D02*
X157459060Y-91550000D01*
X157459060Y-91550000D02*
X157506680Y-91583333D01*
X157506680Y-91583333D02*
X157554299Y-91650000D01*
X157554299Y-91650000D02*
X157554299Y-91850000D01*
X157554299Y-91850000D02*
X157506680Y-91916666D01*
X157506680Y-91916666D02*
X157459060Y-91950000D01*
X156554299Y-91316666D02*
X157554299Y-91083333D01*
X157554299Y-91083333D02*
X156554299Y-90849999D01*
X156554299Y-90683333D02*
X156554299Y-90249999D01*
X156554299Y-90249999D02*
X156935251Y-90483333D01*
X156935251Y-90483333D02*
X156935251Y-90383333D01*
X156935251Y-90383333D02*
X156982870Y-90316666D01*
X156982870Y-90316666D02*
X157030489Y-90283333D01*
X157030489Y-90283333D02*
X157125727Y-90249999D01*
X157125727Y-90249999D02*
X157363822Y-90249999D01*
X157363822Y-90249999D02*
X157459060Y-90283333D01*
X157459060Y-90283333D02*
X157506680Y-90316666D01*
X157506680Y-90316666D02*
X157554299Y-90383333D01*
X157554299Y-90383333D02*
X157554299Y-90583333D01*
X157554299Y-90583333D02*
X157506680Y-90649999D01*
X157506680Y-90649999D02*
X157459060Y-90683333D01*
X180454299Y-92616666D02*
X179454299Y-92616666D01*
X179454299Y-92616666D02*
X179454299Y-92349999D01*
X179454299Y-92349999D02*
X179501918Y-92283333D01*
X179501918Y-92283333D02*
X179549537Y-92249999D01*
X179549537Y-92249999D02*
X179644775Y-92216666D01*
X179644775Y-92216666D02*
X179787632Y-92216666D01*
X179787632Y-92216666D02*
X179882870Y-92249999D01*
X179882870Y-92249999D02*
X179930489Y-92283333D01*
X179930489Y-92283333D02*
X179978108Y-92349999D01*
X179978108Y-92349999D02*
X179978108Y-92616666D01*
X179930489Y-91916666D02*
X179930489Y-91683333D01*
X180454299Y-91583333D02*
X180454299Y-91916666D01*
X180454299Y-91916666D02*
X179454299Y-91916666D01*
X179454299Y-91916666D02*
X179454299Y-91583333D01*
X180454299Y-90916666D02*
X180454299Y-91316666D01*
X180454299Y-91116666D02*
X179454299Y-91116666D01*
X179454299Y-91116666D02*
X179597156Y-91183333D01*
X179597156Y-91183333D02*
X179692394Y-91250000D01*
X179692394Y-91250000D02*
X179740013Y-91316666D01*
X179787632Y-90316666D02*
X180454299Y-90316666D01*
X179406680Y-90483333D02*
X180120965Y-90649999D01*
X180120965Y-90649999D02*
X180120965Y-90216666D01*
X41866667Y-41354299D02*
X42266667Y-41354299D01*
X42066667Y-42354299D02*
X42066667Y-41354299D01*
X42500000Y-42354299D02*
X42500000Y-41354299D01*
X42500000Y-41354299D02*
X42766667Y-41354299D01*
X42766667Y-41354299D02*
X42833334Y-41401918D01*
X42833334Y-41401918D02*
X42866667Y-41449537D01*
X42866667Y-41449537D02*
X42900000Y-41544775D01*
X42900000Y-41544775D02*
X42900000Y-41687632D01*
X42900000Y-41687632D02*
X42866667Y-41782870D01*
X42866667Y-41782870D02*
X42833334Y-41830489D01*
X42833334Y-41830489D02*
X42766667Y-41878108D01*
X42766667Y-41878108D02*
X42500000Y-41878108D01*
X43033334Y-42449537D02*
X43566667Y-42449537D01*
X43700000Y-42068584D02*
X44033333Y-42068584D01*
X43633333Y-42354299D02*
X43866667Y-41354299D01*
X43866667Y-41354299D02*
X44100000Y-42354299D01*
X44333333Y-42354299D02*
X44333333Y-41354299D01*
X44333333Y-41354299D02*
X44566667Y-42068584D01*
X44566667Y-42068584D02*
X44800000Y-41354299D01*
X44800000Y-41354299D02*
X44800000Y-42354299D01*
X45133333Y-42354299D02*
X45133333Y-41354299D01*
X45133333Y-41354299D02*
X45400000Y-41354299D01*
X45400000Y-41354299D02*
X45466667Y-41401918D01*
X45466667Y-41401918D02*
X45500000Y-41449537D01*
X45500000Y-41449537D02*
X45533333Y-41544775D01*
X45533333Y-41544775D02*
X45533333Y-41687632D01*
X45533333Y-41687632D02*
X45500000Y-41782870D01*
X45500000Y-41782870D02*
X45466667Y-41830489D01*
X45466667Y-41830489D02*
X45400000Y-41878108D01*
X45400000Y-41878108D02*
X45133333Y-41878108D01*
X45966667Y-41354299D02*
X46100000Y-41354299D01*
X46100000Y-41354299D02*
X46166667Y-41401918D01*
X46166667Y-41401918D02*
X46233333Y-41497156D01*
X46233333Y-41497156D02*
X46266667Y-41687632D01*
X46266667Y-41687632D02*
X46266667Y-42020965D01*
X46266667Y-42020965D02*
X46233333Y-42211441D01*
X46233333Y-42211441D02*
X46166667Y-42306680D01*
X46166667Y-42306680D02*
X46100000Y-42354299D01*
X46100000Y-42354299D02*
X45966667Y-42354299D01*
X45966667Y-42354299D02*
X45900000Y-42306680D01*
X45900000Y-42306680D02*
X45833333Y-42211441D01*
X45833333Y-42211441D02*
X45800000Y-42020965D01*
X45800000Y-42020965D02*
X45800000Y-41687632D01*
X45800000Y-41687632D02*
X45833333Y-41497156D01*
X45833333Y-41497156D02*
X45900000Y-41401918D01*
X45900000Y-41401918D02*
X45966667Y-41354299D01*
X177854299Y-92616666D02*
X176854299Y-92616666D01*
X176854299Y-92616666D02*
X176854299Y-92349999D01*
X176854299Y-92349999D02*
X176901918Y-92283333D01*
X176901918Y-92283333D02*
X176949537Y-92249999D01*
X176949537Y-92249999D02*
X177044775Y-92216666D01*
X177044775Y-92216666D02*
X177187632Y-92216666D01*
X177187632Y-92216666D02*
X177282870Y-92249999D01*
X177282870Y-92249999D02*
X177330489Y-92283333D01*
X177330489Y-92283333D02*
X177378108Y-92349999D01*
X177378108Y-92349999D02*
X177378108Y-92616666D01*
X177330489Y-91916666D02*
X177330489Y-91683333D01*
X177854299Y-91583333D02*
X177854299Y-91916666D01*
X177854299Y-91916666D02*
X176854299Y-91916666D01*
X176854299Y-91916666D02*
X176854299Y-91583333D01*
X177854299Y-90916666D02*
X177854299Y-91316666D01*
X177854299Y-91116666D02*
X176854299Y-91116666D01*
X176854299Y-91116666D02*
X176997156Y-91183333D01*
X176997156Y-91183333D02*
X177092394Y-91250000D01*
X177092394Y-91250000D02*
X177140013Y-91316666D01*
X176854299Y-90683333D02*
X176854299Y-90249999D01*
X176854299Y-90249999D02*
X177235251Y-90483333D01*
X177235251Y-90483333D02*
X177235251Y-90383333D01*
X177235251Y-90383333D02*
X177282870Y-90316666D01*
X177282870Y-90316666D02*
X177330489Y-90283333D01*
X177330489Y-90283333D02*
X177425727Y-90249999D01*
X177425727Y-90249999D02*
X177663822Y-90249999D01*
X177663822Y-90249999D02*
X177759060Y-90283333D01*
X177759060Y-90283333D02*
X177806680Y-90316666D01*
X177806680Y-90316666D02*
X177854299Y-90383333D01*
X177854299Y-90383333D02*
X177854299Y-90583333D01*
X177854299Y-90583333D02*
X177806680Y-90649999D01*
X177806680Y-90649999D02*
X177759060Y-90683333D01*
X146316667Y-72854299D02*
X146716667Y-72854299D01*
X146516667Y-73854299D02*
X146516667Y-72854299D01*
X146950000Y-73854299D02*
X146950000Y-72854299D01*
X146950000Y-72854299D02*
X147216667Y-72854299D01*
X147216667Y-72854299D02*
X147283334Y-72901918D01*
X147283334Y-72901918D02*
X147316667Y-72949537D01*
X147316667Y-72949537D02*
X147350000Y-73044775D01*
X147350000Y-73044775D02*
X147350000Y-73187632D01*
X147350000Y-73187632D02*
X147316667Y-73282870D01*
X147316667Y-73282870D02*
X147283334Y-73330489D01*
X147283334Y-73330489D02*
X147216667Y-73378108D01*
X147216667Y-73378108D02*
X146950000Y-73378108D01*
X147483334Y-73949537D02*
X148016667Y-73949537D01*
X148550000Y-72901918D02*
X148483333Y-72854299D01*
X148483333Y-72854299D02*
X148383333Y-72854299D01*
X148383333Y-72854299D02*
X148283333Y-72901918D01*
X148283333Y-72901918D02*
X148216667Y-72997156D01*
X148216667Y-72997156D02*
X148183333Y-73092394D01*
X148183333Y-73092394D02*
X148150000Y-73282870D01*
X148150000Y-73282870D02*
X148150000Y-73425727D01*
X148150000Y-73425727D02*
X148183333Y-73616203D01*
X148183333Y-73616203D02*
X148216667Y-73711441D01*
X148216667Y-73711441D02*
X148283333Y-73806680D01*
X148283333Y-73806680D02*
X148383333Y-73854299D01*
X148383333Y-73854299D02*
X148450000Y-73854299D01*
X148450000Y-73854299D02*
X148550000Y-73806680D01*
X148550000Y-73806680D02*
X148583333Y-73759060D01*
X148583333Y-73759060D02*
X148583333Y-73425727D01*
X148583333Y-73425727D02*
X148450000Y-73425727D01*
X148883333Y-73854299D02*
X148883333Y-72854299D01*
X148883333Y-72854299D02*
X149283333Y-73854299D01*
X149283333Y-73854299D02*
X149283333Y-72854299D01*
X149616666Y-73854299D02*
X149616666Y-72854299D01*
X149616666Y-72854299D02*
X149783333Y-72854299D01*
X149783333Y-72854299D02*
X149883333Y-72901918D01*
X149883333Y-72901918D02*
X149950000Y-72997156D01*
X149950000Y-72997156D02*
X149983333Y-73092394D01*
X149983333Y-73092394D02*
X150016666Y-73282870D01*
X150016666Y-73282870D02*
X150016666Y-73425727D01*
X150016666Y-73425727D02*
X149983333Y-73616203D01*
X149983333Y-73616203D02*
X149950000Y-73711441D01*
X149950000Y-73711441D02*
X149883333Y-73806680D01*
X149883333Y-73806680D02*
X149783333Y-73854299D01*
X149783333Y-73854299D02*
X149616666Y-73854299D01*
X176054299Y-24766666D02*
X175054299Y-24766666D01*
X175054299Y-24766666D02*
X175054299Y-24499999D01*
X175054299Y-24499999D02*
X175101918Y-24433333D01*
X175101918Y-24433333D02*
X175149537Y-24399999D01*
X175149537Y-24399999D02*
X175244775Y-24366666D01*
X175244775Y-24366666D02*
X175387632Y-24366666D01*
X175387632Y-24366666D02*
X175482870Y-24399999D01*
X175482870Y-24399999D02*
X175530489Y-24433333D01*
X175530489Y-24433333D02*
X175578108Y-24499999D01*
X175578108Y-24499999D02*
X175578108Y-24766666D01*
X175959060Y-23666666D02*
X176006680Y-23699999D01*
X176006680Y-23699999D02*
X176054299Y-23799999D01*
X176054299Y-23799999D02*
X176054299Y-23866666D01*
X176054299Y-23866666D02*
X176006680Y-23966666D01*
X176006680Y-23966666D02*
X175911441Y-24033333D01*
X175911441Y-24033333D02*
X175816203Y-24066666D01*
X175816203Y-24066666D02*
X175625727Y-24099999D01*
X175625727Y-24099999D02*
X175482870Y-24099999D01*
X175482870Y-24099999D02*
X175292394Y-24066666D01*
X175292394Y-24066666D02*
X175197156Y-24033333D01*
X175197156Y-24033333D02*
X175101918Y-23966666D01*
X175101918Y-23966666D02*
X175054299Y-23866666D01*
X175054299Y-23866666D02*
X175054299Y-23799999D01*
X175054299Y-23799999D02*
X175101918Y-23699999D01*
X175101918Y-23699999D02*
X175149537Y-23666666D01*
X176054299Y-22999999D02*
X176054299Y-23399999D01*
X176054299Y-23199999D02*
X175054299Y-23199999D01*
X175054299Y-23199999D02*
X175197156Y-23266666D01*
X175197156Y-23266666D02*
X175292394Y-23333333D01*
X175292394Y-23333333D02*
X175340013Y-23399999D01*
X175054299Y-22566666D02*
X175054299Y-22499999D01*
X175054299Y-22499999D02*
X175101918Y-22433332D01*
X175101918Y-22433332D02*
X175149537Y-22399999D01*
X175149537Y-22399999D02*
X175244775Y-22366666D01*
X175244775Y-22366666D02*
X175435251Y-22333332D01*
X175435251Y-22333332D02*
X175673346Y-22333332D01*
X175673346Y-22333332D02*
X175863822Y-22366666D01*
X175863822Y-22366666D02*
X175959060Y-22399999D01*
X175959060Y-22399999D02*
X176006680Y-22433332D01*
X176006680Y-22433332D02*
X176054299Y-22499999D01*
X176054299Y-22499999D02*
X176054299Y-22566666D01*
X176054299Y-22566666D02*
X176006680Y-22633332D01*
X176006680Y-22633332D02*
X175959060Y-22666666D01*
X175959060Y-22666666D02*
X175863822Y-22699999D01*
X175863822Y-22699999D02*
X175673346Y-22733332D01*
X175673346Y-22733332D02*
X175435251Y-22733332D01*
X175435251Y-22733332D02*
X175244775Y-22699999D01*
X175244775Y-22699999D02*
X175149537Y-22666666D01*
X175149537Y-22666666D02*
X175101918Y-22633332D01*
X175101918Y-22633332D02*
X175054299Y-22566666D01*
X42266667Y-47254299D02*
X42666667Y-47254299D01*
X42466667Y-48254299D02*
X42466667Y-47254299D01*
X42900000Y-48254299D02*
X42900000Y-47254299D01*
X42900000Y-47254299D02*
X43166667Y-47254299D01*
X43166667Y-47254299D02*
X43233334Y-47301918D01*
X43233334Y-47301918D02*
X43266667Y-47349537D01*
X43266667Y-47349537D02*
X43300000Y-47444775D01*
X43300000Y-47444775D02*
X43300000Y-47587632D01*
X43300000Y-47587632D02*
X43266667Y-47682870D01*
X43266667Y-47682870D02*
X43233334Y-47730489D01*
X43233334Y-47730489D02*
X43166667Y-47778108D01*
X43166667Y-47778108D02*
X42900000Y-47778108D01*
X43433334Y-48349537D02*
X43966667Y-48349537D01*
X44100000Y-47968584D02*
X44433333Y-47968584D01*
X44033333Y-48254299D02*
X44266667Y-47254299D01*
X44266667Y-47254299D02*
X44500000Y-48254299D01*
X44733333Y-48254299D02*
X44733333Y-47254299D01*
X44733333Y-47254299D02*
X44966667Y-47968584D01*
X44966667Y-47968584D02*
X45200000Y-47254299D01*
X45200000Y-47254299D02*
X45200000Y-48254299D01*
X45533333Y-48254299D02*
X45533333Y-47254299D01*
X45533333Y-47254299D02*
X45800000Y-47254299D01*
X45800000Y-47254299D02*
X45866667Y-47301918D01*
X45866667Y-47301918D02*
X45900000Y-47349537D01*
X45900000Y-47349537D02*
X45933333Y-47444775D01*
X45933333Y-47444775D02*
X45933333Y-47587632D01*
X45933333Y-47587632D02*
X45900000Y-47682870D01*
X45900000Y-47682870D02*
X45866667Y-47730489D01*
X45866667Y-47730489D02*
X45800000Y-47778108D01*
X45800000Y-47778108D02*
X45533333Y-47778108D01*
X46233333Y-48254299D02*
X46233333Y-47254299D01*
X167606680Y-35133332D02*
X167654299Y-35033332D01*
X167654299Y-35033332D02*
X167654299Y-34866666D01*
X167654299Y-34866666D02*
X167606680Y-34799999D01*
X167606680Y-34799999D02*
X167559060Y-34766666D01*
X167559060Y-34766666D02*
X167463822Y-34733332D01*
X167463822Y-34733332D02*
X167368584Y-34733332D01*
X167368584Y-34733332D02*
X167273346Y-34766666D01*
X167273346Y-34766666D02*
X167225727Y-34799999D01*
X167225727Y-34799999D02*
X167178108Y-34866666D01*
X167178108Y-34866666D02*
X167130489Y-34999999D01*
X167130489Y-34999999D02*
X167082870Y-35066666D01*
X167082870Y-35066666D02*
X167035251Y-35099999D01*
X167035251Y-35099999D02*
X166940013Y-35133332D01*
X166940013Y-35133332D02*
X166844775Y-35133332D01*
X166844775Y-35133332D02*
X166749537Y-35099999D01*
X166749537Y-35099999D02*
X166701918Y-35066666D01*
X166701918Y-35066666D02*
X166654299Y-34999999D01*
X166654299Y-34999999D02*
X166654299Y-34833332D01*
X166654299Y-34833332D02*
X166701918Y-34733332D01*
X166654299Y-34499999D02*
X167654299Y-34333332D01*
X167654299Y-34333332D02*
X166940013Y-34199999D01*
X166940013Y-34199999D02*
X167654299Y-34066665D01*
X167654299Y-34066665D02*
X166654299Y-33899999D01*
X167654299Y-33633332D02*
X166654299Y-33633332D01*
X166654299Y-33633332D02*
X166654299Y-33466665D01*
X166654299Y-33466665D02*
X166701918Y-33366665D01*
X166701918Y-33366665D02*
X166797156Y-33299999D01*
X166797156Y-33299999D02*
X166892394Y-33266665D01*
X166892394Y-33266665D02*
X167082870Y-33233332D01*
X167082870Y-33233332D02*
X167225727Y-33233332D01*
X167225727Y-33233332D02*
X167416203Y-33266665D01*
X167416203Y-33266665D02*
X167511441Y-33299999D01*
X167511441Y-33299999D02*
X167606680Y-33366665D01*
X167606680Y-33366665D02*
X167654299Y-33466665D01*
X167654299Y-33466665D02*
X167654299Y-33633332D01*
X167654299Y-32933332D02*
X166654299Y-32933332D01*
X166654299Y-32466666D02*
X166654299Y-32333332D01*
X166654299Y-32333332D02*
X166701918Y-32266666D01*
X166701918Y-32266666D02*
X166797156Y-32199999D01*
X166797156Y-32199999D02*
X166987632Y-32166666D01*
X166987632Y-32166666D02*
X167320965Y-32166666D01*
X167320965Y-32166666D02*
X167511441Y-32199999D01*
X167511441Y-32199999D02*
X167606680Y-32266666D01*
X167606680Y-32266666D02*
X167654299Y-32333332D01*
X167654299Y-32333332D02*
X167654299Y-32466666D01*
X167654299Y-32466666D02*
X167606680Y-32533332D01*
X167606680Y-32533332D02*
X167511441Y-32599999D01*
X167511441Y-32599999D02*
X167320965Y-32633332D01*
X167320965Y-32633332D02*
X166987632Y-32633332D01*
X166987632Y-32633332D02*
X166797156Y-32599999D01*
X166797156Y-32599999D02*
X166701918Y-32533332D01*
X166701918Y-32533332D02*
X166654299Y-32466666D01*
X165901918Y-53433332D02*
X165854299Y-53499999D01*
X165854299Y-53499999D02*
X165854299Y-53599999D01*
X165854299Y-53599999D02*
X165901918Y-53699999D01*
X165901918Y-53699999D02*
X165997156Y-53766666D01*
X165997156Y-53766666D02*
X166092394Y-53799999D01*
X166092394Y-53799999D02*
X166282870Y-53833332D01*
X166282870Y-53833332D02*
X166425727Y-53833332D01*
X166425727Y-53833332D02*
X166616203Y-53799999D01*
X166616203Y-53799999D02*
X166711441Y-53766666D01*
X166711441Y-53766666D02*
X166806680Y-53699999D01*
X166806680Y-53699999D02*
X166854299Y-53599999D01*
X166854299Y-53599999D02*
X166854299Y-53533332D01*
X166854299Y-53533332D02*
X166806680Y-53433332D01*
X166806680Y-53433332D02*
X166759060Y-53399999D01*
X166759060Y-53399999D02*
X166425727Y-53399999D01*
X166425727Y-53399999D02*
X166425727Y-53533332D01*
X166854299Y-53099999D02*
X165854299Y-53099999D01*
X165854299Y-53099999D02*
X166854299Y-52699999D01*
X166854299Y-52699999D02*
X165854299Y-52699999D01*
X166854299Y-52366666D02*
X165854299Y-52366666D01*
X165854299Y-52366666D02*
X165854299Y-52199999D01*
X165854299Y-52199999D02*
X165901918Y-52099999D01*
X165901918Y-52099999D02*
X165997156Y-52033333D01*
X165997156Y-52033333D02*
X166092394Y-51999999D01*
X166092394Y-51999999D02*
X166282870Y-51966666D01*
X166282870Y-51966666D02*
X166425727Y-51966666D01*
X166425727Y-51966666D02*
X166616203Y-51999999D01*
X166616203Y-51999999D02*
X166711441Y-52033333D01*
X166711441Y-52033333D02*
X166806680Y-52099999D01*
X166806680Y-52099999D02*
X166854299Y-52199999D01*
X166854299Y-52199999D02*
X166854299Y-52366666D01*
X147354299Y-91916666D02*
X146354299Y-91916666D01*
X146354299Y-91916666D02*
X146354299Y-91649999D01*
X146354299Y-91649999D02*
X146401918Y-91583333D01*
X146401918Y-91583333D02*
X146449537Y-91549999D01*
X146449537Y-91549999D02*
X146544775Y-91516666D01*
X146544775Y-91516666D02*
X146687632Y-91516666D01*
X146687632Y-91516666D02*
X146782870Y-91549999D01*
X146782870Y-91549999D02*
X146830489Y-91583333D01*
X146830489Y-91583333D02*
X146878108Y-91649999D01*
X146878108Y-91649999D02*
X146878108Y-91916666D01*
X147068584Y-91249999D02*
X147068584Y-90916666D01*
X147354299Y-91316666D02*
X146354299Y-91083333D01*
X146354299Y-91083333D02*
X147354299Y-90849999D01*
X146354299Y-90283333D02*
X146354299Y-90616666D01*
X146354299Y-90616666D02*
X146830489Y-90649999D01*
X146830489Y-90649999D02*
X146782870Y-90616666D01*
X146782870Y-90616666D02*
X146735251Y-90549999D01*
X146735251Y-90549999D02*
X146735251Y-90383333D01*
X146735251Y-90383333D02*
X146782870Y-90316666D01*
X146782870Y-90316666D02*
X146830489Y-90283333D01*
X146830489Y-90283333D02*
X146925727Y-90249999D01*
X146925727Y-90249999D02*
X147163822Y-90249999D01*
X147163822Y-90249999D02*
X147259060Y-90283333D01*
X147259060Y-90283333D02*
X147306680Y-90316666D01*
X147306680Y-90316666D02*
X147354299Y-90383333D01*
X147354299Y-90383333D02*
X147354299Y-90549999D01*
X147354299Y-90549999D02*
X147306680Y-90616666D01*
X147306680Y-90616666D02*
X147259060Y-90649999D01*
X163354299Y-53466666D02*
X163354299Y-53799999D01*
X163354299Y-53799999D02*
X163830489Y-53833332D01*
X163830489Y-53833332D02*
X163782870Y-53799999D01*
X163782870Y-53799999D02*
X163735251Y-53733332D01*
X163735251Y-53733332D02*
X163735251Y-53566666D01*
X163735251Y-53566666D02*
X163782870Y-53499999D01*
X163782870Y-53499999D02*
X163830489Y-53466666D01*
X163830489Y-53466666D02*
X163925727Y-53433332D01*
X163925727Y-53433332D02*
X164163822Y-53433332D01*
X164163822Y-53433332D02*
X164259060Y-53466666D01*
X164259060Y-53466666D02*
X164306680Y-53499999D01*
X164306680Y-53499999D02*
X164354299Y-53566666D01*
X164354299Y-53566666D02*
X164354299Y-53733332D01*
X164354299Y-53733332D02*
X164306680Y-53799999D01*
X164306680Y-53799999D02*
X164259060Y-53833332D01*
X163354299Y-53233332D02*
X164354299Y-52999999D01*
X164354299Y-52999999D02*
X163354299Y-52766665D01*
X155054299Y-92016666D02*
X154054299Y-92016666D01*
X154054299Y-92016666D02*
X154054299Y-91749999D01*
X154054299Y-91749999D02*
X154101918Y-91683333D01*
X154101918Y-91683333D02*
X154149537Y-91649999D01*
X154149537Y-91649999D02*
X154244775Y-91616666D01*
X154244775Y-91616666D02*
X154387632Y-91616666D01*
X154387632Y-91616666D02*
X154482870Y-91649999D01*
X154482870Y-91649999D02*
X154530489Y-91683333D01*
X154530489Y-91683333D02*
X154578108Y-91749999D01*
X154578108Y-91749999D02*
X154578108Y-92016666D01*
X154530489Y-91083333D02*
X154578108Y-90983333D01*
X154578108Y-90983333D02*
X154625727Y-90949999D01*
X154625727Y-90949999D02*
X154720965Y-90916666D01*
X154720965Y-90916666D02*
X154863822Y-90916666D01*
X154863822Y-90916666D02*
X154959060Y-90949999D01*
X154959060Y-90949999D02*
X155006680Y-90983333D01*
X155006680Y-90983333D02*
X155054299Y-91049999D01*
X155054299Y-91049999D02*
X155054299Y-91316666D01*
X155054299Y-91316666D02*
X154054299Y-91316666D01*
X154054299Y-91316666D02*
X154054299Y-91083333D01*
X154054299Y-91083333D02*
X154101918Y-91016666D01*
X154101918Y-91016666D02*
X154149537Y-90983333D01*
X154149537Y-90983333D02*
X154244775Y-90949999D01*
X154244775Y-90949999D02*
X154340013Y-90949999D01*
X154340013Y-90949999D02*
X154435251Y-90983333D01*
X154435251Y-90983333D02*
X154482870Y-91016666D01*
X154482870Y-91016666D02*
X154530489Y-91083333D01*
X154530489Y-91083333D02*
X154530489Y-91316666D01*
X154149537Y-90649999D02*
X154101918Y-90616666D01*
X154101918Y-90616666D02*
X154054299Y-90549999D01*
X154054299Y-90549999D02*
X154054299Y-90383333D01*
X154054299Y-90383333D02*
X154101918Y-90316666D01*
X154101918Y-90316666D02*
X154149537Y-90283333D01*
X154149537Y-90283333D02*
X154244775Y-90249999D01*
X154244775Y-90249999D02*
X154340013Y-90249999D01*
X154340013Y-90249999D02*
X154482870Y-90283333D01*
X154482870Y-90283333D02*
X155054299Y-90683333D01*
X155054299Y-90683333D02*
X155054299Y-90249999D01*
D12*
X102033333Y-71107720D02*
X102133333Y-71155339D01*
X102133333Y-71155339D02*
X102300000Y-71155339D01*
X102300000Y-71155339D02*
X102366666Y-71107720D01*
X102366666Y-71107720D02*
X102400000Y-71060100D01*
X102400000Y-71060100D02*
X102433333Y-70964862D01*
X102433333Y-70964862D02*
X102433333Y-70869624D01*
X102433333Y-70869624D02*
X102400000Y-70774386D01*
X102400000Y-70774386D02*
X102366666Y-70726767D01*
X102366666Y-70726767D02*
X102300000Y-70679148D01*
X102300000Y-70679148D02*
X102166666Y-70631529D01*
X102166666Y-70631529D02*
X102100000Y-70583910D01*
X102100000Y-70583910D02*
X102066666Y-70536291D01*
X102066666Y-70536291D02*
X102033333Y-70441053D01*
X102033333Y-70441053D02*
X102033333Y-70345815D01*
X102033333Y-70345815D02*
X102066666Y-70250577D01*
X102066666Y-70250577D02*
X102100000Y-70202958D01*
X102100000Y-70202958D02*
X102166666Y-70155339D01*
X102166666Y-70155339D02*
X102333333Y-70155339D01*
X102333333Y-70155339D02*
X102433333Y-70202958D01*
X102733333Y-71155339D02*
X102733333Y-70155339D01*
X103433333Y-70202958D02*
X103366666Y-70155339D01*
X103366666Y-70155339D02*
X103266666Y-70155339D01*
X103266666Y-70155339D02*
X103166666Y-70202958D01*
X103166666Y-70202958D02*
X103100000Y-70298196D01*
X103100000Y-70298196D02*
X103066666Y-70393434D01*
X103066666Y-70393434D02*
X103033333Y-70583910D01*
X103033333Y-70583910D02*
X103033333Y-70726767D01*
X103033333Y-70726767D02*
X103066666Y-70917243D01*
X103066666Y-70917243D02*
X103100000Y-71012481D01*
X103100000Y-71012481D02*
X103166666Y-71107720D01*
X103166666Y-71107720D02*
X103266666Y-71155339D01*
X103266666Y-71155339D02*
X103333333Y-71155339D01*
X103333333Y-71155339D02*
X103433333Y-71107720D01*
X103433333Y-71107720D02*
X103466666Y-71060100D01*
X103466666Y-71060100D02*
X103466666Y-70726767D01*
X103466666Y-70726767D02*
X103333333Y-70726767D01*
X103766666Y-71155339D02*
X103766666Y-70155339D01*
X103766666Y-70155339D02*
X104166666Y-71155339D01*
X104166666Y-71155339D02*
X104166666Y-70155339D01*
X104466666Y-70869624D02*
X104799999Y-70869624D01*
X104399999Y-71155339D02*
X104633333Y-70155339D01*
X104633333Y-70155339D02*
X104866666Y-71155339D01*
X105433333Y-71155339D02*
X105099999Y-71155339D01*
X105099999Y-71155339D02*
X105099999Y-70155339D01*
D10*
X20373346Y-32128070D02*
X20373346Y-31594737D01*
X20754299Y-31861403D02*
X19992394Y-31861403D01*
X171954299Y-53399999D02*
X171478108Y-53633332D01*
X171954299Y-53799999D02*
X170954299Y-53799999D01*
X170954299Y-53799999D02*
X170954299Y-53533332D01*
X170954299Y-53533332D02*
X171001918Y-53466666D01*
X171001918Y-53466666D02*
X171049537Y-53433332D01*
X171049537Y-53433332D02*
X171144775Y-53399999D01*
X171144775Y-53399999D02*
X171287632Y-53399999D01*
X171287632Y-53399999D02*
X171382870Y-53433332D01*
X171382870Y-53433332D02*
X171430489Y-53466666D01*
X171430489Y-53466666D02*
X171478108Y-53533332D01*
X171478108Y-53533332D02*
X171478108Y-53799999D01*
X170954299Y-53166666D02*
X171954299Y-52699999D01*
X170954299Y-52699999D02*
X171954299Y-53166666D01*
D12*
X67233333Y-31207720D02*
X67333333Y-31255339D01*
X67333333Y-31255339D02*
X67500000Y-31255339D01*
X67500000Y-31255339D02*
X67566666Y-31207720D01*
X67566666Y-31207720D02*
X67600000Y-31160100D01*
X67600000Y-31160100D02*
X67633333Y-31064862D01*
X67633333Y-31064862D02*
X67633333Y-30969624D01*
X67633333Y-30969624D02*
X67600000Y-30874386D01*
X67600000Y-30874386D02*
X67566666Y-30826767D01*
X67566666Y-30826767D02*
X67500000Y-30779148D01*
X67500000Y-30779148D02*
X67366666Y-30731529D01*
X67366666Y-30731529D02*
X67300000Y-30683910D01*
X67300000Y-30683910D02*
X67266666Y-30636291D01*
X67266666Y-30636291D02*
X67233333Y-30541053D01*
X67233333Y-30541053D02*
X67233333Y-30445815D01*
X67233333Y-30445815D02*
X67266666Y-30350577D01*
X67266666Y-30350577D02*
X67300000Y-30302958D01*
X67300000Y-30302958D02*
X67366666Y-30255339D01*
X67366666Y-30255339D02*
X67533333Y-30255339D01*
X67533333Y-30255339D02*
X67633333Y-30302958D01*
X67933333Y-31255339D02*
X67933333Y-30255339D01*
X68633333Y-30302958D02*
X68566666Y-30255339D01*
X68566666Y-30255339D02*
X68466666Y-30255339D01*
X68466666Y-30255339D02*
X68366666Y-30302958D01*
X68366666Y-30302958D02*
X68300000Y-30398196D01*
X68300000Y-30398196D02*
X68266666Y-30493434D01*
X68266666Y-30493434D02*
X68233333Y-30683910D01*
X68233333Y-30683910D02*
X68233333Y-30826767D01*
X68233333Y-30826767D02*
X68266666Y-31017243D01*
X68266666Y-31017243D02*
X68300000Y-31112481D01*
X68300000Y-31112481D02*
X68366666Y-31207720D01*
X68366666Y-31207720D02*
X68466666Y-31255339D01*
X68466666Y-31255339D02*
X68533333Y-31255339D01*
X68533333Y-31255339D02*
X68633333Y-31207720D01*
X68633333Y-31207720D02*
X68666666Y-31160100D01*
X68666666Y-31160100D02*
X68666666Y-30826767D01*
X68666666Y-30826767D02*
X68533333Y-30826767D01*
X68966666Y-31255339D02*
X68966666Y-30255339D01*
X68966666Y-30255339D02*
X69366666Y-31255339D01*
X69366666Y-31255339D02*
X69366666Y-30255339D01*
X69666666Y-30969624D02*
X69999999Y-30969624D01*
X69599999Y-31255339D02*
X69833333Y-30255339D01*
X69833333Y-30255339D02*
X70066666Y-31255339D01*
X70633333Y-31255339D02*
X70299999Y-31255339D01*
X70299999Y-31255339D02*
X70299999Y-30255339D01*
D10*
X143901918Y-91716665D02*
X143854299Y-91783332D01*
X143854299Y-91783332D02*
X143854299Y-91883332D01*
X143854299Y-91883332D02*
X143901918Y-91983332D01*
X143901918Y-91983332D02*
X143997156Y-92049999D01*
X143997156Y-92049999D02*
X144092394Y-92083332D01*
X144092394Y-92083332D02*
X144282870Y-92116665D01*
X144282870Y-92116665D02*
X144425727Y-92116665D01*
X144425727Y-92116665D02*
X144616203Y-92083332D01*
X144616203Y-92083332D02*
X144711441Y-92049999D01*
X144711441Y-92049999D02*
X144806680Y-91983332D01*
X144806680Y-91983332D02*
X144854299Y-91883332D01*
X144854299Y-91883332D02*
X144854299Y-91816665D01*
X144854299Y-91816665D02*
X144806680Y-91716665D01*
X144806680Y-91716665D02*
X144759060Y-91683332D01*
X144759060Y-91683332D02*
X144425727Y-91683332D01*
X144425727Y-91683332D02*
X144425727Y-91816665D01*
X144854299Y-91383332D02*
X143854299Y-91383332D01*
X143854299Y-91383332D02*
X144854299Y-90983332D01*
X144854299Y-90983332D02*
X143854299Y-90983332D01*
X144854299Y-90649999D02*
X143854299Y-90649999D01*
X143854299Y-90649999D02*
X143854299Y-90483332D01*
X143854299Y-90483332D02*
X143901918Y-90383332D01*
X143901918Y-90383332D02*
X143997156Y-90316666D01*
X143997156Y-90316666D02*
X144092394Y-90283332D01*
X144092394Y-90283332D02*
X144282870Y-90249999D01*
X144282870Y-90249999D02*
X144425727Y-90249999D01*
X144425727Y-90249999D02*
X144616203Y-90283332D01*
X144616203Y-90283332D02*
X144711441Y-90316666D01*
X144711441Y-90316666D02*
X144806680Y-90383332D01*
X144806680Y-90383332D02*
X144854299Y-90483332D01*
X144854299Y-90483332D02*
X144854299Y-90649999D01*
X178554299Y-24766666D02*
X177554299Y-24766666D01*
X177554299Y-24766666D02*
X177554299Y-24499999D01*
X177554299Y-24499999D02*
X177601918Y-24433333D01*
X177601918Y-24433333D02*
X177649537Y-24399999D01*
X177649537Y-24399999D02*
X177744775Y-24366666D01*
X177744775Y-24366666D02*
X177887632Y-24366666D01*
X177887632Y-24366666D02*
X177982870Y-24399999D01*
X177982870Y-24399999D02*
X178030489Y-24433333D01*
X178030489Y-24433333D02*
X178078108Y-24499999D01*
X178078108Y-24499999D02*
X178078108Y-24766666D01*
X178268584Y-24099999D02*
X178268584Y-23766666D01*
X178554299Y-24166666D02*
X177554299Y-23933333D01*
X177554299Y-23933333D02*
X178554299Y-23699999D01*
X178554299Y-23099999D02*
X178554299Y-23499999D01*
X178554299Y-23299999D02*
X177554299Y-23299999D01*
X177554299Y-23299999D02*
X177697156Y-23366666D01*
X177697156Y-23366666D02*
X177792394Y-23433333D01*
X177792394Y-23433333D02*
X177840013Y-23499999D01*
X177554299Y-22466666D02*
X177554299Y-22799999D01*
X177554299Y-22799999D02*
X178030489Y-22833332D01*
X178030489Y-22833332D02*
X177982870Y-22799999D01*
X177982870Y-22799999D02*
X177935251Y-22733332D01*
X177935251Y-22733332D02*
X177935251Y-22566666D01*
X177935251Y-22566666D02*
X177982870Y-22499999D01*
X177982870Y-22499999D02*
X178030489Y-22466666D01*
X178030489Y-22466666D02*
X178125727Y-22433332D01*
X178125727Y-22433332D02*
X178363822Y-22433332D01*
X178363822Y-22433332D02*
X178459060Y-22466666D01*
X178459060Y-22466666D02*
X178506680Y-22499999D01*
X178506680Y-22499999D02*
X178554299Y-22566666D01*
X178554299Y-22566666D02*
X178554299Y-22733332D01*
X178554299Y-22733332D02*
X178506680Y-22799999D01*
X178506680Y-22799999D02*
X178459060Y-22833332D01*
X168454299Y-24766666D02*
X167454299Y-24766666D01*
X167454299Y-24766666D02*
X167454299Y-24499999D01*
X167454299Y-24499999D02*
X167501918Y-24433333D01*
X167501918Y-24433333D02*
X167549537Y-24399999D01*
X167549537Y-24399999D02*
X167644775Y-24366666D01*
X167644775Y-24366666D02*
X167787632Y-24366666D01*
X167787632Y-24366666D02*
X167882870Y-24399999D01*
X167882870Y-24399999D02*
X167930489Y-24433333D01*
X167930489Y-24433333D02*
X167978108Y-24499999D01*
X167978108Y-24499999D02*
X167978108Y-24766666D01*
X168454299Y-24066666D02*
X167454299Y-24066666D01*
X167454299Y-24066666D02*
X167454299Y-23899999D01*
X167454299Y-23899999D02*
X167501918Y-23799999D01*
X167501918Y-23799999D02*
X167597156Y-23733333D01*
X167597156Y-23733333D02*
X167692394Y-23699999D01*
X167692394Y-23699999D02*
X167882870Y-23666666D01*
X167882870Y-23666666D02*
X168025727Y-23666666D01*
X168025727Y-23666666D02*
X168216203Y-23699999D01*
X168216203Y-23699999D02*
X168311441Y-23733333D01*
X168311441Y-23733333D02*
X168406680Y-23799999D01*
X168406680Y-23799999D02*
X168454299Y-23899999D01*
X168454299Y-23899999D02*
X168454299Y-24066666D01*
X167454299Y-23233333D02*
X167454299Y-23166666D01*
X167454299Y-23166666D02*
X167501918Y-23099999D01*
X167501918Y-23099999D02*
X167549537Y-23066666D01*
X167549537Y-23066666D02*
X167644775Y-23033333D01*
X167644775Y-23033333D02*
X167835251Y-22999999D01*
X167835251Y-22999999D02*
X168073346Y-22999999D01*
X168073346Y-22999999D02*
X168263822Y-23033333D01*
X168263822Y-23033333D02*
X168359060Y-23066666D01*
X168359060Y-23066666D02*
X168406680Y-23099999D01*
X168406680Y-23099999D02*
X168454299Y-23166666D01*
X168454299Y-23166666D02*
X168454299Y-23233333D01*
X168454299Y-23233333D02*
X168406680Y-23299999D01*
X168406680Y-23299999D02*
X168359060Y-23333333D01*
X168359060Y-23333333D02*
X168263822Y-23366666D01*
X168263822Y-23366666D02*
X168073346Y-23399999D01*
X168073346Y-23399999D02*
X167835251Y-23399999D01*
X167835251Y-23399999D02*
X167644775Y-23366666D01*
X167644775Y-23366666D02*
X167549537Y-23333333D01*
X167549537Y-23333333D02*
X167501918Y-23299999D01*
X167501918Y-23299999D02*
X167454299Y-23233333D01*
X165106680Y-35133332D02*
X165154299Y-35033332D01*
X165154299Y-35033332D02*
X165154299Y-34866666D01*
X165154299Y-34866666D02*
X165106680Y-34799999D01*
X165106680Y-34799999D02*
X165059060Y-34766666D01*
X165059060Y-34766666D02*
X164963822Y-34733332D01*
X164963822Y-34733332D02*
X164868584Y-34733332D01*
X164868584Y-34733332D02*
X164773346Y-34766666D01*
X164773346Y-34766666D02*
X164725727Y-34799999D01*
X164725727Y-34799999D02*
X164678108Y-34866666D01*
X164678108Y-34866666D02*
X164630489Y-34999999D01*
X164630489Y-34999999D02*
X164582870Y-35066666D01*
X164582870Y-35066666D02*
X164535251Y-35099999D01*
X164535251Y-35099999D02*
X164440013Y-35133332D01*
X164440013Y-35133332D02*
X164344775Y-35133332D01*
X164344775Y-35133332D02*
X164249537Y-35099999D01*
X164249537Y-35099999D02*
X164201918Y-35066666D01*
X164201918Y-35066666D02*
X164154299Y-34999999D01*
X164154299Y-34999999D02*
X164154299Y-34833332D01*
X164154299Y-34833332D02*
X164201918Y-34733332D01*
X164154299Y-34499999D02*
X165154299Y-34333332D01*
X165154299Y-34333332D02*
X164440013Y-34199999D01*
X164440013Y-34199999D02*
X165154299Y-34066665D01*
X165154299Y-34066665D02*
X164154299Y-33899999D01*
X165059060Y-33233332D02*
X165106680Y-33266665D01*
X165106680Y-33266665D02*
X165154299Y-33366665D01*
X165154299Y-33366665D02*
X165154299Y-33433332D01*
X165154299Y-33433332D02*
X165106680Y-33533332D01*
X165106680Y-33533332D02*
X165011441Y-33599999D01*
X165011441Y-33599999D02*
X164916203Y-33633332D01*
X164916203Y-33633332D02*
X164725727Y-33666665D01*
X164725727Y-33666665D02*
X164582870Y-33666665D01*
X164582870Y-33666665D02*
X164392394Y-33633332D01*
X164392394Y-33633332D02*
X164297156Y-33599999D01*
X164297156Y-33599999D02*
X164201918Y-33533332D01*
X164201918Y-33533332D02*
X164154299Y-33433332D01*
X164154299Y-33433332D02*
X164154299Y-33366665D01*
X164154299Y-33366665D02*
X164201918Y-33266665D01*
X164201918Y-33266665D02*
X164249537Y-33233332D01*
X165154299Y-32599999D02*
X165154299Y-32933332D01*
X165154299Y-32933332D02*
X164154299Y-32933332D01*
X165154299Y-32366665D02*
X164154299Y-32366665D01*
X165154299Y-31966665D02*
X164582870Y-32266665D01*
X164154299Y-31966665D02*
X164725727Y-32366665D01*
X165854299Y-24766666D02*
X164854299Y-24766666D01*
X164854299Y-24766666D02*
X164854299Y-24499999D01*
X164854299Y-24499999D02*
X164901918Y-24433333D01*
X164901918Y-24433333D02*
X164949537Y-24399999D01*
X164949537Y-24399999D02*
X165044775Y-24366666D01*
X165044775Y-24366666D02*
X165187632Y-24366666D01*
X165187632Y-24366666D02*
X165282870Y-24399999D01*
X165282870Y-24399999D02*
X165330489Y-24433333D01*
X165330489Y-24433333D02*
X165378108Y-24499999D01*
X165378108Y-24499999D02*
X165378108Y-24766666D01*
X165854299Y-24066666D02*
X164854299Y-24066666D01*
X164854299Y-24066666D02*
X164854299Y-23899999D01*
X164854299Y-23899999D02*
X164901918Y-23799999D01*
X164901918Y-23799999D02*
X164997156Y-23733333D01*
X164997156Y-23733333D02*
X165092394Y-23699999D01*
X165092394Y-23699999D02*
X165282870Y-23666666D01*
X165282870Y-23666666D02*
X165425727Y-23666666D01*
X165425727Y-23666666D02*
X165616203Y-23699999D01*
X165616203Y-23699999D02*
X165711441Y-23733333D01*
X165711441Y-23733333D02*
X165806680Y-23799999D01*
X165806680Y-23799999D02*
X165854299Y-23899999D01*
X165854299Y-23899999D02*
X165854299Y-24066666D01*
X165854299Y-22999999D02*
X165854299Y-23399999D01*
X165854299Y-23199999D02*
X164854299Y-23199999D01*
X164854299Y-23199999D02*
X164997156Y-23266666D01*
X164997156Y-23266666D02*
X165092394Y-23333333D01*
X165092394Y-23333333D02*
X165140013Y-23399999D01*
X160754299Y-24799999D02*
X159754299Y-24799999D01*
X159754299Y-24799999D02*
X159754299Y-24533332D01*
X159754299Y-24533332D02*
X159801918Y-24466666D01*
X159801918Y-24466666D02*
X159849537Y-24433332D01*
X159849537Y-24433332D02*
X159944775Y-24399999D01*
X159944775Y-24399999D02*
X160087632Y-24399999D01*
X160087632Y-24399999D02*
X160182870Y-24433332D01*
X160182870Y-24433332D02*
X160230489Y-24466666D01*
X160230489Y-24466666D02*
X160278108Y-24533332D01*
X160278108Y-24533332D02*
X160278108Y-24799999D01*
X160754299Y-24099999D02*
X159754299Y-24099999D01*
X159754299Y-24099999D02*
X159754299Y-23933332D01*
X159754299Y-23933332D02*
X159801918Y-23833332D01*
X159801918Y-23833332D02*
X159897156Y-23766666D01*
X159897156Y-23766666D02*
X159992394Y-23733332D01*
X159992394Y-23733332D02*
X160182870Y-23699999D01*
X160182870Y-23699999D02*
X160325727Y-23699999D01*
X160325727Y-23699999D02*
X160516203Y-23733332D01*
X160516203Y-23733332D02*
X160611441Y-23766666D01*
X160611441Y-23766666D02*
X160706680Y-23833332D01*
X160706680Y-23833332D02*
X160754299Y-23933332D01*
X160754299Y-23933332D02*
X160754299Y-24099999D01*
X159754299Y-23466666D02*
X159754299Y-23033332D01*
X159754299Y-23033332D02*
X160135251Y-23266666D01*
X160135251Y-23266666D02*
X160135251Y-23166666D01*
X160135251Y-23166666D02*
X160182870Y-23099999D01*
X160182870Y-23099999D02*
X160230489Y-23066666D01*
X160230489Y-23066666D02*
X160325727Y-23033332D01*
X160325727Y-23033332D02*
X160563822Y-23033332D01*
X160563822Y-23033332D02*
X160659060Y-23066666D01*
X160659060Y-23066666D02*
X160706680Y-23099999D01*
X160706680Y-23099999D02*
X160754299Y-23166666D01*
X160754299Y-23166666D02*
X160754299Y-23366666D01*
X160754299Y-23366666D02*
X160706680Y-23433332D01*
X160706680Y-23433332D02*
X160659060Y-23466666D01*
X38550000Y-46654299D02*
X38550000Y-45654299D01*
X38550000Y-45654299D02*
X38783334Y-46368584D01*
X38783334Y-46368584D02*
X39016667Y-45654299D01*
X39016667Y-45654299D02*
X39016667Y-46654299D01*
X39350000Y-46654299D02*
X39350000Y-45654299D01*
X40083333Y-46559060D02*
X40050000Y-46606680D01*
X40050000Y-46606680D02*
X39950000Y-46654299D01*
X39950000Y-46654299D02*
X39883333Y-46654299D01*
X39883333Y-46654299D02*
X39783333Y-46606680D01*
X39783333Y-46606680D02*
X39716667Y-46511441D01*
X39716667Y-46511441D02*
X39683333Y-46416203D01*
X39683333Y-46416203D02*
X39650000Y-46225727D01*
X39650000Y-46225727D02*
X39650000Y-46082870D01*
X39650000Y-46082870D02*
X39683333Y-45892394D01*
X39683333Y-45892394D02*
X39716667Y-45797156D01*
X39716667Y-45797156D02*
X39783333Y-45701918D01*
X39783333Y-45701918D02*
X39883333Y-45654299D01*
X39883333Y-45654299D02*
X39950000Y-45654299D01*
X39950000Y-45654299D02*
X40050000Y-45701918D01*
X40050000Y-45701918D02*
X40083333Y-45749537D01*
X169254299Y-35166666D02*
X169254299Y-34733332D01*
X169254299Y-34733332D02*
X169635251Y-34966666D01*
X169635251Y-34966666D02*
X169635251Y-34866666D01*
X169635251Y-34866666D02*
X169682870Y-34799999D01*
X169682870Y-34799999D02*
X169730489Y-34766666D01*
X169730489Y-34766666D02*
X169825727Y-34733332D01*
X169825727Y-34733332D02*
X170063822Y-34733332D01*
X170063822Y-34733332D02*
X170159060Y-34766666D01*
X170159060Y-34766666D02*
X170206680Y-34799999D01*
X170206680Y-34799999D02*
X170254299Y-34866666D01*
X170254299Y-34866666D02*
X170254299Y-35066666D01*
X170254299Y-35066666D02*
X170206680Y-35133332D01*
X170206680Y-35133332D02*
X170159060Y-35166666D01*
X169254299Y-34533332D02*
X170254299Y-34299999D01*
X170254299Y-34299999D02*
X169254299Y-34066665D01*
X169254299Y-33899999D02*
X169254299Y-33466665D01*
X169254299Y-33466665D02*
X169635251Y-33699999D01*
X169635251Y-33699999D02*
X169635251Y-33599999D01*
X169635251Y-33599999D02*
X169682870Y-33533332D01*
X169682870Y-33533332D02*
X169730489Y-33499999D01*
X169730489Y-33499999D02*
X169825727Y-33466665D01*
X169825727Y-33466665D02*
X170063822Y-33466665D01*
X170063822Y-33466665D02*
X170159060Y-33499999D01*
X170159060Y-33499999D02*
X170206680Y-33533332D01*
X170206680Y-33533332D02*
X170254299Y-33599999D01*
X170254299Y-33599999D02*
X170254299Y-33799999D01*
X170254299Y-33799999D02*
X170206680Y-33866665D01*
X170206680Y-33866665D02*
X170159060Y-33899999D01*
D11*
X28857142Y-48414171D02*
X28971428Y-48471314D01*
X28971428Y-48471314D02*
X29009523Y-48528457D01*
X29009523Y-48528457D02*
X29047619Y-48642742D01*
X29047619Y-48642742D02*
X29047619Y-48814171D01*
X29047619Y-48814171D02*
X29009523Y-48928457D01*
X29009523Y-48928457D02*
X28971428Y-48985600D01*
X28971428Y-48985600D02*
X28895238Y-49042742D01*
X28895238Y-49042742D02*
X28590476Y-49042742D01*
X28590476Y-49042742D02*
X28590476Y-47842742D01*
X28590476Y-47842742D02*
X28857142Y-47842742D01*
X28857142Y-47842742D02*
X28933333Y-47899885D01*
X28933333Y-47899885D02*
X28971428Y-47957028D01*
X28971428Y-47957028D02*
X29009523Y-48071314D01*
X29009523Y-48071314D02*
X29009523Y-48185600D01*
X29009523Y-48185600D02*
X28971428Y-48299885D01*
X28971428Y-48299885D02*
X28933333Y-48357028D01*
X28933333Y-48357028D02*
X28857142Y-48414171D01*
X28857142Y-48414171D02*
X28590476Y-48414171D01*
X29542857Y-47842742D02*
X29695238Y-47842742D01*
X29695238Y-47842742D02*
X29771428Y-47899885D01*
X29771428Y-47899885D02*
X29847619Y-48014171D01*
X29847619Y-48014171D02*
X29885714Y-48242742D01*
X29885714Y-48242742D02*
X29885714Y-48642742D01*
X29885714Y-48642742D02*
X29847619Y-48871314D01*
X29847619Y-48871314D02*
X29771428Y-48985600D01*
X29771428Y-48985600D02*
X29695238Y-49042742D01*
X29695238Y-49042742D02*
X29542857Y-49042742D01*
X29542857Y-49042742D02*
X29466666Y-48985600D01*
X29466666Y-48985600D02*
X29390476Y-48871314D01*
X29390476Y-48871314D02*
X29352380Y-48642742D01*
X29352380Y-48642742D02*
X29352380Y-48242742D01*
X29352380Y-48242742D02*
X29390476Y-48014171D01*
X29390476Y-48014171D02*
X29466666Y-47899885D01*
X29466666Y-47899885D02*
X29542857Y-47842742D01*
X30799999Y-47957028D02*
X30838095Y-47899885D01*
X30838095Y-47899885D02*
X30914285Y-47842742D01*
X30914285Y-47842742D02*
X31104761Y-47842742D01*
X31104761Y-47842742D02*
X31180952Y-47899885D01*
X31180952Y-47899885D02*
X31219047Y-47957028D01*
X31219047Y-47957028D02*
X31257142Y-48071314D01*
X31257142Y-48071314D02*
X31257142Y-48185600D01*
X31257142Y-48185600D02*
X31219047Y-48357028D01*
X31219047Y-48357028D02*
X30761904Y-49042742D01*
X30761904Y-49042742D02*
X31257142Y-49042742D01*
X32171428Y-47785600D02*
X31485714Y-49328457D01*
X32399999Y-47957028D02*
X32438095Y-47899885D01*
X32438095Y-47899885D02*
X32514285Y-47842742D01*
X32514285Y-47842742D02*
X32704761Y-47842742D01*
X32704761Y-47842742D02*
X32780952Y-47899885D01*
X32780952Y-47899885D02*
X32819047Y-47957028D01*
X32819047Y-47957028D02*
X32857142Y-48071314D01*
X32857142Y-48071314D02*
X32857142Y-48185600D01*
X32857142Y-48185600D02*
X32819047Y-48357028D01*
X32819047Y-48357028D02*
X32361904Y-49042742D01*
X32361904Y-49042742D02*
X32857142Y-49042742D01*
X33542857Y-47842742D02*
X33390476Y-47842742D01*
X33390476Y-47842742D02*
X33314285Y-47899885D01*
X33314285Y-47899885D02*
X33276190Y-47957028D01*
X33276190Y-47957028D02*
X33200000Y-48128457D01*
X33200000Y-48128457D02*
X33161904Y-48357028D01*
X33161904Y-48357028D02*
X33161904Y-48814171D01*
X33161904Y-48814171D02*
X33200000Y-48928457D01*
X33200000Y-48928457D02*
X33238095Y-48985600D01*
X33238095Y-48985600D02*
X33314285Y-49042742D01*
X33314285Y-49042742D02*
X33466666Y-49042742D01*
X33466666Y-49042742D02*
X33542857Y-48985600D01*
X33542857Y-48985600D02*
X33580952Y-48928457D01*
X33580952Y-48928457D02*
X33619047Y-48814171D01*
X33619047Y-48814171D02*
X33619047Y-48528457D01*
X33619047Y-48528457D02*
X33580952Y-48414171D01*
X33580952Y-48414171D02*
X33542857Y-48357028D01*
X33542857Y-48357028D02*
X33466666Y-48299885D01*
X33466666Y-48299885D02*
X33314285Y-48299885D01*
X33314285Y-48299885D02*
X33238095Y-48357028D01*
X33238095Y-48357028D02*
X33200000Y-48414171D01*
X33200000Y-48414171D02*
X33161904Y-48528457D01*
X35028572Y-49042742D02*
X34761905Y-48471314D01*
X34571429Y-49042742D02*
X34571429Y-47842742D01*
X34571429Y-47842742D02*
X34876191Y-47842742D01*
X34876191Y-47842742D02*
X34952381Y-47899885D01*
X34952381Y-47899885D02*
X34990476Y-47957028D01*
X34990476Y-47957028D02*
X35028572Y-48071314D01*
X35028572Y-48071314D02*
X35028572Y-48242742D01*
X35028572Y-48242742D02*
X34990476Y-48357028D01*
X34990476Y-48357028D02*
X34952381Y-48414171D01*
X34952381Y-48414171D02*
X34876191Y-48471314D01*
X34876191Y-48471314D02*
X34571429Y-48471314D01*
X35371429Y-48414171D02*
X35638095Y-48414171D01*
X35752381Y-49042742D02*
X35371429Y-49042742D01*
X35371429Y-49042742D02*
X35371429Y-47842742D01*
X35371429Y-47842742D02*
X35752381Y-47842742D01*
X35980953Y-47842742D02*
X36247620Y-49042742D01*
X36247620Y-49042742D02*
X36514286Y-47842742D01*
X37657143Y-48414171D02*
X37771429Y-48471314D01*
X37771429Y-48471314D02*
X37809524Y-48528457D01*
X37809524Y-48528457D02*
X37847620Y-48642742D01*
X37847620Y-48642742D02*
X37847620Y-48814171D01*
X37847620Y-48814171D02*
X37809524Y-48928457D01*
X37809524Y-48928457D02*
X37771429Y-48985600D01*
X37771429Y-48985600D02*
X37695239Y-49042742D01*
X37695239Y-49042742D02*
X37390477Y-49042742D01*
X37390477Y-49042742D02*
X37390477Y-47842742D01*
X37390477Y-47842742D02*
X37657143Y-47842742D01*
X37657143Y-47842742D02*
X37733334Y-47899885D01*
X37733334Y-47899885D02*
X37771429Y-47957028D01*
X37771429Y-47957028D02*
X37809524Y-48071314D01*
X37809524Y-48071314D02*
X37809524Y-48185600D01*
X37809524Y-48185600D02*
X37771429Y-48299885D01*
X37771429Y-48299885D02*
X37733334Y-48357028D01*
X37733334Y-48357028D02*
X37657143Y-48414171D01*
X37657143Y-48414171D02*
X37390477Y-48414171D01*
D10*
X152554299Y-92016666D02*
X151554299Y-92016666D01*
X151554299Y-92016666D02*
X151554299Y-91749999D01*
X151554299Y-91749999D02*
X151601918Y-91683333D01*
X151601918Y-91683333D02*
X151649537Y-91649999D01*
X151649537Y-91649999D02*
X151744775Y-91616666D01*
X151744775Y-91616666D02*
X151887632Y-91616666D01*
X151887632Y-91616666D02*
X151982870Y-91649999D01*
X151982870Y-91649999D02*
X152030489Y-91683333D01*
X152030489Y-91683333D02*
X152078108Y-91749999D01*
X152078108Y-91749999D02*
X152078108Y-92016666D01*
X152030489Y-91083333D02*
X152078108Y-90983333D01*
X152078108Y-90983333D02*
X152125727Y-90949999D01*
X152125727Y-90949999D02*
X152220965Y-90916666D01*
X152220965Y-90916666D02*
X152363822Y-90916666D01*
X152363822Y-90916666D02*
X152459060Y-90949999D01*
X152459060Y-90949999D02*
X152506680Y-90983333D01*
X152506680Y-90983333D02*
X152554299Y-91049999D01*
X152554299Y-91049999D02*
X152554299Y-91316666D01*
X152554299Y-91316666D02*
X151554299Y-91316666D01*
X151554299Y-91316666D02*
X151554299Y-91083333D01*
X151554299Y-91083333D02*
X151601918Y-91016666D01*
X151601918Y-91016666D02*
X151649537Y-90983333D01*
X151649537Y-90983333D02*
X151744775Y-90949999D01*
X151744775Y-90949999D02*
X151840013Y-90949999D01*
X151840013Y-90949999D02*
X151935251Y-90983333D01*
X151935251Y-90983333D02*
X151982870Y-91016666D01*
X151982870Y-91016666D02*
X152030489Y-91083333D01*
X152030489Y-91083333D02*
X152030489Y-91316666D01*
X152554299Y-90249999D02*
X152554299Y-90649999D01*
X152554299Y-90449999D02*
X151554299Y-90449999D01*
X151554299Y-90449999D02*
X151697156Y-90516666D01*
X151697156Y-90516666D02*
X151792394Y-90583333D01*
X151792394Y-90583333D02*
X151840013Y-90649999D01*
X167754299Y-91949999D02*
X166754299Y-91949999D01*
X166754299Y-91949999D02*
X166754299Y-91683332D01*
X166754299Y-91683332D02*
X166801918Y-91616666D01*
X166801918Y-91616666D02*
X166849537Y-91583332D01*
X166849537Y-91583332D02*
X166944775Y-91549999D01*
X166944775Y-91549999D02*
X167087632Y-91549999D01*
X167087632Y-91549999D02*
X167182870Y-91583332D01*
X167182870Y-91583332D02*
X167230489Y-91616666D01*
X167230489Y-91616666D02*
X167278108Y-91683332D01*
X167278108Y-91683332D02*
X167278108Y-91949999D01*
X167230489Y-91249999D02*
X167230489Y-91016666D01*
X167754299Y-90916666D02*
X167754299Y-91249999D01*
X167754299Y-91249999D02*
X166754299Y-91249999D01*
X166754299Y-91249999D02*
X166754299Y-90916666D01*
X167754299Y-90583333D02*
X167754299Y-90449999D01*
X167754299Y-90449999D02*
X167706680Y-90383333D01*
X167706680Y-90383333D02*
X167659060Y-90349999D01*
X167659060Y-90349999D02*
X167516203Y-90283333D01*
X167516203Y-90283333D02*
X167325727Y-90249999D01*
X167325727Y-90249999D02*
X166944775Y-90249999D01*
X166944775Y-90249999D02*
X166849537Y-90283333D01*
X166849537Y-90283333D02*
X166801918Y-90316666D01*
X166801918Y-90316666D02*
X166754299Y-90383333D01*
X166754299Y-90383333D02*
X166754299Y-90516666D01*
X166754299Y-90516666D02*
X166801918Y-90583333D01*
X166801918Y-90583333D02*
X166849537Y-90616666D01*
X166849537Y-90616666D02*
X166944775Y-90649999D01*
X166944775Y-90649999D02*
X167182870Y-90649999D01*
X167182870Y-90649999D02*
X167278108Y-90616666D01*
X167278108Y-90616666D02*
X167325727Y-90583333D01*
X167325727Y-90583333D02*
X167373346Y-90516666D01*
X167373346Y-90516666D02*
X167373346Y-90383333D01*
X167373346Y-90383333D02*
X167325727Y-90316666D01*
X167325727Y-90316666D02*
X167278108Y-90283333D01*
X167278108Y-90283333D02*
X167182870Y-90249999D01*
X148154299Y-24799999D02*
X147154299Y-24799999D01*
X147154299Y-24799999D02*
X147154299Y-24533332D01*
X147154299Y-24533332D02*
X147201918Y-24466666D01*
X147201918Y-24466666D02*
X147249537Y-24433332D01*
X147249537Y-24433332D02*
X147344775Y-24399999D01*
X147344775Y-24399999D02*
X147487632Y-24399999D01*
X147487632Y-24399999D02*
X147582870Y-24433332D01*
X147582870Y-24433332D02*
X147630489Y-24466666D01*
X147630489Y-24466666D02*
X147678108Y-24533332D01*
X147678108Y-24533332D02*
X147678108Y-24799999D01*
X147630489Y-23866666D02*
X147678108Y-23766666D01*
X147678108Y-23766666D02*
X147725727Y-23733332D01*
X147725727Y-23733332D02*
X147820965Y-23699999D01*
X147820965Y-23699999D02*
X147963822Y-23699999D01*
X147963822Y-23699999D02*
X148059060Y-23733332D01*
X148059060Y-23733332D02*
X148106680Y-23766666D01*
X148106680Y-23766666D02*
X148154299Y-23833332D01*
X148154299Y-23833332D02*
X148154299Y-24099999D01*
X148154299Y-24099999D02*
X147154299Y-24099999D01*
X147154299Y-24099999D02*
X147154299Y-23866666D01*
X147154299Y-23866666D02*
X147201918Y-23799999D01*
X147201918Y-23799999D02*
X147249537Y-23766666D01*
X147249537Y-23766666D02*
X147344775Y-23733332D01*
X147344775Y-23733332D02*
X147440013Y-23733332D01*
X147440013Y-23733332D02*
X147535251Y-23766666D01*
X147535251Y-23766666D02*
X147582870Y-23799999D01*
X147582870Y-23799999D02*
X147630489Y-23866666D01*
X147630489Y-23866666D02*
X147630489Y-24099999D01*
X147154299Y-23066666D02*
X147154299Y-23399999D01*
X147154299Y-23399999D02*
X147630489Y-23433332D01*
X147630489Y-23433332D02*
X147582870Y-23399999D01*
X147582870Y-23399999D02*
X147535251Y-23333332D01*
X147535251Y-23333332D02*
X147535251Y-23166666D01*
X147535251Y-23166666D02*
X147582870Y-23099999D01*
X147582870Y-23099999D02*
X147630489Y-23066666D01*
X147630489Y-23066666D02*
X147725727Y-23033332D01*
X147725727Y-23033332D02*
X147963822Y-23033332D01*
X147963822Y-23033332D02*
X148059060Y-23066666D01*
X148059060Y-23066666D02*
X148106680Y-23099999D01*
X148106680Y-23099999D02*
X148154299Y-23166666D01*
X148154299Y-23166666D02*
X148154299Y-23333332D01*
X148154299Y-23333332D02*
X148106680Y-23399999D01*
X148106680Y-23399999D02*
X148059060Y-23433332D01*
X175354299Y-92616666D02*
X174354299Y-92616666D01*
X174354299Y-92616666D02*
X174354299Y-92349999D01*
X174354299Y-92349999D02*
X174401918Y-92283333D01*
X174401918Y-92283333D02*
X174449537Y-92249999D01*
X174449537Y-92249999D02*
X174544775Y-92216666D01*
X174544775Y-92216666D02*
X174687632Y-92216666D01*
X174687632Y-92216666D02*
X174782870Y-92249999D01*
X174782870Y-92249999D02*
X174830489Y-92283333D01*
X174830489Y-92283333D02*
X174878108Y-92349999D01*
X174878108Y-92349999D02*
X174878108Y-92616666D01*
X174830489Y-91916666D02*
X174830489Y-91683333D01*
X175354299Y-91583333D02*
X175354299Y-91916666D01*
X175354299Y-91916666D02*
X174354299Y-91916666D01*
X174354299Y-91916666D02*
X174354299Y-91583333D01*
X175354299Y-90916666D02*
X175354299Y-91316666D01*
X175354299Y-91116666D02*
X174354299Y-91116666D01*
X174354299Y-91116666D02*
X174497156Y-91183333D01*
X174497156Y-91183333D02*
X174592394Y-91250000D01*
X174592394Y-91250000D02*
X174640013Y-91316666D01*
X174449537Y-90649999D02*
X174401918Y-90616666D01*
X174401918Y-90616666D02*
X174354299Y-90549999D01*
X174354299Y-90549999D02*
X174354299Y-90383333D01*
X174354299Y-90383333D02*
X174401918Y-90316666D01*
X174401918Y-90316666D02*
X174449537Y-90283333D01*
X174449537Y-90283333D02*
X174544775Y-90249999D01*
X174544775Y-90249999D02*
X174640013Y-90249999D01*
X174640013Y-90249999D02*
X174782870Y-90283333D01*
X174782870Y-90283333D02*
X175354299Y-90683333D01*
X175354299Y-90683333D02*
X175354299Y-90249999D01*
X159201918Y-91716665D02*
X159154299Y-91783332D01*
X159154299Y-91783332D02*
X159154299Y-91883332D01*
X159154299Y-91883332D02*
X159201918Y-91983332D01*
X159201918Y-91983332D02*
X159297156Y-92049999D01*
X159297156Y-92049999D02*
X159392394Y-92083332D01*
X159392394Y-92083332D02*
X159582870Y-92116665D01*
X159582870Y-92116665D02*
X159725727Y-92116665D01*
X159725727Y-92116665D02*
X159916203Y-92083332D01*
X159916203Y-92083332D02*
X160011441Y-92049999D01*
X160011441Y-92049999D02*
X160106680Y-91983332D01*
X160106680Y-91983332D02*
X160154299Y-91883332D01*
X160154299Y-91883332D02*
X160154299Y-91816665D01*
X160154299Y-91816665D02*
X160106680Y-91716665D01*
X160106680Y-91716665D02*
X160059060Y-91683332D01*
X160059060Y-91683332D02*
X159725727Y-91683332D01*
X159725727Y-91683332D02*
X159725727Y-91816665D01*
X160154299Y-91383332D02*
X159154299Y-91383332D01*
X159154299Y-91383332D02*
X160154299Y-90983332D01*
X160154299Y-90983332D02*
X159154299Y-90983332D01*
X160154299Y-90649999D02*
X159154299Y-90649999D01*
X159154299Y-90649999D02*
X159154299Y-90483332D01*
X159154299Y-90483332D02*
X159201918Y-90383332D01*
X159201918Y-90383332D02*
X159297156Y-90316666D01*
X159297156Y-90316666D02*
X159392394Y-90283332D01*
X159392394Y-90283332D02*
X159582870Y-90249999D01*
X159582870Y-90249999D02*
X159725727Y-90249999D01*
X159725727Y-90249999D02*
X159916203Y-90283332D01*
X159916203Y-90283332D02*
X160011441Y-90316666D01*
X160011441Y-90316666D02*
X160106680Y-90383332D01*
X160106680Y-90383332D02*
X160154299Y-90483332D01*
X160154299Y-90483332D02*
X160154299Y-90649999D01*
X33845700Y-38716667D02*
X33845700Y-39116667D01*
X32845700Y-38916667D02*
X33845700Y-38916667D01*
X32845700Y-39350000D02*
X33845700Y-39350000D01*
X33845700Y-39350000D02*
X33845700Y-39616667D01*
X33845700Y-39616667D02*
X33798081Y-39683334D01*
X33798081Y-39683334D02*
X33750462Y-39716667D01*
X33750462Y-39716667D02*
X33655224Y-39750000D01*
X33655224Y-39750000D02*
X33512367Y-39750000D01*
X33512367Y-39750000D02*
X33417129Y-39716667D01*
X33417129Y-39716667D02*
X33369510Y-39683334D01*
X33369510Y-39683334D02*
X33321891Y-39616667D01*
X33321891Y-39616667D02*
X33321891Y-39350000D01*
X32750462Y-39883334D02*
X32750462Y-40416667D01*
X33798081Y-40950000D02*
X33845700Y-40883333D01*
X33845700Y-40883333D02*
X33845700Y-40783333D01*
X33845700Y-40783333D02*
X33798081Y-40683333D01*
X33798081Y-40683333D02*
X33702843Y-40616667D01*
X33702843Y-40616667D02*
X33607605Y-40583333D01*
X33607605Y-40583333D02*
X33417129Y-40550000D01*
X33417129Y-40550000D02*
X33274272Y-40550000D01*
X33274272Y-40550000D02*
X33083796Y-40583333D01*
X33083796Y-40583333D02*
X32988558Y-40616667D01*
X32988558Y-40616667D02*
X32893320Y-40683333D01*
X32893320Y-40683333D02*
X32845700Y-40783333D01*
X32845700Y-40783333D02*
X32845700Y-40850000D01*
X32845700Y-40850000D02*
X32893320Y-40950000D01*
X32893320Y-40950000D02*
X32940939Y-40983333D01*
X32940939Y-40983333D02*
X33274272Y-40983333D01*
X33274272Y-40983333D02*
X33274272Y-40850000D01*
X32845700Y-41283333D02*
X33845700Y-41283333D01*
X33845700Y-41283333D02*
X32845700Y-41683333D01*
X32845700Y-41683333D02*
X33845700Y-41683333D01*
X32845700Y-42016666D02*
X33845700Y-42016666D01*
X33845700Y-42016666D02*
X33845700Y-42183333D01*
X33845700Y-42183333D02*
X33798081Y-42283333D01*
X33798081Y-42283333D02*
X33702843Y-42350000D01*
X33702843Y-42350000D02*
X33607605Y-42383333D01*
X33607605Y-42383333D02*
X33417129Y-42416666D01*
X33417129Y-42416666D02*
X33274272Y-42416666D01*
X33274272Y-42416666D02*
X33083796Y-42383333D01*
X33083796Y-42383333D02*
X32988558Y-42350000D01*
X32988558Y-42350000D02*
X32893320Y-42283333D01*
X32893320Y-42283333D02*
X32845700Y-42183333D01*
X32845700Y-42183333D02*
X32845700Y-42016666D01*
X136954299Y-24866666D02*
X136954299Y-24433332D01*
X136954299Y-24433332D02*
X137335251Y-24666666D01*
X137335251Y-24666666D02*
X137335251Y-24566666D01*
X137335251Y-24566666D02*
X137382870Y-24499999D01*
X137382870Y-24499999D02*
X137430489Y-24466666D01*
X137430489Y-24466666D02*
X137525727Y-24433332D01*
X137525727Y-24433332D02*
X137763822Y-24433332D01*
X137763822Y-24433332D02*
X137859060Y-24466666D01*
X137859060Y-24466666D02*
X137906680Y-24499999D01*
X137906680Y-24499999D02*
X137954299Y-24566666D01*
X137954299Y-24566666D02*
X137954299Y-24766666D01*
X137954299Y-24766666D02*
X137906680Y-24833332D01*
X137906680Y-24833332D02*
X137859060Y-24866666D01*
X136954299Y-24233332D02*
X137954299Y-23999999D01*
X137954299Y-23999999D02*
X136954299Y-23766665D01*
X136954299Y-23599999D02*
X136954299Y-23166665D01*
X136954299Y-23166665D02*
X137335251Y-23399999D01*
X137335251Y-23399999D02*
X137335251Y-23299999D01*
X137335251Y-23299999D02*
X137382870Y-23233332D01*
X137382870Y-23233332D02*
X137430489Y-23199999D01*
X137430489Y-23199999D02*
X137525727Y-23166665D01*
X137525727Y-23166665D02*
X137763822Y-23166665D01*
X137763822Y-23166665D02*
X137859060Y-23199999D01*
X137859060Y-23199999D02*
X137906680Y-23233332D01*
X137906680Y-23233332D02*
X137954299Y-23299999D01*
X137954299Y-23299999D02*
X137954299Y-23499999D01*
X137954299Y-23499999D02*
X137906680Y-23566665D01*
X137906680Y-23566665D02*
X137859060Y-23599999D01*
X46954299Y-53983332D02*
X46954299Y-53583332D01*
X47954299Y-53783332D02*
X46954299Y-53783332D01*
X47954299Y-53349999D02*
X46954299Y-53349999D01*
X46954299Y-53349999D02*
X46954299Y-53083332D01*
X46954299Y-53083332D02*
X47001918Y-53016666D01*
X47001918Y-53016666D02*
X47049537Y-52983332D01*
X47049537Y-52983332D02*
X47144775Y-52949999D01*
X47144775Y-52949999D02*
X47287632Y-52949999D01*
X47287632Y-52949999D02*
X47382870Y-52983332D01*
X47382870Y-52983332D02*
X47430489Y-53016666D01*
X47430489Y-53016666D02*
X47478108Y-53083332D01*
X47478108Y-53083332D02*
X47478108Y-53349999D01*
X48049537Y-52816666D02*
X48049537Y-52283332D01*
X46954299Y-52216666D02*
X47954299Y-51983333D01*
X47954299Y-51983333D02*
X46954299Y-51749999D01*
X47954299Y-51116666D02*
X47478108Y-51349999D01*
X47954299Y-51516666D02*
X46954299Y-51516666D01*
X46954299Y-51516666D02*
X46954299Y-51249999D01*
X46954299Y-51249999D02*
X47001918Y-51183333D01*
X47001918Y-51183333D02*
X47049537Y-51149999D01*
X47049537Y-51149999D02*
X47144775Y-51116666D01*
X47144775Y-51116666D02*
X47287632Y-51116666D01*
X47287632Y-51116666D02*
X47382870Y-51149999D01*
X47382870Y-51149999D02*
X47430489Y-51183333D01*
X47430489Y-51183333D02*
X47478108Y-51249999D01*
X47478108Y-51249999D02*
X47478108Y-51516666D01*
X47430489Y-50816666D02*
X47430489Y-50583333D01*
X47954299Y-50483333D02*
X47954299Y-50816666D01*
X47954299Y-50816666D02*
X46954299Y-50816666D01*
X46954299Y-50816666D02*
X46954299Y-50483333D01*
X47430489Y-49950000D02*
X47430489Y-50183333D01*
X47954299Y-50183333D02*
X46954299Y-50183333D01*
X46954299Y-50183333D02*
X46954299Y-49850000D01*
X173454299Y-24766666D02*
X172454299Y-24766666D01*
X172454299Y-24766666D02*
X172454299Y-24499999D01*
X172454299Y-24499999D02*
X172501918Y-24433333D01*
X172501918Y-24433333D02*
X172549537Y-24399999D01*
X172549537Y-24399999D02*
X172644775Y-24366666D01*
X172644775Y-24366666D02*
X172787632Y-24366666D01*
X172787632Y-24366666D02*
X172882870Y-24399999D01*
X172882870Y-24399999D02*
X172930489Y-24433333D01*
X172930489Y-24433333D02*
X172978108Y-24499999D01*
X172978108Y-24499999D02*
X172978108Y-24766666D01*
X173359060Y-23666666D02*
X173406680Y-23699999D01*
X173406680Y-23699999D02*
X173454299Y-23799999D01*
X173454299Y-23799999D02*
X173454299Y-23866666D01*
X173454299Y-23866666D02*
X173406680Y-23966666D01*
X173406680Y-23966666D02*
X173311441Y-24033333D01*
X173311441Y-24033333D02*
X173216203Y-24066666D01*
X173216203Y-24066666D02*
X173025727Y-24099999D01*
X173025727Y-24099999D02*
X172882870Y-24099999D01*
X172882870Y-24099999D02*
X172692394Y-24066666D01*
X172692394Y-24066666D02*
X172597156Y-24033333D01*
X172597156Y-24033333D02*
X172501918Y-23966666D01*
X172501918Y-23966666D02*
X172454299Y-23866666D01*
X172454299Y-23866666D02*
X172454299Y-23799999D01*
X172454299Y-23799999D02*
X172501918Y-23699999D01*
X172501918Y-23699999D02*
X172549537Y-23666666D01*
X173454299Y-22999999D02*
X173454299Y-23399999D01*
X173454299Y-23199999D02*
X172454299Y-23199999D01*
X172454299Y-23199999D02*
X172597156Y-23266666D01*
X172597156Y-23266666D02*
X172692394Y-23333333D01*
X172692394Y-23333333D02*
X172740013Y-23399999D01*
X173454299Y-22333332D02*
X173454299Y-22733332D01*
X173454299Y-22533332D02*
X172454299Y-22533332D01*
X172454299Y-22533332D02*
X172597156Y-22599999D01*
X172597156Y-22599999D02*
X172692394Y-22666666D01*
X172692394Y-22666666D02*
X172740013Y-22733332D01*
D13*
%TO.C,C107*%
X136772164Y-53740000D02*
X136987836Y-53740000D01*
X136772164Y-54460000D02*
X136987836Y-54460000D01*
%TO.C,R121*%
X149153641Y-42870000D02*
X148846359Y-42870000D01*
X149153641Y-43630000D02*
X148846359Y-43630000D01*
%TO.C,R126*%
X125445276Y-37467500D02*
X125954724Y-37467500D01*
X125445276Y-38512500D02*
X125954724Y-38512500D01*
%TO.C,C201*%
X36896881Y-39927836D02*
X36896881Y-39712164D01*
X37616881Y-39927836D02*
X37616881Y-39712164D01*
%TO.C,D100*%
X167040000Y-39530000D02*
X167040000Y-41230000D01*
X167040000Y-39530000D02*
X169700000Y-39530000D01*
X167040000Y-41230000D02*
X169700000Y-41230000D01*
%TO.C,C136*%
X127990000Y-58608767D02*
X127990000Y-58316233D01*
X129010000Y-58608767D02*
X129010000Y-58316233D01*
%TO.C,J201*%
X67015000Y-31563000D02*
X72575000Y-31563000D01*
X67015000Y-31608000D02*
X67015000Y-48293000D01*
X67015000Y-48293000D02*
X72575000Y-48293000D01*
X75075000Y-30868000D02*
X76075000Y-30868000D01*
X75575000Y-31368000D02*
X75075000Y-30868000D01*
X76075000Y-30868000D02*
X75575000Y-31368000D01*
X82985000Y-31563000D02*
X75375000Y-31563000D01*
X82985000Y-31608000D02*
X82985000Y-48248000D01*
X82985000Y-48293000D02*
X75375000Y-48293000D01*
%TO.C,C211*%
X51040000Y-37907836D02*
X51040000Y-37692164D01*
X51760000Y-37907836D02*
X51760000Y-37692164D01*
%TO.C,C115*%
X174407836Y-60690000D02*
X174192164Y-60690000D01*
X174407836Y-61410000D02*
X174192164Y-61410000D01*
%TO.C,R111*%
X111753641Y-78320000D02*
X111446359Y-78320000D01*
X111753641Y-79080000D02*
X111446359Y-79080000D01*
%TO.C,FB100*%
X140390000Y-65987221D02*
X140390000Y-66312779D01*
X141410000Y-65987221D02*
X141410000Y-66312779D01*
%TO.C,J100*%
X162550000Y-54675000D02*
X162550000Y-57335000D01*
X170230000Y-54675000D02*
X162550000Y-54675000D01*
X170230000Y-54675000D02*
X170230000Y-57335000D01*
X170230000Y-57335000D02*
X162550000Y-57335000D01*
X172830000Y-56005000D02*
X172830000Y-57335000D01*
X172830000Y-57335000D02*
X171500000Y-57335000D01*
%TO.C,D200*%
X106650000Y-30490000D02*
X106650000Y-33150000D01*
X108350000Y-30490000D02*
X106650000Y-30490000D01*
X108350000Y-30490000D02*
X108350000Y-33150000D01*
%TO.C,R201*%
X41270276Y-37877500D02*
X41779724Y-37877500D01*
X41270276Y-38922500D02*
X41779724Y-38922500D01*
%TO.C,D106*%
X106650000Y-61910000D02*
X106650000Y-59250000D01*
X106650000Y-61910000D02*
X108350000Y-61910000D01*
X108350000Y-61910000D02*
X108350000Y-59250000D01*
%TO.C,C207*%
X52790000Y-41121267D02*
X52790000Y-40828733D01*
X53810000Y-41121267D02*
X53810000Y-40828733D01*
%TO.C,J203*%
X136105000Y-28380000D02*
X136105000Y-27000000D01*
X137485000Y-28380000D02*
X136105000Y-28380000D01*
X138755000Y-25620000D02*
X179505000Y-25620000D01*
X138755000Y-28380000D02*
X138755000Y-25620000D01*
X138755000Y-28380000D02*
X179505000Y-28380000D01*
X179505000Y-28380000D02*
X179505000Y-25620000D01*
%TO.C,C131*%
X125690000Y-55115580D02*
X125690000Y-54834420D01*
X126710000Y-55115580D02*
X126710000Y-54834420D01*
%TO.C,C134*%
X124440000Y-75682836D02*
X124440000Y-75467164D01*
X125160000Y-75682836D02*
X125160000Y-75467164D01*
%TO.C,J202*%
X140520000Y-89580000D02*
X140520000Y-88200000D01*
X141900000Y-89580000D02*
X140520000Y-89580000D01*
X143170000Y-86820000D02*
X183920000Y-86820000D01*
X143170000Y-89580000D02*
X143170000Y-86820000D01*
X143170000Y-89580000D02*
X183920000Y-89580000D01*
X183920000Y-89580000D02*
X183920000Y-86820000D01*
%TO.C,R210*%
X55913641Y-32720000D02*
X55606359Y-32720000D01*
X55913641Y-33480000D02*
X55606359Y-33480000D01*
%TO.C,R115*%
X148277500Y-45537258D02*
X148277500Y-45062742D01*
X149322500Y-45537258D02*
X149322500Y-45062742D01*
%TO.C,C106*%
X142515000Y-53957836D02*
X142515000Y-53742164D01*
X143235000Y-53957836D02*
X143235000Y-53742164D01*
%TO.C,U200*%
X36790000Y-31840000D02*
X38610000Y-31840000D01*
X36790000Y-31890000D02*
X36790000Y-31840000D01*
X36790000Y-34960000D02*
X36790000Y-34910000D01*
X38610000Y-31840000D02*
X38610000Y-31890000D01*
X38610000Y-33010000D02*
X38610000Y-33790000D01*
X38610000Y-34910000D02*
X38610000Y-34960000D01*
X38610000Y-34960000D02*
X36790000Y-34960000D01*
X36250000Y-31890000D02*
X36010000Y-31560000D01*
X36490000Y-31560000D01*
X36250000Y-31890000D01*
G36*
X36250000Y-31890000D02*
G01*
X36010000Y-31560000D01*
X36490000Y-31560000D01*
X36250000Y-31890000D01*
G37*
%TO.C,D203*%
X106650000Y-53990000D02*
X106650000Y-56650000D01*
X108350000Y-53990000D02*
X106650000Y-53990000D01*
X108350000Y-53990000D02*
X108350000Y-56650000D01*
%TO.C,C119*%
X142540000Y-59227836D02*
X142540000Y-59012164D01*
X143260000Y-59227836D02*
X143260000Y-59012164D01*
%TO.C,R206*%
X51057500Y-41279724D02*
X51057500Y-40770276D01*
X52102500Y-41279724D02*
X52102500Y-40770276D01*
%TO.C,TP208*%
X45500000Y-46000000D02*
G75*
G02*
X44100000Y-46000000I-700000J0D01*
G01*
X44100000Y-46000000D02*
G75*
G02*
X45500000Y-46000000I700000J0D01*
G01*
%TO.C,U103*%
X148480000Y-36895000D02*
X148575000Y-36895000D01*
X148480000Y-41015000D02*
X148480000Y-36895000D01*
X148575000Y-41015000D02*
X148480000Y-41015000D01*
X153505000Y-36895000D02*
X153600000Y-36895000D01*
X153600000Y-36895000D02*
X153600000Y-41015000D01*
X153600000Y-41015000D02*
X153505000Y-41015000D01*
X153840000Y-36595000D02*
X153510000Y-36355000D01*
X153840000Y-36115000D01*
X153840000Y-36595000D01*
G36*
X153840000Y-36595000D02*
G01*
X153510000Y-36355000D01*
X153840000Y-36115000D01*
X153840000Y-36595000D01*
G37*
%TO.C,U104*%
X118040000Y-34795000D02*
X122160000Y-34795000D01*
X118040000Y-34890000D02*
X118040000Y-34795000D01*
X118040000Y-39915000D02*
X118040000Y-39820000D01*
X122160000Y-34795000D02*
X122160000Y-34890000D01*
X122160000Y-39820000D02*
X122160000Y-39915000D01*
X122160000Y-39915000D02*
X118040000Y-39915000D01*
X117500000Y-34885000D02*
X117260000Y-34555000D01*
X117740000Y-34555000D01*
X117500000Y-34885000D01*
G36*
X117500000Y-34885000D02*
G01*
X117260000Y-34555000D01*
X117740000Y-34555000D01*
X117500000Y-34885000D01*
G37*
%TO.C,R106*%
X111653641Y-35420000D02*
X111346359Y-35420000D01*
X111653641Y-36180000D02*
X111346359Y-36180000D01*
%TO.C,C104*%
X142515000Y-51727836D02*
X142515000Y-51512164D01*
X143235000Y-51727836D02*
X143235000Y-51512164D01*
%TO.C,R116*%
X137437258Y-54977500D02*
X136962742Y-54977500D01*
X137437258Y-56022500D02*
X136962742Y-56022500D01*
%TO.C,U201*%
X47670000Y-39340000D02*
X49490000Y-39340000D01*
X47670000Y-39390000D02*
X47670000Y-39340000D01*
X47670000Y-42460000D02*
X47670000Y-42410000D01*
X49490000Y-39340000D02*
X49490000Y-39390000D01*
X49490000Y-40510000D02*
X49490000Y-41290000D01*
X49490000Y-42410000D02*
X49490000Y-42460000D01*
X49490000Y-42460000D02*
X47670000Y-42460000D01*
X47130000Y-39390000D02*
X46890000Y-39060000D01*
X47370000Y-39060000D01*
X47130000Y-39390000D01*
G36*
X47130000Y-39390000D02*
G01*
X46890000Y-39060000D01*
X47370000Y-39060000D01*
X47130000Y-39390000D01*
G37*
%TO.C,R124*%
X125645276Y-77087500D02*
X126154724Y-77087500D01*
X125645276Y-78132500D02*
X126154724Y-78132500D01*
%TO.C,C210*%
X49190000Y-37440580D02*
X49190000Y-37159420D01*
X50210000Y-37440580D02*
X50210000Y-37159420D01*
%TO.C,J200*%
X19350000Y-33000000D02*
X19350000Y-39060000D01*
X19350000Y-35500000D02*
X23710000Y-35500000D01*
X19350000Y-39060000D02*
X25310000Y-39060000D01*
X19750000Y-33700000D02*
X19750000Y-34700000D01*
X19750000Y-34200000D02*
X19350000Y-34200000D01*
X19750000Y-34700000D02*
X19350000Y-34700000D01*
X19750000Y-34700000D02*
X21350000Y-34700000D01*
X19750000Y-37300000D02*
X21350000Y-37300000D01*
X19750000Y-38300000D02*
X19750000Y-37300000D01*
X21350000Y-33700000D02*
X19750000Y-33700000D01*
X21350000Y-34700000D02*
X21350000Y-33700000D01*
X21350000Y-37300000D02*
X21350000Y-38300000D01*
X21350000Y-38300000D02*
X19750000Y-38300000D01*
X21850000Y-35500000D02*
X21850000Y-36500000D01*
X21850000Y-36500000D02*
X19350000Y-36500000D01*
X23710000Y-32940000D02*
X23710000Y-33860000D01*
X23710000Y-33860000D02*
X25310000Y-33860000D01*
X23710000Y-34140000D02*
X23710000Y-33860000D01*
X23710000Y-34140000D02*
X24925000Y-34140000D01*
X23710000Y-38140000D02*
X23710000Y-37860000D01*
X23710000Y-39060000D02*
X23710000Y-38140000D01*
X25310000Y-32940000D02*
X19350000Y-33000000D01*
X25310000Y-33860000D02*
X25310000Y-32940000D01*
X25310000Y-38140000D02*
X23710000Y-38140000D01*
X25310000Y-39060000D02*
X25310000Y-38140000D01*
%TO.C,R200*%
X63720000Y-42046359D02*
X63720000Y-42353641D01*
X64480000Y-42046359D02*
X64480000Y-42353641D01*
%TO.C,C130*%
X124340000Y-35862836D02*
X124340000Y-35647164D01*
X125060000Y-35862836D02*
X125060000Y-35647164D01*
%TO.C,J102*%
X89490000Y-48845000D02*
X97100000Y-48845000D01*
X89490000Y-65530000D02*
X89490000Y-48890000D01*
X89490000Y-65575000D02*
X97100000Y-65575000D01*
X96400000Y-66270000D02*
X96900000Y-65770000D01*
X96900000Y-65770000D02*
X97400000Y-66270000D01*
X97400000Y-66270000D02*
X96400000Y-66270000D01*
X105460000Y-48845000D02*
X99900000Y-48845000D01*
X105460000Y-65530000D02*
X105460000Y-48845000D01*
X105460000Y-65575000D02*
X99900000Y-65575000D01*
%TO.C,TP202*%
X48200000Y-48800000D02*
G75*
G02*
X46800000Y-48800000I-700000J0D01*
G01*
X46800000Y-48800000D02*
G75*
G02*
X48200000Y-48800000I700000J0D01*
G01*
%TO.C,C132*%
X124340000Y-55682836D02*
X124340000Y-55467164D01*
X125060000Y-55682836D02*
X125060000Y-55467164D01*
%TO.C,C133*%
X125790000Y-75115580D02*
X125790000Y-74834420D01*
X126810000Y-75115580D02*
X126810000Y-74834420D01*
%TO.C,R114*%
X171362742Y-71027500D02*
X171837258Y-71027500D01*
X171362742Y-72072500D02*
X171837258Y-72072500D01*
%TO.C,C129*%
X125590000Y-35550580D02*
X125590000Y-35269420D01*
X126610000Y-35550580D02*
X126610000Y-35269420D01*
%TO.C,R109*%
X111753641Y-55820000D02*
X111446359Y-55820000D01*
X111753641Y-56580000D02*
X111446359Y-56580000D01*
%TO.C,C216*%
X55630012Y-38440000D02*
X55845684Y-38440000D01*
X55630012Y-39160000D02*
X55845684Y-39160000D01*
%TO.C,R101*%
X189337258Y-45577500D02*
X188862742Y-45577500D01*
X189337258Y-46622500D02*
X188862742Y-46622500D01*
%TO.C,TP201*%
X46200000Y-39700000D02*
G75*
G02*
X44800000Y-39700000I-700000J0D01*
G01*
X44800000Y-39700000D02*
G75*
G02*
X46200000Y-39700000I700000J0D01*
G01*
%TO.C,R202*%
X41779724Y-39777500D02*
X41270276Y-39777500D01*
X41779724Y-40822500D02*
X41270276Y-40822500D01*
%TO.C,R104*%
X167020000Y-42833641D02*
X167020000Y-42526359D01*
X167780000Y-42833641D02*
X167780000Y-42526359D01*
%TO.C,D108*%
X106650000Y-83810000D02*
X106650000Y-81150000D01*
X106650000Y-83810000D02*
X108350000Y-83810000D01*
X108350000Y-83810000D02*
X108350000Y-81150000D01*
D11*
%TO.C,MK200*%
X39330000Y-42117500D02*
G75*
G02*
X39230000Y-42117500I-50000J0D01*
G01*
X39230000Y-42117500D02*
G75*
G02*
X39330000Y-42117500I50000J0D01*
G01*
D14*
X40570000Y-43717500D02*
G75*
G02*
X37990000Y-43717500I-1290000J0D01*
G01*
X37990000Y-43717500D02*
G75*
G02*
X40570000Y-43717500I1290000J0D01*
G01*
D13*
%TO.C,J105*%
X188575000Y-47650000D02*
X190575000Y-47650000D01*
X188575000Y-57050000D02*
X190575000Y-57050000D01*
%TO.C,U100*%
X179927500Y-50290000D02*
X181747500Y-50290000D01*
X179927500Y-50340000D02*
X179927500Y-50290000D01*
X179927500Y-53410000D02*
X179927500Y-53360000D01*
X181747500Y-50290000D02*
X181747500Y-50340000D01*
X181747500Y-53360000D02*
X181747500Y-53410000D01*
X181747500Y-53410000D02*
X179927500Y-53410000D01*
X182527500Y-53690000D02*
X182047500Y-53690000D01*
X182287500Y-53360000D01*
X182527500Y-53690000D01*
G36*
X182527500Y-53690000D02*
G01*
X182047500Y-53690000D01*
X182287500Y-53360000D01*
X182527500Y-53690000D01*
G37*
D15*
%TO.C,G\u002A\u002A\u002A*%
G36*
X29417956Y-49616452D02*
G01*
X29478926Y-49652031D01*
X29523850Y-49706759D01*
X29548647Y-49774054D01*
X29549239Y-49847337D01*
X29521543Y-49920025D01*
X29477158Y-49972544D01*
X29414826Y-50028242D01*
X29425677Y-50451236D01*
X29432075Y-50637479D01*
X29441665Y-50792804D01*
X29455777Y-50925323D01*
X29475739Y-51043151D01*
X29502879Y-51154402D01*
X29538527Y-51267190D01*
X29575914Y-51368787D01*
X29658261Y-51532298D01*
X29768522Y-51668514D01*
X29906381Y-51777159D01*
X30071521Y-51857955D01*
X30173668Y-51890372D01*
X30230380Y-51901623D01*
X30317488Y-51914200D01*
X30426382Y-51927078D01*
X30548452Y-51939232D01*
X30667204Y-51949060D01*
X30895537Y-51968403D01*
X31089905Y-51990693D01*
X31255385Y-52017271D01*
X31397056Y-52049475D01*
X31519996Y-52088643D01*
X31629284Y-52136115D01*
X31729998Y-52193230D01*
X31814143Y-52251468D01*
X31874833Y-52303986D01*
X31934642Y-52367906D01*
X31987700Y-52435254D01*
X32028137Y-52498056D01*
X32050080Y-52548339D01*
X32050887Y-52572998D01*
X32024214Y-52603783D01*
X31984451Y-52602495D01*
X31937220Y-52571366D01*
X31888143Y-52512627D01*
X31884376Y-52506911D01*
X31806678Y-52412904D01*
X31701621Y-52323190D01*
X31580563Y-52247361D01*
X31571594Y-52242725D01*
X31489322Y-52209580D01*
X31377009Y-52176919D01*
X31243664Y-52146689D01*
X31098295Y-52120839D01*
X30949911Y-52101317D01*
X30891949Y-52095735D01*
X30706486Y-52079586D01*
X30555148Y-52065551D01*
X30433076Y-52053051D01*
X30335412Y-52041506D01*
X30257296Y-52030336D01*
X30193869Y-52018962D01*
X30140272Y-52006803D01*
X30134753Y-52005389D01*
X29961689Y-51946686D01*
X29810471Y-51865005D01*
X29680260Y-51758764D01*
X29570217Y-51626385D01*
X29479502Y-51466288D01*
X29407275Y-51276891D01*
X29352699Y-51056616D01*
X29314932Y-50803882D01*
X29293135Y-50517110D01*
X29289280Y-50413896D01*
X29277716Y-50012176D01*
X29224020Y-49981359D01*
X29178189Y-49938257D01*
X29146993Y-49879847D01*
X29139981Y-49807175D01*
X29286252Y-49807175D01*
X29294007Y-49854934D01*
X29324755Y-49882168D01*
X29365928Y-49883108D01*
X29399529Y-49859168D01*
X29413283Y-49818465D01*
X29410014Y-49789648D01*
X29384232Y-49758151D01*
X29345160Y-49751671D01*
X29307646Y-49768103D01*
X29286536Y-49805346D01*
X29286252Y-49807175D01*
X29139981Y-49807175D01*
X29139135Y-49798406D01*
X29165425Y-49720596D01*
X29221392Y-49655990D01*
X29264199Y-49629062D01*
X29345021Y-49606602D01*
X29417956Y-49616452D01*
G37*
G36*
X28660564Y-51070369D02*
G01*
X28722108Y-51124964D01*
X28750084Y-51176514D01*
X28794254Y-51249171D01*
X28863302Y-51303221D01*
X28959517Y-51375178D01*
X29056003Y-51475025D01*
X29144153Y-51592595D01*
X29215357Y-51717723D01*
X29216684Y-51720518D01*
X29293425Y-51866779D01*
X29372308Y-51981955D01*
X29459406Y-52073840D01*
X29541678Y-52137586D01*
X29654772Y-52206724D01*
X29773270Y-52262425D01*
X29903929Y-52306605D01*
X30053506Y-52341180D01*
X30228758Y-52368063D01*
X30426077Y-52388300D01*
X30541091Y-52399361D01*
X30660285Y-52413003D01*
X30768686Y-52427400D01*
X30843464Y-52439277D01*
X30924156Y-52453057D01*
X30975970Y-52458903D01*
X31008323Y-52456664D01*
X31030632Y-52446187D01*
X31042941Y-52436038D01*
X31084478Y-52413594D01*
X31144982Y-52396761D01*
X31166812Y-52393484D01*
X31225930Y-52390455D01*
X31266344Y-52402619D01*
X31307459Y-52436517D01*
X31314144Y-52443138D01*
X31355989Y-52495396D01*
X31372273Y-52551185D01*
X31373692Y-52583627D01*
X31364817Y-52667726D01*
X31334769Y-52725986D01*
X31278414Y-52768204D01*
X31276391Y-52769259D01*
X31186199Y-52795818D01*
X31095796Y-52785420D01*
X31058560Y-52769296D01*
X31018278Y-52733215D01*
X30982789Y-52678741D01*
X30976404Y-52664425D01*
X30954268Y-52617921D01*
X30931308Y-52595531D01*
X31103361Y-52595531D01*
X31121776Y-52636620D01*
X31124349Y-52639302D01*
X31166543Y-52660039D01*
X31206877Y-52648593D01*
X31231457Y-52609961D01*
X31233174Y-52600177D01*
X31228765Y-52556668D01*
X31198044Y-52535063D01*
X31149109Y-52533984D01*
X31115010Y-52557729D01*
X31103361Y-52595531D01*
X30931308Y-52595531D01*
X30926789Y-52591124D01*
X30880751Y-52574141D01*
X30844666Y-52565814D01*
X30790723Y-52556677D01*
X30706996Y-52545441D01*
X30602648Y-52533203D01*
X30486843Y-52521063D01*
X30412501Y-52513993D01*
X30224626Y-52494345D01*
X30067689Y-52471672D01*
X29933571Y-52444064D01*
X29814147Y-52409615D01*
X29701298Y-52366415D01*
X29615231Y-52326705D01*
X29461407Y-52236798D01*
X29332589Y-52128102D01*
X29222417Y-51994100D01*
X29124534Y-51828277D01*
X29119731Y-51818801D01*
X29055229Y-51696999D01*
X28997722Y-51604368D01*
X28941366Y-51533175D01*
X28880318Y-51475683D01*
X28834733Y-51441568D01*
X28754039Y-51385647D01*
X28675402Y-51429843D01*
X28586788Y-51461701D01*
X28503871Y-51455122D01*
X28428102Y-51410278D01*
X28416280Y-51399105D01*
X28366588Y-51325927D01*
X28356425Y-51273688D01*
X28493739Y-51273688D01*
X28512742Y-51302720D01*
X28550442Y-51330096D01*
X28583922Y-51323080D01*
X28607604Y-51302681D01*
X28634834Y-51266977D01*
X28630060Y-51237795D01*
X28614861Y-51220061D01*
X28570523Y-51197986D01*
X28525769Y-51208375D01*
X28502264Y-51234335D01*
X28493739Y-51273688D01*
X28356425Y-51273688D01*
X28351258Y-51247129D01*
X28368351Y-51171260D01*
X28415928Y-51106868D01*
X28492049Y-51062501D01*
X28492693Y-51062276D01*
X28582091Y-51048585D01*
X28660564Y-51070369D01*
G37*
G36*
X28509215Y-49834142D02*
G01*
X28574484Y-49879418D01*
X28600092Y-49913026D01*
X28625465Y-49962670D01*
X28637964Y-50002870D01*
X28638234Y-50006996D01*
X28653287Y-50035783D01*
X28691498Y-50073610D01*
X28717812Y-50093628D01*
X28799087Y-50159124D01*
X28889225Y-50246502D01*
X28979409Y-50345750D01*
X29060825Y-50446854D01*
X29124657Y-50539801D01*
X29148717Y-50583088D01*
X29177733Y-50646262D01*
X29197392Y-50703317D01*
X29210331Y-50766228D01*
X29219186Y-50846975D01*
X29224904Y-50929225D01*
X29233360Y-51038757D01*
X29245450Y-51124822D01*
X29264479Y-51203025D01*
X29293747Y-51288974D01*
X29310013Y-51331459D01*
X29379377Y-51497438D01*
X29447481Y-51637909D01*
X29512181Y-51748888D01*
X29571335Y-51826388D01*
X29581866Y-51837091D01*
X29671055Y-51908938D01*
X29783876Y-51979293D01*
X29905503Y-52039739D01*
X30004098Y-52076841D01*
X30074520Y-52096931D01*
X30148441Y-52114087D01*
X30232009Y-52129196D01*
X30331374Y-52143147D01*
X30452686Y-52156825D01*
X30602093Y-52171119D01*
X30741258Y-52183196D01*
X30867590Y-52195279D01*
X30992182Y-52209768D01*
X31105019Y-52225317D01*
X31196083Y-52240578D01*
X31242499Y-52250620D01*
X31407075Y-52304260D01*
X31554865Y-52375170D01*
X31679211Y-52459341D01*
X31773454Y-52552767D01*
X31795989Y-52583696D01*
X31842804Y-52639766D01*
X31885277Y-52661871D01*
X31889173Y-52662073D01*
X31956860Y-52679361D01*
X32020790Y-52723997D01*
X32067473Y-52785485D01*
X32076957Y-52808175D01*
X32087050Y-52890377D01*
X32065575Y-52962618D01*
X32019678Y-53020231D01*
X31956508Y-53058555D01*
X31883211Y-53072923D01*
X31806936Y-53058673D01*
X31747858Y-53022933D01*
X31691738Y-52954358D01*
X31673187Y-52875430D01*
X31675698Y-52863991D01*
X31814283Y-52863991D01*
X31824437Y-52899004D01*
X31857516Y-52929344D01*
X31897375Y-52930043D01*
X31928888Y-52903769D01*
X31937132Y-52879132D01*
X31930764Y-52829256D01*
X31901463Y-52804674D01*
X31859734Y-52810463D01*
X31834280Y-52829434D01*
X31814283Y-52863991D01*
X31675698Y-52863991D01*
X31692492Y-52787498D01*
X31696126Y-52779122D01*
X31716005Y-52730416D01*
X31717526Y-52698351D01*
X31699076Y-52664262D01*
X31684470Y-52644155D01*
X31624535Y-52581327D01*
X31539592Y-52515658D01*
X31442023Y-52455661D01*
X31344210Y-52409849D01*
X31342981Y-52409381D01*
X31278082Y-52387187D01*
X31206823Y-52368401D01*
X31123202Y-52352079D01*
X31021214Y-52337277D01*
X30894856Y-52323052D01*
X30738124Y-52308460D01*
X30657397Y-52301632D01*
X30430387Y-52279539D01*
X30236985Y-52252888D01*
X30071843Y-52220197D01*
X29929614Y-52179982D01*
X29804949Y-52130762D01*
X29692502Y-52071052D01*
X29598624Y-52008078D01*
X29522069Y-51946741D01*
X29456368Y-51881288D01*
X29397450Y-51805504D01*
X29341246Y-51713173D01*
X29283686Y-51598083D01*
X29220699Y-51454017D01*
X29195141Y-51391968D01*
X29126679Y-51236147D01*
X29058519Y-51110874D01*
X28984354Y-51008181D01*
X28897880Y-50920103D01*
X28792791Y-50838671D01*
X28718729Y-50790032D01*
X28593996Y-50711912D01*
X28533113Y-50749036D01*
X28447810Y-50783584D01*
X28368011Y-50779474D01*
X28292966Y-50736621D01*
X28274892Y-50719877D01*
X28230588Y-50667428D01*
X28211563Y-50617744D01*
X28208991Y-50579638D01*
X28345231Y-50579638D01*
X28360515Y-50615969D01*
X28393984Y-50644273D01*
X28413615Y-50649538D01*
X28445151Y-50637007D01*
X28458554Y-50626092D01*
X28480560Y-50584132D01*
X28471999Y-50544073D01*
X28441985Y-50522241D01*
X28396586Y-50523024D01*
X28358952Y-50546733D01*
X28345231Y-50579638D01*
X28208991Y-50579638D01*
X28208896Y-50578223D01*
X28226964Y-50493757D01*
X28275462Y-50427480D01*
X28347408Y-50386288D01*
X28413615Y-50376000D01*
X28486365Y-50390555D01*
X28551705Y-50428557D01*
X28599175Y-50481515D01*
X28618312Y-50540935D01*
X28618335Y-50542197D01*
X28631623Y-50571396D01*
X28673294Y-50608586D01*
X28746927Y-50656830D01*
X28764518Y-50667317D01*
X28848713Y-50721976D01*
X28934623Y-50785861D01*
X29004923Y-50846008D01*
X29010459Y-50851349D01*
X29110651Y-50949459D01*
X29097678Y-50853229D01*
X29062800Y-50720445D01*
X28995690Y-50581997D01*
X28901035Y-50445023D01*
X28783523Y-50316660D01*
X28694128Y-50238863D01*
X28600887Y-50165160D01*
X28522543Y-50203921D01*
X28465538Y-50227645D01*
X28420688Y-50231381D01*
X28378050Y-50220851D01*
X28294597Y-50177199D01*
X28240033Y-50114396D01*
X28217530Y-50038792D01*
X28219786Y-50024246D01*
X28368137Y-50024246D01*
X28370720Y-50063957D01*
X28394786Y-50094024D01*
X28424535Y-50102162D01*
X28447183Y-50092182D01*
X28470891Y-50076550D01*
X28497221Y-50039546D01*
X28492836Y-50000959D01*
X28463193Y-49973989D01*
X28426592Y-49969441D01*
X28386830Y-49988278D01*
X28368137Y-50024246D01*
X28219786Y-50024246D01*
X28230258Y-49956738D01*
X28237576Y-49939550D01*
X28288221Y-49871600D01*
X28356658Y-49830922D01*
X28433464Y-49818206D01*
X28509215Y-49834142D01*
G37*
G36*
X35270798Y-49538449D02*
G01*
X35442009Y-49547989D01*
X35586470Y-49566091D01*
X35875942Y-49635825D01*
X36150271Y-49740123D01*
X36407070Y-49876613D01*
X36643951Y-50042924D01*
X36858526Y-50236682D01*
X37048410Y-50455516D01*
X37211215Y-50697053D01*
X37344553Y-50958922D01*
X37446037Y-51238750D01*
X37501804Y-51469311D01*
X37519103Y-51596439D01*
X37528995Y-51749169D01*
X37531501Y-51914741D01*
X37526641Y-52080392D01*
X37514435Y-52233361D01*
X37500449Y-52332214D01*
X37430456Y-52615683D01*
X37325573Y-52885552D01*
X37188407Y-53139218D01*
X37021564Y-53374080D01*
X36827650Y-53587537D01*
X36609273Y-53776988D01*
X36369040Y-53939832D01*
X36109556Y-54073466D01*
X35833428Y-54175291D01*
X35595282Y-54233441D01*
X35482768Y-54248650D01*
X35343715Y-54258154D01*
X35190242Y-54261944D01*
X35034470Y-54260014D01*
X34888517Y-54252354D01*
X34764505Y-54238958D01*
X34734308Y-54233987D01*
X34465964Y-54166701D01*
X34197704Y-54063482D01*
X33935903Y-53926965D01*
X33828413Y-53859678D01*
X33726052Y-53783525D01*
X33610802Y-53683535D01*
X33491325Y-53568466D01*
X33376282Y-53447080D01*
X33274333Y-53328136D01*
X33194140Y-53220395D01*
X33189557Y-53213488D01*
X33083308Y-53051822D01*
X33070364Y-53125565D01*
X33018578Y-53310425D01*
X32932297Y-53481867D01*
X32815004Y-53635666D01*
X32670185Y-53767597D01*
X32501323Y-53873437D01*
X32424090Y-53909084D01*
X32367990Y-53931597D01*
X32313395Y-53951057D01*
X32257033Y-53967717D01*
X32195632Y-53981827D01*
X32125922Y-53993637D01*
X32044631Y-54003399D01*
X31948487Y-54011363D01*
X31834220Y-54017779D01*
X31698558Y-54022900D01*
X31538229Y-54026975D01*
X31349962Y-54030255D01*
X31130487Y-54032991D01*
X30876530Y-54035433D01*
X30763115Y-54036396D01*
X29595692Y-54046060D01*
X29595692Y-53316177D01*
X29595692Y-52586295D01*
X29465712Y-52522306D01*
X29394329Y-52482422D01*
X29322279Y-52431398D01*
X29244637Y-52364812D01*
X29156479Y-52278247D01*
X29052880Y-52167281D01*
X28983076Y-52089209D01*
X28879689Y-51983156D01*
X28779560Y-51906283D01*
X28671560Y-51851440D01*
X28554985Y-51814112D01*
X28494905Y-51799920D01*
X28457191Y-51798500D01*
X28426437Y-51812611D01*
X28388512Y-51843893D01*
X28311366Y-51889282D01*
X28230569Y-51900150D01*
X28154538Y-51878727D01*
X28091689Y-51827247D01*
X28052606Y-51754831D01*
X28047303Y-51700397D01*
X28182210Y-51700397D01*
X28197781Y-51739329D01*
X28234978Y-51759608D01*
X28253745Y-51759532D01*
X28285397Y-51745213D01*
X28296097Y-51707417D01*
X28296384Y-51695114D01*
X28283473Y-51647834D01*
X28252335Y-51627156D01*
X28214367Y-51637474D01*
X28195856Y-51656343D01*
X28182210Y-51700397D01*
X28047303Y-51700397D01*
X28044848Y-51675199D01*
X28069485Y-51600344D01*
X28120026Y-51538920D01*
X28189981Y-51499577D01*
X28251453Y-51489765D01*
X28310228Y-51503238D01*
X28370219Y-51536901D01*
X28416884Y-51580880D01*
X28434183Y-51613837D01*
X28451408Y-51647174D01*
X28489198Y-51666220D01*
X28526383Y-51673890D01*
X28617193Y-51696935D01*
X28723426Y-51736571D01*
X28829386Y-51785905D01*
X28919380Y-51838041D01*
X28949347Y-51859674D01*
X28995295Y-51902145D01*
X29055023Y-51965790D01*
X29119136Y-52040319D01*
X29154627Y-52084477D01*
X29281897Y-52228518D01*
X29418684Y-52343539D01*
X29572640Y-52434368D01*
X29751416Y-52505834D01*
X29882192Y-52543590D01*
X29962590Y-52561654D01*
X30060970Y-52580206D01*
X30165598Y-52597419D01*
X30264740Y-52611463D01*
X30346662Y-52620510D01*
X30391372Y-52622923D01*
X30401040Y-52631919D01*
X30408031Y-52661803D01*
X30412679Y-52716916D01*
X30415319Y-52801599D01*
X30416285Y-52920194D01*
X30416308Y-52946177D01*
X30416308Y-53269431D01*
X31163654Y-53263677D01*
X31911000Y-53257923D01*
X32021991Y-53205893D01*
X32131459Y-53134222D01*
X32214044Y-53037009D01*
X32267152Y-52919324D01*
X32288189Y-52786237D01*
X32283540Y-52694666D01*
X32254648Y-52571167D01*
X32199153Y-52461616D01*
X32111930Y-52356749D01*
X32079080Y-52325067D01*
X31957596Y-52220712D01*
X31833986Y-52132540D01*
X31756073Y-52088629D01*
X33683139Y-52088629D01*
X33694767Y-52148028D01*
X33711045Y-52217778D01*
X33781737Y-52447209D01*
X33883201Y-52657214D01*
X34012206Y-52845651D01*
X34165524Y-53010377D01*
X34339924Y-53149249D01*
X34532177Y-53260124D01*
X34739054Y-53340861D01*
X34957324Y-53389317D01*
X35183757Y-53403348D01*
X35415125Y-53380813D01*
X35453170Y-53373510D01*
X35683624Y-53306938D01*
X35897876Y-53206570D01*
X36092369Y-53075080D01*
X36263547Y-52915139D01*
X36407853Y-52729419D01*
X36484102Y-52598962D01*
X36533185Y-52493393D01*
X36577601Y-52378289D01*
X36613954Y-52264394D01*
X36638848Y-52162449D01*
X36648886Y-52083197D01*
X36648945Y-52077605D01*
X36648813Y-52027000D01*
X36245672Y-52027000D01*
X35842532Y-52027000D01*
X35677864Y-52398231D01*
X35627723Y-52510373D01*
X35582209Y-52610480D01*
X35543915Y-52692985D01*
X35515432Y-52752319D01*
X35499354Y-52782917D01*
X35497493Y-52785512D01*
X35486466Y-52772462D01*
X35463374Y-52727498D01*
X35430232Y-52655161D01*
X35389054Y-52559989D01*
X35341855Y-52446522D01*
X35291012Y-52320218D01*
X35239876Y-52193079D01*
X35192845Y-52079716D01*
X35151919Y-51984668D01*
X35119101Y-51912474D01*
X35096392Y-51867676D01*
X35085818Y-51854783D01*
X35073231Y-51877285D01*
X35048002Y-51928691D01*
X35013251Y-52002148D01*
X34972097Y-52090801D01*
X34927660Y-52187798D01*
X34883062Y-52286285D01*
X34841421Y-52379409D01*
X34805859Y-52460317D01*
X34779494Y-52522156D01*
X34765448Y-52558073D01*
X34765012Y-52559423D01*
X34748571Y-52593468D01*
X34735624Y-52603384D01*
X34724775Y-52585870D01*
X34702418Y-52536596D01*
X34670564Y-52460467D01*
X34631226Y-52362386D01*
X34586414Y-52247258D01*
X34547244Y-52144231D01*
X34499634Y-52018875D01*
X34456140Y-51906560D01*
X34418730Y-51812186D01*
X34389368Y-51740651D01*
X34370019Y-51696855D01*
X34363015Y-51685077D01*
X34350227Y-51701496D01*
X34324818Y-51745795D01*
X34290893Y-51810538D01*
X34264519Y-51863542D01*
X34177461Y-52042007D01*
X33928346Y-52030256D01*
X33821720Y-52024905D01*
X33749028Y-52023630D01*
X33705128Y-52030867D01*
X33684879Y-52051055D01*
X33683139Y-52088629D01*
X31756073Y-52088629D01*
X31703401Y-52058944D01*
X31560996Y-51998314D01*
X31401923Y-51949040D01*
X31221337Y-51909514D01*
X31014389Y-51878128D01*
X30776233Y-51853271D01*
X30621461Y-51841182D01*
X30507199Y-51831698D01*
X30396404Y-51819967D01*
X30299842Y-51807298D01*
X30228282Y-51795000D01*
X30213209Y-51791555D01*
X30045748Y-51731599D01*
X29903675Y-51642183D01*
X29786673Y-51522988D01*
X29754029Y-51470154D01*
X30416308Y-51470154D01*
X31036654Y-51469676D01*
X31200138Y-51468917D01*
X31351752Y-51466999D01*
X31486348Y-51464070D01*
X31598780Y-51460279D01*
X31683901Y-51455775D01*
X31736563Y-51450708D01*
X31744923Y-51449178D01*
X31865447Y-51406397D01*
X31956321Y-51339095D01*
X32018340Y-51246191D01*
X32052300Y-51126608D01*
X32059830Y-51021739D01*
X32047082Y-50881247D01*
X32006838Y-50767317D01*
X31937561Y-50677308D01*
X31837719Y-50608576D01*
X31813041Y-50596740D01*
X31788126Y-50587080D01*
X31757737Y-50579243D01*
X31717550Y-50572986D01*
X31663238Y-50568070D01*
X31590477Y-50564251D01*
X31494940Y-50561288D01*
X31372303Y-50558941D01*
X31218239Y-50556965D01*
X31075731Y-50555549D01*
X30416308Y-50549483D01*
X30416308Y-51009818D01*
X30416308Y-51470154D01*
X29754029Y-51470154D01*
X29694429Y-51373694D01*
X29627143Y-51195781D01*
X29618255Y-51157493D01*
X29611000Y-51107863D01*
X29605176Y-51042632D01*
X29603404Y-51009818D01*
X29600580Y-50957542D01*
X29597010Y-50848332D01*
X29594264Y-50710744D01*
X29592139Y-50540517D01*
X29591227Y-50439456D01*
X29585923Y-49789759D01*
X29649150Y-49777910D01*
X29680211Y-49775860D01*
X29746548Y-49774271D01*
X29844363Y-49773150D01*
X29969857Y-49772504D01*
X30119233Y-49772340D01*
X30288691Y-49772665D01*
X30474433Y-49773486D01*
X30672661Y-49774810D01*
X30792150Y-49775814D01*
X31044230Y-49778209D01*
X31260724Y-49780719D01*
X31445121Y-49783679D01*
X31600912Y-49787420D01*
X31731586Y-49792277D01*
X31840633Y-49798582D01*
X31931543Y-49806669D01*
X32007806Y-49816872D01*
X32072912Y-49829522D01*
X32130350Y-49844955D01*
X32183611Y-49863503D01*
X32236184Y-49885498D01*
X32291560Y-49911276D01*
X32311538Y-49920908D01*
X32475081Y-50021299D01*
X32615860Y-50151036D01*
X32730009Y-50305265D01*
X32813660Y-50479126D01*
X32848737Y-50595607D01*
X32865905Y-50700382D01*
X32875163Y-50826369D01*
X32876503Y-50959811D01*
X32869921Y-51086955D01*
X32855409Y-51194046D01*
X32849009Y-51222146D01*
X32805550Y-51348764D01*
X32744561Y-51471169D01*
X32671817Y-51580592D01*
X32593095Y-51668268D01*
X32519047Y-51722893D01*
X32477933Y-51750209D01*
X32473928Y-51771731D01*
X32507692Y-51792265D01*
X32529737Y-51800522D01*
X32578766Y-51824063D01*
X32642349Y-51862940D01*
X32692909Y-51898565D01*
X32794191Y-51975034D01*
X32804063Y-51782769D01*
X33675564Y-51782769D01*
X33863707Y-51782769D01*
X34051850Y-51782769D01*
X34088504Y-51699731D01*
X34138530Y-51588266D01*
X34190329Y-51476098D01*
X34241094Y-51368964D01*
X34288018Y-51272601D01*
X34328291Y-51192746D01*
X34359107Y-51135135D01*
X34377658Y-51105507D01*
X34380644Y-51102836D01*
X34388296Y-51106409D01*
X34399791Y-51123353D01*
X34416441Y-51156841D01*
X34439556Y-51210045D01*
X34470446Y-51286137D01*
X34510423Y-51388290D01*
X34560797Y-51519676D01*
X34622879Y-51683467D01*
X34647443Y-51748577D01*
X34682438Y-51839362D01*
X34713193Y-51915308D01*
X34736896Y-51969761D01*
X34750741Y-51996062D01*
X34752479Y-51997476D01*
X34763541Y-51980457D01*
X34787996Y-51933073D01*
X34823272Y-51860627D01*
X34866800Y-51768420D01*
X34916007Y-51661756D01*
X34928145Y-51635104D01*
X34978564Y-51525158D01*
X35024108Y-51427795D01*
X35062147Y-51348479D01*
X35090050Y-51292675D01*
X35105188Y-51265849D01*
X35106556Y-51264371D01*
X35117115Y-51279449D01*
X35139804Y-51326327D01*
X35172618Y-51400370D01*
X35213554Y-51496946D01*
X35260609Y-51611422D01*
X35310906Y-51736960D01*
X35501377Y-52218126D01*
X35594040Y-52005332D01*
X35686703Y-51792538D01*
X36167890Y-51787312D01*
X36321184Y-51786102D01*
X36439507Y-51784890D01*
X36526913Y-51781697D01*
X36587457Y-51774545D01*
X36625195Y-51761452D01*
X36644180Y-51740442D01*
X36648469Y-51709533D01*
X36642116Y-51666747D01*
X36629177Y-51610105D01*
X36619559Y-51566849D01*
X36554442Y-51344988D01*
X36455409Y-51139903D01*
X36321175Y-50949389D01*
X36161492Y-50781381D01*
X35979446Y-50638713D01*
X35778903Y-50528473D01*
X35564224Y-50451398D01*
X35339774Y-50408222D01*
X35109912Y-50399682D01*
X34879002Y-50426512D01*
X34651405Y-50489449D01*
X34584453Y-50515469D01*
X34380254Y-50621044D01*
X34195529Y-50757855D01*
X34033627Y-50921547D01*
X33897894Y-51107761D01*
X33791681Y-51312141D01*
X33718333Y-51530329D01*
X33689498Y-51680192D01*
X33675564Y-51782769D01*
X32804063Y-51782769D01*
X32805899Y-51747017D01*
X32839904Y-51446208D01*
X32910186Y-51159882D01*
X33016584Y-50888416D01*
X33158933Y-50632183D01*
X33337072Y-50391559D01*
X33449104Y-50267190D01*
X33674981Y-50059017D01*
X33919780Y-49883797D01*
X34181257Y-49742732D01*
X34457166Y-49637020D01*
X34745263Y-49567860D01*
X34763615Y-49564780D01*
X34916813Y-49546820D01*
X35090803Y-49538051D01*
X35270798Y-49538449D01*
G37*
D13*
%TO.C,R102*%
X163046359Y-60500000D02*
X163353641Y-60500000D01*
X163046359Y-61260000D02*
X163353641Y-61260000D01*
%TO.C,R204*%
X50345276Y-43077500D02*
X50854724Y-43077500D01*
X50345276Y-44122500D02*
X50854724Y-44122500D01*
%TO.C,TP203*%
X42900000Y-30500000D02*
G75*
G02*
X41500000Y-30500000I-700000J0D01*
G01*
X41500000Y-30500000D02*
G75*
G02*
X42900000Y-30500000I700000J0D01*
G01*
%TO.C,TP207*%
X122200000Y-65500000D02*
G75*
G02*
X120800000Y-65500000I-700000J0D01*
G01*
X120800000Y-65500000D02*
G75*
G02*
X122200000Y-65500000I700000J0D01*
G01*
%TO.C,C116*%
X146467164Y-45790000D02*
X146682836Y-45790000D01*
X146467164Y-46510000D02*
X146682836Y-46510000D01*
%TO.C,C208*%
X41590000Y-33259420D02*
X41590000Y-33540580D01*
X42610000Y-33259420D02*
X42610000Y-33540580D01*
D16*
%TO.C,L200*%
X176750000Y-50800000D02*
X174050000Y-50800000D01*
X177450000Y-52900000D02*
X174050000Y-52900000D01*
D13*
%TO.C,D201*%
X63250000Y-35360000D02*
X63250000Y-32700000D01*
X63250000Y-35360000D02*
X64950000Y-35360000D01*
X64950000Y-35360000D02*
X64950000Y-32700000D01*
%TO.C,TP206*%
X167300000Y-71000000D02*
G75*
G02*
X165900000Y-71000000I-700000J0D01*
G01*
X165900000Y-71000000D02*
G75*
G02*
X167300000Y-71000000I700000J0D01*
G01*
%TO.C,C214*%
X46184420Y-34490000D02*
X46465580Y-34490000D01*
X46184420Y-35510000D02*
X46465580Y-35510000D01*
%TO.C,R117*%
X150946359Y-42870000D02*
X151253641Y-42870000D01*
X150946359Y-43630000D02*
X151253641Y-43630000D01*
%TO.C,C203*%
X42753733Y-43202500D02*
X43046267Y-43202500D01*
X42753733Y-44222500D02*
X43046267Y-44222500D01*
%TO.C,R211*%
X29300242Y-41977500D02*
X29774758Y-41977500D01*
X29300242Y-43022500D02*
X29774758Y-43022500D01*
%TO.C,C135*%
X127990000Y-78646267D02*
X127990000Y-78353733D01*
X129010000Y-78646267D02*
X129010000Y-78353733D01*
%TO.C,U105*%
X118165000Y-54380000D02*
X122285000Y-54380000D01*
X118165000Y-54475000D02*
X118165000Y-54380000D01*
X118165000Y-59500000D02*
X118165000Y-59405000D01*
X122285000Y-54380000D02*
X122285000Y-54475000D01*
X122285000Y-59405000D02*
X122285000Y-59500000D01*
X122285000Y-59500000D02*
X118165000Y-59500000D01*
X117625000Y-54470000D02*
X117385000Y-54140000D01*
X117865000Y-54140000D01*
X117625000Y-54470000D01*
G36*
X117625000Y-54470000D02*
G01*
X117385000Y-54140000D01*
X117865000Y-54140000D01*
X117625000Y-54470000D01*
G37*
%TO.C,R112*%
X160670000Y-42683641D02*
X160670000Y-42376359D01*
X161430000Y-42683641D02*
X161430000Y-42376359D01*
%TO.C,C110*%
X146682836Y-64590000D02*
X146467164Y-64590000D01*
X146682836Y-65310000D02*
X146467164Y-65310000D01*
%TO.C,R105*%
X164970000Y-42733641D02*
X164970000Y-42426359D01*
X165730000Y-42733641D02*
X165730000Y-42426359D01*
%TO.C,R209*%
X53244758Y-50077500D02*
X52770242Y-50077500D01*
X53244758Y-51122500D02*
X52770242Y-51122500D01*
%TO.C,R110*%
X111853641Y-80620000D02*
X111546359Y-80620000D01*
X111853641Y-81380000D02*
X111546359Y-81380000D01*
%TO.C,C137*%
X127890000Y-39046267D02*
X127890000Y-38753733D01*
X128910000Y-39046267D02*
X128910000Y-38753733D01*
%TO.C,C118*%
X166015000Y-65742164D02*
X166015000Y-65957836D01*
X166735000Y-65742164D02*
X166735000Y-65957836D01*
%TO.C,R103*%
X163046359Y-59450000D02*
X163353641Y-59450000D01*
X163046359Y-60210000D02*
X163353641Y-60210000D01*
%TO.C,J103*%
X89490000Y-71377000D02*
X97100000Y-71377000D01*
X89490000Y-88062000D02*
X89490000Y-71422000D01*
X89490000Y-88107000D02*
X97100000Y-88107000D01*
X96400000Y-88802000D02*
X96900000Y-88302000D01*
X96900000Y-88302000D02*
X97400000Y-88802000D01*
X97400000Y-88802000D02*
X96400000Y-88802000D01*
X105460000Y-71377000D02*
X99900000Y-71377000D01*
X105460000Y-88062000D02*
X105460000Y-71377000D01*
X105460000Y-88107000D02*
X99900000Y-88107000D01*
%TO.C,SW200*%
X31500000Y-30460000D02*
X27500000Y-30460000D01*
X27500000Y-39460000D01*
X31500000Y-39460000D01*
X31500000Y-30460000D01*
%TO.C,R203*%
X46854758Y-43190000D02*
X46380242Y-43190000D01*
X46854758Y-44235000D02*
X46380242Y-44235000D01*
%TO.C,U101*%
X169565000Y-61940000D02*
X169565000Y-63200000D01*
X169565000Y-68760000D02*
X169565000Y-67500000D01*
X173325000Y-61940000D02*
X169565000Y-61940000D01*
X173325000Y-68760000D02*
X169565000Y-68760000D01*
X174845000Y-68990000D02*
X174365000Y-68990000D01*
X174605000Y-68660000D01*
X174845000Y-68990000D01*
G36*
X174845000Y-68990000D02*
G01*
X174365000Y-68990000D01*
X174605000Y-68660000D01*
X174845000Y-68990000D01*
G37*
%TO.C,C209*%
X40040000Y-32822164D02*
X40040000Y-33037836D01*
X40760000Y-32822164D02*
X40760000Y-33037836D01*
%TO.C,C105*%
X179152500Y-59909420D02*
X179152500Y-60190580D01*
X180172500Y-59909420D02*
X180172500Y-60190580D01*
%TO.C,D202*%
X28015000Y-40065000D02*
X28015000Y-41535000D01*
X28015000Y-41535000D02*
X30300000Y-41535000D01*
X30300000Y-40065000D02*
X28015000Y-40065000D01*
%TO.C,C204*%
X32740000Y-33259420D02*
X32740000Y-33540580D01*
X33760000Y-33259420D02*
X33760000Y-33540580D01*
%TO.C,R113*%
X180189564Y-55215000D02*
X179735436Y-55215000D01*
X180189564Y-56685000D02*
X179735436Y-56685000D01*
%TO.C,TP204*%
X179900000Y-47650000D02*
G75*
G02*
X178500000Y-47650000I-700000J0D01*
G01*
X178500000Y-47650000D02*
G75*
G02*
X179900000Y-47650000I700000J0D01*
G01*
%TO.C,C126*%
X154015000Y-41022164D02*
X154015000Y-41237836D01*
X154735000Y-41022164D02*
X154735000Y-41237836D01*
%TO.C,C200*%
X38346881Y-39490580D02*
X38346881Y-39209420D01*
X39366881Y-39490580D02*
X39366881Y-39209420D01*
%TO.C,R205*%
X46920000Y-45862742D02*
X46920000Y-46337258D01*
X47965000Y-45862742D02*
X47965000Y-46337258D01*
%TO.C,C111*%
X162609420Y-50070000D02*
X162890580Y-50070000D01*
X162609420Y-51090000D02*
X162890580Y-51090000D01*
%TO.C,D109*%
X170800000Y-70785000D02*
X173085000Y-70785000D01*
X173085000Y-69315000D02*
X170800000Y-69315000D01*
X173085000Y-70785000D02*
X173085000Y-69315000D01*
%TO.C,C215*%
X56080318Y-39890000D02*
X56361478Y-39890000D01*
X56080318Y-40910000D02*
X56361478Y-40910000D01*
D15*
%TO.C,G\u002A\u002A\u002A*%
G36*
X120149449Y-24587610D02*
G01*
X120253626Y-24600613D01*
X120764092Y-24702085D01*
X121237748Y-24861676D01*
X121671960Y-25077189D01*
X122064099Y-25346422D01*
X122411532Y-25667177D01*
X122711627Y-26037254D01*
X122961753Y-26454454D01*
X123159278Y-26916578D01*
X123210333Y-27071586D01*
X123245913Y-27192069D01*
X123271554Y-27296350D01*
X123288869Y-27399893D01*
X123299471Y-27518159D01*
X123304975Y-27666612D01*
X123306994Y-27860715D01*
X123307203Y-28000000D01*
X123306442Y-28228000D01*
X123303102Y-28401315D01*
X123295600Y-28535324D01*
X123282351Y-28645403D01*
X123261771Y-28746930D01*
X123232277Y-28855282D01*
X123212288Y-28921385D01*
X123037036Y-29383128D01*
X122807903Y-29810914D01*
X122529761Y-30197901D01*
X122207478Y-30537248D01*
X121871795Y-30804513D01*
X121650097Y-30939960D01*
X121393550Y-31068943D01*
X121121125Y-31184002D01*
X120851793Y-31277676D01*
X120604526Y-31342505D01*
X120437931Y-31368361D01*
X120297793Y-31380827D01*
X120288698Y-29690414D01*
X120279603Y-28000000D01*
X120769893Y-28000000D01*
X121260183Y-28000000D01*
X121269471Y-29017208D01*
X121278758Y-30034417D01*
X121498559Y-29849277D01*
X121782288Y-29567213D01*
X122008808Y-29252088D01*
X122178182Y-28911211D01*
X122290472Y-28551889D01*
X122345740Y-28181429D01*
X122344051Y-27807140D01*
X122285466Y-27436329D01*
X122170049Y-27076304D01*
X121997861Y-26734372D01*
X121768967Y-26417841D01*
X121483428Y-26134019D01*
X121466524Y-26119870D01*
X121271462Y-25981181D01*
X121034308Y-25847704D01*
X120782540Y-25733029D01*
X120543634Y-25650745D01*
X120490483Y-25637143D01*
X120274056Y-25602533D01*
X120019042Y-25586780D01*
X119754340Y-25589886D01*
X119508844Y-25611850D01*
X119369379Y-25637143D01*
X119137769Y-25709476D01*
X118886603Y-25817510D01*
X118643357Y-25947658D01*
X118435506Y-26086329D01*
X118393337Y-26119870D01*
X118104307Y-26402200D01*
X117872254Y-26717519D01*
X117697178Y-27058554D01*
X117579079Y-27418035D01*
X117517957Y-27788690D01*
X117513813Y-28163247D01*
X117566646Y-28534436D01*
X117676455Y-28894985D01*
X117843242Y-29237623D01*
X118067007Y-29555078D01*
X118347748Y-29840080D01*
X118393337Y-29878404D01*
X118581103Y-30032448D01*
X118590391Y-29016224D01*
X118599679Y-28000000D01*
X119089969Y-28000000D01*
X119580259Y-28000000D01*
X119571164Y-29687499D01*
X119568135Y-30115341D01*
X119564002Y-30484326D01*
X119558812Y-30792632D01*
X119552613Y-31038436D01*
X119545453Y-31219916D01*
X119537378Y-31335248D01*
X119528436Y-31382610D01*
X119527034Y-31383737D01*
X119476765Y-31381272D01*
X119380012Y-31366237D01*
X119268234Y-31344079D01*
X118785618Y-31205366D01*
X118336239Y-31006210D01*
X117923702Y-30748945D01*
X117551616Y-30435905D01*
X117223587Y-30069426D01*
X117152536Y-29974771D01*
X116936759Y-29624635D01*
X116758299Y-29224514D01*
X116621638Y-28786323D01*
X116531551Y-28324069D01*
X116509304Y-28130256D01*
X116504283Y-27966450D01*
X116516488Y-27794738D01*
X116531551Y-27675931D01*
X116635402Y-27160238D01*
X116796390Y-26683905D01*
X117012156Y-26249295D01*
X117280338Y-25858766D01*
X117598577Y-25514681D01*
X117964512Y-25219398D01*
X118375783Y-24975279D01*
X118830029Y-24784685D01*
X119324891Y-24649975D01*
X119605488Y-24601673D01*
X119802722Y-24579272D01*
X119971138Y-24574605D01*
X120149449Y-24587610D01*
G37*
D13*
%TO.C,C117*%
X164240000Y-65688748D02*
X164240000Y-66211252D01*
X165710000Y-65688748D02*
X165710000Y-66211252D01*
%TO.C,R100*%
X189337258Y-58077500D02*
X188862742Y-58077500D01*
X189337258Y-59122500D02*
X188862742Y-59122500D01*
%TO.C,D102*%
X161610000Y-39530000D02*
X158950000Y-39530000D01*
X161610000Y-41230000D02*
X158950000Y-41230000D01*
X161610000Y-41230000D02*
X161610000Y-39530000D01*
%TO.C,D104*%
X106650000Y-38410000D02*
X106650000Y-35750000D01*
X106650000Y-38410000D02*
X108350000Y-38410000D01*
X108350000Y-38410000D02*
X108350000Y-35750000D01*
D15*
%TO.C,G\u002A\u002A\u002A*%
G36*
X154680144Y-74855091D02*
G01*
X154817511Y-74935252D01*
X154918726Y-75058556D01*
X154974596Y-75210175D01*
X154975928Y-75375282D01*
X154913530Y-75539051D01*
X154813527Y-75657378D01*
X154673091Y-75782868D01*
X154697540Y-76735888D01*
X154711954Y-77155499D01*
X154733561Y-77505450D01*
X154765356Y-77804021D01*
X154810331Y-78069492D01*
X154871479Y-78320144D01*
X154951794Y-78574258D01*
X155036028Y-78803160D01*
X155221558Y-79171555D01*
X155469981Y-79478455D01*
X155780582Y-79723235D01*
X156152646Y-79905272D01*
X156382788Y-79978307D01*
X156510562Y-80003658D01*
X156706820Y-80031993D01*
X156952161Y-80061007D01*
X157227189Y-80088391D01*
X157494741Y-80110533D01*
X158009183Y-80154113D01*
X158447099Y-80204335D01*
X158819931Y-80264216D01*
X159139121Y-80336772D01*
X159416110Y-80425019D01*
X159662339Y-80531975D01*
X159889250Y-80660657D01*
X160078833Y-80791869D01*
X160215568Y-80910194D01*
X160350320Y-81054207D01*
X160469862Y-81205944D01*
X160560967Y-81347440D01*
X160610407Y-81460730D01*
X160612223Y-81516286D01*
X160552130Y-81585646D01*
X160462542Y-81582745D01*
X160356128Y-81512609D01*
X160245555Y-81380268D01*
X160237069Y-81367390D01*
X160062013Y-81155591D01*
X159825317Y-80953462D01*
X159552568Y-80782617D01*
X159532361Y-80772171D01*
X159346999Y-80697494D01*
X159093954Y-80623907D01*
X158793523Y-80555798D01*
X158466003Y-80497557D01*
X158131690Y-80453574D01*
X158001099Y-80440998D01*
X157583245Y-80404613D01*
X157242275Y-80372992D01*
X156967243Y-80344828D01*
X156747202Y-80318817D01*
X156571203Y-80293651D01*
X156428300Y-80268025D01*
X156307546Y-80240632D01*
X156295112Y-80237446D01*
X155905192Y-80105186D01*
X155564493Y-79921155D01*
X155271124Y-79681792D01*
X155023193Y-79383538D01*
X154818808Y-79022832D01*
X154656080Y-78596116D01*
X154533116Y-78099829D01*
X154448026Y-77530411D01*
X154398919Y-76884303D01*
X154390232Y-76651758D01*
X154364179Y-75746670D01*
X154243200Y-75677238D01*
X154139941Y-75580128D01*
X154069655Y-75448528D01*
X154053856Y-75284796D01*
X154383410Y-75284796D01*
X154400882Y-75392400D01*
X154470160Y-75453759D01*
X154562924Y-75455875D01*
X154638628Y-75401939D01*
X154669615Y-75310232D01*
X154662250Y-75245307D01*
X154604161Y-75174345D01*
X154516132Y-75159743D01*
X154431612Y-75196766D01*
X154384050Y-75280675D01*
X154383410Y-75284796D01*
X154053856Y-75284796D01*
X154051950Y-75265039D01*
X154111184Y-75089731D01*
X154237278Y-74944172D01*
X154333724Y-74883503D01*
X154515818Y-74832899D01*
X154680144Y-74855091D01*
G37*
G36*
X152973714Y-78130814D02*
G01*
X153112375Y-78253817D01*
X153175405Y-78369963D01*
X153274923Y-78533662D01*
X153430489Y-78655437D01*
X153647265Y-78817559D01*
X153864652Y-79042517D01*
X154063256Y-79307406D01*
X154223681Y-79589323D01*
X154226671Y-79595622D01*
X154399571Y-79925152D01*
X154577297Y-80184647D01*
X154773532Y-80391667D01*
X154958894Y-80535290D01*
X155213698Y-80691060D01*
X155480677Y-80816556D01*
X155775057Y-80916095D01*
X156112060Y-80993992D01*
X156506908Y-81054562D01*
X156951473Y-81100157D01*
X157210605Y-81125076D01*
X157479153Y-81155814D01*
X157723384Y-81188249D01*
X157891861Y-81215008D01*
X158073662Y-81246055D01*
X158190400Y-81259228D01*
X158263292Y-81254183D01*
X158313555Y-81230576D01*
X158341288Y-81207712D01*
X158434873Y-81157145D01*
X158571190Y-81119219D01*
X158620375Y-81111836D01*
X158753568Y-81105011D01*
X158844623Y-81132418D01*
X158937256Y-81208791D01*
X158952317Y-81223708D01*
X159046597Y-81341446D01*
X159083284Y-81467140D01*
X159086481Y-81540235D01*
X159066486Y-81729712D01*
X158998787Y-81860974D01*
X158871816Y-81956093D01*
X158867259Y-81958470D01*
X158664054Y-82018308D01*
X158460373Y-81994880D01*
X158376479Y-81958553D01*
X158285721Y-81877261D01*
X158205764Y-81754528D01*
X158191377Y-81722274D01*
X158141505Y-81617500D01*
X158089776Y-81567054D01*
X158477417Y-81567054D01*
X158518906Y-81659629D01*
X158524702Y-81665673D01*
X158619767Y-81712393D01*
X158710642Y-81686605D01*
X158766020Y-81599565D01*
X158769890Y-81577522D01*
X158759956Y-81479495D01*
X158690741Y-81430817D01*
X158580487Y-81428387D01*
X158503662Y-81481886D01*
X158477417Y-81567054D01*
X158089776Y-81567054D01*
X158079594Y-81557125D01*
X157975869Y-81518862D01*
X157894569Y-81500101D01*
X157773032Y-81479516D01*
X157584393Y-81454200D01*
X157349295Y-81426627D01*
X157088381Y-81399274D01*
X156920887Y-81383346D01*
X156497597Y-81339079D01*
X156144014Y-81287995D01*
X155841840Y-81225794D01*
X155572775Y-81148178D01*
X155318522Y-81050849D01*
X155124610Y-80961381D01*
X154778041Y-80758817D01*
X154487808Y-80513921D01*
X154239587Y-80212011D01*
X154019054Y-79838406D01*
X154008233Y-79817056D01*
X153862908Y-79542631D01*
X153733342Y-79333932D01*
X153606371Y-79173531D01*
X153468827Y-79044000D01*
X153366124Y-78967137D01*
X153184318Y-78841145D01*
X153007145Y-78940721D01*
X152807494Y-79012498D01*
X152620681Y-78997675D01*
X152449970Y-78896640D01*
X152423334Y-78871467D01*
X152311377Y-78706594D01*
X152288480Y-78588898D01*
X152597853Y-78588898D01*
X152640666Y-78654308D01*
X152725605Y-78715989D01*
X152801037Y-78700179D01*
X152854394Y-78654221D01*
X152915743Y-78573778D01*
X152904988Y-78508031D01*
X152870745Y-78468076D01*
X152770850Y-78418338D01*
X152670016Y-78441746D01*
X152617060Y-78500236D01*
X152597853Y-78588898D01*
X152288480Y-78588898D01*
X152276839Y-78529061D01*
X152315350Y-78358126D01*
X152422541Y-78213048D01*
X152594044Y-78113087D01*
X152595496Y-78112580D01*
X152796912Y-78081734D01*
X152973714Y-78130814D01*
G37*
G36*
X152632719Y-75345553D02*
G01*
X152779774Y-75447563D01*
X152837469Y-75523281D01*
X152894636Y-75635132D01*
X152922796Y-75725704D01*
X152923405Y-75735001D01*
X152957318Y-75799858D01*
X153043410Y-75885084D01*
X153102695Y-75930184D01*
X153285811Y-76077749D01*
X153488895Y-76274615D01*
X153692083Y-76498224D01*
X153875516Y-76726015D01*
X154019332Y-76935427D01*
X154073540Y-77032953D01*
X154138913Y-77175287D01*
X154183206Y-77303833D01*
X154212358Y-77445575D01*
X154232309Y-77627499D01*
X154245191Y-77812811D01*
X154264242Y-78059592D01*
X154291483Y-78253498D01*
X154334354Y-78429693D01*
X154400296Y-78623338D01*
X154436944Y-78719059D01*
X154593225Y-79093015D01*
X154746665Y-79409501D01*
X154892436Y-79659539D01*
X155025711Y-79834149D01*
X155049438Y-79858265D01*
X155250384Y-80020138D01*
X155504574Y-80178650D01*
X155778603Y-80314836D01*
X156000741Y-80398429D01*
X156159404Y-80443691D01*
X156325950Y-80482344D01*
X156514231Y-80516387D01*
X156738105Y-80547818D01*
X157011424Y-80578636D01*
X157348044Y-80610840D01*
X157661586Y-80638050D01*
X157946216Y-80665273D01*
X158226927Y-80697918D01*
X158481151Y-80732951D01*
X158686323Y-80767334D01*
X158790900Y-80789958D01*
X159161694Y-80910812D01*
X159494670Y-81070573D01*
X159774825Y-81260214D01*
X159987157Y-81470706D01*
X160037930Y-81540389D01*
X160143407Y-81666718D01*
X160239099Y-81716521D01*
X160247877Y-81716975D01*
X160400378Y-81755926D01*
X160544415Y-81856492D01*
X160649593Y-81995026D01*
X160670960Y-82046149D01*
X160693700Y-82231353D01*
X160645316Y-82394112D01*
X160541909Y-82523918D01*
X160399584Y-82610262D01*
X160234444Y-82642635D01*
X160062593Y-82610528D01*
X159929490Y-82530006D01*
X159803048Y-82375504D01*
X159761252Y-82197676D01*
X159766910Y-82171904D01*
X160079148Y-82171904D01*
X160102026Y-82250789D01*
X160176552Y-82319146D01*
X160266357Y-82320721D01*
X160337356Y-82261525D01*
X160355931Y-82206018D01*
X160341584Y-82093644D01*
X160275566Y-82038260D01*
X160181550Y-82051304D01*
X160124202Y-82094045D01*
X160079148Y-82171904D01*
X159766910Y-82171904D01*
X159804747Y-81999562D01*
X159812935Y-81980691D01*
X159857723Y-81870955D01*
X159861150Y-81798711D01*
X159819582Y-81721907D01*
X159786674Y-81676605D01*
X159651640Y-81535051D01*
X159460260Y-81387097D01*
X159240433Y-81251923D01*
X159020057Y-81148708D01*
X159017289Y-81147653D01*
X158871068Y-81097649D01*
X158710521Y-81055323D01*
X158522119Y-81018549D01*
X158292338Y-80985200D01*
X158007649Y-80953150D01*
X157654525Y-80920275D01*
X157472645Y-80904889D01*
X156961184Y-80855114D01*
X156525443Y-80795069D01*
X156153374Y-80721415D01*
X155832926Y-80630810D01*
X155552053Y-80519914D01*
X155298704Y-80385386D01*
X155087194Y-80243503D01*
X154914714Y-80105309D01*
X154766687Y-79957841D01*
X154633944Y-79787097D01*
X154507314Y-79579074D01*
X154377629Y-79319770D01*
X154235718Y-78995185D01*
X154178133Y-78855387D01*
X154023887Y-78504318D01*
X153870320Y-78222073D01*
X153703225Y-77990703D01*
X153508396Y-77792259D01*
X153271627Y-77608791D01*
X153104761Y-77499206D01*
X152823734Y-77323198D01*
X152686563Y-77406841D01*
X152494372Y-77484678D01*
X152314584Y-77475417D01*
X152145505Y-77378869D01*
X152104783Y-77341144D01*
X152004965Y-77222975D01*
X151962100Y-77111035D01*
X151956306Y-77025182D01*
X152263258Y-77025182D01*
X152297695Y-77107037D01*
X152373102Y-77170805D01*
X152417331Y-77182669D01*
X152488382Y-77154436D01*
X152518579Y-77129844D01*
X152568159Y-77035306D01*
X152548872Y-76945051D01*
X152481249Y-76895863D01*
X152378964Y-76897628D01*
X152294172Y-76951045D01*
X152263258Y-77025182D01*
X151956306Y-77025182D01*
X151956091Y-77021993D01*
X151996800Y-76831688D01*
X152106066Y-76682364D01*
X152268164Y-76589556D01*
X152417331Y-76566377D01*
X152581239Y-76599170D01*
X152728453Y-76684791D01*
X152835403Y-76804107D01*
X152878519Y-76937982D01*
X152878570Y-76940826D01*
X152908510Y-77006612D01*
X153002396Y-77090401D01*
X153168294Y-77199097D01*
X153207927Y-77222726D01*
X153397619Y-77345873D01*
X153591178Y-77489809D01*
X153749566Y-77625320D01*
X153762040Y-77637355D01*
X153987776Y-77858399D01*
X153958547Y-77641591D01*
X153879967Y-77342423D01*
X153728764Y-77030496D01*
X153515503Y-76721889D01*
X153250744Y-76432682D01*
X153049336Y-76257403D01*
X152839260Y-76091348D01*
X152662750Y-76178679D01*
X152534314Y-76232130D01*
X152433266Y-76240548D01*
X152337201Y-76216822D01*
X152149179Y-76118472D01*
X152026245Y-75976975D01*
X151975545Y-75806637D01*
X151980629Y-75773865D01*
X152314866Y-75773865D01*
X152320686Y-75863336D01*
X152374909Y-75931076D01*
X152441933Y-75949412D01*
X152492960Y-75926926D01*
X152546374Y-75891706D01*
X152605697Y-75808335D01*
X152595817Y-75721399D01*
X152529032Y-75660633D01*
X152446568Y-75650387D01*
X152356983Y-75692828D01*
X152314866Y-75773865D01*
X151980629Y-75773865D01*
X152004222Y-75621766D01*
X152020709Y-75583042D01*
X152134813Y-75429948D01*
X152289005Y-75338299D01*
X152462052Y-75309650D01*
X152632719Y-75345553D01*
G37*
G36*
X167866790Y-74679347D02*
G01*
X168252534Y-74700842D01*
X168578009Y-74741625D01*
X169230200Y-74898739D01*
X169848272Y-75133726D01*
X170426847Y-75441243D01*
X170960547Y-75815946D01*
X171443994Y-76252489D01*
X171871808Y-76745529D01*
X172238612Y-77289721D01*
X172539027Y-77879720D01*
X172767674Y-78510183D01*
X172893320Y-79029644D01*
X172932294Y-79316067D01*
X172954581Y-79660174D01*
X172960227Y-80033212D01*
X172949277Y-80406430D01*
X172921777Y-80751074D01*
X172890267Y-80973791D01*
X172732571Y-81612458D01*
X172496266Y-82220481D01*
X172187225Y-82791999D01*
X171811322Y-83321151D01*
X171374429Y-83802077D01*
X170882418Y-84228916D01*
X170341164Y-84595808D01*
X169756538Y-84896891D01*
X169134414Y-85126305D01*
X168597862Y-85257318D01*
X168344365Y-85291586D01*
X168031074Y-85312999D01*
X167685295Y-85321538D01*
X167334335Y-85317188D01*
X167005499Y-85299931D01*
X166726094Y-85269749D01*
X166658059Y-85258549D01*
X166053473Y-85106951D01*
X165449074Y-84874396D01*
X164859226Y-84566818D01*
X164617049Y-84415219D01*
X164386425Y-84243644D01*
X164126764Y-84018362D01*
X163857578Y-83759109D01*
X163598382Y-83485622D01*
X163368689Y-83217638D01*
X163188011Y-82974894D01*
X163177686Y-82959331D01*
X162938301Y-82595093D01*
X162909140Y-82761238D01*
X162792464Y-83177735D01*
X162598069Y-83563999D01*
X162333805Y-83910512D01*
X162007522Y-84207758D01*
X161627071Y-84446218D01*
X161453063Y-84526534D01*
X161326668Y-84577254D01*
X161203663Y-84621099D01*
X161076677Y-84658634D01*
X160938340Y-84690424D01*
X160781280Y-84717033D01*
X160598129Y-84739026D01*
X160381514Y-84756969D01*
X160124066Y-84771427D01*
X159818414Y-84782963D01*
X159457188Y-84792144D01*
X159033018Y-84799534D01*
X158538531Y-84805698D01*
X157966359Y-84811201D01*
X157710832Y-84813371D01*
X155080589Y-84835143D01*
X155080589Y-83190694D01*
X155080589Y-81546244D01*
X154787740Y-81402075D01*
X154626911Y-81312217D01*
X154464580Y-81197256D01*
X154289651Y-81047237D01*
X154091028Y-80852202D01*
X153857614Y-80602194D01*
X153700345Y-80426293D01*
X153467411Y-80187353D01*
X153241817Y-80014157D01*
X152998489Y-79890592D01*
X152735841Y-79806493D01*
X152600480Y-79774516D01*
X152515509Y-79771318D01*
X152446220Y-79803110D01*
X152360773Y-79873590D01*
X152186960Y-79975853D01*
X152004922Y-80000338D01*
X151833622Y-79952072D01*
X151692021Y-79836085D01*
X151603965Y-79672930D01*
X151592017Y-79550287D01*
X151895967Y-79550287D01*
X151931050Y-79638004D01*
X152014854Y-79683691D01*
X152057138Y-79683520D01*
X152128450Y-79651261D01*
X152152559Y-79566103D01*
X152153206Y-79538384D01*
X152124116Y-79431862D01*
X152053962Y-79385274D01*
X151968418Y-79408521D01*
X151926712Y-79451034D01*
X151895967Y-79550287D01*
X151592017Y-79550287D01*
X151586487Y-79493516D01*
X151641995Y-79324866D01*
X151755865Y-79186475D01*
X151913475Y-79097833D01*
X152051973Y-79075727D01*
X152184396Y-79106082D01*
X152319558Y-79181925D01*
X152424696Y-79281011D01*
X152463671Y-79355266D01*
X152502478Y-79430375D01*
X152587621Y-79473286D01*
X152671401Y-79490566D01*
X152875998Y-79542487D01*
X153115344Y-79631789D01*
X153354077Y-79742939D01*
X153556835Y-79860405D01*
X153624351Y-79909145D01*
X153727874Y-80004834D01*
X153862444Y-80148227D01*
X154006892Y-80316143D01*
X154086854Y-80415633D01*
X154373598Y-80740161D01*
X154681784Y-80999307D01*
X155028651Y-81203949D01*
X155431440Y-81364964D01*
X155726082Y-81450029D01*
X155907221Y-81490728D01*
X156128875Y-81532527D01*
X156364606Y-81571308D01*
X156587977Y-81602949D01*
X156772549Y-81623334D01*
X156873282Y-81628769D01*
X156895065Y-81649039D01*
X156910816Y-81716368D01*
X156921287Y-81840538D01*
X156927235Y-82031332D01*
X156929412Y-82298530D01*
X156929462Y-82357071D01*
X156929462Y-83085374D01*
X158613258Y-83072409D01*
X160297053Y-83059445D01*
X160547120Y-82942221D01*
X160793756Y-82780742D01*
X160979823Y-82561718D01*
X161099476Y-82296571D01*
X161146874Y-81996722D01*
X161136400Y-81790410D01*
X161071304Y-81512161D01*
X160946272Y-81265340D01*
X160749755Y-81029070D01*
X160675743Y-80957689D01*
X160402037Y-80722574D01*
X160123538Y-80523921D01*
X159948000Y-80424989D01*
X164289742Y-80424989D01*
X164315939Y-80558815D01*
X164352614Y-80715964D01*
X164511886Y-81232880D01*
X164740487Y-81706028D01*
X165031140Y-82130583D01*
X165376570Y-82501715D01*
X165769500Y-82814598D01*
X166202653Y-83064405D01*
X166668752Y-83246308D01*
X167160521Y-83355480D01*
X167670684Y-83387093D01*
X168191963Y-83336321D01*
X168277679Y-83319867D01*
X168796901Y-83169877D01*
X169279617Y-82943746D01*
X169717816Y-82647495D01*
X170103485Y-82287142D01*
X170428611Y-81868708D01*
X170600404Y-81574784D01*
X170710988Y-81336933D01*
X170811059Y-81077602D01*
X170892964Y-80820992D01*
X170949050Y-80591307D01*
X170971667Y-80412749D01*
X170971799Y-80400150D01*
X170971502Y-80286135D01*
X170063213Y-80286135D01*
X169154925Y-80286135D01*
X168783922Y-81122530D01*
X168670954Y-81375190D01*
X168568409Y-81600735D01*
X168482130Y-81786621D01*
X168417958Y-81920304D01*
X168381734Y-81989241D01*
X168377541Y-81995088D01*
X168352697Y-81965685D01*
X168300670Y-81864380D01*
X168226000Y-81701402D01*
X168133224Y-81486977D01*
X168026882Y-81231333D01*
X167912332Y-80946766D01*
X167797122Y-80660318D01*
X167691158Y-80404906D01*
X167598952Y-80190759D01*
X167525011Y-80028105D01*
X167473846Y-79927173D01*
X167450023Y-79898124D01*
X167421665Y-79948823D01*
X167364823Y-80064643D01*
X167286527Y-80230142D01*
X167193805Y-80429880D01*
X167093689Y-80648417D01*
X166993207Y-80870312D01*
X166899389Y-81080125D01*
X166819265Y-81262414D01*
X166759866Y-81401739D01*
X166728220Y-81482660D01*
X166727237Y-81485702D01*
X166690194Y-81562407D01*
X166661024Y-81584748D01*
X166636582Y-81545288D01*
X166586211Y-81434273D01*
X166514443Y-81262751D01*
X166425811Y-81041772D01*
X166324850Y-80782383D01*
X166236599Y-80550260D01*
X166129331Y-80267829D01*
X166031339Y-80014781D01*
X165947052Y-79802153D01*
X165880898Y-79640983D01*
X165837305Y-79542308D01*
X165821525Y-79515771D01*
X165792713Y-79552763D01*
X165735466Y-79652571D01*
X165659031Y-79798440D01*
X165599610Y-79917858D01*
X165403466Y-80319946D01*
X164842201Y-80293472D01*
X164601969Y-80281415D01*
X164438192Y-80278542D01*
X164339284Y-80294849D01*
X164293662Y-80340332D01*
X164289742Y-80424989D01*
X159948000Y-80424989D01*
X159829327Y-80358106D01*
X159508483Y-80221504D01*
X159150087Y-80110489D01*
X158743219Y-80021436D01*
X158276959Y-79950721D01*
X157740387Y-79894718D01*
X157391681Y-79867480D01*
X157134245Y-79846113D01*
X156884618Y-79819683D01*
X156667062Y-79791140D01*
X156505835Y-79763431D01*
X156471874Y-79755671D01*
X156094580Y-79620586D01*
X155774484Y-79419129D01*
X155510876Y-79150580D01*
X155437326Y-79031542D01*
X156929462Y-79031542D01*
X158327123Y-79030466D01*
X158695458Y-79028757D01*
X159037050Y-79024435D01*
X159340300Y-79017835D01*
X159593612Y-79009294D01*
X159785391Y-78999147D01*
X159904041Y-78987730D01*
X159922877Y-78984283D01*
X160194421Y-78887897D01*
X160399163Y-78736262D01*
X160538895Y-78526948D01*
X160615408Y-78257522D01*
X160632373Y-78021249D01*
X160603652Y-77704715D01*
X160512979Y-77448029D01*
X160356898Y-77245235D01*
X160131950Y-77090379D01*
X160076349Y-77063712D01*
X160020214Y-77041948D01*
X159951748Y-77024290D01*
X159861204Y-77010195D01*
X159738838Y-76999117D01*
X159574905Y-76990514D01*
X159359657Y-76983839D01*
X159083351Y-76978549D01*
X158736240Y-76974099D01*
X158415164Y-76970908D01*
X156929462Y-76957241D01*
X156929462Y-77994392D01*
X156929462Y-79031542D01*
X155437326Y-79031542D01*
X155303047Y-78814216D01*
X155151449Y-78413371D01*
X155131425Y-78327106D01*
X155115079Y-78215289D01*
X155101957Y-78068323D01*
X155097964Y-77994392D01*
X155091602Y-77876611D01*
X155083559Y-77630558D01*
X155077371Y-77320566D01*
X155072585Y-76937041D01*
X155070530Y-76709347D01*
X155058579Y-75245558D01*
X155201031Y-75218862D01*
X155271013Y-75214243D01*
X155420473Y-75210663D01*
X155640853Y-75208137D01*
X155923596Y-75206682D01*
X156260143Y-75206313D01*
X156641937Y-75207045D01*
X157060421Y-75208895D01*
X157507036Y-75211878D01*
X157776248Y-75214139D01*
X158344193Y-75219535D01*
X158831961Y-75225191D01*
X159247414Y-75231858D01*
X159598416Y-75240287D01*
X159892828Y-75251230D01*
X160138515Y-75265436D01*
X160343338Y-75283657D01*
X160515161Y-75306643D01*
X160661846Y-75335146D01*
X160791257Y-75369916D01*
X160911255Y-75411704D01*
X161029705Y-75461262D01*
X161154468Y-75519339D01*
X161199480Y-75541041D01*
X161567947Y-75767224D01*
X161885127Y-76059528D01*
X162142307Y-76407009D01*
X162330776Y-76798725D01*
X162409807Y-77061159D01*
X162448487Y-77297222D01*
X162469344Y-77581073D01*
X162472364Y-77881723D01*
X162457534Y-78168182D01*
X162424839Y-78409462D01*
X162410418Y-78472773D01*
X162312505Y-78758048D01*
X162175093Y-79033829D01*
X162011199Y-79280364D01*
X161833836Y-79477901D01*
X161667004Y-79600973D01*
X161574373Y-79662516D01*
X161565348Y-79711005D01*
X161641420Y-79757270D01*
X161691088Y-79775872D01*
X161801552Y-79828911D01*
X161944808Y-79916504D01*
X162058721Y-79996768D01*
X162286912Y-80169054D01*
X162309155Y-79735875D01*
X164272674Y-79735875D01*
X164696567Y-79735875D01*
X165120459Y-79735875D01*
X165203043Y-79548787D01*
X165315751Y-79297654D01*
X165432457Y-79044936D01*
X165546833Y-78803559D01*
X165652553Y-78586450D01*
X165743291Y-78406533D01*
X165812720Y-78276735D01*
X165854515Y-78209982D01*
X165861242Y-78203964D01*
X165878482Y-78212014D01*
X165904382Y-78250189D01*
X165941895Y-78325638D01*
X165993973Y-78445508D01*
X166063571Y-78616946D01*
X166153640Y-78847100D01*
X166267134Y-79143117D01*
X166407007Y-79512144D01*
X166462350Y-79658839D01*
X166541196Y-79863380D01*
X166610486Y-80034490D01*
X166663891Y-80157173D01*
X166695084Y-80216431D01*
X166698999Y-80219616D01*
X166723923Y-80181273D01*
X166779020Y-80074516D01*
X166858499Y-79911291D01*
X166956568Y-79703547D01*
X167067434Y-79463229D01*
X167094782Y-79403181D01*
X167208377Y-79155469D01*
X167310989Y-78936106D01*
X167396691Y-78757404D01*
X167459558Y-78631676D01*
X167493664Y-78571236D01*
X167496746Y-78567907D01*
X167520537Y-78601879D01*
X167571655Y-78707495D01*
X167645586Y-78874317D01*
X167737817Y-79091906D01*
X167843833Y-79349825D01*
X167957154Y-79632665D01*
X168386291Y-80716749D01*
X168595064Y-80237317D01*
X168803837Y-79757885D01*
X169887967Y-79746111D01*
X170233344Y-79743384D01*
X170499929Y-79740653D01*
X170696858Y-79733460D01*
X170833266Y-79717345D01*
X170918290Y-79687848D01*
X170961065Y-79640510D01*
X170970728Y-79570872D01*
X170956415Y-79474474D01*
X170927261Y-79346857D01*
X170905593Y-79249401D01*
X170758881Y-78749540D01*
X170535756Y-78287477D01*
X170233323Y-77858241D01*
X169873552Y-77479716D01*
X169463396Y-77158279D01*
X169011566Y-76909905D01*
X168527889Y-76736251D01*
X168022194Y-76638975D01*
X167504308Y-76619734D01*
X166984059Y-76680184D01*
X166471276Y-76821983D01*
X166320431Y-76880606D01*
X165860364Y-77118469D01*
X165444173Y-77426710D01*
X165079401Y-77795512D01*
X164773593Y-78215059D01*
X164534289Y-78675534D01*
X164369034Y-79167120D01*
X164304068Y-79504766D01*
X164272674Y-79735875D01*
X162309155Y-79735875D01*
X162313291Y-79655324D01*
X162389904Y-78977591D01*
X162548253Y-78332490D01*
X162787970Y-77720867D01*
X163108688Y-77143567D01*
X163510040Y-76601434D01*
X163762454Y-76321225D01*
X164271360Y-75852204D01*
X164822901Y-75457429D01*
X165412017Y-75139604D01*
X166033650Y-74901431D01*
X166682742Y-74745612D01*
X166724090Y-74738672D01*
X167069249Y-74698209D01*
X167461256Y-74678452D01*
X167866790Y-74679347D01*
G37*
D13*
%TO.C,C125*%
X141990000Y-66290580D02*
X141990000Y-66009420D01*
X143010000Y-66290580D02*
X143010000Y-66009420D01*
%TO.C,C101*%
X161422164Y-43760000D02*
X161637836Y-43760000D01*
X161422164Y-44480000D02*
X161637836Y-44480000D01*
%TO.C,C103*%
X146361252Y-65815000D02*
X145838748Y-65815000D01*
X146361252Y-67285000D02*
X145838748Y-67285000D01*
%TO.C,L101*%
X178577700Y-57290000D02*
X178377300Y-57290000D01*
X178577700Y-58010000D02*
X178377300Y-58010000D01*
%TO.C,U106*%
X118265000Y-74415000D02*
X122385000Y-74415000D01*
X118265000Y-74510000D02*
X118265000Y-74415000D01*
X118265000Y-79535000D02*
X118265000Y-79440000D01*
X122385000Y-74415000D02*
X122385000Y-74510000D01*
X122385000Y-79440000D02*
X122385000Y-79535000D01*
X122385000Y-79535000D02*
X118265000Y-79535000D01*
X117725000Y-74505000D02*
X117485000Y-74175000D01*
X117965000Y-74175000D01*
X117725000Y-74505000D01*
G36*
X117725000Y-74505000D02*
G01*
X117485000Y-74175000D01*
X117965000Y-74175000D01*
X117725000Y-74505000D01*
G37*
%TO.C,TP200*%
X34000000Y-37700000D02*
G75*
G02*
X32600000Y-37700000I-700000J0D01*
G01*
X32600000Y-37700000D02*
G75*
G02*
X34000000Y-37700000I700000J0D01*
G01*
%TO.C,C206*%
X34590000Y-32822164D02*
X34590000Y-33037836D01*
X35310000Y-32822164D02*
X35310000Y-33037836D01*
%TO.C,C108*%
X155790000Y-65789420D02*
X155790000Y-66070580D01*
X156810000Y-65789420D02*
X156810000Y-66070580D01*
%TO.C,J101*%
X89490000Y-25275001D02*
X97100000Y-25275000D01*
X89490000Y-41960000D02*
X89490000Y-25319999D01*
X89490000Y-42005000D02*
X97100001Y-42005000D01*
X96400000Y-42700000D02*
X96900000Y-42200000D01*
X96900000Y-42200000D02*
X97400000Y-42700000D01*
X97400000Y-42700000D02*
X96400000Y-42700000D01*
X105460000Y-25275000D02*
X99900000Y-25275000D01*
X105460000Y-41960000D02*
X105460000Y-25275000D01*
X105460000Y-42005000D02*
X99900001Y-42005000D01*
%TO.C,J104*%
X158240000Y-35900000D02*
X158240000Y-38660000D01*
X168510000Y-35900000D02*
X158240000Y-35900000D01*
X168510000Y-35900000D02*
X168510000Y-38660000D01*
X168510000Y-38660000D02*
X158240000Y-38660000D01*
X169780000Y-35900000D02*
X171160000Y-35900000D01*
X171160000Y-35900000D02*
X171160000Y-37280000D01*
%TO.C,U202*%
X52740000Y-35190000D02*
X52790000Y-35190000D01*
X52740000Y-37010000D02*
X52740000Y-35190000D01*
X52790000Y-37010000D02*
X52740000Y-37010000D01*
X54690000Y-37010000D02*
X53910000Y-37010000D01*
X55810000Y-35190000D02*
X55860000Y-35190000D01*
X55860000Y-35190000D02*
X55860000Y-37010000D01*
X55860000Y-37010000D02*
X55810000Y-37010000D01*
X56140000Y-34890000D02*
X55810000Y-34650000D01*
X56140000Y-34410000D01*
X56140000Y-34890000D01*
G36*
X56140000Y-34890000D02*
G01*
X55810000Y-34650000D01*
X56140000Y-34410000D01*
X56140000Y-34890000D01*
G37*
%TO.C,C212*%
X49990000Y-48359420D02*
X49990000Y-48640580D01*
X51010000Y-48359420D02*
X51010000Y-48640580D01*
%TO.C,R107*%
X111653641Y-33120000D02*
X111346359Y-33120000D01*
X111653641Y-33880000D02*
X111346359Y-33880000D01*
%TO.C,D101*%
X165660000Y-39530000D02*
X163000000Y-39530000D01*
X165660000Y-41230000D02*
X163000000Y-41230000D01*
X165660000Y-41230000D02*
X165660000Y-39530000D01*
%TO.C,D204*%
X106650000Y-76590000D02*
X106650000Y-79250000D01*
X108350000Y-76590000D02*
X106650000Y-76590000D01*
X108350000Y-76590000D02*
X108350000Y-79250000D01*
%TO.C,R108*%
X111653641Y-58920000D02*
X111346359Y-58920000D01*
X111653641Y-59680000D02*
X111346359Y-59680000D01*
%TO.C,C205*%
X51138748Y-44865000D02*
X51661252Y-44865000D01*
X51138748Y-46335000D02*
X51661252Y-46335000D01*
%TO.C,C114*%
X162092164Y-48920000D02*
X162307836Y-48920000D01*
X162092164Y-49640000D02*
X162307836Y-49640000D01*
%TO.C,Y100*%
X139560000Y-49990000D02*
X135440000Y-49990000D01*
X139560000Y-53410000D02*
X139560000Y-49990000D01*
%TO.C,C100*%
X181229664Y-49140000D02*
X181445336Y-49140000D01*
X181229664Y-49860000D02*
X181445336Y-49860000D01*
%TO.C,R125*%
X126054724Y-57077500D02*
X125545276Y-57077500D01*
X126054724Y-58122500D02*
X125545276Y-58122500D01*
%TO.C,R207*%
X46602500Y-37737258D02*
X46602500Y-37262742D01*
X47647500Y-37737258D02*
X47647500Y-37262742D01*
%TO.C,C112*%
X158182836Y-64590000D02*
X157967164Y-64590000D01*
X158182836Y-65310000D02*
X157967164Y-65310000D01*
%TO.C,C102*%
X139840000Y-51242164D02*
X139840000Y-51457836D01*
X140560000Y-51242164D02*
X140560000Y-51457836D01*
%TO.C,R208*%
X52762742Y-48577500D02*
X53237258Y-48577500D01*
X52762742Y-49622500D02*
X53237258Y-49622500D01*
%TO.C,C120*%
X141020000Y-59290580D02*
X141020000Y-59009420D01*
X142040000Y-59290580D02*
X142040000Y-59009420D01*
%TO.C,C113*%
X174536252Y-58615000D02*
X174013748Y-58615000D01*
X174536252Y-60085000D02*
X174013748Y-60085000D01*
%TO.C,C109*%
X176752500Y-59909420D02*
X176752500Y-60190580D01*
X177772500Y-59909420D02*
X177772500Y-60190580D01*
%TO.C,U102*%
X145190000Y-48490000D02*
X145890000Y-48490000D01*
X145190000Y-49190000D02*
X145190000Y-48490000D01*
X145190000Y-62710000D02*
X145190000Y-62010000D01*
X145890000Y-62710000D02*
X145190000Y-62710000D01*
X158710000Y-48490000D02*
X159410000Y-48490000D01*
X159410000Y-48490000D02*
X159410000Y-49190000D01*
X159410000Y-62010000D02*
X159410000Y-62710000D01*
X159410000Y-62710000D02*
X158710000Y-62710000D01*
X144550000Y-49190000D02*
X144210000Y-48720000D01*
X144890000Y-48720000D01*
X144550000Y-49190000D01*
G36*
X144550000Y-49190000D02*
G01*
X144210000Y-48720000D01*
X144890000Y-48720000D01*
X144550000Y-49190000D01*
G37*
%TO.C,TP205*%
X152100000Y-73300000D02*
G75*
G02*
X150700000Y-73300000I-700000J0D01*
G01*
X150700000Y-73300000D02*
G75*
G02*
X152100000Y-73300000I700000J0D01*
G01*
%TO.C,C213*%
X52572164Y-47340000D02*
X52787836Y-47340000D01*
X52572164Y-48060000D02*
X52787836Y-48060000D01*
D15*
%TO.C,G\u002A\u002A\u002A*%
G36*
X31606749Y-22162578D02*
G01*
X31681161Y-22171866D01*
X32045780Y-22244346D01*
X32384105Y-22358340D01*
X32694257Y-22512277D01*
X32974356Y-22704587D01*
X33222522Y-22933697D01*
X33436876Y-23198038D01*
X33615538Y-23496039D01*
X33756627Y-23826127D01*
X33793095Y-23936847D01*
X33818509Y-24022906D01*
X33836824Y-24097393D01*
X33849192Y-24171352D01*
X33856765Y-24255828D01*
X33860696Y-24361866D01*
X33862138Y-24500511D01*
X33862288Y-24600000D01*
X33861744Y-24762857D01*
X33859358Y-24886654D01*
X33854000Y-24982374D01*
X33844536Y-25061002D01*
X33829836Y-25133521D01*
X33808769Y-25210915D01*
X33794491Y-25258132D01*
X33669311Y-25587949D01*
X33505645Y-25893510D01*
X33306972Y-26169929D01*
X33076769Y-26412320D01*
X32836996Y-26603223D01*
X32678641Y-26699971D01*
X32495393Y-26792102D01*
X32300804Y-26874287D01*
X32108423Y-26941197D01*
X31931804Y-26987504D01*
X31812807Y-27005972D01*
X31712709Y-27014876D01*
X31706212Y-25807438D01*
X31699716Y-24600000D01*
X32049923Y-24600000D01*
X32400130Y-24600000D01*
X32406764Y-25326577D01*
X32413399Y-26053154D01*
X32570399Y-25920912D01*
X32773063Y-25719437D01*
X32934863Y-25494348D01*
X33055844Y-25250865D01*
X33136051Y-24994206D01*
X33175529Y-24729592D01*
X33174322Y-24462243D01*
X33132476Y-24197378D01*
X33050034Y-23940217D01*
X32927044Y-23695980D01*
X32763548Y-23469886D01*
X32559591Y-23267156D01*
X32547517Y-23257050D01*
X32408187Y-23157986D01*
X32238791Y-23062645D01*
X32058957Y-22980735D01*
X31888309Y-22921961D01*
X31850344Y-22912245D01*
X31695754Y-22887523D01*
X31513601Y-22876271D01*
X31324528Y-22878490D01*
X31149174Y-22894178D01*
X31049556Y-22912245D01*
X30884121Y-22963911D01*
X30704716Y-23041078D01*
X30530969Y-23134041D01*
X30382504Y-23233092D01*
X30352383Y-23257050D01*
X30145933Y-23458714D01*
X29980181Y-23683942D01*
X29855127Y-23927538D01*
X29770770Y-24184310D01*
X29727112Y-24449064D01*
X29724152Y-24716605D01*
X29761889Y-24981740D01*
X29840325Y-25239275D01*
X29959459Y-25484016D01*
X30119290Y-25710770D01*
X30319820Y-25914342D01*
X30352383Y-25941717D01*
X30486502Y-26051748D01*
X30493136Y-25325874D01*
X30499770Y-24600000D01*
X30849977Y-24600000D01*
X31200185Y-24600000D01*
X31193688Y-25805356D01*
X31191525Y-26110957D01*
X31188572Y-26374518D01*
X31184865Y-26594737D01*
X31180438Y-26770311D01*
X31175323Y-26899940D01*
X31169555Y-26982320D01*
X31163168Y-27016150D01*
X31162167Y-27016955D01*
X31126261Y-27015194D01*
X31057151Y-27004455D01*
X30977310Y-26988628D01*
X30632584Y-26889547D01*
X30311599Y-26747292D01*
X30016930Y-26563532D01*
X29751154Y-26339932D01*
X29516847Y-26078161D01*
X29466097Y-26010551D01*
X29311970Y-25760453D01*
X29184499Y-25474652D01*
X29086884Y-25161659D01*
X29022536Y-24831477D01*
X29006645Y-24693040D01*
X29003059Y-24576035D01*
X29011777Y-24453384D01*
X29022536Y-24368522D01*
X29096715Y-24000169D01*
X29211707Y-23659932D01*
X29365825Y-23349496D01*
X29557384Y-23070547D01*
X29784698Y-22824772D01*
X30046080Y-22613855D01*
X30339845Y-22439485D01*
X30664306Y-22303346D01*
X31017779Y-22207125D01*
X31218205Y-22172623D01*
X31359087Y-22156622D01*
X31479384Y-22153289D01*
X31606749Y-22162578D01*
G37*
%TD*%
M02*
