%TF.GenerationSoftware,KiCad,Pcbnew,9.0.6*%
%TF.CreationDate,2026-03-09T14:42:48+03:00*%
%TF.ProjectId,mic_project_original,6d69635f-7072-46f6-9a65-63745f6f7269,rev?*%
%TF.SameCoordinates,Original*%
%TF.FileFunction,Copper,L4,Bot*%
%TF.FilePolarity,Positive*%
%FSLAX46Y46*%
G04 Gerber Fmt 4.6, Leading zero omitted, Abs format (unit mm)*
G04 Created by KiCad (PCBNEW 9.0.6) date 2026-03-09 14:42:48*
%MOMM*%
%LPD*%
G01*
G04 APERTURE LIST*
G04 Aperture macros list*
%AMRoundRect*
0 Rectangle with rounded corners*
0 $1 Rounding radius*
0 $2 $3 $4 $5 $6 $7 $8 $9 X,Y pos of 4 corners*
0 Add a 4 corners polygon primitive as box body*
4,1,4,$2,$3,$4,$5,$6,$7,$8,$9,$2,$3,0*
0 Add four circle primitives for the rounded corners*
1,1,$1+$1,$2,$3*
1,1,$1+$1,$4,$5*
1,1,$1+$1,$6,$7*
1,1,$1+$1,$8,$9*
0 Add four rect primitives between the rounded corners*
20,1,$1+$1,$2,$3,$4,$5,0*
20,1,$1+$1,$4,$5,$6,$7,0*
20,1,$1+$1,$6,$7,$8,$9,0*
20,1,$1+$1,$8,$9,$2,$3,0*%
G04 Aperture macros list end*
%TA.AperFunction,ComponentPad*%
%ADD10R,1.500000X1.500000*%
%TD*%
%TA.AperFunction,ComponentPad*%
%ADD11C,1.500000*%
%TD*%
%TA.AperFunction,ComponentPad*%
%ADD12C,2.300000*%
%TD*%
%TA.AperFunction,ComponentPad*%
%ADD13R,1.700000X1.700000*%
%TD*%
%TA.AperFunction,ComponentPad*%
%ADD14C,1.700000*%
%TD*%
%TA.AperFunction,ComponentPad*%
%ADD15RoundRect,0.250000X-0.625000X0.350000X-0.625000X-0.350000X0.625000X-0.350000X0.625000X0.350000X0*%
%TD*%
%TA.AperFunction,ComponentPad*%
%ADD16O,1.750000X1.200000*%
%TD*%
%TA.AperFunction,HeatsinkPad*%
%ADD17O,2.100000X1.000000*%
%TD*%
%TA.AperFunction,HeatsinkPad*%
%ADD18O,1.600000X1.000000*%
%TD*%
%TA.AperFunction,ComponentPad*%
%ADD19C,1.600000*%
%TD*%
%TA.AperFunction,ViaPad*%
%ADD20C,0.800000*%
%TD*%
%TA.AperFunction,ViaPad*%
%ADD21C,0.700000*%
%TD*%
%TA.AperFunction,Conductor*%
%ADD22C,0.292100*%
%TD*%
%TA.AperFunction,Conductor*%
%ADD23C,0.500000*%
%TD*%
G04 APERTURE END LIST*
D10*
%TO.P,J201,1*%
%TO.N,unconnected-(J201-Pad1)*%
X74875000Y-36368000D03*
D11*
%TO.P,J201,2*%
%TO.N,unconnected-(J201-Pad2)*%
X73095000Y-37384000D03*
%TO.P,J201,3*%
%TO.N,unconnected-(J201-Pad3)*%
X74875000Y-38400000D03*
%TO.P,J201,4*%
%TO.N,/Microphone Board/SIG_CON_IN*%
X73095000Y-39416000D03*
%TO.P,J201,5*%
%TO.N,/Microphone Board/GNDMIC_CON_IN*%
X74875000Y-40432000D03*
%TO.P,J201,6*%
%TO.N,unconnected-(J201-Pad6)*%
X73095000Y-41448000D03*
%TO.P,J201,7*%
%TO.N,unconnected-(J201-Pad7)*%
X74875000Y-42464000D03*
%TO.P,J201,8*%
%TO.N,unconnected-(J201-Pad8)*%
X73095000Y-43480000D03*
D12*
%TO.P,J201,SH*%
%TO.N,GND_MIC*%
X73985000Y-31798000D03*
X73985000Y-48058000D03*
%TD*%
D13*
%TO.P,J100,1,RX*%
%TO.N,Net-(J100-RX)*%
X171500000Y-56005000D03*
D14*
%TO.P,J100,2,TX*%
%TO.N,Net-(J100-TX)*%
X168960000Y-56005000D03*
%TO.P,J100,3,GND*%
%TO.N,GND*%
X166420000Y-56005000D03*
%TO.P,J100,4,5V*%
%TO.N,5V*%
X163880000Y-56005000D03*
%TD*%
D13*
%TO.P,J203,1,Pin_1*%
%TO.N,+3.3V*%
X137485000Y-27000000D03*
D14*
%TO.P,J203,2,Pin_2*%
%TO.N,GND*%
X140025000Y-27000000D03*
%TO.P,J203,3,Pin_3*%
%TO.N,/Microcontroller Board/PB3*%
X142565000Y-27000000D03*
%TO.P,J203,4,Pin_4*%
%TO.N,/Microcontroller Board/PB4*%
X145105000Y-27000000D03*
%TO.P,J203,5,Pin_5*%
%TO.N,/Microcontroller Board/PB5*%
X147645000Y-27000000D03*
%TO.P,J203,6,Pin_6*%
%TO.N,+3.3V*%
X150185000Y-27000000D03*
%TO.P,J203,7,Pin_7*%
%TO.N,GND*%
X152725000Y-27000000D03*
%TO.P,J203,8,Pin_8*%
%TO.N,/Microcontroller Board/PD5*%
X155265000Y-27000000D03*
%TO.P,J203,9,Pin_9*%
%TO.N,/Microcontroller Board/PD4*%
X157805000Y-27000000D03*
%TO.P,J203,10,Pin_10*%
%TO.N,/Microcontroller Board/PD3*%
X160345000Y-27000000D03*
%TO.P,J203,11,Pin_11*%
%TO.N,/Microcontroller Board/PD2*%
X162885000Y-27000000D03*
%TO.P,J203,12,Pin_12*%
%TO.N,/Microcontroller Board/PD1*%
X165425000Y-27000000D03*
%TO.P,J203,13,Pin_13*%
%TO.N,/Microcontroller Board/PD0*%
X167965000Y-27000000D03*
%TO.P,J203,14,Pin_14*%
%TO.N,/Microcontroller Board/PC12*%
X170505000Y-27000000D03*
%TO.P,J203,15,Pin_15*%
%TO.N,/Microcontroller Board/PC11*%
X173045000Y-27000000D03*
%TO.P,J203,16,Pin_16*%
%TO.N,/Microcontroller Board/PC10*%
X175585000Y-27000000D03*
%TO.P,J203,17,Pin_17*%
%TO.N,/Microcontroller Board/PA15*%
X178125000Y-27000000D03*
%TD*%
D13*
%TO.P,J202,1,Pin_1*%
%TO.N,+3.3V*%
X141900000Y-88200000D03*
D14*
%TO.P,J202,2,Pin_2*%
%TO.N,GND*%
X144440000Y-88200000D03*
%TO.P,J202,3,Pin_3*%
%TO.N,/Microcontroller Board/PA5*%
X146980000Y-88200000D03*
%TO.P,J202,4,Pin_4*%
%TO.N,/Microcontroller Board/PA6*%
X149520000Y-88200000D03*
%TO.P,J202,5,Pin_5*%
%TO.N,/Microcontroller Board/PB1*%
X152060000Y-88200000D03*
%TO.P,J202,6,Pin_6*%
%TO.N,/Microcontroller Board/PB2*%
X154600000Y-88200000D03*
%TO.P,J202,7,Pin_7*%
%TO.N,+3.3V*%
X157140000Y-88200000D03*
%TO.P,J202,8,Pin_8*%
%TO.N,GND*%
X159680000Y-88200000D03*
%TO.P,J202,9,Pin_9*%
%TO.N,/Microcontroller Board/PE7*%
X162220000Y-88200000D03*
%TO.P,J202,10,Pin_10*%
%TO.N,/Microcontroller Board/PE8*%
X164760000Y-88200000D03*
%TO.P,J202,11,Pin_11*%
%TO.N,/Microcontroller Board/PE9*%
X167300000Y-88200000D03*
%TO.P,J202,12,Pin_12*%
%TO.N,/Microcontroller Board/PE10*%
X169840000Y-88200000D03*
%TO.P,J202,13,Pin_13*%
%TO.N,/Microcontroller Board/PE11*%
X172380000Y-88200000D03*
%TO.P,J202,14,Pin_14*%
%TO.N,/Microcontroller Board/PE12*%
X174920000Y-88200000D03*
%TO.P,J202,15,Pin_15*%
%TO.N,/Microcontroller Board/PE13*%
X177460000Y-88200000D03*
%TO.P,J202,16,Pin_16*%
%TO.N,/Microcontroller Board/PE14*%
X180000000Y-88200000D03*
%TO.P,J202,17,Pin_17*%
%TO.N,+3.3V*%
X182540000Y-88200000D03*
%TD*%
D15*
%TO.P,J200,1,+*%
%TO.N,/Microphone Board/CON_OUT*%
X23850000Y-35000000D03*
D16*
%TO.P,J200,2,-*%
%TO.N,GND_MIC*%
X23850000Y-37000000D03*
%TD*%
D10*
%TO.P,J102,1*%
%TO.N,GND*%
X97600000Y-60770000D03*
D11*
%TO.P,J102,2*%
X99380000Y-59754000D03*
%TO.P,J102,3*%
X97600000Y-58738000D03*
%TO.P,J102,4*%
%TO.N,/Microcontroller Board/SIG_AMP_IN2*%
X99380000Y-57722000D03*
%TO.P,J102,5*%
%TO.N,/Microcontroller Board/GNDMIC_AMP_IN2*%
X97600000Y-56706000D03*
%TO.P,J102,6*%
%TO.N,GND*%
X99380000Y-55690000D03*
%TO.P,J102,7*%
X97600000Y-54674000D03*
%TO.P,J102,8*%
X99380000Y-53658000D03*
D12*
%TO.P,J102,SH*%
X98490000Y-65340000D03*
X98490000Y-49080000D03*
%TD*%
D17*
%TO.P,J105,S1,SHIELD*%
%TO.N,unconnected-(J105-SHIELD-PadS1)_3*%
X187345000Y-56670000D03*
D18*
%TO.N,unconnected-(J105-SHIELD-PadS1)_1*%
X191525000Y-56670000D03*
D17*
%TO.N,unconnected-(J105-SHIELD-PadS1)*%
X187345000Y-48030000D03*
D18*
%TO.N,unconnected-(J105-SHIELD-PadS1)_2*%
X191525000Y-48030000D03*
%TD*%
D10*
%TO.P,J103,1*%
%TO.N,GND*%
X97600000Y-83302000D03*
D11*
%TO.P,J103,2*%
X99380000Y-82286000D03*
%TO.P,J103,3*%
X97600000Y-81270000D03*
%TO.P,J103,4*%
%TO.N,/Microcontroller Board/SIG_AMP_IN3*%
X99380000Y-80254000D03*
%TO.P,J103,5*%
%TO.N,/Microcontroller Board/GNDMIC_AMP_IN3*%
X97600000Y-79238000D03*
%TO.P,J103,6*%
%TO.N,GND*%
X99380000Y-78222000D03*
%TO.P,J103,7*%
X97600000Y-77206000D03*
%TO.P,J103,8*%
X99380000Y-76190000D03*
D12*
%TO.P,J103,SH*%
X98490000Y-87872000D03*
X98490000Y-71612000D03*
%TD*%
D10*
%TO.P,SW200,1,B*%
%TO.N,/Microphone Board/CON_OUT*%
X29500000Y-34960000D03*
D19*
%TO.P,SW200,2,A*%
%TO.N,/Microphone Board/BAT_SW_OUT*%
X29500000Y-32420000D03*
%TO.P,SW200,3,C*%
%TO.N,unconnected-(SW200-C-Pad3)*%
X29500000Y-37500000D03*
%TD*%
D10*
%TO.P,J101,1*%
%TO.N,GND*%
X97600000Y-37200000D03*
D11*
%TO.P,J101,2*%
X99380001Y-36184000D03*
%TO.P,J101,3*%
X97600000Y-35168000D03*
%TO.P,J101,4*%
%TO.N,/Microcontroller Board/SIG_AMP_IN1*%
X99380001Y-34152000D03*
%TO.P,J101,5*%
%TO.N,/Microcontroller Board/GNDMIC_AMP_IN1*%
X97600000Y-33136000D03*
%TO.P,J101,6*%
%TO.N,GND*%
X99380001Y-32120000D03*
%TO.P,J101,7*%
X97600000Y-31104000D03*
%TO.P,J101,8*%
X99380000Y-30088001D03*
D12*
%TO.P,J101,SH*%
X98490000Y-41770000D03*
X98490000Y-25510000D03*
%TD*%
D13*
%TO.P,J104,1,Pin_1*%
%TO.N,+3.3V*%
X169780000Y-37280000D03*
D14*
%TO.P,J104,2,Pin_2*%
%TO.N,/Microcontroller Board/CONN_SWDIO*%
X167240000Y-37280000D03*
%TO.P,J104,3,Pin_3*%
%TO.N,/Microcontroller Board/CONN_SWCLK*%
X164700000Y-37280000D03*
%TO.P,J104,4,Pin_4*%
%TO.N,/Microcontroller Board/CONN_NRST*%
X162160000Y-37280000D03*
%TO.P,J104,5,Pin_5*%
%TO.N,GND*%
X159620000Y-37280000D03*
%TD*%
D20*
%TO.N,*%
X59000000Y-48000000D03*
X61500000Y-45500000D03*
X61500000Y-43000000D03*
X56500000Y-45500000D03*
X64000000Y-45500000D03*
X64000000Y-48000000D03*
X56500000Y-48000000D03*
X56500000Y-50500000D03*
%TO.N,GND*%
X124000000Y-28000000D03*
D21*
X182700000Y-49450000D03*
X116025000Y-34975000D03*
D20*
X121500000Y-28000000D03*
X181500000Y-68000000D03*
X174000000Y-70500000D03*
X100600000Y-77700000D03*
X111500000Y-60500000D03*
X131500000Y-30500000D03*
X134000000Y-68000000D03*
X134000000Y-65500000D03*
X181500000Y-28000000D03*
D21*
X140100000Y-52750000D03*
D20*
X119000000Y-85500000D03*
X139000000Y-43000000D03*
X111500000Y-53000000D03*
X111500000Y-38000000D03*
D21*
X185000000Y-48550000D03*
X121500000Y-66900000D03*
D20*
X176500000Y-38000000D03*
D21*
X163000000Y-41800000D03*
D20*
X139000000Y-73000000D03*
X121500000Y-48000000D03*
X141500000Y-40500000D03*
D21*
X164600000Y-50550000D03*
D20*
X136500000Y-68000000D03*
X126500000Y-45500000D03*
X96200000Y-81300000D03*
X174000000Y-55500000D03*
X114000000Y-38000000D03*
D21*
X139300000Y-66150000D03*
D20*
X107500000Y-62500000D03*
X109000000Y-68000000D03*
X186500000Y-80500000D03*
X111500000Y-45500000D03*
X134000000Y-43000000D03*
X181500000Y-70500000D03*
X99400000Y-74850000D03*
D21*
X148900000Y-38150000D03*
X165000000Y-67850000D03*
D20*
X119000000Y-50500000D03*
X126500000Y-63000000D03*
X181500000Y-23000000D03*
X181500000Y-38000000D03*
X111500000Y-73000000D03*
X111500000Y-28000000D03*
X121500000Y-88000000D03*
X189000000Y-78000000D03*
X171500000Y-45500000D03*
X121500000Y-70500000D03*
X106500000Y-73000000D03*
X121500000Y-40500000D03*
X181500000Y-60500000D03*
X189000000Y-25500000D03*
X189000000Y-75500000D03*
X134000000Y-78000000D03*
D21*
X125100000Y-73500000D03*
X128300000Y-76400000D03*
D20*
X179000000Y-38000000D03*
X186500000Y-35500000D03*
X119000000Y-73000000D03*
X126500000Y-48000000D03*
X116500000Y-28000000D03*
X181500000Y-58000000D03*
X184000000Y-65500000D03*
D21*
X156300000Y-67850000D03*
D20*
X189000000Y-80500000D03*
D21*
X150800000Y-38150000D03*
D20*
X184000000Y-33000000D03*
X184000000Y-80500000D03*
X186500000Y-63000000D03*
X144000000Y-43000000D03*
X114000000Y-23000000D03*
D21*
X157400000Y-36150000D03*
D20*
X121500000Y-85500000D03*
X174000000Y-35500000D03*
X129000000Y-65500000D03*
D21*
X145295098Y-44847338D03*
D20*
X111500000Y-30500000D03*
X134000000Y-35500000D03*
X181500000Y-43000000D03*
X119000000Y-63000000D03*
X107500000Y-76000000D03*
X184000000Y-78000000D03*
X131500000Y-40500000D03*
X181500000Y-63000000D03*
X124000000Y-85500000D03*
X136500000Y-45500000D03*
D21*
X119500000Y-78850000D03*
D20*
X179000000Y-40500000D03*
X116500000Y-90500000D03*
D21*
X172500000Y-60450000D03*
D20*
X116500000Y-68000000D03*
X134000000Y-25500000D03*
D21*
X151700000Y-38950000D03*
D20*
X116500000Y-80500000D03*
X186500000Y-23000000D03*
X116500000Y-43000000D03*
X114000000Y-90500000D03*
D21*
X98500000Y-47350000D03*
D20*
X116500000Y-25500000D03*
X114000000Y-88000000D03*
X116500000Y-50500000D03*
X124000000Y-63000000D03*
X179000000Y-43000000D03*
X136500000Y-43000000D03*
X111500000Y-65500000D03*
X116500000Y-63000000D03*
D21*
X185600000Y-47850000D03*
D20*
X186500000Y-25500000D03*
X189000000Y-90500000D03*
D21*
X128500000Y-60600000D03*
D20*
X126500000Y-65500000D03*
X124000000Y-30500000D03*
X121500000Y-83000000D03*
X109000000Y-43000000D03*
X189000000Y-60500000D03*
X99400000Y-37550000D03*
X131500000Y-53000000D03*
D21*
X184800000Y-57450000D03*
D20*
X179000000Y-63000000D03*
X114000000Y-43000000D03*
X107500000Y-29900000D03*
X189000000Y-83000000D03*
D21*
X169800000Y-71550000D03*
D20*
X114000000Y-40500000D03*
X136500000Y-40500000D03*
X186500000Y-40500000D03*
D21*
X114900000Y-75650000D03*
D20*
X136500000Y-75500000D03*
X121500000Y-73000000D03*
X184000000Y-25500000D03*
X141500000Y-38000000D03*
D21*
X151700000Y-38150000D03*
D20*
X189000000Y-85500000D03*
X181500000Y-65500000D03*
D21*
X163529119Y-49282489D03*
D20*
X114000000Y-25500000D03*
X111500000Y-48000000D03*
D21*
X128500000Y-80600000D03*
D20*
X176500000Y-48000000D03*
X181500000Y-40500000D03*
X100800000Y-55700000D03*
X186500000Y-78000000D03*
X131500000Y-23000000D03*
D21*
X184700000Y-56450000D03*
D20*
X184000000Y-35500000D03*
X189000000Y-35500000D03*
X131500000Y-25500000D03*
X106500000Y-88000000D03*
X184000000Y-73000000D03*
X121500000Y-25500000D03*
D21*
X173000000Y-61150000D03*
D20*
X106500000Y-48000000D03*
D21*
X159500000Y-63800000D03*
D20*
X114000000Y-50500000D03*
D21*
X158600000Y-50050000D03*
D20*
X131500000Y-28000000D03*
D21*
X158000000Y-39800000D03*
X125000000Y-33850000D03*
D20*
X116500000Y-83000000D03*
X119000000Y-43000000D03*
X116500000Y-23000000D03*
D21*
X146500000Y-55650000D03*
D20*
X106500000Y-50500000D03*
X116500000Y-73000000D03*
X184000000Y-60500000D03*
X129000000Y-68000000D03*
X129000000Y-25500000D03*
D21*
X119300000Y-58850000D03*
X185600000Y-56850000D03*
D20*
X96300000Y-58800000D03*
X186500000Y-88000000D03*
X186500000Y-38000000D03*
X129000000Y-63000000D03*
X124000000Y-80500000D03*
X124000000Y-68000000D03*
D21*
X124400000Y-74250000D03*
D20*
X139000000Y-68000000D03*
X111500000Y-63000000D03*
X134000000Y-80500000D03*
X134000000Y-53000000D03*
D21*
X141900000Y-51100000D03*
D20*
X186500000Y-65500000D03*
X106500000Y-43000000D03*
X186500000Y-28000000D03*
D21*
X146500000Y-57400000D03*
X153000000Y-38150000D03*
X146300000Y-44100000D03*
D20*
X121500000Y-23000000D03*
X189000000Y-43000000D03*
X124000000Y-50500000D03*
X111500000Y-23000000D03*
X184000000Y-63000000D03*
X106500000Y-23000000D03*
X97600000Y-53350000D03*
X106500000Y-45500000D03*
X136500000Y-38000000D03*
D21*
X140300000Y-58150000D03*
D20*
X189000000Y-28000000D03*
X139000000Y-45500000D03*
X109000000Y-50500000D03*
X119000000Y-48000000D03*
X119000000Y-68000000D03*
X124000000Y-60500000D03*
X189000000Y-73000000D03*
X129000000Y-70500000D03*
X134000000Y-75500000D03*
D21*
X140400000Y-58950000D03*
X146101780Y-53942285D03*
D20*
X176500000Y-45500000D03*
X111500000Y-25500000D03*
X186500000Y-85500000D03*
X106500000Y-68000000D03*
X134000000Y-38000000D03*
X136500000Y-65500000D03*
D21*
X171182841Y-40385583D03*
D20*
X141500000Y-43000000D03*
X109000000Y-70500000D03*
X96200000Y-35200000D03*
X136500000Y-73000000D03*
X124000000Y-45500000D03*
X114000000Y-53000000D03*
X131500000Y-68000000D03*
X134000000Y-30500000D03*
X126500000Y-50500000D03*
X126500000Y-28000000D03*
X119000000Y-25500000D03*
D21*
X166400000Y-67250000D03*
D20*
X116500000Y-65500000D03*
X116500000Y-70500000D03*
X126500000Y-43000000D03*
X126500000Y-70500000D03*
X121500000Y-90500000D03*
D21*
X159700000Y-85900000D03*
D20*
X119000000Y-88000000D03*
X139000000Y-40500000D03*
X126500000Y-25500000D03*
X121500000Y-43000000D03*
X124000000Y-48000000D03*
X134000000Y-45500000D03*
X189000000Y-65500000D03*
X107500000Y-84400000D03*
X174000000Y-40500000D03*
X184000000Y-83000000D03*
X134000000Y-55500000D03*
X126500000Y-60500000D03*
X186500000Y-68000000D03*
X109000000Y-90500000D03*
X109000000Y-23000000D03*
X171500000Y-43000000D03*
X121500000Y-50500000D03*
X129000000Y-23000000D03*
X126500000Y-83000000D03*
X119000000Y-45500000D03*
X134000000Y-50500000D03*
X124000000Y-43000000D03*
X121500000Y-68000000D03*
X114000000Y-83000000D03*
X124000000Y-23000000D03*
X107500000Y-39000000D03*
X97600000Y-38550000D03*
X99400000Y-83650000D03*
X179000000Y-45500000D03*
X109000000Y-25500000D03*
X189000000Y-40500000D03*
X139000000Y-75500000D03*
X131500000Y-80500000D03*
X106500000Y-90500000D03*
X184000000Y-70500000D03*
X124000000Y-40500000D03*
X189000000Y-30500000D03*
D21*
X146300000Y-52900000D03*
X177300000Y-62050000D03*
X146400000Y-42950000D03*
X167800000Y-48450000D03*
D20*
X181500000Y-25500000D03*
X119000000Y-83000000D03*
X186500000Y-73000000D03*
X114000000Y-45500000D03*
X116000000Y-55000000D03*
X179000000Y-65500000D03*
X131500000Y-83000000D03*
X109000000Y-73000000D03*
X184000000Y-75500000D03*
X114000000Y-60500000D03*
D21*
X176400000Y-68050000D03*
D20*
X129000000Y-83000000D03*
X184000000Y-28000000D03*
D21*
X146000000Y-58550000D03*
D20*
X116500000Y-45500000D03*
X106500000Y-65500000D03*
D21*
X175957063Y-57363317D03*
D20*
X179000000Y-68000000D03*
X186500000Y-60500000D03*
X99400000Y-61150000D03*
D21*
X139400000Y-54050000D03*
X138300000Y-53950000D03*
X160300000Y-62600000D03*
D20*
X186500000Y-75500000D03*
D21*
X148502859Y-65751379D03*
D20*
X116500000Y-60500000D03*
X189000000Y-63000000D03*
D21*
X163900000Y-62100000D03*
D20*
X174000000Y-43000000D03*
X134000000Y-40500000D03*
D21*
X140300000Y-60850003D03*
D20*
X121500000Y-33000000D03*
X116200000Y-75100000D03*
X114000000Y-28000000D03*
X189000000Y-38000000D03*
X111500000Y-90500000D03*
X134000000Y-33000000D03*
X106500000Y-70500000D03*
X126500000Y-68000000D03*
X126500000Y-23000000D03*
X131500000Y-65500000D03*
X126500000Y-40500000D03*
X114000000Y-68000000D03*
X131500000Y-75500000D03*
X134000000Y-23000000D03*
X106500000Y-28000000D03*
D21*
X157800000Y-61850000D03*
D20*
X129000000Y-30500000D03*
X116500000Y-33000000D03*
X129000000Y-33000000D03*
X97600000Y-84650000D03*
X119000000Y-90500000D03*
X114000000Y-63000000D03*
X176500000Y-70500000D03*
X116500000Y-30500000D03*
X186500000Y-30500000D03*
D21*
X160700000Y-63800000D03*
D20*
X141500000Y-75500000D03*
X181500000Y-75500000D03*
X131500000Y-38000000D03*
X124000000Y-65500000D03*
D21*
X146800000Y-49350000D03*
D20*
X119000000Y-23000000D03*
X116500000Y-48000000D03*
X119000000Y-30500000D03*
X111500000Y-50500000D03*
D21*
X163100000Y-67100000D03*
X151500000Y-74600000D03*
D20*
X134000000Y-73000000D03*
X186500000Y-70500000D03*
X124000000Y-90500000D03*
X111500000Y-43000000D03*
X119000000Y-53000000D03*
D21*
X167900000Y-45950000D03*
D20*
X139000000Y-38000000D03*
X124000000Y-70500000D03*
D21*
X176400000Y-67050000D03*
D20*
X174000000Y-45500000D03*
D21*
X146300000Y-61850000D03*
D20*
X186500000Y-33000000D03*
X119000000Y-28000000D03*
X189000000Y-33000000D03*
D21*
X128100000Y-56350000D03*
X140100000Y-29200000D03*
D20*
X186500000Y-90500000D03*
X114000000Y-85500000D03*
X129000000Y-28000000D03*
X97600000Y-75850000D03*
X181500000Y-45500000D03*
X131500000Y-45500000D03*
D21*
X187200000Y-46100000D03*
D20*
X111500000Y-88000000D03*
X184000000Y-30500000D03*
D21*
X127200000Y-39700000D03*
D20*
X186500000Y-43000000D03*
X111500000Y-40500000D03*
X131500000Y-35500000D03*
X119000000Y-65500000D03*
X119000000Y-33000000D03*
X111500000Y-85500000D03*
X184000000Y-40500000D03*
D21*
X136400000Y-49450000D03*
X162600000Y-48150000D03*
D20*
X121500000Y-63000000D03*
X119000000Y-80500000D03*
X131500000Y-55500000D03*
X184000000Y-45500000D03*
X119000000Y-70500000D03*
D21*
X144600000Y-65300000D03*
D20*
X134000000Y-28000000D03*
X114000000Y-30500000D03*
X121500000Y-53000000D03*
X124000000Y-88000000D03*
D21*
X124400000Y-54250000D03*
D20*
X176500000Y-43000000D03*
X124000000Y-33000000D03*
D21*
X157400000Y-37750000D03*
X162300000Y-64000000D03*
D20*
X126500000Y-33000000D03*
X116500000Y-88000000D03*
D21*
X149800000Y-38150000D03*
D20*
X106500000Y-25500000D03*
X131500000Y-50500000D03*
X181500000Y-73000000D03*
X174000000Y-48000000D03*
X134000000Y-83000000D03*
X189000000Y-68000000D03*
X109000000Y-48000000D03*
X119000000Y-40500000D03*
X121500000Y-60500000D03*
X99400000Y-52250000D03*
X189000000Y-88000000D03*
X126500000Y-30500000D03*
X121500000Y-45500000D03*
D21*
X187200000Y-58600000D03*
D20*
X107500000Y-52800000D03*
X109000000Y-65500000D03*
D21*
X98500000Y-69850000D03*
D20*
X131500000Y-78000000D03*
X131500000Y-43000000D03*
X121500000Y-30500000D03*
D21*
X145300000Y-64750000D03*
X140100000Y-53650000D03*
D20*
X111500000Y-70500000D03*
X97600000Y-29750000D03*
X114000000Y-70500000D03*
D21*
X154400000Y-39750000D03*
X142500000Y-64250000D03*
X162000000Y-43150000D03*
X179700000Y-62050000D03*
D20*
X109000000Y-45500000D03*
D21*
X183200000Y-51850000D03*
D20*
X184000000Y-68000000D03*
X100700000Y-32100000D03*
X176500000Y-55500000D03*
D21*
X98500000Y-43450000D03*
X141900000Y-53350000D03*
D20*
X111500000Y-68000000D03*
X189000000Y-70500000D03*
D21*
X124200000Y-34450000D03*
X98400000Y-89550000D03*
X128000000Y-35200000D03*
D20*
X124000000Y-25500000D03*
D21*
X152800000Y-29000000D03*
D20*
X131500000Y-33000000D03*
D21*
X163380984Y-65975000D03*
D20*
X176500000Y-40500000D03*
X144000000Y-45500000D03*
X109000000Y-88000000D03*
X111500000Y-83000000D03*
X174000000Y-38000000D03*
X184000000Y-23000000D03*
X124000000Y-83000000D03*
D21*
X144500000Y-86000000D03*
D20*
X114000000Y-65500000D03*
X141500000Y-73000000D03*
X116400000Y-53100000D03*
X119000000Y-60500000D03*
X184000000Y-38000000D03*
X109000000Y-28000000D03*
X171500000Y-48000000D03*
X141500000Y-45500000D03*
D21*
X164200000Y-44157900D03*
X184800000Y-47250000D03*
D20*
X116500000Y-85500000D03*
X99400000Y-28750000D03*
X186500000Y-83000000D03*
D21*
X98500000Y-23650000D03*
D20*
X126500000Y-80500000D03*
D21*
X119200000Y-39250000D03*
D20*
X97600000Y-62150000D03*
X114000000Y-48000000D03*
X184000000Y-43000000D03*
X179000000Y-70500000D03*
X116500000Y-40500000D03*
D21*
X125000000Y-53650000D03*
X155600000Y-40700000D03*
X98500000Y-67050000D03*
D20*
X121500000Y-80500000D03*
X114000000Y-73000000D03*
D21*
%TO.N,/Microcontroller Board/NRST*%
X146200000Y-56550000D03*
X167000000Y-46050000D03*
X163000000Y-44853950D03*
X166900000Y-48450000D03*
%TO.N,+3.3V*%
X163000000Y-62950000D03*
X148900000Y-66650000D03*
X127500000Y-55650000D03*
X163200000Y-64800000D03*
X165800000Y-63250000D03*
X161700000Y-48150000D03*
X166700000Y-63350000D03*
X166600000Y-64300000D03*
X127500000Y-36150000D03*
X146000000Y-54850000D03*
X164300000Y-63300000D03*
X155600000Y-41650000D03*
X142300000Y-85700000D03*
X165100000Y-63600000D03*
X146100000Y-45250000D03*
X163200000Y-63800000D03*
X146000000Y-52050000D03*
X147300000Y-43250000D03*
X151600000Y-44150000D03*
X127800000Y-75650000D03*
%TO.N,5V*%
X175200000Y-57850000D03*
%TO.N,VDDA*%
X139800000Y-65350000D03*
X140300000Y-59950000D03*
%TO.N,GND_MIC*%
X50500000Y-50600000D03*
D20*
X29000000Y-50500000D03*
X59000000Y-28000000D03*
X36500000Y-23000000D03*
X36500000Y-45500000D03*
X44000000Y-28000000D03*
X61500000Y-40500000D03*
X71500000Y-23000000D03*
X29000000Y-25500000D03*
D21*
X74000000Y-49800000D03*
D20*
X69000000Y-50500000D03*
X41500000Y-45500000D03*
X59000000Y-58000000D03*
D21*
X40400000Y-34300000D03*
X34800000Y-34300000D03*
D20*
X51500000Y-25500000D03*
D21*
X54300000Y-33700000D03*
D20*
X46500000Y-33000000D03*
X29000000Y-23000000D03*
X39000000Y-58000000D03*
X56500000Y-30500000D03*
X69000000Y-23000000D03*
X44000000Y-25500000D03*
X71500000Y-55500000D03*
X49000000Y-30500000D03*
X24000000Y-43000000D03*
X24000000Y-40500000D03*
X59000000Y-23000000D03*
X41500000Y-50500000D03*
X71500000Y-58000000D03*
D21*
X38856881Y-37300000D03*
D20*
X41500000Y-23000000D03*
X51500000Y-58000000D03*
X36500000Y-43000000D03*
X39000000Y-50500000D03*
X41500000Y-48000000D03*
X26500000Y-40500000D03*
X56500000Y-55500000D03*
X49000000Y-25500000D03*
D21*
X57200000Y-41700000D03*
D20*
X51500000Y-23000000D03*
X44000000Y-55500000D03*
X46500000Y-55500000D03*
X74000000Y-25500000D03*
D21*
X26200000Y-37000000D03*
D20*
X44000000Y-48000000D03*
X59000000Y-38000000D03*
X44000000Y-23000000D03*
X66500000Y-58000000D03*
X34000000Y-55500000D03*
X36500000Y-50500000D03*
X41500000Y-55500000D03*
X59000000Y-45500000D03*
D21*
X49100000Y-45600000D03*
D20*
X54000000Y-53000000D03*
X41500000Y-28000000D03*
X26500000Y-45500000D03*
X66500000Y-50500000D03*
X61500000Y-53000000D03*
X31500000Y-23000000D03*
D21*
X37256881Y-38500000D03*
D20*
X74000000Y-58000000D03*
X49000000Y-23000000D03*
X64000000Y-55500000D03*
X64000000Y-53000000D03*
X64000000Y-23000000D03*
X61500000Y-58000000D03*
X56500000Y-28000000D03*
X36500000Y-58000000D03*
D21*
X38900000Y-45800000D03*
X74000000Y-30100000D03*
D20*
X24000000Y-48000000D03*
X56500000Y-58000000D03*
X71500000Y-50500000D03*
X59000000Y-50500000D03*
D21*
X33250000Y-35600000D03*
D20*
X24000000Y-30500000D03*
X21500000Y-40500000D03*
X36500000Y-30500000D03*
X36500000Y-28000000D03*
X69000000Y-28000000D03*
X61500000Y-35500000D03*
X61500000Y-25500000D03*
X26500000Y-30500000D03*
X61500000Y-30500000D03*
X54000000Y-25500000D03*
X26500000Y-43000000D03*
X49000000Y-53000000D03*
X44000000Y-53000000D03*
X21500000Y-30500000D03*
X54000000Y-58000000D03*
X56500000Y-25500000D03*
X31500000Y-25500000D03*
X31500000Y-55500000D03*
X51500000Y-53000000D03*
X66500000Y-25500000D03*
X61500000Y-23000000D03*
X54000000Y-23000000D03*
D21*
X31500000Y-42500000D03*
D20*
X46500000Y-50500000D03*
X59000000Y-30500000D03*
D21*
X43400000Y-40300000D03*
D20*
X54000000Y-30500000D03*
X69000000Y-55500000D03*
X46500000Y-23000000D03*
X34000000Y-58000000D03*
X34000000Y-48000000D03*
X39000000Y-55500000D03*
X69000000Y-53000000D03*
X66500000Y-55500000D03*
X71500000Y-28000000D03*
X34000000Y-23000000D03*
X31500000Y-58000000D03*
D21*
X54900000Y-50600000D03*
D20*
X46500000Y-58000000D03*
X61500000Y-55500000D03*
X34000000Y-28000000D03*
D21*
X51000000Y-35900000D03*
D20*
X71500000Y-53000000D03*
X39000000Y-25500000D03*
X59000000Y-55500000D03*
X36500000Y-48000000D03*
X74000000Y-23000000D03*
X24000000Y-45500000D03*
X49000000Y-58000000D03*
X26500000Y-48000000D03*
X36500000Y-53000000D03*
D21*
X57100000Y-38800000D03*
D20*
X39000000Y-28000000D03*
X61500000Y-48000000D03*
X51500000Y-28000000D03*
X59000000Y-53000000D03*
X21500000Y-48000000D03*
X71500000Y-25500000D03*
X29000000Y-55500000D03*
X49000000Y-33000000D03*
X39000000Y-30500000D03*
X59000000Y-35500000D03*
X61500000Y-28000000D03*
D21*
X44336398Y-39036398D03*
D20*
X54000000Y-55500000D03*
X29000000Y-58000000D03*
X69000000Y-58000000D03*
X41500000Y-58000000D03*
X64000000Y-50500000D03*
X44000000Y-30500000D03*
D21*
X55800000Y-49600000D03*
D20*
X21500000Y-45500000D03*
X31500000Y-28000000D03*
X61500000Y-38000000D03*
X34000000Y-50500000D03*
X29000000Y-28000000D03*
X41500000Y-25500000D03*
X46500000Y-25500000D03*
X51500000Y-55500000D03*
X64000000Y-25500000D03*
X34000000Y-43000000D03*
X46500000Y-30500000D03*
X49000000Y-55500000D03*
X34000000Y-45500000D03*
X29000000Y-48000000D03*
X56500000Y-23000000D03*
X36500000Y-25500000D03*
D21*
X45100000Y-40900000D03*
D20*
X46500000Y-28000000D03*
X54000000Y-28000000D03*
D21*
X44076167Y-31808599D03*
D20*
X39000000Y-48000000D03*
X44000000Y-58000000D03*
D21*
X31900000Y-40000000D03*
D20*
X74000000Y-53000000D03*
X51500000Y-33000000D03*
X74000000Y-28000000D03*
X21500000Y-43000000D03*
X31500000Y-48000000D03*
D21*
X64100000Y-31400000D03*
D20*
X34000000Y-25500000D03*
D21*
X45600000Y-33800000D03*
D20*
X66500000Y-28000000D03*
D21*
X33300000Y-36500000D03*
D20*
X59000000Y-43000000D03*
X44000000Y-50500000D03*
X59000000Y-25500000D03*
D21*
X35200000Y-35000000D03*
X64100000Y-44125000D03*
D20*
X36500000Y-55500000D03*
X61500000Y-50500000D03*
X66500000Y-53000000D03*
X56500000Y-53000000D03*
X34000000Y-53000000D03*
X34000000Y-30500000D03*
X39000000Y-23000000D03*
X31500000Y-53000000D03*
X39000000Y-53000000D03*
X46500000Y-53000000D03*
X64000000Y-28000000D03*
X26500000Y-50500000D03*
X31500000Y-45500000D03*
X66500000Y-23000000D03*
X29000000Y-45500000D03*
D21*
X42100000Y-35500000D03*
D20*
X41500000Y-53000000D03*
X69000000Y-25500000D03*
D21*
X51600000Y-36500000D03*
D20*
X74000000Y-55500000D03*
X51500000Y-30500000D03*
D21*
X56200000Y-42300000D03*
D20*
X64000000Y-58000000D03*
X31500000Y-50500000D03*
X49000000Y-28000000D03*
D21*
%TO.N,+3.3VA*%
X55100000Y-49000000D03*
X43700000Y-38400000D03*
X55300000Y-41900000D03*
X31400000Y-40800000D03*
X43500000Y-32500000D03*
X48400000Y-38100000D03*
%TO.N,/Microcontroller Board/PD5*%
X152767073Y-44366667D03*
X154200000Y-32000000D03*
%TO.N,/Microcontroller Board/PD1*%
X157400000Y-41700000D03*
X157300000Y-34100000D03*
%TO.N,/Microcontroller Board/PD4*%
X153328255Y-43663048D03*
X155100000Y-32300000D03*
%TO.N,/Microcontroller Board/PC10*%
X159800000Y-43953947D03*
X169200000Y-34700000D03*
%TO.N,/Microcontroller Board/PD0*%
X160900000Y-34800000D03*
X158400000Y-41800000D03*
%TO.N,/Microcontroller Board/PD3*%
X156000000Y-32800000D03*
X154309144Y-43109144D03*
%TO.N,/Microcontroller Board/PB3*%
X140400000Y-48900000D03*
X149305866Y-51213534D03*
%TO.N,/Microcontroller Board/PD2*%
X156800000Y-40700000D03*
X156500000Y-33600000D03*
%TO.N,/Microcontroller Board/PB5*%
X148800000Y-49500000D03*
X142500000Y-48900000D03*
%TO.N,/Microcontroller Board/PC12*%
X159800000Y-42153941D03*
X163300000Y-34800000D03*
%TO.N,/Microcontroller Board/PC11*%
X159800000Y-43053944D03*
X166000000Y-34800000D03*
%TO.N,/Microcontroller Board/PA15*%
X159800000Y-44853950D03*
X168700000Y-43200000D03*
%TO.N,/Microcontroller Board/PB4*%
X141599997Y-48900000D03*
X148947959Y-50387757D03*
%TD*%
D22*
%TO.N,/Microcontroller Board/NRST*%
X166303950Y-44853950D02*
X167000000Y-45550000D01*
X164700000Y-51650000D02*
X159200000Y-51650000D01*
X163000000Y-44853950D02*
X166303950Y-44853950D01*
X167000000Y-45550000D02*
X167000000Y-46050000D01*
X159200000Y-51650000D02*
X158600000Y-52250000D01*
X158600000Y-55250000D02*
X157300000Y-56550000D01*
X166900000Y-48450000D02*
X166900000Y-49450000D01*
X157300000Y-56550000D02*
X146200000Y-56550000D01*
X158600000Y-52250000D02*
X158600000Y-55250000D01*
X166900000Y-49450000D02*
X164700000Y-51650000D01*
D23*
%TO.N,+3.3V*%
X128500000Y-54650000D02*
X127500000Y-55650000D01*
X128500000Y-48050000D02*
X128500000Y-36200000D01*
X147800000Y-54700000D02*
X147800000Y-52400000D01*
X136100000Y-23600000D02*
X149570000Y-23600000D01*
X142500000Y-91100000D02*
X156400000Y-91100000D01*
X161600000Y-66650000D02*
X148900000Y-66650000D01*
X141900000Y-90500000D02*
X142500000Y-91100000D01*
X130649000Y-27647504D02*
X131147504Y-27149000D01*
X158800000Y-47050000D02*
X158800000Y-47850000D01*
X142900000Y-85100000D02*
X142300000Y-85700000D01*
X157100000Y-42800000D02*
X155950000Y-41650000D01*
X161600000Y-54250000D02*
X162800000Y-53050000D01*
X182540000Y-88200000D02*
X182540000Y-90360000D01*
X135100000Y-24600000D02*
X136100000Y-23600000D01*
X165900000Y-53050000D02*
X169800000Y-49150000D01*
X169800000Y-42950000D02*
X169780000Y-42930000D01*
X150185000Y-24215000D02*
X150185000Y-27000000D01*
X160400000Y-71150000D02*
X161600000Y-69950000D01*
X161600000Y-63950000D02*
X161600000Y-62950000D01*
X157400000Y-54800000D02*
X147900000Y-54800000D01*
X169780000Y-42930000D02*
X169780000Y-37280000D01*
X127680944Y-36200000D02*
X127630944Y-36150000D01*
X135100000Y-27000000D02*
X135100000Y-24600000D01*
X131151000Y-27149000D02*
X131300000Y-27000000D01*
X182540000Y-90360000D02*
X181700000Y-91200000D01*
X147800000Y-45450000D02*
X147300000Y-45450000D01*
X157140000Y-91040000D02*
X157200000Y-91100000D01*
X147800000Y-45450000D02*
X149150000Y-45450000D01*
X157140000Y-88200000D02*
X157140000Y-91040000D01*
X129900000Y-34800000D02*
X129900000Y-28400000D01*
X158800000Y-48700000D02*
X158500000Y-49000000D01*
X158800000Y-43300000D02*
X158300000Y-42800000D01*
X181700000Y-91200000D02*
X181600000Y-91100000D01*
X157200000Y-91100000D02*
X156400000Y-91100000D01*
X147800000Y-47850000D02*
X128700000Y-47850000D01*
X161600000Y-69950000D02*
X161600000Y-66650000D01*
X147900000Y-54800000D02*
X146050000Y-54800000D01*
X147300000Y-45450000D02*
X146300000Y-45450000D01*
X155950000Y-41650000D02*
X155600000Y-41650000D01*
X132300000Y-71150000D02*
X142900000Y-71150000D01*
X157799000Y-50600000D02*
X157799000Y-50999000D01*
X157799000Y-54401000D02*
X157400000Y-54800000D01*
X169800000Y-49150000D02*
X169800000Y-47050000D01*
X161700000Y-47050000D02*
X161700000Y-48150000D01*
X161600000Y-62950000D02*
X161600000Y-54250000D01*
X158800000Y-47850000D02*
X147800000Y-47850000D01*
X146300000Y-45450000D02*
X146100000Y-45250000D01*
X161700000Y-47050000D02*
X158800000Y-47050000D01*
X147450000Y-52050000D02*
X146000000Y-52050000D01*
X163000000Y-62950000D02*
X161600000Y-62950000D01*
X158500000Y-49000000D02*
X157799000Y-49701000D01*
X127800000Y-75650000D02*
X132300000Y-71150000D01*
X150450000Y-44150000D02*
X151600000Y-44150000D01*
X157799000Y-50600000D02*
X157799000Y-54401000D01*
X131300000Y-27000000D02*
X135100000Y-27000000D01*
X157799000Y-49701000D02*
X157799000Y-50600000D01*
X157799000Y-50999000D02*
X157800000Y-51000000D01*
X162800000Y-53050000D02*
X165900000Y-53050000D01*
X141900000Y-88200000D02*
X141900000Y-90500000D01*
X161600000Y-63950000D02*
X161600000Y-66650000D01*
X130649000Y-27651000D02*
X130649000Y-27647504D01*
X158300000Y-42800000D02*
X157100000Y-42800000D01*
X169800000Y-47050000D02*
X161700000Y-47050000D01*
X147800000Y-52400000D02*
X147450000Y-52050000D01*
X128500000Y-36200000D02*
X127680944Y-36200000D01*
X158800000Y-47850000D02*
X158800000Y-48700000D01*
X128700000Y-47850000D02*
X128500000Y-48050000D01*
X142900000Y-71150000D02*
X160400000Y-71150000D01*
X135100000Y-27000000D02*
X137485000Y-27000000D01*
X169800000Y-47050000D02*
X169800000Y-42950000D01*
X129900000Y-28400000D02*
X130649000Y-27651000D01*
X158800000Y-47050000D02*
X158800000Y-43300000D01*
X147900000Y-54800000D02*
X147800000Y-54700000D01*
X181600000Y-91100000D02*
X157200000Y-91100000D01*
X131147504Y-27149000D02*
X131151000Y-27149000D01*
X149570000Y-23600000D02*
X150185000Y-24215000D01*
X149150000Y-45450000D02*
X150450000Y-44150000D01*
X128500000Y-36200000D02*
X129900000Y-34800000D01*
X127630944Y-36150000D02*
X127500000Y-36150000D01*
X142900000Y-71150000D02*
X142900000Y-85100000D01*
X128500000Y-54650000D02*
X128500000Y-48050000D01*
X146050000Y-54800000D02*
X146000000Y-54850000D01*
X151600000Y-44150000D02*
X151600000Y-43500000D01*
X147300000Y-45450000D02*
X147300000Y-43250000D01*
X147800000Y-45450000D02*
X147800000Y-47850000D01*
D22*
%TO.N,5V*%
X164400000Y-57650000D02*
X175000000Y-57650000D01*
X163880000Y-56005000D02*
X163880000Y-57130000D01*
X163880000Y-57130000D02*
X164400000Y-57650000D01*
X175000000Y-57650000D02*
X175200000Y-57850000D01*
D23*
%TO.N,VDDA*%
X139100000Y-64650000D02*
X139100000Y-60550000D01*
X139700000Y-59950000D02*
X140300000Y-59950000D01*
X139100000Y-60550000D02*
X139700000Y-59950000D01*
X139800000Y-65350000D02*
X139100000Y-64650000D01*
%TO.N,+3.3VA*%
X44000000Y-33300000D02*
X44000000Y-36300000D01*
X44000000Y-36300000D02*
X44000000Y-37400000D01*
X43500000Y-32500000D02*
X44000000Y-33000000D01*
X46700000Y-42600000D02*
X53300000Y-42600000D01*
X55100000Y-49000000D02*
X55300000Y-48800000D01*
X34700000Y-37200000D02*
X35600000Y-36300000D01*
X47700000Y-37400000D02*
X48400000Y-38100000D01*
X46000000Y-37400000D02*
X46000000Y-41900000D01*
X35600000Y-36300000D02*
X44000000Y-36300000D01*
X46000000Y-37400000D02*
X47700000Y-37400000D01*
X55300000Y-42600000D02*
X55300000Y-41900000D01*
X43700000Y-38400000D02*
X44000000Y-38100000D01*
X53300000Y-42600000D02*
X55300000Y-42600000D01*
X34700000Y-39800000D02*
X34700000Y-37200000D01*
X33700000Y-40800000D02*
X34700000Y-39800000D01*
X31400000Y-40800000D02*
X33700000Y-40800000D01*
X44000000Y-38100000D02*
X44000000Y-37400000D01*
X44000000Y-33000000D02*
X44000000Y-33300000D01*
X46000000Y-41900000D02*
X46700000Y-42600000D01*
X55300000Y-48800000D02*
X55300000Y-42600000D01*
X44000000Y-37400000D02*
X46000000Y-37400000D01*
D22*
%TO.N,/Microcontroller Board/PD5*%
X154500000Y-33200000D02*
X154200000Y-32900000D01*
X153900000Y-38235778D02*
X153900000Y-38200000D01*
X154500000Y-37600000D02*
X154500000Y-34600000D01*
X152767073Y-44366667D02*
X152600000Y-44199594D01*
X154200000Y-32900000D02*
X154200000Y-32000000D01*
X154500000Y-34600000D02*
X154500000Y-33200000D01*
X153900000Y-38200000D02*
X154500000Y-37600000D01*
X152600000Y-42900000D02*
X152600000Y-39535778D01*
X152600000Y-44199594D02*
X152600000Y-42900000D01*
X152600000Y-39535778D02*
X153900000Y-38235778D01*
%TO.N,/Microcontroller Board/PD1*%
X157497050Y-40282828D02*
X156700000Y-39485778D01*
X157497050Y-41602950D02*
X157497050Y-40282828D01*
X156700000Y-39485778D02*
X156700000Y-35100000D01*
X156700000Y-34700000D02*
X157300000Y-34100000D01*
X156700000Y-35100000D02*
X156700000Y-34700000D01*
X157400000Y-41700000D02*
X157497050Y-41602950D01*
%TO.N,/Microcontroller Board/PD4*%
X153328255Y-39771745D02*
X154000000Y-39100000D01*
X153328255Y-43663048D02*
X153328255Y-39771745D01*
X154000000Y-39100000D02*
X155100000Y-38000000D01*
X155100000Y-38000000D02*
X155100000Y-32300000D01*
%TO.N,/Microcontroller Board/PC10*%
X162302950Y-41511272D02*
X162302950Y-41536772D01*
X169200000Y-34700000D02*
X168500000Y-35400000D01*
X168500000Y-38500000D02*
X167400000Y-39600000D01*
X167400000Y-39600000D02*
X164214222Y-39600000D01*
X159885775Y-43953947D02*
X159800000Y-43953947D01*
X164214222Y-39600000D02*
X162302950Y-41511272D01*
X162302950Y-41536772D02*
X159885775Y-43953947D01*
X168500000Y-35400000D02*
X168500000Y-38500000D01*
%TO.N,/Microcontroller Board/PD0*%
X160100000Y-40100000D02*
X160100000Y-39500000D01*
X160100000Y-39500000D02*
X160100000Y-38900000D01*
X160100000Y-38900000D02*
X160900000Y-38100000D01*
X160900000Y-38100000D02*
X160900000Y-34800000D01*
X159000000Y-41200000D02*
X160100000Y-40100000D01*
X158400000Y-41800000D02*
X159000000Y-41200000D01*
%TO.N,/Microcontroller Board/PD3*%
X154309144Y-40826634D02*
X155700000Y-39435778D01*
X155700000Y-39100000D02*
X155700000Y-33100000D01*
X155700000Y-39435778D02*
X155700000Y-39100000D01*
X154309144Y-43109144D02*
X154309144Y-40826634D01*
X155700000Y-33100000D02*
X156000000Y-32800000D01*
%TO.N,/Microcontroller Board/PB3*%
X141700000Y-50200000D02*
X140400000Y-48900000D01*
X145313534Y-51213534D02*
X144300000Y-50200000D01*
X144300000Y-50200000D02*
X141700000Y-50200000D01*
X149305866Y-51213534D02*
X145313534Y-51213534D01*
%TO.N,/Microcontroller Board/PD2*%
X156200000Y-40100000D02*
X156800000Y-40700000D01*
X156500000Y-33600000D02*
X156200000Y-33900000D01*
X156200000Y-33900000D02*
X156200000Y-40100000D01*
%TO.N,/Microcontroller Board/PB5*%
X148800000Y-49500000D02*
X147700000Y-49500000D01*
X146900000Y-50047050D02*
X145947050Y-50047050D01*
X145400000Y-49500000D02*
X144800000Y-48900000D01*
X147700000Y-49500000D02*
X147152950Y-50047050D01*
X145947050Y-50047050D02*
X145400000Y-49500000D01*
X147152950Y-50047050D02*
X146900000Y-50047050D01*
X144800000Y-48900000D02*
X142500000Y-48900000D01*
%TO.N,/Microcontroller Board/PC12*%
X163357050Y-34857050D02*
X163300000Y-34800000D01*
X163357050Y-38596891D02*
X163357050Y-34857050D01*
X159800000Y-42153941D02*
X163357050Y-38596891D01*
%TO.N,/Microcontroller Board/PC11*%
X166000000Y-38600000D02*
X166000000Y-34800000D01*
X159800000Y-43053944D02*
X159885775Y-43053944D01*
X163939719Y-39000000D02*
X165600000Y-39000000D01*
X159885775Y-43053944D02*
X163939719Y-39000000D01*
X165600000Y-39000000D02*
X166000000Y-38600000D01*
%TO.N,/Microcontroller Board/PA15*%
X161746050Y-44853950D02*
X159800000Y-44853950D01*
X163700000Y-43400000D02*
X163300000Y-43800000D01*
X168100000Y-43800000D02*
X165900000Y-43800000D01*
X165900000Y-43800000D02*
X165500000Y-43400000D01*
X168700000Y-43200000D02*
X168100000Y-43800000D01*
X162800000Y-43800000D02*
X161746050Y-44853950D01*
X163300000Y-43800000D02*
X162800000Y-43800000D01*
X165500000Y-43400000D02*
X163700000Y-43400000D01*
%TO.N,/Microcontroller Board/PB4*%
X141969103Y-49597050D02*
X144502950Y-49597050D01*
X144700000Y-49600000D02*
X145700000Y-50600000D01*
X141599997Y-49227944D02*
X141969103Y-49597050D01*
X148300000Y-50200000D02*
X148487757Y-50387757D01*
X147500000Y-50600000D02*
X147900000Y-50200000D01*
X144502950Y-49597050D02*
X144505900Y-49600000D01*
X141599997Y-48900000D02*
X141599997Y-49227944D01*
X145700000Y-50600000D02*
X147500000Y-50600000D01*
X148487757Y-50387757D02*
X148947959Y-50387757D01*
X147900000Y-50200000D02*
X148300000Y-50200000D01*
X144505900Y-49600000D02*
X144700000Y-49600000D01*
%TD*%
%TA.AperFunction,Conductor*%
%TO.N,+3.3V*%
G36*
X169715677Y-62869685D02*
G01*
X169736319Y-62886319D01*
X169963681Y-63113681D01*
X169997166Y-63175004D01*
X170000000Y-63201362D01*
X170000000Y-63950000D01*
X170300000Y-64250000D01*
X175423638Y-64250000D01*
X175490677Y-64269685D01*
X175511319Y-64286319D01*
X175863681Y-64638681D01*
X175897166Y-64700004D01*
X175900000Y-64726362D01*
X175900000Y-65998638D01*
X175880315Y-66065677D01*
X175863681Y-66086319D01*
X175636319Y-66313681D01*
X175574996Y-66347166D01*
X175548638Y-66350000D01*
X170199999Y-66350000D01*
X170000000Y-66549999D01*
X170000000Y-67098638D01*
X169980315Y-67165677D01*
X169963681Y-67186319D01*
X169636319Y-67513681D01*
X169574996Y-67547166D01*
X169548638Y-67550000D01*
X167451362Y-67550000D01*
X167384323Y-67530315D01*
X167363681Y-67513681D01*
X167036319Y-67186319D01*
X167002834Y-67124996D01*
X167000000Y-67098638D01*
X167000000Y-66050000D01*
X166800000Y-65850000D01*
X164064322Y-65850000D01*
X163997283Y-65830315D01*
X163951528Y-65777511D01*
X163944548Y-65758095D01*
X163943498Y-65754179D01*
X163940561Y-65743216D01*
X163940559Y-65743213D01*
X163940558Y-65743209D01*
X163861508Y-65606290D01*
X163861502Y-65606282D01*
X163749701Y-65494481D01*
X163749693Y-65494475D01*
X163612774Y-65415426D01*
X163612771Y-65415424D01*
X163612768Y-65415423D01*
X163610336Y-65414771D01*
X163580183Y-65406691D01*
X163524598Y-65374598D01*
X163336319Y-65186319D01*
X163302834Y-65124996D01*
X163300000Y-65098638D01*
X163300000Y-63301362D01*
X163319685Y-63234323D01*
X163336319Y-63213681D01*
X163663681Y-62886319D01*
X163725004Y-62852834D01*
X163751362Y-62850000D01*
X169648638Y-62850000D01*
X169715677Y-62869685D01*
G37*
%TD.AperFunction*%
%TD*%
M02*
