M48
; DRILL file {KiCad 9.0.6} date 2026-03-09T14:42:43+0300
; FORMAT={-:-/ absolute / metric / decimal}
; #@! TF.CreationDate,2026-03-09T14:42:43+03:00
; #@! TF.GenerationSoftware,Kicad,Pcbnew,9.0.6
; #@! TF.FileFunction,MixedPlating,1,4
FMAT,2
METRIC
; #@! TA.AperFunction,Plated,PTH,ViaDrill
T1C0.300
; #@! TA.AperFunction,Plated,PTH,ViaDrill
T2C0.400
; #@! TA.AperFunction,Plated,PTH,ComponentDrill
T3C0.600
; #@! TA.AperFunction,Plated,PTH,ComponentDrill
T4C0.750
; #@! TA.AperFunction,Plated,PTH,ComponentDrill
T5C0.800
; #@! TA.AperFunction,Plated,PTH,ComponentDrill
T6C0.890
; #@! TA.AperFunction,Plated,PTH,ComponentDrill
T7C1.000
; #@! TA.AperFunction,Plated,PTH,ComponentDrill
T8C1.570
; #@! TA.AperFunction,NonPlated,NPTH,ComponentDrill
T9C0.500
; #@! TA.AperFunction,NonPlated,NPTH,ComponentDrill
T10C0.650
; #@! TA.AperFunction,NonPlated,NPTH,ComponentDrill
T11C3.200
; #@! TA.AperFunction,NonPlated,NPTH,ComponentDrill
T12C3.250
%
G90
G05
T1
X26.2Y-37.0
X31.4Y-40.8
X31.5Y-42.5
X31.9Y-40.0
X33.25Y-35.6
X33.3Y-36.5
X34.8Y-34.3
X35.2Y-35.0
X37.257Y-38.5
X38.857Y-37.3
X38.9Y-45.8
X40.4Y-34.3
X42.1Y-35.5
X43.4Y-40.3
X43.5Y-32.5
X43.7Y-38.4
X44.076Y-31.809
X44.336Y-39.036
X45.1Y-40.9
X45.6Y-33.8
X48.4Y-38.1
X49.1Y-45.6
X50.5Y-50.6
X51.0Y-35.9
X51.6Y-36.5
X54.3Y-33.7
X54.9Y-50.6
X55.1Y-49.0
X55.3Y-41.9
X55.8Y-49.6
X56.2Y-42.3
X57.1Y-38.8
X57.2Y-41.7
X64.1Y-31.4
X64.1Y-44.125
X74.0Y-30.1
X74.0Y-49.8
X98.4Y-89.55
X98.5Y-23.65
X98.5Y-43.45
X98.5Y-47.35
X98.5Y-67.05
X98.5Y-69.85
X114.9Y-75.65
X116.025Y-34.975
X119.2Y-39.25
X119.3Y-58.85
X119.5Y-78.85
X121.5Y-66.9
X124.2Y-34.45
X124.4Y-54.25
X124.4Y-74.25
X125.0Y-33.85
X125.0Y-53.65
X125.1Y-73.5
X127.2Y-39.7
X127.5Y-36.15
X127.5Y-55.65
X127.8Y-75.65
X128.0Y-35.2
X128.1Y-56.35
X128.3Y-76.4
X128.5Y-60.6
X128.5Y-80.6
X136.4Y-49.45
X138.3Y-53.95
X139.3Y-66.15
X139.4Y-54.05
X139.8Y-65.35
X140.1Y-29.2
X140.1Y-52.75
X140.1Y-53.65
X140.3Y-58.15
X140.3Y-59.95
X140.3Y-60.85
X140.4Y-48.9
X140.4Y-58.95
X141.6Y-48.9
X141.9Y-51.1
X141.9Y-53.35
X142.3Y-85.7
X142.5Y-48.9
X142.5Y-64.25
X144.5Y-86.0
X144.6Y-65.3
X145.295Y-44.847
X145.3Y-64.75
X146.0Y-52.05
X146.0Y-54.85
X146.0Y-58.55
X146.1Y-45.25
X146.102Y-53.942
X146.2Y-56.55
X146.3Y-44.1
X146.3Y-52.9
X146.3Y-61.85
X146.4Y-42.95
X146.5Y-55.65
X146.5Y-57.4
X146.8Y-49.35
X147.3Y-43.25
X148.503Y-65.751
X148.8Y-49.5
X148.9Y-38.15
X148.9Y-66.65
X148.948Y-50.388
X149.306Y-51.214
X149.8Y-38.15
X150.8Y-38.15
X151.5Y-74.6
X151.6Y-44.15
X151.7Y-38.15
X151.7Y-38.95
X152.767Y-44.367
X152.8Y-29.0
X153.0Y-38.15
X153.328Y-43.663
X154.2Y-32.0
X154.309Y-43.109
X154.4Y-39.75
X155.1Y-32.3
X155.6Y-40.7
X155.6Y-41.65
X156.0Y-32.8
X156.3Y-67.85
X156.5Y-33.6
X156.8Y-40.7
X157.3Y-34.1
X157.4Y-36.15
X157.4Y-37.75
X157.4Y-41.7
X157.8Y-61.85
X158.0Y-39.8
X158.4Y-41.8
X158.6Y-50.05
X159.5Y-63.8
X159.7Y-85.9
X159.8Y-42.154
X159.8Y-43.054
X159.8Y-43.954
X159.8Y-44.854
X160.3Y-62.6
X160.7Y-63.8
X160.9Y-34.8
X161.7Y-48.15
X162.0Y-43.15
X162.3Y-64.0
X162.6Y-48.15
X163.0Y-41.8
X163.0Y-44.854
X163.0Y-62.95
X163.1Y-67.1
X163.2Y-63.8
X163.2Y-64.8
X163.3Y-34.8
X163.381Y-65.975
X163.529Y-49.282
X163.9Y-62.1
X164.2Y-44.158
X164.3Y-63.3
X164.6Y-50.55
X165.0Y-67.85
X165.1Y-63.6
X165.8Y-63.25
X166.0Y-34.8
X166.4Y-67.25
X166.6Y-64.3
X166.7Y-63.35
X166.9Y-48.45
X167.0Y-46.05
X167.8Y-48.45
X167.9Y-45.95
X168.7Y-43.2
X169.2Y-34.7
X169.8Y-71.55
X171.183Y-40.386
X172.5Y-60.45
X173.0Y-61.15
X175.2Y-57.85
X175.957Y-57.363
X176.4Y-67.05
X176.4Y-68.05
X177.3Y-62.05
X179.7Y-62.05
X182.7Y-49.45
X183.2Y-51.85
X184.7Y-56.45
X184.8Y-47.25
X184.8Y-57.45
X185.0Y-48.55
X185.6Y-47.85
X185.6Y-56.85
X187.2Y-46.1
X187.2Y-58.6
T2
X21.5Y-30.5
X21.5Y-40.5
X21.5Y-43.0
X21.5Y-45.5
X21.5Y-48.0
X24.0Y-30.5
X24.0Y-40.5
X24.0Y-43.0
X24.0Y-45.5
X24.0Y-48.0
X26.5Y-30.5
X26.5Y-40.5
X26.5Y-43.0
X26.5Y-45.5
X26.5Y-48.0
X26.5Y-50.5
X29.0Y-23.0
X29.0Y-25.5
X29.0Y-28.0
X29.0Y-45.5
X29.0Y-48.0
X29.0Y-50.5
X29.0Y-55.5
X29.0Y-58.0
X31.5Y-23.0
X31.5Y-25.5
X31.5Y-28.0
X31.5Y-45.5
X31.5Y-48.0
X31.5Y-50.5
X31.5Y-53.0
X31.5Y-55.5
X31.5Y-58.0
X34.0Y-23.0
X34.0Y-25.5
X34.0Y-28.0
X34.0Y-30.5
X34.0Y-43.0
X34.0Y-45.5
X34.0Y-48.0
X34.0Y-50.5
X34.0Y-53.0
X34.0Y-55.5
X34.0Y-58.0
X36.5Y-23.0
X36.5Y-25.5
X36.5Y-28.0
X36.5Y-30.5
X36.5Y-43.0
X36.5Y-45.5
X36.5Y-48.0
X36.5Y-50.5
X36.5Y-53.0
X36.5Y-55.5
X36.5Y-58.0
X39.0Y-23.0
X39.0Y-25.5
X39.0Y-28.0
X39.0Y-30.5
X39.0Y-48.0
X39.0Y-50.5
X39.0Y-53.0
X39.0Y-55.5
X39.0Y-58.0
X41.5Y-23.0
X41.5Y-25.5
X41.5Y-28.0
X41.5Y-45.5
X41.5Y-48.0
X41.5Y-50.5
X41.5Y-53.0
X41.5Y-55.5
X41.5Y-58.0
X44.0Y-23.0
X44.0Y-25.5
X44.0Y-28.0
X44.0Y-30.5
X44.0Y-48.0
X44.0Y-50.5
X44.0Y-53.0
X44.0Y-55.5
X44.0Y-58.0
X46.5Y-23.0
X46.5Y-25.5
X46.5Y-28.0
X46.5Y-30.5
X46.5Y-33.0
X46.5Y-50.5
X46.5Y-53.0
X46.5Y-55.5
X46.5Y-58.0
X49.0Y-23.0
X49.0Y-25.5
X49.0Y-28.0
X49.0Y-30.5
X49.0Y-33.0
X49.0Y-53.0
X49.0Y-55.5
X49.0Y-58.0
X51.5Y-23.0
X51.5Y-25.5
X51.5Y-28.0
X51.5Y-30.5
X51.5Y-33.0
X51.5Y-53.0
X51.5Y-55.5
X51.5Y-58.0
X54.0Y-23.0
X54.0Y-25.5
X54.0Y-28.0
X54.0Y-30.5
X54.0Y-53.0
X54.0Y-55.5
X54.0Y-58.0
X56.5Y-23.0
X56.5Y-25.5
X56.5Y-28.0
X56.5Y-30.5
X56.5Y-45.5
X56.5Y-48.0
X56.5Y-50.5
X56.5Y-53.0
X56.5Y-55.5
X56.5Y-58.0
X59.0Y-23.0
X59.0Y-25.5
X59.0Y-28.0
X59.0Y-30.5
X59.0Y-35.5
X59.0Y-38.0
X59.0Y-43.0
X59.0Y-45.5
X59.0Y-48.0
X59.0Y-50.5
X59.0Y-53.0
X59.0Y-55.5
X59.0Y-58.0
X61.5Y-23.0
X61.5Y-25.5
X61.5Y-28.0
X61.5Y-30.5
X61.5Y-35.5
X61.5Y-38.0
X61.5Y-40.5
X61.5Y-43.0
X61.5Y-45.5
X61.5Y-48.0
X61.5Y-50.5
X61.5Y-53.0
X61.5Y-55.5
X61.5Y-58.0
X64.0Y-23.0
X64.0Y-25.5
X64.0Y-28.0
X64.0Y-45.5
X64.0Y-48.0
X64.0Y-50.5
X64.0Y-53.0
X64.0Y-55.5
X64.0Y-58.0
X66.5Y-23.0
X66.5Y-25.5
X66.5Y-28.0
X66.5Y-50.5
X66.5Y-53.0
X66.5Y-55.5
X66.5Y-58.0
X69.0Y-23.0
X69.0Y-25.5
X69.0Y-28.0
X69.0Y-50.5
X69.0Y-53.0
X69.0Y-55.5
X69.0Y-58.0
X71.5Y-23.0
X71.5Y-25.5
X71.5Y-28.0
X71.5Y-50.5
X71.5Y-53.0
X71.5Y-55.5
X71.5Y-58.0
X74.0Y-23.0
X74.0Y-25.5
X74.0Y-28.0
X74.0Y-53.0
X74.0Y-55.5
X74.0Y-58.0
X96.2Y-35.2
X96.2Y-81.3
X96.3Y-58.8
X97.6Y-29.75
X97.6Y-38.55
X97.6Y-53.35
X97.6Y-62.15
X97.6Y-75.85
X97.6Y-84.65
X99.4Y-28.75
X99.4Y-37.55
X99.4Y-52.25
X99.4Y-61.15
X99.4Y-74.85
X99.4Y-83.65
X100.6Y-77.7
X100.7Y-32.1
X100.8Y-55.7
X106.5Y-23.0
X106.5Y-25.5
X106.5Y-28.0
X106.5Y-43.0
X106.5Y-45.5
X106.5Y-48.0
X106.5Y-50.5
X106.5Y-65.5
X106.5Y-68.0
X106.5Y-70.5
X106.5Y-73.0
X106.5Y-88.0
X106.5Y-90.5
X107.5Y-29.9
X107.5Y-39.0
X107.5Y-52.8
X107.5Y-62.5
X107.5Y-76.0
X107.5Y-84.4
X109.0Y-23.0
X109.0Y-25.5
X109.0Y-28.0
X109.0Y-43.0
X109.0Y-45.5
X109.0Y-48.0
X109.0Y-50.5
X109.0Y-65.5
X109.0Y-68.0
X109.0Y-70.5
X109.0Y-73.0
X109.0Y-88.0
X109.0Y-90.5
X111.5Y-23.0
X111.5Y-25.5
X111.5Y-28.0
X111.5Y-30.5
X111.5Y-38.0
X111.5Y-40.5
X111.5Y-43.0
X111.5Y-45.5
X111.5Y-48.0
X111.5Y-50.5
X111.5Y-53.0
X111.5Y-60.5
X111.5Y-63.0
X111.5Y-65.5
X111.5Y-68.0
X111.5Y-70.5
X111.5Y-73.0
X111.5Y-83.0
X111.5Y-85.5
X111.5Y-88.0
X111.5Y-90.5
X114.0Y-23.0
X114.0Y-25.5
X114.0Y-28.0
X114.0Y-30.5
X114.0Y-38.0
X114.0Y-40.5
X114.0Y-43.0
X114.0Y-45.5
X114.0Y-48.0
X114.0Y-50.5
X114.0Y-53.0
X114.0Y-60.5
X114.0Y-63.0
X114.0Y-65.5
X114.0Y-68.0
X114.0Y-70.5
X114.0Y-73.0
X114.0Y-83.0
X114.0Y-85.5
X114.0Y-88.0
X114.0Y-90.5
X116.0Y-55.0
X116.2Y-75.1
X116.4Y-53.1
X116.5Y-23.0
X116.5Y-25.5
X116.5Y-28.0
X116.5Y-30.5
X116.5Y-33.0
X116.5Y-40.5
X116.5Y-43.0
X116.5Y-45.5
X116.5Y-48.0
X116.5Y-50.5
X116.5Y-60.5
X116.5Y-63.0
X116.5Y-65.5
X116.5Y-68.0
X116.5Y-70.5
X116.5Y-73.0
X116.5Y-80.5
X116.5Y-83.0
X116.5Y-85.5
X116.5Y-88.0
X116.5Y-90.5
X119.0Y-23.0
X119.0Y-25.5
X119.0Y-28.0
X119.0Y-30.5
X119.0Y-33.0
X119.0Y-40.5
X119.0Y-43.0
X119.0Y-45.5
X119.0Y-48.0
X119.0Y-50.5
X119.0Y-53.0
X119.0Y-60.5
X119.0Y-63.0
X119.0Y-65.5
X119.0Y-68.0
X119.0Y-70.5
X119.0Y-73.0
X119.0Y-80.5
X119.0Y-83.0
X119.0Y-85.5
X119.0Y-88.0
X119.0Y-90.5
X121.5Y-23.0
X121.5Y-25.5
X121.5Y-28.0
X121.5Y-30.5
X121.5Y-33.0
X121.5Y-40.5
X121.5Y-43.0
X121.5Y-45.5
X121.5Y-48.0
X121.5Y-50.5
X121.5Y-53.0
X121.5Y-60.5
X121.5Y-63.0
X121.5Y-68.0
X121.5Y-70.5
X121.5Y-73.0
X121.5Y-80.5
X121.5Y-83.0
X121.5Y-85.5
X121.5Y-88.0
X121.5Y-90.5
X124.0Y-23.0
X124.0Y-25.5
X124.0Y-28.0
X124.0Y-30.5
X124.0Y-33.0
X124.0Y-40.5
X124.0Y-43.0
X124.0Y-45.5
X124.0Y-48.0
X124.0Y-50.5
X124.0Y-60.5
X124.0Y-63.0
X124.0Y-65.5
X124.0Y-68.0
X124.0Y-70.5
X124.0Y-80.5
X124.0Y-83.0
X124.0Y-85.5
X124.0Y-88.0
X124.0Y-90.5
X126.5Y-23.0
X126.5Y-25.5
X126.5Y-28.0
X126.5Y-30.5
X126.5Y-33.0
X126.5Y-40.5
X126.5Y-43.0
X126.5Y-45.5
X126.5Y-48.0
X126.5Y-50.5
X126.5Y-60.5
X126.5Y-63.0
X126.5Y-65.5
X126.5Y-68.0
X126.5Y-70.5
X126.5Y-80.5
X126.5Y-83.0
X129.0Y-23.0
X129.0Y-25.5
X129.0Y-28.0
X129.0Y-30.5
X129.0Y-33.0
X129.0Y-63.0
X129.0Y-65.5
X129.0Y-68.0
X129.0Y-70.5
X129.0Y-83.0
X131.5Y-23.0
X131.5Y-25.5
X131.5Y-28.0
X131.5Y-30.5
X131.5Y-33.0
X131.5Y-35.5
X131.5Y-38.0
X131.5Y-40.5
X131.5Y-43.0
X131.5Y-45.5
X131.5Y-50.5
X131.5Y-53.0
X131.5Y-55.5
X131.5Y-65.5
X131.5Y-68.0
X131.5Y-75.5
X131.5Y-78.0
X131.5Y-80.5
X131.5Y-83.0
X134.0Y-23.0
X134.0Y-25.5
X134.0Y-28.0
X134.0Y-30.5
X134.0Y-33.0
X134.0Y-35.5
X134.0Y-38.0
X134.0Y-40.5
X134.0Y-43.0
X134.0Y-45.5
X134.0Y-50.5
X134.0Y-53.0
X134.0Y-55.5
X134.0Y-65.5
X134.0Y-68.0
X134.0Y-73.0
X134.0Y-75.5
X134.0Y-78.0
X134.0Y-80.5
X134.0Y-83.0
X136.5Y-38.0
X136.5Y-40.5
X136.5Y-43.0
X136.5Y-45.5
X136.5Y-65.5
X136.5Y-68.0
X136.5Y-73.0
X136.5Y-75.5
X139.0Y-38.0
X139.0Y-40.5
X139.0Y-43.0
X139.0Y-45.5
X139.0Y-68.0
X139.0Y-73.0
X139.0Y-75.5
X141.5Y-38.0
X141.5Y-40.5
X141.5Y-43.0
X141.5Y-45.5
X141.5Y-73.0
X141.5Y-75.5
X144.0Y-43.0
X144.0Y-45.5
X171.5Y-43.0
X171.5Y-45.5
X171.5Y-48.0
X174.0Y-35.5
X174.0Y-38.0
X174.0Y-40.5
X174.0Y-43.0
X174.0Y-45.5
X174.0Y-48.0
X174.0Y-55.5
X174.0Y-70.5
X176.5Y-38.0
X176.5Y-40.5
X176.5Y-43.0
X176.5Y-45.5
X176.5Y-48.0
X176.5Y-55.5
X176.5Y-70.5
X179.0Y-38.0
X179.0Y-40.5
X179.0Y-43.0
X179.0Y-45.5
X179.0Y-63.0
X179.0Y-65.5
X179.0Y-68.0
X179.0Y-70.5
X181.5Y-23.0
X181.5Y-25.5
X181.5Y-28.0
X181.5Y-38.0
X181.5Y-40.5
X181.5Y-43.0
X181.5Y-45.5
X181.5Y-58.0
X181.5Y-60.5
X181.5Y-63.0
X181.5Y-65.5
X181.5Y-68.0
X181.5Y-70.5
X181.5Y-73.0
X181.5Y-75.5
X184.0Y-23.0
X184.0Y-25.5
X184.0Y-28.0
X184.0Y-30.5
X184.0Y-33.0
X184.0Y-35.5
X184.0Y-38.0
X184.0Y-40.5
X184.0Y-43.0
X184.0Y-45.5
X184.0Y-60.5
X184.0Y-63.0
X184.0Y-65.5
X184.0Y-68.0
X184.0Y-70.5
X184.0Y-73.0
X184.0Y-75.5
X184.0Y-78.0
X184.0Y-80.5
X184.0Y-83.0
X186.5Y-23.0
X186.5Y-25.5
X186.5Y-28.0
X186.5Y-30.5
X186.5Y-33.0
X186.5Y-35.5
X186.5Y-38.0
X186.5Y-40.5
X186.5Y-43.0
X186.5Y-60.5
X186.5Y-63.0
X186.5Y-65.5
X186.5Y-68.0
X186.5Y-70.5
X186.5Y-73.0
X186.5Y-75.5
X186.5Y-78.0
X186.5Y-80.5
X186.5Y-83.0
X186.5Y-85.5
X186.5Y-88.0
X186.5Y-90.5
X189.0Y-25.5
X189.0Y-28.0
X189.0Y-30.5
X189.0Y-33.0
X189.0Y-35.5
X189.0Y-38.0
X189.0Y-40.5
X189.0Y-43.0
X189.0Y-60.5
X189.0Y-63.0
X189.0Y-65.5
X189.0Y-68.0
X189.0Y-70.5
X189.0Y-73.0
X189.0Y-75.5
X189.0Y-78.0
X189.0Y-80.5
X189.0Y-83.0
X189.0Y-85.5
X189.0Y-88.0
X189.0Y-90.5
T4
X23.85Y-35.0
X23.85Y-37.0
T5
X29.5Y-32.42
X29.5Y-34.96
X29.5Y-37.5
T6
X73.095Y-37.384
X73.095Y-39.416
X73.095Y-41.448
X73.095Y-43.48
X74.875Y-36.368
X74.875Y-38.4
X74.875Y-40.432
X74.875Y-42.464
X97.6Y-31.104
X97.6Y-33.136
X97.6Y-35.168
X97.6Y-37.2
X97.6Y-54.674
X97.6Y-56.706
X97.6Y-58.738
X97.6Y-60.77
X97.6Y-77.206
X97.6Y-79.238
X97.6Y-81.27
X97.6Y-83.302
X99.38Y-30.088
X99.38Y-53.658
X99.38Y-55.69
X99.38Y-57.722
X99.38Y-59.754
X99.38Y-76.19
X99.38Y-78.222
X99.38Y-80.254
X99.38Y-82.286
X99.38Y-32.12
X99.38Y-34.152
X99.38Y-36.184
T7
X137.485Y-27.0
X140.025Y-27.0
X141.9Y-88.2
X142.565Y-27.0
X144.44Y-88.2
X145.105Y-27.0
X146.98Y-88.2
X147.645Y-27.0
X149.52Y-88.2
X150.185Y-27.0
X152.06Y-88.2
X152.725Y-27.0
X154.6Y-88.2
X155.265Y-27.0
X157.14Y-88.2
X157.805Y-27.0
X159.62Y-37.28
X159.68Y-88.2
X160.345Y-27.0
X162.16Y-37.28
X162.22Y-88.2
X162.885Y-27.0
X163.88Y-56.005
X164.7Y-37.28
X164.76Y-88.2
X165.425Y-27.0
X166.42Y-56.005
X167.24Y-37.28
X167.3Y-88.2
X167.965Y-27.0
X168.96Y-56.005
X169.78Y-37.28
X169.84Y-88.2
X170.505Y-27.0
X171.5Y-56.005
X172.38Y-88.2
X173.045Y-27.0
X174.92Y-88.2
X175.585Y-27.0
X177.46Y-88.2
X178.125Y-27.0
X180.0Y-88.2
X182.54Y-88.2
T8
X73.985Y-31.798
X73.985Y-48.058
X98.49Y-25.51
X98.49Y-41.77
X98.49Y-49.08
X98.49Y-65.34
X98.49Y-71.612
X98.49Y-87.872
T9
X85.0Y-31.878
X85.0Y-32.728
X85.0Y-34.428
X85.0Y-35.278
X85.0Y-44.578
X85.0Y-45.428
X85.0Y-47.128
X85.0Y-47.978
X87.54Y-31.878
X87.54Y-32.728
X87.54Y-34.428
X87.54Y-35.278
X87.54Y-44.578
X87.54Y-45.428
X87.54Y-47.128
X87.54Y-47.978
T10
X187.875Y-49.46
X187.875Y-55.24
T11
X24.0Y-25.5
X24.0Y-54.5
X80.0Y-25.5
X80.0Y-54.5
X138.4Y-33.55
X138.4Y-80.15
X179.3Y-33.55
X179.3Y-80.15
T12
X77.415Y-33.578
X77.415Y-46.278
X95.06Y-27.29
X95.06Y-39.99
X95.06Y-50.86
X95.06Y-63.56
X95.06Y-73.392
X95.06Y-86.092
T3
G00X186.795Y-48.03
M15
G01X187.895Y-48.03
M16
G05
G00X186.795Y-56.67
M15
G01X187.895Y-56.67
M16
G05
G00X191.225Y-48.03
M15
G01X191.825Y-48.03
M16
G05
G00X191.225Y-56.67
M15
G01X191.825Y-56.67
M16
G05
M30
