%TF.GenerationSoftware,KiCad,Pcbnew,9.0.6*%
%TF.CreationDate,2026-03-09T14:42:48+03:00*%
%TF.ProjectId,mic_project_original,6d69635f-7072-46f6-9a65-63745f6f7269,rev?*%
%TF.SameCoordinates,Original*%
%TF.FileFunction,Copper,L1,Top*%
%TF.FilePolarity,Positive*%
%FSLAX46Y46*%
G04 Gerber Fmt 4.6, Leading zero omitted, Abs format (unit mm)*
G04 Created by KiCad (PCBNEW 9.0.6) date 2026-03-09 14:42:48*
%MOMM*%
%LPD*%
G01*
G04 APERTURE LIST*
G04 Aperture macros list*
%AMRoundRect*
0 Rectangle with rounded corners*
0 $1 Rounding radius*
0 $2 $3 $4 $5 $6 $7 $8 $9 X,Y pos of 4 corners*
0 Add a 4 corners polygon primitive as box body*
4,1,4,$2,$3,$4,$5,$6,$7,$8,$9,$2,$3,0*
0 Add four circle primitives for the rounded corners*
1,1,$1+$1,$2,$3*
1,1,$1+$1,$4,$5*
1,1,$1+$1,$6,$7*
1,1,$1+$1,$8,$9*
0 Add four rect primitives between the rounded corners*
20,1,$1+$1,$2,$3,$4,$5,0*
20,1,$1+$1,$4,$5,$6,$7,0*
20,1,$1+$1,$6,$7,$8,$9,0*
20,1,$1+$1,$8,$9,$2,$3,0*%
%AMFreePoly0*
4,1,31,0.796878,0.637902,0.996878,0.137902,0.996878,-0.262098,0.796878,-0.662098,0.426878,-0.782098,0.346878,-0.822098,0.276878,-0.842098,0.186878,-0.842098,0.126878,-0.822098,0.066878,-0.782098,0.016878,-0.732098,-0.023122,-0.662098,-0.033122,-0.632098,-0.038029,-0.586517,-0.040804,-0.541012,-0.046908,-0.483300,-0.058561,-0.435576,-0.082423,-0.370649,-0.115719,-0.311273,-0.148460,-0.268543,
-0.193409,-0.223594,-0.268324,-0.173096,-0.343122,-0.122098,-0.373122,-0.072098,-0.373122,-0.042098,-0.383122,0.017902,-0.383122,0.167902,-0.363122,0.217902,-0.203122,0.737902,0.296878,0.837902,0.796878,0.637902,0.796878,0.637902,$1*%
%AMFreePoly1*
4,1,40,0.120000,0.270000,0.210000,0.200000,0.260000,0.110000,0.280000,-0.060000,0.300000,-0.130000,0.320000,-0.180000,0.340000,-0.220000,0.360000,-0.250000,0.410000,-0.300000,0.490000,-0.360000,0.570000,-0.410000,0.610000,-0.450000,0.630000,-0.500000,0.810000,-0.880000,0.710000,-1.180000,0.310000,-1.280000,-0.190000,-1.280000,-0.527035,-1.093112,-0.614217,-0.775866,-0.610000,-0.580000,
-0.610000,-0.520000,-0.600000,-0.470000,-0.580000,-0.440000,-0.540000,-0.420000,-0.500000,-0.390000,-0.460000,-0.370000,-0.410000,-0.330000,-0.370000,-0.290000,-0.340000,-0.250000,-0.280000,-0.130000,-0.270000,-0.080000,-0.260000,-0.010000,-0.260000,0.060000,-0.240000,0.110000,-0.210000,0.170000,-0.150000,0.230000,-0.070000,0.280000,-0.020000,0.290000,0.050000,0.290000,0.120000,0.270000,
0.120000,0.270000,$1*%
%AMFreePoly2*
4,1,31,0.160000,0.740000,0.320000,0.220000,0.340000,0.170000,0.340000,0.020000,0.330000,-0.040000,0.330000,-0.070000,0.300000,-0.120000,0.225202,-0.170998,0.150287,-0.221496,0.105338,-0.266445,0.072597,-0.309175,0.039301,-0.368551,0.015439,-0.433478,0.003786,-0.481202,-0.002318,-0.538914,-0.005093,-0.584419,-0.010000,-0.630000,-0.020000,-0.660000,-0.060000,-0.730000,-0.110000,-0.780000,
-0.170000,-0.820000,-0.230000,-0.840000,-0.320000,-0.840000,-0.390000,-0.820000,-0.470000,-0.780000,-0.840000,-0.660000,-1.040000,-0.260000,-1.040000,0.140000,-0.840000,0.640000,-0.340000,0.840000,0.160000,0.740000,0.160000,0.740000,$1*%
G04 Aperture macros list end*
%TA.AperFunction,SMDPad,CuDef*%
%ADD10RoundRect,0.140000X-0.140000X-0.170000X0.140000X-0.170000X0.140000X0.170000X-0.140000X0.170000X0*%
%TD*%
%TA.AperFunction,SMDPad,CuDef*%
%ADD11RoundRect,0.135000X0.135000X0.185000X-0.135000X0.185000X-0.135000X-0.185000X0.135000X-0.185000X0*%
%TD*%
%TA.AperFunction,SMDPad,CuDef*%
%ADD12RoundRect,0.237500X-0.250000X-0.237500X0.250000X-0.237500X0.250000X0.237500X-0.250000X0.237500X0*%
%TD*%
%TA.AperFunction,SMDPad,CuDef*%
%ADD13RoundRect,0.140000X0.170000X-0.140000X0.170000X0.140000X-0.170000X0.140000X-0.170000X-0.140000X0*%
%TD*%
%TA.AperFunction,SMDPad,CuDef*%
%ADD14RoundRect,0.112500X-0.187500X-0.112500X0.187500X-0.112500X0.187500X0.112500X-0.187500X0.112500X0*%
%TD*%
%TA.AperFunction,SMDPad,CuDef*%
%ADD15RoundRect,0.237500X0.237500X-0.300000X0.237500X0.300000X-0.237500X0.300000X-0.237500X-0.300000X0*%
%TD*%
%TA.AperFunction,ComponentPad*%
%ADD16R,1.500000X1.500000*%
%TD*%
%TA.AperFunction,ComponentPad*%
%ADD17C,1.500000*%
%TD*%
%TA.AperFunction,ComponentPad*%
%ADD18C,2.300000*%
%TD*%
%TA.AperFunction,SMDPad,CuDef*%
%ADD19RoundRect,0.140000X0.140000X0.170000X-0.140000X0.170000X-0.140000X-0.170000X0.140000X-0.170000X0*%
%TD*%
%TA.AperFunction,SMDPad,CuDef*%
%ADD20RoundRect,0.218750X-0.256250X0.218750X-0.256250X-0.218750X0.256250X-0.218750X0.256250X0.218750X0*%
%TD*%
%TA.AperFunction,ComponentPad*%
%ADD21R,1.700000X1.700000*%
%TD*%
%TA.AperFunction,ComponentPad*%
%ADD22C,1.700000*%
%TD*%
%TA.AperFunction,SMDPad,CuDef*%
%ADD23RoundRect,0.112500X-0.112500X0.187500X-0.112500X-0.187500X0.112500X-0.187500X0.112500X0.187500X0*%
%TD*%
%TA.AperFunction,SMDPad,CuDef*%
%ADD24RoundRect,0.112500X0.112500X-0.187500X0.112500X0.187500X-0.112500X0.187500X-0.112500X-0.187500X0*%
%TD*%
%TA.AperFunction,SMDPad,CuDef*%
%ADD25RoundRect,0.225000X0.250000X-0.225000X0.250000X0.225000X-0.250000X0.225000X-0.250000X-0.225000X0*%
%TD*%
%TA.AperFunction,SMDPad,CuDef*%
%ADD26RoundRect,0.200000X0.275000X-0.200000X0.275000X0.200000X-0.275000X0.200000X-0.275000X-0.200000X0*%
%TD*%
%TA.AperFunction,SMDPad,CuDef*%
%ADD27RoundRect,0.150000X-0.512500X-0.150000X0.512500X-0.150000X0.512500X0.150000X-0.512500X0.150000X0*%
%TD*%
%TA.AperFunction,SMDPad,CuDef*%
%ADD28RoundRect,0.237500X0.237500X-0.250000X0.237500X0.250000X-0.237500X0.250000X-0.237500X-0.250000X0*%
%TD*%
%TA.AperFunction,SMDPad,CuDef*%
%ADD29C,1.000000*%
%TD*%
%TA.AperFunction,SMDPad,CuDef*%
%ADD30RoundRect,0.150000X-0.150000X0.825000X-0.150000X-0.825000X0.150000X-0.825000X0.150000X0.825000X0*%
%TD*%
%TA.AperFunction,SMDPad,CuDef*%
%ADD31RoundRect,0.150000X-0.825000X-0.150000X0.825000X-0.150000X0.825000X0.150000X-0.825000X0.150000X0*%
%TD*%
%TA.AperFunction,SMDPad,CuDef*%
%ADD32RoundRect,0.200000X0.200000X0.275000X-0.200000X0.275000X-0.200000X-0.275000X0.200000X-0.275000X0*%
%TD*%
%TA.AperFunction,ComponentPad*%
%ADD33RoundRect,0.250000X-0.625000X0.350000X-0.625000X-0.350000X0.625000X-0.350000X0.625000X0.350000X0*%
%TD*%
%TA.AperFunction,ComponentPad*%
%ADD34O,1.750000X1.200000*%
%TD*%
%TA.AperFunction,SMDPad,CuDef*%
%ADD35RoundRect,0.135000X-0.185000X0.135000X-0.185000X-0.135000X0.185000X-0.135000X0.185000X0.135000X0*%
%TD*%
%TA.AperFunction,SMDPad,CuDef*%
%ADD36RoundRect,0.200000X-0.200000X-0.275000X0.200000X-0.275000X0.200000X0.275000X-0.200000X0.275000X0*%
%TD*%
%TA.AperFunction,SMDPad,CuDef*%
%ADD37RoundRect,0.237500X0.250000X0.237500X-0.250000X0.237500X-0.250000X-0.237500X0.250000X-0.237500X0*%
%TD*%
%TA.AperFunction,SMDPad,CuDef*%
%ADD38RoundRect,0.135000X0.185000X-0.135000X0.185000X0.135000X-0.185000X0.135000X-0.185000X-0.135000X0*%
%TD*%
%TA.AperFunction,SMDPad,CuDef*%
%ADD39FreePoly0,90.000000*%
%TD*%
%TA.AperFunction,SMDPad,CuDef*%
%ADD40FreePoly1,90.000000*%
%TD*%
%TA.AperFunction,SMDPad,CuDef*%
%ADD41FreePoly2,90.000000*%
%TD*%
%TA.AperFunction,SMDPad,CuDef*%
%ADD42R,1.450000X0.600000*%
%TD*%
%TA.AperFunction,SMDPad,CuDef*%
%ADD43R,1.450000X0.300000*%
%TD*%
%TA.AperFunction,HeatsinkPad*%
%ADD44O,2.100000X1.000000*%
%TD*%
%TA.AperFunction,HeatsinkPad*%
%ADD45O,1.600000X1.000000*%
%TD*%
%TA.AperFunction,SMDPad,CuDef*%
%ADD46RoundRect,0.150000X0.512500X0.150000X-0.512500X0.150000X-0.512500X-0.150000X0.512500X-0.150000X0*%
%TD*%
%TA.AperFunction,SMDPad,CuDef*%
%ADD47RoundRect,0.135000X-0.135000X-0.185000X0.135000X-0.185000X0.135000X0.185000X-0.135000X0.185000X0*%
%TD*%
%TA.AperFunction,SMDPad,CuDef*%
%ADD48RoundRect,0.225000X-0.250000X0.225000X-0.250000X-0.225000X0.250000X-0.225000X0.250000X0.225000X0*%
%TD*%
%TA.AperFunction,SMDPad,CuDef*%
%ADD49RoundRect,0.120000X0.430000X0.180000X-0.430000X0.180000X-0.430000X-0.180000X0.430000X-0.180000X0*%
%TD*%
%TA.AperFunction,SMDPad,CuDef*%
%ADD50RoundRect,0.225000X-0.225000X-0.250000X0.225000X-0.250000X0.225000X0.250000X-0.225000X0.250000X0*%
%TD*%
%TA.AperFunction,SMDPad,CuDef*%
%ADD51RoundRect,0.237500X-0.300000X-0.237500X0.300000X-0.237500X0.300000X0.237500X-0.300000X0.237500X0*%
%TD*%
%TA.AperFunction,SMDPad,CuDef*%
%ADD52RoundRect,0.140000X-0.170000X0.140000X-0.170000X-0.140000X0.170000X-0.140000X0.170000X0.140000X0*%
%TD*%
%TA.AperFunction,ComponentPad*%
%ADD53C,1.600000*%
%TD*%
%TA.AperFunction,SMDPad,CuDef*%
%ADD54RoundRect,0.375000X0.625000X0.375000X-0.625000X0.375000X-0.625000X-0.375000X0.625000X-0.375000X0*%
%TD*%
%TA.AperFunction,SMDPad,CuDef*%
%ADD55RoundRect,0.500000X0.500000X1.400000X-0.500000X1.400000X-0.500000X-1.400000X0.500000X-1.400000X0*%
%TD*%
%TA.AperFunction,SMDPad,CuDef*%
%ADD56RoundRect,0.218750X-0.218750X-0.256250X0.218750X-0.256250X0.218750X0.256250X-0.218750X0.256250X0*%
%TD*%
%TA.AperFunction,SMDPad,CuDef*%
%ADD57RoundRect,0.250000X0.262500X0.450000X-0.262500X0.450000X-0.262500X-0.450000X0.262500X-0.450000X0*%
%TD*%
%TA.AperFunction,SMDPad,CuDef*%
%ADD58RoundRect,0.200000X-0.275000X0.200000X-0.275000X-0.200000X0.275000X-0.200000X0.275000X0.200000X0*%
%TD*%
%TA.AperFunction,SMDPad,CuDef*%
%ADD59RoundRect,0.218750X0.218750X0.256250X-0.218750X0.256250X-0.218750X-0.256250X0.218750X-0.256250X0*%
%TD*%
%TA.AperFunction,SMDPad,CuDef*%
%ADD60RoundRect,0.250000X-0.475000X0.250000X-0.475000X-0.250000X0.475000X-0.250000X0.475000X0.250000X0*%
%TD*%
%TA.AperFunction,SMDPad,CuDef*%
%ADD61RoundRect,0.112500X0.187500X0.112500X-0.187500X0.112500X-0.187500X-0.112500X0.187500X-0.112500X0*%
%TD*%
%TA.AperFunction,SMDPad,CuDef*%
%ADD62RoundRect,0.250000X0.250000X0.475000X-0.250000X0.475000X-0.250000X-0.475000X0.250000X-0.475000X0*%
%TD*%
%TA.AperFunction,SMDPad,CuDef*%
%ADD63RoundRect,0.160000X0.222500X0.160000X-0.222500X0.160000X-0.222500X-0.160000X0.222500X-0.160000X0*%
%TD*%
%TA.AperFunction,SMDPad,CuDef*%
%ADD64RoundRect,0.150000X-0.150000X0.512500X-0.150000X-0.512500X0.150000X-0.512500X0.150000X0.512500X0*%
%TD*%
%TA.AperFunction,SMDPad,CuDef*%
%ADD65RoundRect,0.250000X-0.250000X-0.475000X0.250000X-0.475000X0.250000X0.475000X-0.250000X0.475000X0*%
%TD*%
%TA.AperFunction,SMDPad,CuDef*%
%ADD66RoundRect,0.250000X0.450000X0.350000X-0.450000X0.350000X-0.450000X-0.350000X0.450000X-0.350000X0*%
%TD*%
%TA.AperFunction,SMDPad,CuDef*%
%ADD67RoundRect,0.075000X-0.725000X-0.075000X0.725000X-0.075000X0.725000X0.075000X-0.725000X0.075000X0*%
%TD*%
%TA.AperFunction,SMDPad,CuDef*%
%ADD68RoundRect,0.075000X-0.075000X-0.725000X0.075000X-0.725000X0.075000X0.725000X-0.075000X0.725000X0*%
%TD*%
%TA.AperFunction,ViaPad*%
%ADD69C,0.800000*%
%TD*%
%TA.AperFunction,ViaPad*%
%ADD70C,0.700000*%
%TD*%
%TA.AperFunction,Conductor*%
%ADD71C,0.500000*%
%TD*%
%TA.AperFunction,Conductor*%
%ADD72C,0.261100*%
%TD*%
%TA.AperFunction,Conductor*%
%ADD73C,0.292100*%
%TD*%
%TA.AperFunction,Conductor*%
%ADD74C,0.250000*%
%TD*%
%TA.AperFunction,Conductor*%
%ADD75C,0.160000*%
%TD*%
%TA.AperFunction,Conductor*%
%ADD76C,0.300000*%
%TD*%
G04 APERTURE END LIST*
D10*
%TO.P,C107,1*%
%TO.N,/Microcontroller Board/XTAL_IN*%
X136400000Y-54100000D03*
%TO.P,C107,2*%
%TO.N,GND*%
X137360000Y-54100000D03*
%TD*%
D11*
%TO.P,R121,1*%
%TO.N,/Microcontroller Board/I2C1_SDA*%
X149510000Y-43250000D03*
%TO.P,R121,2*%
%TO.N,+3.3V*%
X148490000Y-43250000D03*
%TD*%
D12*
%TO.P,R126,1*%
%TO.N,Net-(U104-SENSE)*%
X124787500Y-37990000D03*
%TO.P,R126,2*%
%TO.N,/Microcontroller Board/ADC1_INP16*%
X126612500Y-37990000D03*
%TD*%
D13*
%TO.P,C201,1*%
%TO.N,Net-(MK200-+)*%
X37256881Y-40300000D03*
%TO.P,C201,2*%
%TO.N,GND_MIC*%
X37256881Y-39340000D03*
%TD*%
D14*
%TO.P,D100,1,A1*%
%TO.N,/Microcontroller Board/CONN_SWDIO*%
X167600000Y-40380000D03*
%TO.P,D100,2,A2*%
%TO.N,GND*%
X169700000Y-40380000D03*
%TD*%
D15*
%TO.P,C136,1*%
%TO.N,GND*%
X128500000Y-59325000D03*
%TO.P,C136,2*%
%TO.N,/Microcontroller Board/ADC2_INP14*%
X128500000Y-57600000D03*
%TD*%
D16*
%TO.P,J201,1*%
%TO.N,unconnected-(J201-Pad1)*%
X74875000Y-36368000D03*
D17*
%TO.P,J201,2*%
%TO.N,unconnected-(J201-Pad2)*%
X73095000Y-37384000D03*
%TO.P,J201,3*%
%TO.N,unconnected-(J201-Pad3)*%
X74875000Y-38400000D03*
%TO.P,J201,4*%
%TO.N,/Microphone Board/SIG_CON_IN*%
X73095000Y-39416000D03*
%TO.P,J201,5*%
%TO.N,/Microphone Board/GNDMIC_CON_IN*%
X74875000Y-40432000D03*
%TO.P,J201,6*%
%TO.N,unconnected-(J201-Pad6)*%
X73095000Y-41448000D03*
%TO.P,J201,7*%
%TO.N,unconnected-(J201-Pad7)*%
X74875000Y-42464000D03*
%TO.P,J201,8*%
%TO.N,unconnected-(J201-Pad8)*%
X73095000Y-43480000D03*
D18*
%TO.P,J201,SH*%
%TO.N,GND_MIC*%
X73985000Y-31798000D03*
X73985000Y-48058000D03*
%TD*%
D13*
%TO.P,C211,1*%
%TO.N,+3.3VA*%
X51400000Y-38280000D03*
%TO.P,C211,2*%
%TO.N,GND_MIC*%
X51400000Y-37320000D03*
%TD*%
D19*
%TO.P,C115,1*%
%TO.N,5V*%
X174780000Y-61050000D03*
%TO.P,C115,2*%
%TO.N,GND*%
X173820000Y-61050000D03*
%TD*%
D11*
%TO.P,R111,1*%
%TO.N,Net-(U106--)*%
X112110000Y-78700000D03*
%TO.P,R111,2*%
%TO.N,/Microcontroller Board/GNDMIC_AMP_IN3*%
X111090000Y-78700000D03*
%TD*%
D20*
%TO.P,FB100,1*%
%TO.N,VDDA*%
X140900000Y-65362500D03*
%TO.P,FB100,2*%
%TO.N,+3.3V*%
X140900000Y-66937500D03*
%TD*%
D21*
%TO.P,J100,1,RX*%
%TO.N,Net-(J100-RX)*%
X171500000Y-56005000D03*
D22*
%TO.P,J100,2,TX*%
%TO.N,Net-(J100-TX)*%
X168960000Y-56005000D03*
%TO.P,J100,3,GND*%
%TO.N,GND*%
X166420000Y-56005000D03*
%TO.P,J100,4,5V*%
%TO.N,5V*%
X163880000Y-56005000D03*
%TD*%
D23*
%TO.P,D200,1,A1*%
%TO.N,GND*%
X107500000Y-31050000D03*
%TO.P,D200,2,A2*%
%TO.N,/Microcontroller Board/GNDMIC_AMP_IN1*%
X107500000Y-33150000D03*
%TD*%
D12*
%TO.P,R201,1*%
%TO.N,Net-(MK200-+)*%
X40612500Y-38400000D03*
%TO.P,R201,2*%
%TO.N,+3.3VA*%
X42437500Y-38400000D03*
%TD*%
D24*
%TO.P,D106,1,A1*%
%TO.N,GND*%
X107500000Y-61350000D03*
%TO.P,D106,2,A2*%
%TO.N,/Microcontroller Board/SIG_AMP_IN2*%
X107500000Y-59250000D03*
%TD*%
D15*
%TO.P,C207,1*%
%TO.N,Net-(U201--IN)*%
X53300000Y-41837500D03*
%TO.P,C207,2*%
%TO.N,/Microphone Board/PREAMP_OUT*%
X53300000Y-40112500D03*
%TD*%
D21*
%TO.P,J203,1,Pin_1*%
%TO.N,+3.3V*%
X137485000Y-27000000D03*
D22*
%TO.P,J203,2,Pin_2*%
%TO.N,GND*%
X140025000Y-27000000D03*
%TO.P,J203,3,Pin_3*%
%TO.N,/Microcontroller Board/PB3*%
X142565000Y-27000000D03*
%TO.P,J203,4,Pin_4*%
%TO.N,/Microcontroller Board/PB4*%
X145105000Y-27000000D03*
%TO.P,J203,5,Pin_5*%
%TO.N,/Microcontroller Board/PB5*%
X147645000Y-27000000D03*
%TO.P,J203,6,Pin_6*%
%TO.N,+3.3V*%
X150185000Y-27000000D03*
%TO.P,J203,7,Pin_7*%
%TO.N,GND*%
X152725000Y-27000000D03*
%TO.P,J203,8,Pin_8*%
%TO.N,/Microcontroller Board/PD5*%
X155265000Y-27000000D03*
%TO.P,J203,9,Pin_9*%
%TO.N,/Microcontroller Board/PD4*%
X157805000Y-27000000D03*
%TO.P,J203,10,Pin_10*%
%TO.N,/Microcontroller Board/PD3*%
X160345000Y-27000000D03*
%TO.P,J203,11,Pin_11*%
%TO.N,/Microcontroller Board/PD2*%
X162885000Y-27000000D03*
%TO.P,J203,12,Pin_12*%
%TO.N,/Microcontroller Board/PD1*%
X165425000Y-27000000D03*
%TO.P,J203,13,Pin_13*%
%TO.N,/Microcontroller Board/PD0*%
X167965000Y-27000000D03*
%TO.P,J203,14,Pin_14*%
%TO.N,/Microcontroller Board/PC12*%
X170505000Y-27000000D03*
%TO.P,J203,15,Pin_15*%
%TO.N,/Microcontroller Board/PC11*%
X173045000Y-27000000D03*
%TO.P,J203,16,Pin_16*%
%TO.N,/Microcontroller Board/PC10*%
X175585000Y-27000000D03*
%TO.P,J203,17,Pin_17*%
%TO.N,/Microcontroller Board/PA15*%
X178125000Y-27000000D03*
%TD*%
D25*
%TO.P,C131,1*%
%TO.N,+3.3V*%
X126200000Y-55750000D03*
%TO.P,C131,2*%
%TO.N,GND*%
X126200000Y-54200000D03*
%TD*%
D13*
%TO.P,C134,1*%
%TO.N,+3.3V*%
X124800000Y-76055000D03*
%TO.P,C134,2*%
%TO.N,GND*%
X124800000Y-75095000D03*
%TD*%
D21*
%TO.P,J202,1,Pin_1*%
%TO.N,+3.3V*%
X141900000Y-88200000D03*
D22*
%TO.P,J202,2,Pin_2*%
%TO.N,GND*%
X144440000Y-88200000D03*
%TO.P,J202,3,Pin_3*%
%TO.N,/Microcontroller Board/PA5*%
X146980000Y-88200000D03*
%TO.P,J202,4,Pin_4*%
%TO.N,/Microcontroller Board/PA6*%
X149520000Y-88200000D03*
%TO.P,J202,5,Pin_5*%
%TO.N,/Microcontroller Board/PB1*%
X152060000Y-88200000D03*
%TO.P,J202,6,Pin_6*%
%TO.N,/Microcontroller Board/PB2*%
X154600000Y-88200000D03*
%TO.P,J202,7,Pin_7*%
%TO.N,+3.3V*%
X157140000Y-88200000D03*
%TO.P,J202,8,Pin_8*%
%TO.N,GND*%
X159680000Y-88200000D03*
%TO.P,J202,9,Pin_9*%
%TO.N,/Microcontroller Board/PE7*%
X162220000Y-88200000D03*
%TO.P,J202,10,Pin_10*%
%TO.N,/Microcontroller Board/PE8*%
X164760000Y-88200000D03*
%TO.P,J202,11,Pin_11*%
%TO.N,/Microcontroller Board/PE9*%
X167300000Y-88200000D03*
%TO.P,J202,12,Pin_12*%
%TO.N,/Microcontroller Board/PE10*%
X169840000Y-88200000D03*
%TO.P,J202,13,Pin_13*%
%TO.N,/Microcontroller Board/PE11*%
X172380000Y-88200000D03*
%TO.P,J202,14,Pin_14*%
%TO.N,/Microcontroller Board/PE12*%
X174920000Y-88200000D03*
%TO.P,J202,15,Pin_15*%
%TO.N,/Microcontroller Board/PE13*%
X177460000Y-88200000D03*
%TO.P,J202,16,Pin_16*%
%TO.N,/Microcontroller Board/PE14*%
X180000000Y-88200000D03*
%TO.P,J202,17,Pin_17*%
%TO.N,+3.3V*%
X182540000Y-88200000D03*
%TD*%
D11*
%TO.P,R210,1*%
%TO.N,/Microphone Board/SIG_CON_IN*%
X56270000Y-33100000D03*
%TO.P,R210,2*%
%TO.N,/Microphone Board/BUFFER_OUT*%
X55250000Y-33100000D03*
%TD*%
D26*
%TO.P,R115,1*%
%TO.N,/Microcontroller Board/BOOT0*%
X148800000Y-46125000D03*
%TO.P,R115,2*%
%TO.N,GND*%
X148800000Y-44475000D03*
%TD*%
D13*
%TO.P,C106,1*%
%TO.N,+3.3V*%
X142875000Y-54330000D03*
%TO.P,C106,2*%
%TO.N,GND*%
X142875000Y-53370000D03*
%TD*%
D27*
%TO.P,U200,1,IN*%
%TO.N,/Microphone Board/BAT_SW_OUT*%
X36562500Y-32450000D03*
%TO.P,U200,2,GND*%
%TO.N,GND_MIC*%
X36562500Y-33400000D03*
%TO.P,U200,3,EN*%
%TO.N,/Microphone Board/BAT_SW_OUT*%
X36562500Y-34350000D03*
%TO.P,U200,4,NC*%
%TO.N,unconnected-(U200-NC-Pad4)*%
X38837500Y-34350000D03*
%TO.P,U200,5,OUT*%
%TO.N,+3.3VA*%
X38837500Y-32450000D03*
%TD*%
D23*
%TO.P,D203,1,A1*%
%TO.N,GND*%
X107500000Y-54550000D03*
%TO.P,D203,2,A2*%
%TO.N,/Microcontroller Board/GNDMIC_AMP_IN2*%
X107500000Y-56650000D03*
%TD*%
D13*
%TO.P,C119,1*%
%TO.N,VDDA*%
X142900000Y-59600000D03*
%TO.P,C119,2*%
%TO.N,GND*%
X142900000Y-58640000D03*
%TD*%
D28*
%TO.P,R206,1*%
%TO.N,Net-(U201--IN)*%
X51580000Y-41937500D03*
%TO.P,R206,2*%
%TO.N,/Microphone Board/PREAMP_OUT*%
X51580000Y-40112500D03*
%TD*%
D29*
%TO.P,TP208,1,1*%
%TO.N,/Microphone Board/PREAMP_IN*%
X44800000Y-46000000D03*
%TD*%
D30*
%TO.P,U103,1,A0*%
%TO.N,GND*%
X152945000Y-36480000D03*
%TO.P,U103,2,A1*%
X151675000Y-36480000D03*
%TO.P,U103,3,A2*%
X150405000Y-36480000D03*
%TO.P,U103,4,GND*%
X149135000Y-36480000D03*
%TO.P,U103,5,SDA*%
%TO.N,/Microcontroller Board/I2C1_SDA*%
X149135000Y-41430000D03*
%TO.P,U103,6,SCL*%
%TO.N,/Microcontroller Board/I2C1_SCL*%
X150405000Y-41430000D03*
%TO.P,U103,7,WP*%
%TO.N,GND*%
X151675000Y-41430000D03*
%TO.P,U103,8,VCC*%
%TO.N,+3.3V*%
X152945000Y-41430000D03*
%TD*%
D31*
%TO.P,U104,1,REF*%
%TO.N,GND*%
X117625000Y-35450000D03*
%TO.P,U104,2,-*%
%TO.N,Net-(U104--)*%
X117625000Y-36720000D03*
%TO.P,U104,3,+*%
%TO.N,Net-(U104-+)*%
X117625000Y-37990000D03*
%TO.P,U104,4,V-*%
%TO.N,GND*%
X117625000Y-39260000D03*
%TO.P,U104,5,SENSE*%
%TO.N,Net-(U104-SENSE)*%
X122575000Y-39260000D03*
%TO.P,U104,6*%
X122575000Y-37990000D03*
%TO.P,U104,7,V+*%
%TO.N,+3.3V*%
X122575000Y-36720000D03*
%TO.P,U104,8*%
%TO.N,unconnected-(U104-Pad8)*%
X122575000Y-35450000D03*
%TD*%
D11*
%TO.P,R106,1*%
%TO.N,Net-(U104-+)*%
X112010000Y-35800000D03*
%TO.P,R106,2*%
%TO.N,/Microcontroller Board/SIG_AMP_IN1*%
X110990000Y-35800000D03*
%TD*%
D13*
%TO.P,C104,1*%
%TO.N,+3.3V*%
X142875000Y-52100000D03*
%TO.P,C104,2*%
%TO.N,GND*%
X142875000Y-51140000D03*
%TD*%
D32*
%TO.P,R116,1*%
%TO.N,/Microcontroller Board/HSE_OUT*%
X138025000Y-55500000D03*
%TO.P,R116,2*%
%TO.N,/Microcontroller Board/XTAL_IN*%
X136375000Y-55500000D03*
%TD*%
D27*
%TO.P,U201,1,OUT*%
%TO.N,/Microphone Board/PREAMP_OUT*%
X47442500Y-39950000D03*
%TO.P,U201,2,V-*%
%TO.N,GND_MIC*%
X47442500Y-40900000D03*
%TO.P,U201,3,+IN*%
%TO.N,/Microphone Board/PREAMP_IN*%
X47442500Y-41850000D03*
%TO.P,U201,4,-IN*%
%TO.N,Net-(U201--IN)*%
X49717500Y-41850000D03*
%TO.P,U201,5,V+*%
%TO.N,+3.3VA*%
X49717500Y-39950000D03*
%TD*%
D12*
%TO.P,R124,1*%
%TO.N,Net-(U106-SENSE)*%
X124987500Y-77610000D03*
%TO.P,R124,2*%
%TO.N,/Microcontroller Board/ADC3_INP1*%
X126812500Y-77610000D03*
%TD*%
D25*
%TO.P,C210,1*%
%TO.N,+3.3VA*%
X49700000Y-38075000D03*
%TO.P,C210,2*%
%TO.N,GND_MIC*%
X49700000Y-36525000D03*
%TD*%
D33*
%TO.P,J200,1,+*%
%TO.N,/Microphone Board/CON_OUT*%
X23850000Y-35000000D03*
D34*
%TO.P,J200,2,-*%
%TO.N,GND_MIC*%
X23850000Y-37000000D03*
%TD*%
D35*
%TO.P,R200,1*%
%TO.N,/Microphone Board/GNDMIC_CON_IN*%
X64100000Y-41690000D03*
%TO.P,R200,2*%
%TO.N,GND_MIC*%
X64100000Y-42710000D03*
%TD*%
D13*
%TO.P,C130,1*%
%TO.N,+3.3V*%
X124700000Y-36235000D03*
%TO.P,C130,2*%
%TO.N,GND*%
X124700000Y-35275000D03*
%TD*%
D16*
%TO.P,J102,1*%
%TO.N,GND*%
X97600000Y-60770000D03*
D17*
%TO.P,J102,2*%
X99380000Y-59754000D03*
%TO.P,J102,3*%
X97600000Y-58738000D03*
%TO.P,J102,4*%
%TO.N,/Microcontroller Board/SIG_AMP_IN2*%
X99380000Y-57722000D03*
%TO.P,J102,5*%
%TO.N,/Microcontroller Board/GNDMIC_AMP_IN2*%
X97600000Y-56706000D03*
%TO.P,J102,6*%
%TO.N,GND*%
X99380000Y-55690000D03*
%TO.P,J102,7*%
X97600000Y-54674000D03*
%TO.P,J102,8*%
X99380000Y-53658000D03*
D18*
%TO.P,J102,SH*%
X98490000Y-65340000D03*
X98490000Y-49080000D03*
%TD*%
D29*
%TO.P,TP202,1,1*%
%TO.N,VREF*%
X47500000Y-48800000D03*
%TD*%
D13*
%TO.P,C132,1*%
%TO.N,+3.3V*%
X124700000Y-56055000D03*
%TO.P,C132,2*%
%TO.N,GND*%
X124700000Y-55095000D03*
%TD*%
D25*
%TO.P,C133,1*%
%TO.N,+3.3V*%
X126300000Y-75750000D03*
%TO.P,C133,2*%
%TO.N,GND*%
X126300000Y-74200000D03*
%TD*%
D36*
%TO.P,R114,1*%
%TO.N,GND*%
X170775000Y-71550000D03*
%TO.P,R114,2*%
%TO.N,Net-(D109-K)*%
X172425000Y-71550000D03*
%TD*%
D25*
%TO.P,C129,1*%
%TO.N,+3.3V*%
X126100000Y-36185000D03*
%TO.P,C129,2*%
%TO.N,GND*%
X126100000Y-34635000D03*
%TD*%
D11*
%TO.P,R109,1*%
%TO.N,Net-(U105--)*%
X112110000Y-56200000D03*
%TO.P,R109,2*%
%TO.N,/Microcontroller Board/GNDMIC_AMP_IN2*%
X111090000Y-56200000D03*
%TD*%
D10*
%TO.P,C216,1*%
%TO.N,+3.3VA*%
X55257848Y-38800000D03*
%TO.P,C216,2*%
%TO.N,GND_MIC*%
X56217848Y-38800000D03*
%TD*%
D32*
%TO.P,R101,1*%
%TO.N,/Microcontroller Board/USB_CONN_CC2*%
X189925000Y-46100000D03*
%TO.P,R101,2*%
%TO.N,GND*%
X188275000Y-46100000D03*
%TD*%
D29*
%TO.P,TP201,1,1*%
%TO.N,/Microphone Board/PREAMP_OUT*%
X45500000Y-39700000D03*
%TD*%
D37*
%TO.P,R202,1*%
%TO.N,GND_MIC*%
X42437500Y-40300000D03*
%TO.P,R202,2*%
%TO.N,Net-(MK200-+)*%
X40612500Y-40300000D03*
%TD*%
D38*
%TO.P,R104,1*%
%TO.N,/Microcontroller Board/SWDIO*%
X167400000Y-43190000D03*
%TO.P,R104,2*%
%TO.N,/Microcontroller Board/CONN_SWDIO*%
X167400000Y-42170000D03*
%TD*%
D24*
%TO.P,D108,1,A1*%
%TO.N,GND*%
X107500000Y-83250000D03*
%TO.P,D108,2,A2*%
%TO.N,/Microcontroller Board/SIG_AMP_IN3*%
X107500000Y-81150000D03*
%TD*%
D39*
%TO.P,MK200,1,+*%
%TO.N,Net-(MK200-+)*%
X38920000Y-43227500D03*
D40*
%TO.P,MK200,2,OUT*%
%TO.N,/Microphone Board/MK_OUT*%
X39500000Y-43727500D03*
D41*
%TO.P,MK200,3,-*%
%TO.N,GND_MIC*%
X38920000Y-44177500D03*
%TD*%
D42*
%TO.P,J105,A1,GND*%
%TO.N,GND*%
X186430000Y-55600000D03*
%TO.P,J105,A4,VBUS*%
%TO.N,VBUS*%
X186430000Y-54800000D03*
D43*
%TO.P,J105,A5,CC1*%
%TO.N,/Microcontroller Board/USB_CONN_CC1*%
X186430000Y-53600000D03*
%TO.P,J105,A6,D+*%
%TO.N,/Microcontroller Board/USB_CONN_D+*%
X186430000Y-52600000D03*
%TO.P,J105,A7,D-*%
%TO.N,/Microcontroller Board/USB_CONN_D-*%
X186430000Y-52100000D03*
%TO.P,J105,A8,SBU1*%
%TO.N,unconnected-(J105-SBU1-PadA8)*%
X186430000Y-51100000D03*
D42*
%TO.P,J105,A9,VBUS*%
%TO.N,VBUS*%
X186430000Y-49900000D03*
%TO.P,J105,A12,GND*%
%TO.N,GND*%
X186430000Y-49100000D03*
%TO.P,J105,B1,GND*%
X186430000Y-49100000D03*
%TO.P,J105,B4,VBUS*%
%TO.N,VBUS*%
X186430000Y-49900000D03*
D43*
%TO.P,J105,B5,CC2*%
%TO.N,/Microcontroller Board/USB_CONN_CC2*%
X186430000Y-50600000D03*
%TO.P,J105,B6,D+*%
%TO.N,/Microcontroller Board/USB_CONN_D+*%
X186430000Y-51600000D03*
%TO.P,J105,B7,D-*%
%TO.N,/Microcontroller Board/USB_CONN_D-*%
X186430000Y-53100000D03*
%TO.P,J105,B8,SBU2*%
%TO.N,unconnected-(J105-SBU2-PadB8)*%
X186430000Y-54100000D03*
D42*
%TO.P,J105,B9,VBUS*%
%TO.N,VBUS*%
X186430000Y-54800000D03*
%TO.P,J105,B12,GND*%
%TO.N,GND*%
X186430000Y-55600000D03*
D44*
%TO.P,J105,S1,SHIELD*%
%TO.N,unconnected-(J105-SHIELD-PadS1)_3*%
X187345000Y-56670000D03*
D45*
%TO.N,unconnected-(J105-SHIELD-PadS1)_1*%
X191525000Y-56670000D03*
D44*
%TO.N,unconnected-(J105-SHIELD-PadS1)*%
X187345000Y-48030000D03*
D45*
%TO.N,unconnected-(J105-SHIELD-PadS1)_2*%
X191525000Y-48030000D03*
%TD*%
D46*
%TO.P,U100,1,I/O1*%
%TO.N,/Microcontroller Board/USB_CONN_D-*%
X181975000Y-52800000D03*
%TO.P,U100,2,GND*%
%TO.N,GND*%
X181975000Y-51850000D03*
%TO.P,U100,3,I/O2*%
%TO.N,/Microcontroller Board/USB_CONN_D+*%
X181975000Y-50900000D03*
%TO.P,U100,4,I/O2*%
%TO.N,/Microcontroller Board/USB_CMC_D+*%
X179700000Y-50900000D03*
%TO.P,U100,5,VBUS*%
%TO.N,VBUS*%
X179700000Y-51850000D03*
%TO.P,U100,6,I/O1*%
%TO.N,/Microcontroller Board/USB_CMC_D-*%
X179700000Y-52800000D03*
%TD*%
D47*
%TO.P,R102,1*%
%TO.N,/Microcontroller Board/USART1_TX*%
X162690000Y-60880000D03*
%TO.P,R102,2*%
%TO.N,Net-(J100-RX)*%
X163710000Y-60880000D03*
%TD*%
D12*
%TO.P,R204,1*%
%TO.N,Net-(U201--IN)*%
X49687500Y-43600000D03*
%TO.P,R204,2*%
%TO.N,Net-(C205-Pad2)*%
X51512500Y-43600000D03*
%TD*%
D29*
%TO.P,TP203,1,1*%
%TO.N,+3.3VA*%
X42200000Y-30500000D03*
%TD*%
%TO.P,TP207,1,1*%
%TO.N,GND*%
X121500000Y-65500000D03*
%TD*%
D10*
%TO.P,C116,1*%
%TO.N,+3.3V*%
X146095000Y-46150000D03*
%TO.P,C116,2*%
%TO.N,GND*%
X147055000Y-46150000D03*
%TD*%
D48*
%TO.P,C208,1*%
%TO.N,+3.3VA*%
X42100000Y-32625000D03*
%TO.P,C208,2*%
%TO.N,GND_MIC*%
X42100000Y-34175000D03*
%TD*%
D49*
%TO.P,L200,1*%
%TO.N,/Microcontroller Board/USB_CMC_D-*%
X176750000Y-52350000D03*
%TO.P,L200,2*%
%TO.N,/Microcontroller Board/USB_D-*%
X174050000Y-52350000D03*
%TO.P,L200,3*%
%TO.N,/Microcontroller Board/USB_D+*%
X174050000Y-51350000D03*
%TO.P,L200,4*%
%TO.N,/Microcontroller Board/USB_CMC_D+*%
X176750000Y-51350000D03*
%TD*%
D24*
%TO.P,D201,1,A1*%
%TO.N,/Microphone Board/SIG_CON_IN*%
X64100000Y-34800000D03*
%TO.P,D201,2,A2*%
%TO.N,GND_MIC*%
X64100000Y-32700000D03*
%TD*%
D29*
%TO.P,TP206,1,1*%
%TO.N,+3.3V*%
X166600000Y-71000000D03*
%TD*%
D50*
%TO.P,C214,1*%
%TO.N,GND_MIC*%
X45550000Y-35000000D03*
%TO.P,C214,2*%
%TO.N,/Microphone Board/BUFFER_IN*%
X47100000Y-35000000D03*
%TD*%
D47*
%TO.P,R117,1*%
%TO.N,/Microcontroller Board/I2C1_SCL*%
X150590000Y-43250000D03*
%TO.P,R117,2*%
%TO.N,+3.3V*%
X151610000Y-43250000D03*
%TD*%
D51*
%TO.P,C203,1*%
%TO.N,/Microphone Board/MK_OUT*%
X42037500Y-43712500D03*
%TO.P,C203,2*%
%TO.N,Net-(C203-Pad2)*%
X43762500Y-43712500D03*
%TD*%
D36*
%TO.P,R211,1*%
%TO.N,Net-(D202-K)*%
X28712500Y-42500000D03*
%TO.P,R211,2*%
%TO.N,GND_MIC*%
X30362500Y-42500000D03*
%TD*%
D15*
%TO.P,C135,1*%
%TO.N,GND*%
X128500000Y-79362500D03*
%TO.P,C135,2*%
%TO.N,/Microcontroller Board/ADC3_INP1*%
X128500000Y-77637500D03*
%TD*%
D31*
%TO.P,U105,1,REF*%
%TO.N,GND*%
X117750000Y-55035000D03*
%TO.P,U105,2,-*%
%TO.N,Net-(U105--)*%
X117750000Y-56305000D03*
%TO.P,U105,3,+*%
%TO.N,Net-(U105-+)*%
X117750000Y-57575000D03*
%TO.P,U105,4,V-*%
%TO.N,GND*%
X117750000Y-58845000D03*
%TO.P,U105,5,SENSE*%
%TO.N,Net-(U105-SENSE)*%
X122700000Y-58845000D03*
%TO.P,U105,6*%
X122700000Y-57575000D03*
%TO.P,U105,7,V+*%
%TO.N,+3.3V*%
X122700000Y-56305000D03*
%TO.P,U105,8*%
%TO.N,unconnected-(U105-Pad8)*%
X122700000Y-55035000D03*
%TD*%
D38*
%TO.P,R112,1*%
%TO.N,/Microcontroller Board/NRST*%
X161050000Y-43040000D03*
%TO.P,R112,2*%
%TO.N,/Microcontroller Board/CONN_NRST*%
X161050000Y-42020000D03*
%TD*%
D19*
%TO.P,C110,1*%
%TO.N,+3.3V*%
X147055000Y-64950000D03*
%TO.P,C110,2*%
%TO.N,GND*%
X146095000Y-64950000D03*
%TD*%
D38*
%TO.P,R105,1*%
%TO.N,/Microcontroller Board/SWDCLK*%
X165350000Y-43090000D03*
%TO.P,R105,2*%
%TO.N,/Microcontroller Board/CONN_SWCLK*%
X165350000Y-42070000D03*
%TD*%
D32*
%TO.P,R209,1*%
%TO.N,GND_MIC*%
X53832500Y-50600000D03*
%TO.P,R209,2*%
%TO.N,VREF*%
X52182500Y-50600000D03*
%TD*%
D11*
%TO.P,R110,1*%
%TO.N,Net-(U106-+)*%
X112210000Y-81000000D03*
%TO.P,R110,2*%
%TO.N,/Microcontroller Board/SIG_AMP_IN3*%
X111190000Y-81000000D03*
%TD*%
D15*
%TO.P,C137,1*%
%TO.N,GND*%
X128400000Y-39762500D03*
%TO.P,C137,2*%
%TO.N,/Microcontroller Board/ADC1_INP16*%
X128400000Y-38037500D03*
%TD*%
D52*
%TO.P,C118,1*%
%TO.N,+3.3V*%
X166375000Y-65370000D03*
%TO.P,C118,2*%
%TO.N,GND*%
X166375000Y-66330000D03*
%TD*%
D47*
%TO.P,R103,1*%
%TO.N,/Microcontroller Board/USART1_RX*%
X162690000Y-59830000D03*
%TO.P,R103,2*%
%TO.N,Net-(J100-TX)*%
X163710000Y-59830000D03*
%TD*%
D16*
%TO.P,J103,1*%
%TO.N,GND*%
X97600000Y-83302000D03*
D17*
%TO.P,J103,2*%
X99380000Y-82286000D03*
%TO.P,J103,3*%
X97600000Y-81270000D03*
%TO.P,J103,4*%
%TO.N,/Microcontroller Board/SIG_AMP_IN3*%
X99380000Y-80254000D03*
%TO.P,J103,5*%
%TO.N,/Microcontroller Board/GNDMIC_AMP_IN3*%
X97600000Y-79238000D03*
%TO.P,J103,6*%
%TO.N,GND*%
X99380000Y-78222000D03*
%TO.P,J103,7*%
X97600000Y-77206000D03*
%TO.P,J103,8*%
X99380000Y-76190000D03*
D18*
%TO.P,J103,SH*%
X98490000Y-87872000D03*
X98490000Y-71612000D03*
%TD*%
D16*
%TO.P,SW200,1,B*%
%TO.N,/Microphone Board/CON_OUT*%
X29500000Y-34960000D03*
D53*
%TO.P,SW200,2,A*%
%TO.N,/Microphone Board/BAT_SW_OUT*%
X29500000Y-32420000D03*
%TO.P,SW200,3,C*%
%TO.N,unconnected-(SW200-C-Pad3)*%
X29500000Y-37500000D03*
%TD*%
D32*
%TO.P,R203,1*%
%TO.N,/Microphone Board/PREAMP_IN*%
X47442500Y-43712500D03*
%TO.P,R203,2*%
%TO.N,Net-(C203-Pad2)*%
X45792500Y-43712500D03*
%TD*%
D54*
%TO.P,U101,1,GND*%
%TO.N,GND*%
X174625000Y-67650000D03*
%TO.P,U101,2,VO*%
%TO.N,+3.3V*%
X174625000Y-65350000D03*
D55*
X168325000Y-65350000D03*
D54*
%TO.P,U101,3,VI*%
%TO.N,5V*%
X174625000Y-63050000D03*
%TD*%
D52*
%TO.P,C209,1*%
%TO.N,+3.3VA*%
X40400000Y-32450000D03*
%TO.P,C209,2*%
%TO.N,GND_MIC*%
X40400000Y-33410000D03*
%TD*%
D48*
%TO.P,C105,1*%
%TO.N,Net-(C105-Pad1)*%
X179662500Y-59275000D03*
%TO.P,C105,2*%
%TO.N,GND*%
X179662500Y-60825000D03*
%TD*%
D56*
%TO.P,D202,1,K*%
%TO.N,Net-(D202-K)*%
X28712500Y-40800000D03*
%TO.P,D202,2,A*%
%TO.N,+3.3VA*%
X30287500Y-40800000D03*
%TD*%
D48*
%TO.P,C204,1*%
%TO.N,/Microphone Board/BAT_SW_OUT*%
X33250000Y-32625000D03*
%TO.P,C204,2*%
%TO.N,GND_MIC*%
X33250000Y-34175000D03*
%TD*%
D57*
%TO.P,R113,1*%
%TO.N,VBUS*%
X180875000Y-55950000D03*
%TO.P,R113,2*%
%TO.N,Net-(C105-Pad1)*%
X179050000Y-55950000D03*
%TD*%
D29*
%TO.P,TP204,1,1*%
%TO.N,VBUS*%
X179200000Y-47650000D03*
%TD*%
D52*
%TO.P,C126,1*%
%TO.N,GND*%
X154375000Y-40650000D03*
%TO.P,C126,2*%
%TO.N,+3.3V*%
X154375000Y-41610000D03*
%TD*%
D25*
%TO.P,C200,1*%
%TO.N,Net-(MK200-+)*%
X38856881Y-40125000D03*
%TO.P,C200,2*%
%TO.N,GND_MIC*%
X38856881Y-38575000D03*
%TD*%
D58*
%TO.P,R205,1*%
%TO.N,/Microphone Board/PREAMP_IN*%
X47442500Y-45275000D03*
%TO.P,R205,2*%
%TO.N,VREF*%
X47442500Y-46925000D03*
%TD*%
D50*
%TO.P,C111,1*%
%TO.N,Net-(C111-Pad1)*%
X161975000Y-50580000D03*
%TO.P,C111,2*%
%TO.N,GND*%
X163525000Y-50580000D03*
%TD*%
D59*
%TO.P,D109,1,K*%
%TO.N,Net-(D109-K)*%
X172387500Y-70050000D03*
%TO.P,D109,2,A*%
%TO.N,+3.3V*%
X170812500Y-70050000D03*
%TD*%
D50*
%TO.P,C215,1*%
%TO.N,+3.3VA*%
X55445898Y-40400000D03*
%TO.P,C215,2*%
%TO.N,GND_MIC*%
X56995898Y-40400000D03*
%TD*%
D60*
%TO.P,C117,1*%
%TO.N,+3.3V*%
X164975000Y-65000000D03*
%TO.P,C117,2*%
%TO.N,GND*%
X164975000Y-66900000D03*
%TD*%
D32*
%TO.P,R100,1*%
%TO.N,/Microcontroller Board/USB_CONN_CC1*%
X189925000Y-58600000D03*
%TO.P,R100,2*%
%TO.N,GND*%
X188275000Y-58600000D03*
%TD*%
D61*
%TO.P,D102,1,A1*%
%TO.N,/Microcontroller Board/CONN_NRST*%
X161050000Y-40380000D03*
%TO.P,D102,2,A2*%
%TO.N,GND*%
X158950000Y-40380000D03*
%TD*%
D24*
%TO.P,D104,1,A1*%
%TO.N,GND*%
X107500000Y-37850000D03*
%TO.P,D104,2,A2*%
%TO.N,/Microcontroller Board/SIG_AMP_IN1*%
X107500000Y-35750000D03*
%TD*%
D25*
%TO.P,C125,1*%
%TO.N,+3.3V*%
X142500000Y-66925000D03*
%TO.P,C125,2*%
%TO.N,GND*%
X142500000Y-65375000D03*
%TD*%
D10*
%TO.P,C101,1*%
%TO.N,/Microcontroller Board/NRST*%
X161050000Y-44120000D03*
%TO.P,C101,2*%
%TO.N,GND*%
X162010000Y-44120000D03*
%TD*%
D62*
%TO.P,C103,1*%
%TO.N,+3.3V*%
X147050000Y-66550000D03*
%TO.P,C103,2*%
%TO.N,GND*%
X145150000Y-66550000D03*
%TD*%
D63*
%TO.P,L101,1,1*%
%TO.N,Net-(C105-Pad1)*%
X179050000Y-57650000D03*
%TO.P,L101,2,2*%
%TO.N,5V*%
X177905000Y-57650000D03*
%TD*%
D31*
%TO.P,U106,1,REF*%
%TO.N,GND*%
X117850000Y-75070000D03*
%TO.P,U106,2,-*%
%TO.N,Net-(U106--)*%
X117850000Y-76340000D03*
%TO.P,U106,3,+*%
%TO.N,Net-(U106-+)*%
X117850000Y-77610000D03*
%TO.P,U106,4,V-*%
%TO.N,GND*%
X117850000Y-78880000D03*
%TO.P,U106,5,SENSE*%
%TO.N,Net-(U106-SENSE)*%
X122800000Y-78880000D03*
%TO.P,U106,6*%
X122800000Y-77610000D03*
%TO.P,U106,7,V+*%
%TO.N,+3.3V*%
X122800000Y-76340000D03*
%TO.P,U106,8*%
%TO.N,unconnected-(U106-Pad8)*%
X122800000Y-75070000D03*
%TD*%
D29*
%TO.P,TP200,1,1*%
%TO.N,GND_MIC*%
X33300000Y-37700000D03*
%TD*%
D52*
%TO.P,C206,1*%
%TO.N,/Microphone Board/BAT_SW_OUT*%
X34950000Y-32450000D03*
%TO.P,C206,2*%
%TO.N,GND_MIC*%
X34950000Y-33410000D03*
%TD*%
D48*
%TO.P,C108,1*%
%TO.N,Net-(C108-Pad1)*%
X156300000Y-65155000D03*
%TO.P,C108,2*%
%TO.N,GND*%
X156300000Y-66705000D03*
%TD*%
D16*
%TO.P,J101,1*%
%TO.N,GND*%
X97600000Y-37200000D03*
D17*
%TO.P,J101,2*%
X99380001Y-36184000D03*
%TO.P,J101,3*%
X97600000Y-35168000D03*
%TO.P,J101,4*%
%TO.N,/Microcontroller Board/SIG_AMP_IN1*%
X99380001Y-34152000D03*
%TO.P,J101,5*%
%TO.N,/Microcontroller Board/GNDMIC_AMP_IN1*%
X97600000Y-33136000D03*
%TO.P,J101,6*%
%TO.N,GND*%
X99380001Y-32120000D03*
%TO.P,J101,7*%
X97600000Y-31104000D03*
%TO.P,J101,8*%
X99380000Y-30088001D03*
D18*
%TO.P,J101,SH*%
X98490000Y-41770000D03*
X98490000Y-25510000D03*
%TD*%
D21*
%TO.P,J104,1,Pin_1*%
%TO.N,+3.3V*%
X169780000Y-37280000D03*
D22*
%TO.P,J104,2,Pin_2*%
%TO.N,/Microcontroller Board/CONN_SWDIO*%
X167240000Y-37280000D03*
%TO.P,J104,3,Pin_3*%
%TO.N,/Microcontroller Board/CONN_SWCLK*%
X164700000Y-37280000D03*
%TO.P,J104,4,Pin_4*%
%TO.N,/Microcontroller Board/CONN_NRST*%
X162160000Y-37280000D03*
%TO.P,J104,5,Pin_5*%
%TO.N,GND*%
X159620000Y-37280000D03*
%TD*%
D64*
%TO.P,U202,1,OUT*%
%TO.N,/Microphone Board/BUFFER_OUT*%
X55250000Y-34962500D03*
%TO.P,U202,2,V-*%
%TO.N,GND_MIC*%
X54300000Y-34962500D03*
%TO.P,U202,3,+IN*%
%TO.N,/Microphone Board/BUFFER_IN*%
X53350000Y-34962500D03*
%TO.P,U202,4,-IN*%
%TO.N,/Microphone Board/BUFFER_OUT*%
X53350000Y-37237500D03*
%TO.P,U202,5,V+*%
%TO.N,+3.3VA*%
X55250000Y-37237500D03*
%TD*%
D48*
%TO.P,C212,1*%
%TO.N,VREF*%
X50500000Y-47725000D03*
%TO.P,C212,2*%
%TO.N,GND_MIC*%
X50500000Y-49275000D03*
%TD*%
D11*
%TO.P,R107,1*%
%TO.N,Net-(U104--)*%
X112010000Y-33500000D03*
%TO.P,R107,2*%
%TO.N,/Microcontroller Board/GNDMIC_AMP_IN1*%
X110990000Y-33500000D03*
%TD*%
D61*
%TO.P,D101,1,A1*%
%TO.N,/Microcontroller Board/CONN_SWCLK*%
X165100000Y-40380000D03*
%TO.P,D101,2,A2*%
%TO.N,GND*%
X163000000Y-40380000D03*
%TD*%
D23*
%TO.P,D204,1,A1*%
%TO.N,GND*%
X107500000Y-77150000D03*
%TO.P,D204,2,A2*%
%TO.N,/Microcontroller Board/GNDMIC_AMP_IN3*%
X107500000Y-79250000D03*
%TD*%
D11*
%TO.P,R108,1*%
%TO.N,Net-(U105-+)*%
X112010000Y-59300000D03*
%TO.P,R108,2*%
%TO.N,/Microcontroller Board/SIG_AMP_IN2*%
X110990000Y-59300000D03*
%TD*%
D65*
%TO.P,C205,1*%
%TO.N,GND_MIC*%
X50450000Y-45600000D03*
%TO.P,C205,2*%
%TO.N,Net-(C205-Pad2)*%
X52350000Y-45600000D03*
%TD*%
D10*
%TO.P,C114,1*%
%TO.N,+3.3V*%
X161720000Y-49280000D03*
%TO.P,C114,2*%
%TO.N,GND*%
X162680000Y-49280000D03*
%TD*%
D66*
%TO.P,Y100,1,1*%
%TO.N,/Microcontroller Board/HSE_IN*%
X138600000Y-50850000D03*
%TO.P,Y100,2,2*%
%TO.N,GND*%
X136400000Y-50850000D03*
%TO.P,Y100,3,3*%
%TO.N,/Microcontroller Board/XTAL_IN*%
X136400000Y-52550000D03*
%TO.P,Y100,4,4*%
%TO.N,GND*%
X138600000Y-52550000D03*
%TD*%
D10*
%TO.P,C100,1*%
%TO.N,VBUS*%
X180857500Y-49500000D03*
%TO.P,C100,2*%
%TO.N,GND*%
X181817500Y-49500000D03*
%TD*%
D37*
%TO.P,R125,1*%
%TO.N,/Microcontroller Board/ADC2_INP14*%
X126712500Y-57600000D03*
%TO.P,R125,2*%
%TO.N,Net-(U105-SENSE)*%
X124887500Y-57600000D03*
%TD*%
D26*
%TO.P,R207,1*%
%TO.N,/Microphone Board/PREAMP_OUT*%
X47125000Y-38325000D03*
%TO.P,R207,2*%
%TO.N,/Microphone Board/BUFFER_IN*%
X47125000Y-36675000D03*
%TD*%
D19*
%TO.P,C112,1*%
%TO.N,+3.3V*%
X158555000Y-64950000D03*
%TO.P,C112,2*%
%TO.N,GND*%
X157595000Y-64950000D03*
%TD*%
D52*
%TO.P,C102,1*%
%TO.N,/Microcontroller Board/HSE_IN*%
X140200000Y-50870000D03*
%TO.P,C102,2*%
%TO.N,GND*%
X140200000Y-51830000D03*
%TD*%
D36*
%TO.P,R208,1*%
%TO.N,VREF*%
X52175000Y-49100000D03*
%TO.P,R208,2*%
%TO.N,+3.3VA*%
X53825000Y-49100000D03*
%TD*%
D25*
%TO.P,C120,1*%
%TO.N,VDDA*%
X141530000Y-59925000D03*
%TO.P,C120,2*%
%TO.N,GND*%
X141530000Y-58375000D03*
%TD*%
D62*
%TO.P,C113,1*%
%TO.N,5V*%
X175225000Y-59350000D03*
%TO.P,C113,2*%
%TO.N,GND*%
X173325000Y-59350000D03*
%TD*%
D48*
%TO.P,C109,1*%
%TO.N,5V*%
X177262500Y-59275000D03*
%TO.P,C109,2*%
%TO.N,GND*%
X177262500Y-60825000D03*
%TD*%
D67*
%TO.P,U102,1,PE2*%
%TO.N,unconnected-(U102-PE2-Pad1)*%
X144625000Y-49600000D03*
%TO.P,U102,2,PE3*%
%TO.N,unconnected-(U102-PE3-Pad2)*%
X144625000Y-50100000D03*
%TO.P,U102,3,PE4*%
%TO.N,unconnected-(U102-PE4-Pad3)*%
X144625000Y-50600000D03*
%TO.P,U102,4,PE5*%
%TO.N,unconnected-(U102-PE5-Pad4)*%
X144625000Y-51100000D03*
%TO.P,U102,5,PE6*%
%TO.N,unconnected-(U102-PE6-Pad5)*%
X144625000Y-51600000D03*
%TO.P,U102,6,VBAT*%
%TO.N,+3.3V*%
X144625000Y-52100000D03*
%TO.P,U102,7,PC13*%
%TO.N,unconnected-(U102-PC13-Pad7)*%
X144625000Y-52600000D03*
%TO.P,U102,8,PC14*%
%TO.N,unconnected-(U102-PC14-Pad8)*%
X144625000Y-53100000D03*
%TO.P,U102,9,PC15*%
%TO.N,unconnected-(U102-PC15-Pad9)*%
X144625000Y-53600000D03*
%TO.P,U102,10,VSS*%
%TO.N,GND*%
X144625000Y-54100000D03*
%TO.P,U102,11,VDD*%
%TO.N,+3.3V*%
X144625000Y-54600000D03*
%TO.P,U102,12,PH0*%
%TO.N,/Microcontroller Board/HSE_IN*%
X144625000Y-55100000D03*
%TO.P,U102,13,PH1*%
%TO.N,/Microcontroller Board/HSE_OUT*%
X144625000Y-55600000D03*
%TO.P,U102,14,NRST*%
%TO.N,/Microcontroller Board/NRST*%
X144625000Y-56100000D03*
%TO.P,U102,15,PC0*%
%TO.N,unconnected-(U102-PC0-Pad15)*%
X144625000Y-56600000D03*
%TO.P,U102,16,PC1*%
%TO.N,unconnected-(U102-PC1-Pad16)*%
X144625000Y-57100000D03*
%TO.P,U102,17,PC2_C*%
%TO.N,unconnected-(U102-PC2_C-Pad17)*%
X144625000Y-57600000D03*
%TO.P,U102,18,PC3_C*%
%TO.N,/Microcontroller Board/ADC1_INP16*%
X144625000Y-58100000D03*
%TO.P,U102,19,VSSA*%
%TO.N,GND*%
X144625000Y-58600000D03*
%TO.P,U102,20,VREF+*%
%TO.N,VDDA*%
X144625000Y-59100000D03*
%TO.P,U102,21,VDDA*%
X144625000Y-59600000D03*
%TO.P,U102,22,PA0*%
%TO.N,/Microcontroller Board/ADC2_INP14*%
X144625000Y-60100000D03*
%TO.P,U102,23,PA1*%
%TO.N,unconnected-(U102-PA1-Pad23)*%
X144625000Y-60600000D03*
%TO.P,U102,24,PA2*%
%TO.N,/Microcontroller Board/ADC3_INP1*%
X144625000Y-61100000D03*
%TO.P,U102,25,PA3*%
%TO.N,unconnected-(U102-PA3-Pad25)*%
X144625000Y-61600000D03*
D68*
%TO.P,U102,26,VSS*%
%TO.N,GND*%
X146300000Y-63275000D03*
%TO.P,U102,27,VDD*%
%TO.N,+3.3V*%
X146800000Y-63275000D03*
%TO.P,U102,28,PA4*%
%TO.N,unconnected-(U102-PA4-Pad28)*%
X147300000Y-63275000D03*
%TO.P,U102,29,PA5*%
%TO.N,/Microcontroller Board/PA5*%
X147800000Y-63275000D03*
%TO.P,U102,30,PA6*%
%TO.N,/Microcontroller Board/PA6*%
X148300000Y-63275000D03*
%TO.P,U102,31,PA7*%
%TO.N,unconnected-(U102-PA7-Pad31)*%
X148800000Y-63275000D03*
%TO.P,U102,32,PC4*%
%TO.N,unconnected-(U102-PC4-Pad32)*%
X149300000Y-63275000D03*
%TO.P,U102,33,PC5*%
%TO.N,unconnected-(U102-PC5-Pad33)*%
X149800000Y-63275000D03*
%TO.P,U102,34,PB0*%
%TO.N,unconnected-(U102-PB0-Pad34)*%
X150300000Y-63275000D03*
%TO.P,U102,35,PB1*%
%TO.N,/Microcontroller Board/PB1*%
X150800000Y-63275000D03*
%TO.P,U102,36,PB2*%
%TO.N,/Microcontroller Board/PB2*%
X151300000Y-63275000D03*
%TO.P,U102,37,PE7*%
%TO.N,/Microcontroller Board/PE7*%
X151800000Y-63275000D03*
%TO.P,U102,38,PE8*%
%TO.N,/Microcontroller Board/PE8*%
X152300000Y-63275000D03*
%TO.P,U102,39,PE9*%
%TO.N,/Microcontroller Board/PE9*%
X152800000Y-63275000D03*
%TO.P,U102,40,PE10*%
%TO.N,/Microcontroller Board/PE10*%
X153300000Y-63275000D03*
%TO.P,U102,41,PE11*%
%TO.N,/Microcontroller Board/PE11*%
X153800000Y-63275000D03*
%TO.P,U102,42,PE12*%
%TO.N,/Microcontroller Board/PE12*%
X154300000Y-63275000D03*
%TO.P,U102,43,PE13*%
%TO.N,/Microcontroller Board/PE13*%
X154800000Y-63275000D03*
%TO.P,U102,44,PE14*%
%TO.N,/Microcontroller Board/PE14*%
X155300000Y-63275000D03*
%TO.P,U102,45,PE15*%
%TO.N,unconnected-(U102-PE15-Pad45)*%
X155800000Y-63275000D03*
%TO.P,U102,46,PB10*%
%TO.N,unconnected-(U102-PB10-Pad46)*%
X156300000Y-63275000D03*
%TO.P,U102,47,PB11*%
%TO.N,unconnected-(U102-PB11-Pad47)*%
X156800000Y-63275000D03*
%TO.P,U102,48,VCAP*%
%TO.N,Net-(C108-Pad1)*%
X157300000Y-63275000D03*
%TO.P,U102,49,VSS*%
%TO.N,GND*%
X157800000Y-63275000D03*
%TO.P,U102,50,VDD*%
%TO.N,+3.3V*%
X158300000Y-63275000D03*
D67*
%TO.P,U102,51,PB12*%
%TO.N,unconnected-(U102-PB12-Pad51)*%
X159975000Y-61600000D03*
%TO.P,U102,52,PB13*%
%TO.N,unconnected-(U102-PB13-Pad52)*%
X159975000Y-61100000D03*
%TO.P,U102,53,PB14*%
%TO.N,/Microcontroller Board/USART1_TX*%
X159975000Y-60600000D03*
%TO.P,U102,54,PB15*%
%TO.N,/Microcontroller Board/USART1_RX*%
X159975000Y-60100000D03*
%TO.P,U102,55,PD8*%
%TO.N,unconnected-(U102-PD8-Pad55)*%
X159975000Y-59600000D03*
%TO.P,U102,56,PD9*%
%TO.N,unconnected-(U102-PD9-Pad56)*%
X159975000Y-59100000D03*
%TO.P,U102,57,PD10*%
%TO.N,unconnected-(U102-PD10-Pad57)*%
X159975000Y-58600000D03*
%TO.P,U102,58,PD11*%
%TO.N,unconnected-(U102-PD11-Pad58)*%
X159975000Y-58100000D03*
%TO.P,U102,59,PD12*%
%TO.N,unconnected-(U102-PD12-Pad59)*%
X159975000Y-57600000D03*
%TO.P,U102,60,PD13*%
%TO.N,unconnected-(U102-PD13-Pad60)*%
X159975000Y-57100000D03*
%TO.P,U102,61,PD14*%
%TO.N,unconnected-(U102-PD14-Pad61)*%
X159975000Y-56600000D03*
%TO.P,U102,62,PD15*%
%TO.N,unconnected-(U102-PD15-Pad62)*%
X159975000Y-56100000D03*
%TO.P,U102,63,PC6*%
%TO.N,unconnected-(U102-PC6-Pad63)*%
X159975000Y-55600000D03*
%TO.P,U102,64,PC7*%
%TO.N,unconnected-(U102-PC7-Pad64)*%
X159975000Y-55100000D03*
%TO.P,U102,65,PC8*%
%TO.N,unconnected-(U102-PC8-Pad65)*%
X159975000Y-54600000D03*
%TO.P,U102,66,PC9*%
%TO.N,unconnected-(U102-PC9-Pad66)*%
X159975000Y-54100000D03*
%TO.P,U102,67,PA8*%
%TO.N,unconnected-(U102-PA8-Pad67)*%
X159975000Y-53600000D03*
%TO.P,U102,68,PA9*%
%TO.N,unconnected-(U102-PA9-Pad68)*%
X159975000Y-53100000D03*
%TO.P,U102,69,PA10*%
%TO.N,unconnected-(U102-PA10-Pad69)*%
X159975000Y-52600000D03*
%TO.P,U102,70,PA11*%
%TO.N,/Microcontroller Board/USB_D-*%
X159975000Y-52100000D03*
%TO.P,U102,71,PA12*%
%TO.N,/Microcontroller Board/USB_D+*%
X159975000Y-51600000D03*
%TO.P,U102,72,PA13*%
%TO.N,/Microcontroller Board/SWDIO*%
X159975000Y-51100000D03*
%TO.P,U102,73,VCAP*%
%TO.N,Net-(C111-Pad1)*%
X159975000Y-50600000D03*
%TO.P,U102,74,VSS*%
%TO.N,GND*%
X159975000Y-50100000D03*
%TO.P,U102,75,VDD*%
%TO.N,+3.3V*%
X159975000Y-49600000D03*
D68*
%TO.P,U102,76,PA14*%
%TO.N,/Microcontroller Board/SWDCLK*%
X158300000Y-47925000D03*
%TO.P,U102,77,PA15*%
%TO.N,/Microcontroller Board/PA15*%
X157800000Y-47925000D03*
%TO.P,U102,78,PC10*%
%TO.N,/Microcontroller Board/PC10*%
X157300000Y-47925000D03*
%TO.P,U102,79,PC11*%
%TO.N,/Microcontroller Board/PC11*%
X156800000Y-47925000D03*
%TO.P,U102,80,PC12*%
%TO.N,/Microcontroller Board/PC12*%
X156300000Y-47925000D03*
%TO.P,U102,81,PD0*%
%TO.N,/Microcontroller Board/PD0*%
X155800000Y-47925000D03*
%TO.P,U102,82,PD1*%
%TO.N,/Microcontroller Board/PD1*%
X155300000Y-47925000D03*
%TO.P,U102,83,PD2*%
%TO.N,/Microcontroller Board/PD2*%
X154800000Y-47925000D03*
%TO.P,U102,84,PD3*%
%TO.N,/Microcontroller Board/PD3*%
X154300000Y-47925000D03*
%TO.P,U102,85,PD4*%
%TO.N,/Microcontroller Board/PD4*%
X153800000Y-47925000D03*
%TO.P,U102,86,PD5*%
%TO.N,/Microcontroller Board/PD5*%
X153300000Y-47925000D03*
%TO.P,U102,87,PD6*%
%TO.N,/Microcontroller Board/PD6*%
X152800000Y-47925000D03*
%TO.P,U102,88,PD7*%
%TO.N,/Microcontroller Board/PD7*%
X152300000Y-47925000D03*
%TO.P,U102,89,PB3*%
%TO.N,/Microcontroller Board/PB3*%
X151800000Y-47925000D03*
%TO.P,U102,90,PB4*%
%TO.N,/Microcontroller Board/PB4*%
X151300000Y-47925000D03*
%TO.P,U102,91,PB5*%
%TO.N,/Microcontroller Board/PB5*%
X150800000Y-47925000D03*
%TO.P,U102,92,PB6*%
%TO.N,/Microcontroller Board/I2C1_SCL*%
X150300000Y-47925000D03*
%TO.P,U102,93,PB7*%
%TO.N,/Microcontroller Board/I2C1_SDA*%
X149800000Y-47925000D03*
%TO.P,U102,94,BOOT0*%
%TO.N,/Microcontroller Board/BOOT0*%
X149300000Y-47925000D03*
%TO.P,U102,95,PB8*%
%TO.N,unconnected-(U102-PB8-Pad95)*%
X148800000Y-47925000D03*
%TO.P,U102,96,PB9*%
%TO.N,unconnected-(U102-PB9-Pad96)*%
X148300000Y-47925000D03*
%TO.P,U102,97,PE0*%
%TO.N,unconnected-(U102-PE0-Pad97)*%
X147800000Y-47925000D03*
%TO.P,U102,98,PE1*%
%TO.N,unconnected-(U102-PE1-Pad98)*%
X147300000Y-47925000D03*
%TO.P,U102,99,VSS*%
%TO.N,GND*%
X146800000Y-47925000D03*
%TO.P,U102,100,VDD*%
%TO.N,+3.3V*%
X146300000Y-47925000D03*
%TD*%
D29*
%TO.P,TP205,1,1*%
%TO.N,GND*%
X151400000Y-73300000D03*
%TD*%
D10*
%TO.P,C213,1*%
%TO.N,VREF*%
X52200000Y-47700000D03*
%TO.P,C213,2*%
%TO.N,GND_MIC*%
X53160000Y-47700000D03*
%TD*%
D69*
%TO.N,*%
X59000000Y-48000000D03*
X61500000Y-45500000D03*
X61500000Y-43000000D03*
X56500000Y-45500000D03*
X64000000Y-45500000D03*
X64000000Y-48000000D03*
X56500000Y-48000000D03*
X56500000Y-50500000D03*
%TO.N,GND*%
X124000000Y-28000000D03*
D70*
X182700000Y-49450000D03*
X116025000Y-34975000D03*
D69*
X121500000Y-28000000D03*
X181500000Y-68000000D03*
X174000000Y-70500000D03*
X100600000Y-77700000D03*
X111500000Y-60500000D03*
X131500000Y-30500000D03*
X134000000Y-68000000D03*
X134000000Y-65500000D03*
X181500000Y-28000000D03*
D70*
X140100000Y-52750000D03*
D69*
X119000000Y-85500000D03*
X139000000Y-43000000D03*
X111500000Y-53000000D03*
X111500000Y-38000000D03*
D70*
X185000000Y-48550000D03*
X121500000Y-66900000D03*
D69*
X176500000Y-38000000D03*
D70*
X163000000Y-41800000D03*
D69*
X139000000Y-73000000D03*
X121500000Y-48000000D03*
X141500000Y-40500000D03*
D70*
X164600000Y-50550000D03*
D69*
X136500000Y-68000000D03*
X126500000Y-45500000D03*
X96200000Y-81300000D03*
X174000000Y-55500000D03*
X114000000Y-38000000D03*
D70*
X139300000Y-66150000D03*
D69*
X107500000Y-62500000D03*
X109000000Y-68000000D03*
X186500000Y-80500000D03*
X111500000Y-45500000D03*
X134000000Y-43000000D03*
X181500000Y-70500000D03*
X99400000Y-74850000D03*
D70*
X148900000Y-38150000D03*
X165000000Y-67850000D03*
D69*
X119000000Y-50500000D03*
X126500000Y-63000000D03*
X181500000Y-23000000D03*
X181500000Y-38000000D03*
X111500000Y-73000000D03*
X111500000Y-28000000D03*
X121500000Y-88000000D03*
X189000000Y-78000000D03*
X171500000Y-45500000D03*
X121500000Y-70500000D03*
X106500000Y-73000000D03*
X121500000Y-40500000D03*
X181500000Y-60500000D03*
X189000000Y-25500000D03*
X189000000Y-75500000D03*
X134000000Y-78000000D03*
D70*
X125100000Y-73500000D03*
X128300000Y-76400000D03*
D69*
X179000000Y-38000000D03*
X186500000Y-35500000D03*
X119000000Y-73000000D03*
X126500000Y-48000000D03*
X116500000Y-28000000D03*
X181500000Y-58000000D03*
X184000000Y-65500000D03*
D70*
X156300000Y-67850000D03*
D69*
X189000000Y-80500000D03*
D70*
X150800000Y-38150000D03*
D69*
X184000000Y-33000000D03*
X184000000Y-80500000D03*
X186500000Y-63000000D03*
X144000000Y-43000000D03*
X114000000Y-23000000D03*
D70*
X157400000Y-36150000D03*
D69*
X121500000Y-85500000D03*
X174000000Y-35500000D03*
X129000000Y-65500000D03*
D70*
X145295098Y-44847338D03*
D69*
X111500000Y-30500000D03*
X134000000Y-35500000D03*
X181500000Y-43000000D03*
X119000000Y-63000000D03*
X107500000Y-76000000D03*
X184000000Y-78000000D03*
X131500000Y-40500000D03*
X181500000Y-63000000D03*
X124000000Y-85500000D03*
X136500000Y-45500000D03*
D70*
X119500000Y-78850000D03*
D69*
X179000000Y-40500000D03*
X116500000Y-90500000D03*
D70*
X172500000Y-60450000D03*
D69*
X116500000Y-68000000D03*
X134000000Y-25500000D03*
D70*
X151700000Y-38950000D03*
D69*
X116500000Y-80500000D03*
X186500000Y-23000000D03*
X116500000Y-43000000D03*
X114000000Y-90500000D03*
D70*
X98500000Y-47350000D03*
D69*
X116500000Y-25500000D03*
X114000000Y-88000000D03*
X116500000Y-50500000D03*
X124000000Y-63000000D03*
X179000000Y-43000000D03*
X136500000Y-43000000D03*
X111500000Y-65500000D03*
X116500000Y-63000000D03*
D70*
X185600000Y-47850000D03*
D69*
X186500000Y-25500000D03*
X189000000Y-90500000D03*
D70*
X128500000Y-60600000D03*
D69*
X126500000Y-65500000D03*
X124000000Y-30500000D03*
X121500000Y-83000000D03*
X109000000Y-43000000D03*
X189000000Y-60500000D03*
X99400000Y-37550000D03*
X131500000Y-53000000D03*
D70*
X184800000Y-57450000D03*
D69*
X179000000Y-63000000D03*
X114000000Y-43000000D03*
X107500000Y-29900000D03*
X189000000Y-83000000D03*
D70*
X169800000Y-71550000D03*
D69*
X114000000Y-40500000D03*
X136500000Y-40500000D03*
X186500000Y-40500000D03*
D70*
X114900000Y-75650000D03*
D69*
X136500000Y-75500000D03*
X121500000Y-73000000D03*
X184000000Y-25500000D03*
X141500000Y-38000000D03*
D70*
X151700000Y-38150000D03*
D69*
X189000000Y-85500000D03*
X181500000Y-65500000D03*
D70*
X163529119Y-49282489D03*
D69*
X114000000Y-25500000D03*
X111500000Y-48000000D03*
D70*
X128500000Y-80600000D03*
D69*
X176500000Y-48000000D03*
X181500000Y-40500000D03*
X100800000Y-55700000D03*
X186500000Y-78000000D03*
X131500000Y-23000000D03*
D70*
X184700000Y-56450000D03*
D69*
X184000000Y-35500000D03*
X189000000Y-35500000D03*
X131500000Y-25500000D03*
X106500000Y-88000000D03*
X184000000Y-73000000D03*
X121500000Y-25500000D03*
D70*
X173000000Y-61150000D03*
D69*
X106500000Y-48000000D03*
D70*
X159500000Y-63800000D03*
D69*
X114000000Y-50500000D03*
D70*
X158600000Y-50050000D03*
D69*
X131500000Y-28000000D03*
D70*
X158000000Y-39800000D03*
X125000000Y-33850000D03*
D69*
X116500000Y-83000000D03*
X119000000Y-43000000D03*
X116500000Y-23000000D03*
D70*
X146500000Y-55650000D03*
D69*
X106500000Y-50500000D03*
X116500000Y-73000000D03*
X184000000Y-60500000D03*
X129000000Y-68000000D03*
X129000000Y-25500000D03*
D70*
X119300000Y-58850000D03*
X185600000Y-56850000D03*
D69*
X96300000Y-58800000D03*
X186500000Y-88000000D03*
X186500000Y-38000000D03*
X129000000Y-63000000D03*
X124000000Y-80500000D03*
X124000000Y-68000000D03*
D70*
X124400000Y-74250000D03*
D69*
X139000000Y-68000000D03*
X111500000Y-63000000D03*
X134000000Y-80500000D03*
X134000000Y-53000000D03*
D70*
X141900000Y-51100000D03*
D69*
X186500000Y-65500000D03*
X106500000Y-43000000D03*
X186500000Y-28000000D03*
D70*
X146500000Y-57400000D03*
X153000000Y-38150000D03*
X146300000Y-44100000D03*
D69*
X121500000Y-23000000D03*
X189000000Y-43000000D03*
X124000000Y-50500000D03*
X111500000Y-23000000D03*
X184000000Y-63000000D03*
X106500000Y-23000000D03*
X97600000Y-53350000D03*
X106500000Y-45500000D03*
X136500000Y-38000000D03*
D70*
X140300000Y-58150000D03*
D69*
X189000000Y-28000000D03*
X139000000Y-45500000D03*
X109000000Y-50500000D03*
X119000000Y-48000000D03*
X119000000Y-68000000D03*
X124000000Y-60500000D03*
X189000000Y-73000000D03*
X129000000Y-70500000D03*
X134000000Y-75500000D03*
D70*
X140400000Y-58950000D03*
X146101780Y-53942285D03*
D69*
X176500000Y-45500000D03*
X111500000Y-25500000D03*
X186500000Y-85500000D03*
X106500000Y-68000000D03*
X134000000Y-38000000D03*
X136500000Y-65500000D03*
D70*
X171182841Y-40385583D03*
D69*
X141500000Y-43000000D03*
X109000000Y-70500000D03*
X96200000Y-35200000D03*
X136500000Y-73000000D03*
X124000000Y-45500000D03*
X114000000Y-53000000D03*
X131500000Y-68000000D03*
X134000000Y-30500000D03*
X126500000Y-50500000D03*
X126500000Y-28000000D03*
X119000000Y-25500000D03*
D70*
X166400000Y-67250000D03*
D69*
X116500000Y-65500000D03*
X116500000Y-70500000D03*
X126500000Y-43000000D03*
X126500000Y-70500000D03*
X121500000Y-90500000D03*
D70*
X159700000Y-85900000D03*
D69*
X119000000Y-88000000D03*
X139000000Y-40500000D03*
X126500000Y-25500000D03*
X121500000Y-43000000D03*
X124000000Y-48000000D03*
X134000000Y-45500000D03*
X189000000Y-65500000D03*
X107500000Y-84400000D03*
X174000000Y-40500000D03*
X184000000Y-83000000D03*
X134000000Y-55500000D03*
X126500000Y-60500000D03*
X186500000Y-68000000D03*
X109000000Y-90500000D03*
X109000000Y-23000000D03*
X171500000Y-43000000D03*
X121500000Y-50500000D03*
X129000000Y-23000000D03*
X126500000Y-83000000D03*
X119000000Y-45500000D03*
X134000000Y-50500000D03*
X124000000Y-43000000D03*
X121500000Y-68000000D03*
X114000000Y-83000000D03*
X124000000Y-23000000D03*
X107500000Y-39000000D03*
X97600000Y-38550000D03*
X99400000Y-83650000D03*
X179000000Y-45500000D03*
X109000000Y-25500000D03*
X189000000Y-40500000D03*
X139000000Y-75500000D03*
X131500000Y-80500000D03*
X106500000Y-90500000D03*
X184000000Y-70500000D03*
X124000000Y-40500000D03*
X189000000Y-30500000D03*
D70*
X146300000Y-52900000D03*
X177300000Y-62050000D03*
X146400000Y-42950000D03*
X167800000Y-48450000D03*
D69*
X181500000Y-25500000D03*
X119000000Y-83000000D03*
X186500000Y-73000000D03*
X114000000Y-45500000D03*
X116000000Y-55000000D03*
X179000000Y-65500000D03*
X131500000Y-83000000D03*
X109000000Y-73000000D03*
X184000000Y-75500000D03*
X114000000Y-60500000D03*
D70*
X176400000Y-68050000D03*
D69*
X129000000Y-83000000D03*
X184000000Y-28000000D03*
D70*
X146000000Y-58550000D03*
D69*
X116500000Y-45500000D03*
X106500000Y-65500000D03*
D70*
X175957063Y-57363317D03*
D69*
X179000000Y-68000000D03*
X186500000Y-60500000D03*
X99400000Y-61150000D03*
D70*
X139400000Y-54050000D03*
X138300000Y-53950000D03*
X160300000Y-62600000D03*
D69*
X186500000Y-75500000D03*
D70*
X148502859Y-65751379D03*
D69*
X116500000Y-60500000D03*
X189000000Y-63000000D03*
D70*
X163900000Y-62100000D03*
D69*
X174000000Y-43000000D03*
X134000000Y-40500000D03*
D70*
X140300000Y-60850003D03*
D69*
X121500000Y-33000000D03*
X116200000Y-75100000D03*
X114000000Y-28000000D03*
X189000000Y-38000000D03*
X111500000Y-90500000D03*
X134000000Y-33000000D03*
X106500000Y-70500000D03*
X126500000Y-68000000D03*
X126500000Y-23000000D03*
X131500000Y-65500000D03*
X126500000Y-40500000D03*
X114000000Y-68000000D03*
X131500000Y-75500000D03*
X134000000Y-23000000D03*
X106500000Y-28000000D03*
D70*
X157800000Y-61850000D03*
D69*
X129000000Y-30500000D03*
X116500000Y-33000000D03*
X129000000Y-33000000D03*
X97600000Y-84650000D03*
X119000000Y-90500000D03*
X114000000Y-63000000D03*
X176500000Y-70500000D03*
X116500000Y-30500000D03*
X186500000Y-30500000D03*
D70*
X160700000Y-63800000D03*
D69*
X141500000Y-75500000D03*
X181500000Y-75500000D03*
X131500000Y-38000000D03*
X124000000Y-65500000D03*
D70*
X146800000Y-49350000D03*
D69*
X119000000Y-23000000D03*
X116500000Y-48000000D03*
X119000000Y-30500000D03*
X111500000Y-50500000D03*
D70*
X163100000Y-67100000D03*
X151500000Y-74600000D03*
D69*
X134000000Y-73000000D03*
X186500000Y-70500000D03*
X124000000Y-90500000D03*
X111500000Y-43000000D03*
X119000000Y-53000000D03*
D70*
X167900000Y-45950000D03*
D69*
X139000000Y-38000000D03*
X124000000Y-70500000D03*
D70*
X176400000Y-67050000D03*
D69*
X174000000Y-45500000D03*
D70*
X146300000Y-61850000D03*
D69*
X186500000Y-33000000D03*
X119000000Y-28000000D03*
X189000000Y-33000000D03*
D70*
X128100000Y-56350000D03*
X140100000Y-29200000D03*
D69*
X186500000Y-90500000D03*
X114000000Y-85500000D03*
X129000000Y-28000000D03*
X97600000Y-75850000D03*
X181500000Y-45500000D03*
X131500000Y-45500000D03*
D70*
X187200000Y-46100000D03*
D69*
X111500000Y-88000000D03*
X184000000Y-30500000D03*
D70*
X127200000Y-39700000D03*
D69*
X186500000Y-43000000D03*
X111500000Y-40500000D03*
X131500000Y-35500000D03*
X119000000Y-65500000D03*
X119000000Y-33000000D03*
X111500000Y-85500000D03*
X184000000Y-40500000D03*
D70*
X136400000Y-49450000D03*
X162600000Y-48150000D03*
D69*
X121500000Y-63000000D03*
X119000000Y-80500000D03*
X131500000Y-55500000D03*
X184000000Y-45500000D03*
X119000000Y-70500000D03*
D70*
X144600000Y-65300000D03*
D69*
X134000000Y-28000000D03*
X114000000Y-30500000D03*
X121500000Y-53000000D03*
X124000000Y-88000000D03*
D70*
X124400000Y-54250000D03*
D69*
X176500000Y-43000000D03*
X124000000Y-33000000D03*
D70*
X157400000Y-37750000D03*
X162300000Y-64000000D03*
D69*
X126500000Y-33000000D03*
X116500000Y-88000000D03*
D70*
X149800000Y-38150000D03*
D69*
X106500000Y-25500000D03*
X131500000Y-50500000D03*
X181500000Y-73000000D03*
X174000000Y-48000000D03*
X134000000Y-83000000D03*
X189000000Y-68000000D03*
X109000000Y-48000000D03*
X119000000Y-40500000D03*
X121500000Y-60500000D03*
X99400000Y-52250000D03*
X189000000Y-88000000D03*
X126500000Y-30500000D03*
X121500000Y-45500000D03*
D70*
X187200000Y-58600000D03*
D69*
X107500000Y-52800000D03*
X109000000Y-65500000D03*
D70*
X98500000Y-69850000D03*
D69*
X131500000Y-78000000D03*
X131500000Y-43000000D03*
X121500000Y-30500000D03*
D70*
X145300000Y-64750000D03*
X140100000Y-53650000D03*
D69*
X111500000Y-70500000D03*
X97600000Y-29750000D03*
X114000000Y-70500000D03*
D70*
X154400000Y-39750000D03*
X142500000Y-64250000D03*
X162000000Y-43150000D03*
X179700000Y-62050000D03*
D69*
X109000000Y-45500000D03*
D70*
X183200000Y-51850000D03*
D69*
X184000000Y-68000000D03*
X100700000Y-32100000D03*
X176500000Y-55500000D03*
D70*
X98500000Y-43450000D03*
X141900000Y-53350000D03*
D69*
X111500000Y-68000000D03*
X189000000Y-70500000D03*
D70*
X124200000Y-34450000D03*
X98400000Y-89550000D03*
X128000000Y-35200000D03*
D69*
X124000000Y-25500000D03*
D70*
X152800000Y-29000000D03*
D69*
X131500000Y-33000000D03*
D70*
X163380984Y-65975000D03*
D69*
X176500000Y-40500000D03*
X144000000Y-45500000D03*
X109000000Y-88000000D03*
X111500000Y-83000000D03*
X174000000Y-38000000D03*
X184000000Y-23000000D03*
X124000000Y-83000000D03*
D70*
X144500000Y-86000000D03*
D69*
X114000000Y-65500000D03*
X141500000Y-73000000D03*
X116400000Y-53100000D03*
X119000000Y-60500000D03*
X184000000Y-38000000D03*
X109000000Y-28000000D03*
X171500000Y-48000000D03*
X141500000Y-45500000D03*
D70*
X164200000Y-44157900D03*
X184800000Y-47250000D03*
D69*
X116500000Y-85500000D03*
X99400000Y-28750000D03*
X186500000Y-83000000D03*
D70*
X98500000Y-23650000D03*
D69*
X126500000Y-80500000D03*
D70*
X119200000Y-39250000D03*
D69*
X97600000Y-62150000D03*
X114000000Y-48000000D03*
X184000000Y-43000000D03*
X179000000Y-70500000D03*
X116500000Y-40500000D03*
D70*
X125000000Y-53650000D03*
X155600000Y-40700000D03*
X98500000Y-67050000D03*
D69*
X121500000Y-80500000D03*
X114000000Y-73000000D03*
D70*
%TO.N,/Microcontroller Board/NRST*%
X146200000Y-56550000D03*
X167000000Y-46050000D03*
X163000000Y-44853950D03*
X166900000Y-48450000D03*
%TO.N,+3.3V*%
X163000000Y-62950000D03*
X148900000Y-66650000D03*
X127500000Y-55650000D03*
X163200000Y-64800000D03*
X165800000Y-63250000D03*
X161700000Y-48150000D03*
X166700000Y-63350000D03*
X166600000Y-64300000D03*
X127500000Y-36150000D03*
X146000000Y-54850000D03*
X164300000Y-63300000D03*
X155600000Y-41650000D03*
X142300000Y-85700000D03*
X165100000Y-63600000D03*
X146100000Y-45250000D03*
X163200000Y-63800000D03*
X146000000Y-52050000D03*
X147300000Y-43250000D03*
X151600000Y-44150000D03*
X127800000Y-75650000D03*
%TO.N,5V*%
X175200000Y-57850000D03*
%TO.N,VDDA*%
X139800000Y-65350000D03*
X140300000Y-59950000D03*
%TO.N,GND_MIC*%
X50500000Y-50600000D03*
D69*
X29000000Y-50500000D03*
X59000000Y-28000000D03*
X36500000Y-23000000D03*
X36500000Y-45500000D03*
X44000000Y-28000000D03*
X61500000Y-40500000D03*
X71500000Y-23000000D03*
X29000000Y-25500000D03*
D70*
X74000000Y-49800000D03*
D69*
X69000000Y-50500000D03*
X41500000Y-45500000D03*
X59000000Y-58000000D03*
D70*
X40400000Y-34300000D03*
X34800000Y-34300000D03*
D69*
X51500000Y-25500000D03*
D70*
X54300000Y-33700000D03*
D69*
X46500000Y-33000000D03*
X29000000Y-23000000D03*
X39000000Y-58000000D03*
X56500000Y-30500000D03*
X69000000Y-23000000D03*
X44000000Y-25500000D03*
X71500000Y-55500000D03*
X49000000Y-30500000D03*
X24000000Y-43000000D03*
X24000000Y-40500000D03*
X59000000Y-23000000D03*
X41500000Y-50500000D03*
X71500000Y-58000000D03*
D70*
X38856881Y-37300000D03*
D69*
X41500000Y-23000000D03*
X51500000Y-58000000D03*
X36500000Y-43000000D03*
X39000000Y-50500000D03*
X41500000Y-48000000D03*
X26500000Y-40500000D03*
X56500000Y-55500000D03*
X49000000Y-25500000D03*
D70*
X57200000Y-41700000D03*
D69*
X51500000Y-23000000D03*
X44000000Y-55500000D03*
X46500000Y-55500000D03*
X74000000Y-25500000D03*
D70*
X26200000Y-37000000D03*
D69*
X44000000Y-48000000D03*
X59000000Y-38000000D03*
X44000000Y-23000000D03*
X66500000Y-58000000D03*
X34000000Y-55500000D03*
X36500000Y-50500000D03*
X41500000Y-55500000D03*
X59000000Y-45500000D03*
D70*
X49100000Y-45600000D03*
D69*
X54000000Y-53000000D03*
X41500000Y-28000000D03*
X26500000Y-45500000D03*
X66500000Y-50500000D03*
X61500000Y-53000000D03*
X31500000Y-23000000D03*
D70*
X37256881Y-38500000D03*
D69*
X74000000Y-58000000D03*
X49000000Y-23000000D03*
X64000000Y-55500000D03*
X64000000Y-53000000D03*
X64000000Y-23000000D03*
X61500000Y-58000000D03*
X56500000Y-28000000D03*
X36500000Y-58000000D03*
D70*
X38900000Y-45800000D03*
X74000000Y-30100000D03*
D69*
X24000000Y-48000000D03*
X56500000Y-58000000D03*
X71500000Y-50500000D03*
X59000000Y-50500000D03*
D70*
X33250000Y-35600000D03*
D69*
X24000000Y-30500000D03*
X21500000Y-40500000D03*
X36500000Y-30500000D03*
X36500000Y-28000000D03*
X69000000Y-28000000D03*
X61500000Y-35500000D03*
X61500000Y-25500000D03*
X26500000Y-30500000D03*
X61500000Y-30500000D03*
X54000000Y-25500000D03*
X26500000Y-43000000D03*
X49000000Y-53000000D03*
X44000000Y-53000000D03*
X21500000Y-30500000D03*
X54000000Y-58000000D03*
X56500000Y-25500000D03*
X31500000Y-25500000D03*
X31500000Y-55500000D03*
X51500000Y-53000000D03*
X66500000Y-25500000D03*
X61500000Y-23000000D03*
X54000000Y-23000000D03*
D70*
X31500000Y-42500000D03*
D69*
X46500000Y-50500000D03*
X59000000Y-30500000D03*
D70*
X43400000Y-40300000D03*
D69*
X54000000Y-30500000D03*
X69000000Y-55500000D03*
X46500000Y-23000000D03*
X34000000Y-58000000D03*
X34000000Y-48000000D03*
X39000000Y-55500000D03*
X69000000Y-53000000D03*
X66500000Y-55500000D03*
X71500000Y-28000000D03*
X34000000Y-23000000D03*
X31500000Y-58000000D03*
D70*
X54900000Y-50600000D03*
D69*
X46500000Y-58000000D03*
X61500000Y-55500000D03*
X34000000Y-28000000D03*
D70*
X51000000Y-35900000D03*
D69*
X71500000Y-53000000D03*
X39000000Y-25500000D03*
X59000000Y-55500000D03*
X36500000Y-48000000D03*
X74000000Y-23000000D03*
X24000000Y-45500000D03*
X49000000Y-58000000D03*
X26500000Y-48000000D03*
X36500000Y-53000000D03*
D70*
X57100000Y-38800000D03*
D69*
X39000000Y-28000000D03*
X61500000Y-48000000D03*
X51500000Y-28000000D03*
X59000000Y-53000000D03*
X21500000Y-48000000D03*
X71500000Y-25500000D03*
X29000000Y-55500000D03*
X49000000Y-33000000D03*
X39000000Y-30500000D03*
X59000000Y-35500000D03*
X61500000Y-28000000D03*
D70*
X44336398Y-39036398D03*
D69*
X54000000Y-55500000D03*
X29000000Y-58000000D03*
X69000000Y-58000000D03*
X41500000Y-58000000D03*
X64000000Y-50500000D03*
X44000000Y-30500000D03*
D70*
X55800000Y-49600000D03*
D69*
X21500000Y-45500000D03*
X31500000Y-28000000D03*
X61500000Y-38000000D03*
X34000000Y-50500000D03*
X29000000Y-28000000D03*
X41500000Y-25500000D03*
X46500000Y-25500000D03*
X51500000Y-55500000D03*
X64000000Y-25500000D03*
X34000000Y-43000000D03*
X46500000Y-30500000D03*
X49000000Y-55500000D03*
X34000000Y-45500000D03*
X29000000Y-48000000D03*
X56500000Y-23000000D03*
X36500000Y-25500000D03*
D70*
X45100000Y-40900000D03*
D69*
X46500000Y-28000000D03*
X54000000Y-28000000D03*
D70*
X44076167Y-31808599D03*
D69*
X39000000Y-48000000D03*
X44000000Y-58000000D03*
D70*
X31900000Y-40000000D03*
D69*
X74000000Y-53000000D03*
X51500000Y-33000000D03*
X74000000Y-28000000D03*
X21500000Y-43000000D03*
X31500000Y-48000000D03*
D70*
X64100000Y-31400000D03*
D69*
X34000000Y-25500000D03*
D70*
X45600000Y-33800000D03*
D69*
X66500000Y-28000000D03*
D70*
X33300000Y-36500000D03*
D69*
X59000000Y-43000000D03*
X44000000Y-50500000D03*
X59000000Y-25500000D03*
D70*
X35200000Y-35000000D03*
X64100000Y-44125000D03*
D69*
X36500000Y-55500000D03*
X61500000Y-50500000D03*
X66500000Y-53000000D03*
X56500000Y-53000000D03*
X34000000Y-53000000D03*
X34000000Y-30500000D03*
X39000000Y-23000000D03*
X31500000Y-53000000D03*
X39000000Y-53000000D03*
X46500000Y-53000000D03*
X64000000Y-28000000D03*
X26500000Y-50500000D03*
X31500000Y-45500000D03*
X66500000Y-23000000D03*
X29000000Y-45500000D03*
D70*
X42100000Y-35500000D03*
D69*
X41500000Y-53000000D03*
X69000000Y-25500000D03*
D70*
X51600000Y-36500000D03*
D69*
X74000000Y-55500000D03*
X51500000Y-30500000D03*
D70*
X56200000Y-42300000D03*
D69*
X64000000Y-58000000D03*
X31500000Y-50500000D03*
X49000000Y-28000000D03*
D70*
%TO.N,+3.3VA*%
X55100000Y-49000000D03*
X43700000Y-38400000D03*
X55300000Y-41900000D03*
X31400000Y-40800000D03*
X43500000Y-32500000D03*
X48400000Y-38100000D03*
%TO.N,/Microcontroller Board/PD5*%
X152767073Y-44366667D03*
X154200000Y-32000000D03*
%TO.N,/Microcontroller Board/PD1*%
X157400000Y-41700000D03*
X157300000Y-34100000D03*
%TO.N,/Microcontroller Board/PD4*%
X153328255Y-43663048D03*
X155100000Y-32300000D03*
%TO.N,/Microcontroller Board/PC10*%
X159800000Y-43953947D03*
X169200000Y-34700000D03*
%TO.N,/Microcontroller Board/PD0*%
X160900000Y-34800000D03*
X158400000Y-41800000D03*
%TO.N,/Microcontroller Board/PD3*%
X156000000Y-32800000D03*
X154309144Y-43109144D03*
%TO.N,/Microcontroller Board/PB3*%
X140400000Y-48900000D03*
X149305866Y-51213534D03*
%TO.N,/Microcontroller Board/PD2*%
X156800000Y-40700000D03*
X156500000Y-33600000D03*
%TO.N,/Microcontroller Board/PB5*%
X148800000Y-49500000D03*
X142500000Y-48900000D03*
%TO.N,/Microcontroller Board/PC12*%
X159800000Y-42153941D03*
X163300000Y-34800000D03*
%TO.N,/Microcontroller Board/PC11*%
X159800000Y-43053944D03*
X166000000Y-34800000D03*
%TO.N,/Microcontroller Board/PA15*%
X159800000Y-44853950D03*
X168700000Y-43200000D03*
%TO.N,/Microcontroller Board/PB4*%
X141599997Y-48900000D03*
X148947959Y-50387757D03*
%TD*%
D71*
%TO.N,VBUS*%
X180875000Y-54767500D02*
X180857500Y-54750000D01*
X183800000Y-48150000D02*
X183300000Y-47650000D01*
X180857500Y-47692500D02*
X180900000Y-47650000D01*
X183300000Y-47650000D02*
X180900000Y-47650000D01*
X180857500Y-49500000D02*
X180857500Y-47692500D01*
X184350000Y-49900000D02*
X183800000Y-49350000D01*
X180857500Y-55932500D02*
X180875000Y-55950000D01*
X186430000Y-54800000D02*
X180907500Y-54800000D01*
X180900000Y-47650000D02*
X179200000Y-47650000D01*
X186430000Y-49900000D02*
X184350000Y-49900000D01*
X180857500Y-49500000D02*
X180857500Y-51850000D01*
X179700000Y-51850000D02*
X180857500Y-51850000D01*
X183800000Y-49350000D02*
X183800000Y-48150000D01*
X180857500Y-51850000D02*
X180857500Y-54750000D01*
X180907500Y-54800000D02*
X180875000Y-54767500D01*
X180875000Y-55950000D02*
X180875000Y-54767500D01*
%TO.N,GND*%
X98490000Y-87872000D02*
X98490000Y-89460000D01*
X163000000Y-40380000D02*
X163000000Y-41800000D01*
X99380001Y-37530001D02*
X99400000Y-37550000D01*
X159680000Y-85920000D02*
X159700000Y-85900000D01*
X171177258Y-40380000D02*
X171182841Y-40385583D01*
X98490000Y-25510000D02*
X98490000Y-23660000D01*
X97600000Y-77206000D02*
X97600000Y-75850000D01*
X97600000Y-60770000D02*
X97600000Y-62150000D01*
X181817500Y-49500000D02*
X182650000Y-49500000D01*
X128500000Y-79362500D02*
X128500000Y-80600000D01*
X97600000Y-37200000D02*
X97600000Y-38550000D01*
X100078000Y-78222000D02*
X100600000Y-77700000D01*
D72*
X158650000Y-50100000D02*
X158600000Y-50050000D01*
D71*
X99380000Y-82286000D02*
X99380000Y-83630000D01*
X159680000Y-88200000D02*
X159680000Y-85920000D01*
D73*
X145944065Y-54100000D02*
X146101780Y-53942285D01*
X157800000Y-64350000D02*
X157800000Y-63275000D01*
D71*
X98490000Y-43440000D02*
X98500000Y-43450000D01*
X179662500Y-62012500D02*
X179700000Y-62050000D01*
X117850000Y-75070000D02*
X116230000Y-75070000D01*
X96362000Y-58738000D02*
X96300000Y-58800000D01*
D72*
X159975000Y-50100000D02*
X158650000Y-50100000D01*
D71*
X148800000Y-44475000D02*
X148775000Y-44500000D01*
X96230000Y-81270000D02*
X96200000Y-81300000D01*
X162010000Y-43160000D02*
X162000000Y-43150000D01*
D73*
X146800000Y-46960000D02*
X147055000Y-46705000D01*
D71*
X170775000Y-71550000D02*
X169800000Y-71550000D01*
D73*
X146800000Y-47925000D02*
X146800000Y-46960000D01*
D71*
X151700000Y-41405000D02*
X151700000Y-38950000D01*
X142875000Y-51140000D02*
X141940000Y-51140000D01*
X117850000Y-78880000D02*
X119470000Y-78880000D01*
X116035000Y-55035000D02*
X116000000Y-55000000D01*
X117750000Y-58845000D02*
X119295000Y-58845000D01*
X142500000Y-65375000D02*
X142500000Y-64250000D01*
X100790000Y-55690000D02*
X100800000Y-55700000D01*
X97600000Y-35168000D02*
X96232000Y-35168000D01*
X151500000Y-74600000D02*
X151500000Y-73500000D01*
X158130000Y-40380000D02*
X158950000Y-40380000D01*
X152800000Y-27075000D02*
X152725000Y-27000000D01*
X181975000Y-51850000D02*
X183200000Y-51850000D01*
X107500000Y-77150000D02*
X107500000Y-76000000D01*
X98490000Y-49080000D02*
X98490000Y-47360000D01*
X98490000Y-69860000D02*
X98500000Y-69850000D01*
X162010000Y-44120000D02*
X162010000Y-43160000D01*
X136400000Y-50850000D02*
X136400000Y-49450000D01*
X151675000Y-41430000D02*
X151700000Y-41405000D01*
X119295000Y-58845000D02*
X119300000Y-58850000D01*
X97600000Y-54674000D02*
X97600000Y-53350000D01*
X148775000Y-44500000D02*
X146700000Y-44500000D01*
X144440000Y-88200000D02*
X144440000Y-86060000D01*
X162680000Y-49280000D02*
X163526630Y-49280000D01*
X99380001Y-36184000D02*
X99380001Y-37530001D01*
X144440000Y-86060000D02*
X144500000Y-86000000D01*
X128500000Y-59325000D02*
X128500000Y-60600000D01*
X146700000Y-44500000D02*
X146300000Y-44100000D01*
X121500000Y-65500000D02*
X121500000Y-66900000D01*
X97600000Y-81270000D02*
X96230000Y-81270000D01*
X169900000Y-40380000D02*
X171177258Y-40380000D01*
X164975000Y-66725000D02*
X164975000Y-67825000D01*
X107500000Y-54550000D02*
X107500000Y-52800000D01*
X98490000Y-89460000D02*
X98400000Y-89550000D01*
X154375000Y-39775000D02*
X154400000Y-39750000D01*
X98490000Y-23660000D02*
X98500000Y-23650000D01*
X97600000Y-31104000D02*
X97600000Y-29750000D01*
X116025000Y-34975000D02*
X116500000Y-35450000D01*
X182650000Y-49500000D02*
X182700000Y-49450000D01*
X164975000Y-67825000D02*
X165000000Y-67850000D01*
X99380000Y-30088001D02*
X99380000Y-28770000D01*
X152800000Y-29000000D02*
X152800000Y-27075000D01*
X188275000Y-58600000D02*
X187200000Y-58600000D01*
X179662500Y-60825000D02*
X179662500Y-62012500D01*
X142875000Y-53370000D02*
X141920000Y-53370000D01*
X99380000Y-55690000D02*
X100790000Y-55690000D01*
X164570000Y-50580000D02*
X164600000Y-50550000D01*
X163526630Y-49280000D02*
X163529119Y-49282489D01*
X156300000Y-66705000D02*
X156300000Y-67850000D01*
D73*
X157595000Y-64555000D02*
X157800000Y-64350000D01*
D71*
X163525000Y-50580000D02*
X164570000Y-50580000D01*
X177262500Y-62012500D02*
X177300000Y-62050000D01*
X99380000Y-76190000D02*
X99380000Y-74870000D01*
D74*
X157800000Y-63275000D02*
X157800000Y-61850000D01*
D71*
X127262500Y-39762500D02*
X127200000Y-39700000D01*
X99380000Y-74870000D02*
X99400000Y-74850000D01*
X151500000Y-73500000D02*
X151400000Y-73400000D01*
D73*
X144625000Y-58600000D02*
X145950000Y-58600000D01*
X145950000Y-58600000D02*
X146000000Y-58550000D01*
D71*
X100680000Y-32120000D02*
X100700000Y-32100000D01*
X97600000Y-83302000D02*
X97600000Y-84650000D01*
X116500000Y-35450000D02*
X117625000Y-35450000D01*
D73*
X146300000Y-63275000D02*
X146300000Y-61850000D01*
X146800000Y-47925000D02*
X146800000Y-49350000D01*
D71*
X116230000Y-75070000D02*
X116200000Y-75100000D01*
X117735000Y-55050000D02*
X117750000Y-55035000D01*
X96232000Y-35168000D02*
X96200000Y-35200000D01*
X107500000Y-39000000D02*
X107500000Y-37850000D01*
X141920000Y-53370000D02*
X141900000Y-53350000D01*
X119470000Y-78880000D02*
X119500000Y-78850000D01*
X119190000Y-39260000D02*
X119200000Y-39250000D01*
X99380000Y-61130000D02*
X99400000Y-61150000D01*
X107500000Y-61350000D02*
X107500000Y-62500000D01*
X117625000Y-39260000D02*
X119190000Y-39260000D01*
X98490000Y-67040000D02*
X98500000Y-67050000D01*
X177262500Y-60825000D02*
X177262500Y-62012500D01*
X99380000Y-28770000D02*
X99400000Y-28750000D01*
X99380000Y-78222000D02*
X100078000Y-78222000D01*
X98490000Y-71612000D02*
X98490000Y-69860000D01*
X140100000Y-27075000D02*
X140025000Y-27000000D01*
X166375000Y-66330000D02*
X166375000Y-67225000D01*
X141940000Y-51140000D02*
X141900000Y-51100000D01*
X99380000Y-59754000D02*
X99380000Y-61130000D01*
X158000000Y-40250000D02*
X158130000Y-40380000D01*
X188275000Y-46100000D02*
X187200000Y-46100000D01*
X99380001Y-32120000D02*
X100680000Y-32120000D01*
X98490000Y-41770000D02*
X98490000Y-43440000D01*
X151400000Y-73400000D02*
X151400000Y-73300000D01*
X99380000Y-83630000D02*
X99400000Y-83650000D01*
X107500000Y-31050000D02*
X107500000Y-29900000D01*
X117750000Y-55035000D02*
X116035000Y-55035000D01*
X154375000Y-40650000D02*
X154375000Y-39775000D01*
X166375000Y-67225000D02*
X166400000Y-67250000D01*
X97600000Y-58738000D02*
X96362000Y-58738000D01*
X128400000Y-39762500D02*
X127262500Y-39762500D01*
D73*
X157595000Y-64950000D02*
X157595000Y-64555000D01*
X144625000Y-54100000D02*
X145944065Y-54100000D01*
D71*
X98490000Y-47360000D02*
X98500000Y-47350000D01*
X158000000Y-39800000D02*
X158000000Y-40250000D01*
X98490000Y-65340000D02*
X98490000Y-67040000D01*
X107500000Y-83250000D02*
X107500000Y-84400000D01*
D73*
X147055000Y-46705000D02*
X147055000Y-46150000D01*
D71*
X99380000Y-52270000D02*
X99400000Y-52250000D01*
D74*
X142940000Y-58600000D02*
X142900000Y-58640000D01*
D71*
X99380000Y-53658000D02*
X99380000Y-52270000D01*
X140100000Y-29200000D02*
X140100000Y-27075000D01*
D73*
%TO.N,/Microcontroller Board/NRST*%
X167000000Y-46050000D02*
X167000000Y-48350000D01*
X161050000Y-43040000D02*
X161050000Y-44120000D01*
X162903950Y-44950000D02*
X163000000Y-44853950D01*
X167000000Y-48350000D02*
X166900000Y-48450000D01*
X161300000Y-44950000D02*
X162903950Y-44950000D01*
X161050000Y-44120000D02*
X161050000Y-44700000D01*
X161050000Y-44700000D02*
X161300000Y-44950000D01*
X144625000Y-56100000D02*
X145750000Y-56100000D01*
X161050000Y-44120000D02*
X161100000Y-44170000D01*
X145750000Y-56100000D02*
X146200000Y-56550000D01*
%TO.N,/Microcontroller Board/HSE_IN*%
X144625000Y-55100000D02*
X141350000Y-55100000D01*
X140200000Y-50870000D02*
X138620000Y-50870000D01*
X141000000Y-51150000D02*
X140720000Y-50870000D01*
X141000000Y-54750000D02*
X141000000Y-51150000D01*
X141350000Y-55100000D02*
X141000000Y-54750000D01*
X138620000Y-50870000D02*
X138600000Y-50850000D01*
X140720000Y-50870000D02*
X140200000Y-50870000D01*
D74*
%TO.N,+3.3V*%
X142875000Y-52100000D02*
X144625000Y-52100000D01*
D71*
X160325000Y-65175000D02*
X163200000Y-65175000D01*
X146095000Y-45255000D02*
X146100000Y-45250000D01*
D74*
X144625000Y-54600000D02*
X143650000Y-54600000D01*
D71*
X158555000Y-64950000D02*
X160100000Y-64950000D01*
X127500000Y-55650000D02*
X126300000Y-55650000D01*
X163200000Y-65175000D02*
X163200000Y-63150000D01*
D73*
X147055000Y-64428948D02*
X147055000Y-64950000D01*
D71*
X168325000Y-70925000D02*
X168400000Y-71000000D01*
X168325000Y-65350000D02*
X168325000Y-70925000D01*
X154415000Y-41650000D02*
X154375000Y-41610000D01*
X151610000Y-43250000D02*
X151610000Y-44140000D01*
X127465000Y-36185000D02*
X127500000Y-36150000D01*
X126100000Y-36185000D02*
X127465000Y-36185000D01*
D74*
X146000000Y-54650000D02*
X145950000Y-54600000D01*
D73*
X160950000Y-49600000D02*
X159975000Y-49600000D01*
D74*
X144625000Y-52100000D02*
X145950000Y-52100000D01*
D73*
X146800000Y-63275000D02*
X146800000Y-64173948D01*
D71*
X151610000Y-44140000D02*
X151600000Y-44150000D01*
D73*
X161720000Y-49280000D02*
X161270000Y-49280000D01*
X158300000Y-64250000D02*
X158300000Y-63275000D01*
D71*
X126300000Y-55650000D02*
X126200000Y-55750000D01*
X147300000Y-43250000D02*
X148490000Y-43250000D01*
D74*
X145950000Y-52100000D02*
X146000000Y-52050000D01*
D71*
X155600000Y-41650000D02*
X154415000Y-41650000D01*
X146100000Y-46145000D02*
X146095000Y-46150000D01*
X127500000Y-75750000D02*
X126300000Y-75750000D01*
X148900000Y-66650000D02*
X148807162Y-66557162D01*
X168400000Y-70100000D02*
X168450000Y-70050000D01*
D73*
X146095000Y-46745000D02*
X146095000Y-46150000D01*
D71*
X142800000Y-68050000D02*
X142500000Y-67750000D01*
X168400000Y-71000000D02*
X168400000Y-70100000D01*
X163200000Y-63150000D02*
X163000000Y-62950000D01*
X141900000Y-88200000D02*
X141900000Y-86100000D01*
D74*
X146000000Y-54850000D02*
X146000000Y-54650000D01*
D73*
X127600000Y-75650000D02*
X127500000Y-75750000D01*
X146800000Y-64173948D02*
X147055000Y-64428948D01*
D71*
X141900000Y-86100000D02*
X142300000Y-85700000D01*
X148900000Y-67650000D02*
X148500000Y-68050000D01*
X148900000Y-66650000D02*
X148900000Y-67650000D01*
D74*
X143380000Y-54330000D02*
X142875000Y-54330000D01*
X145950000Y-54600000D02*
X144625000Y-54600000D01*
D71*
X161700000Y-49260000D02*
X161720000Y-49280000D01*
X148455895Y-66550000D02*
X147050000Y-66550000D01*
X148807162Y-66557162D02*
X148463057Y-66557162D01*
D73*
X146300000Y-47925000D02*
X146300000Y-46950000D01*
D71*
X146095000Y-46150000D02*
X146095000Y-45255000D01*
X163200000Y-65175000D02*
X163900000Y-65175000D01*
X161700000Y-48150000D02*
X161700000Y-49260000D01*
D74*
X143650000Y-54600000D02*
X143380000Y-54330000D01*
D71*
X142500000Y-67750000D02*
X142500000Y-66925000D01*
X168450000Y-70050000D02*
X170812500Y-70050000D01*
X160100000Y-64950000D02*
X160325000Y-65175000D01*
X164975000Y-65175000D02*
X163900000Y-65175000D01*
X148463057Y-66557162D02*
X148455895Y-66550000D01*
D73*
X158555000Y-64505000D02*
X158300000Y-64250000D01*
D71*
X166600000Y-71000000D02*
X168400000Y-71000000D01*
D73*
X146300000Y-46950000D02*
X146095000Y-46745000D01*
X158555000Y-64950000D02*
X158555000Y-64505000D01*
X161270000Y-49280000D02*
X160950000Y-49600000D01*
X127800000Y-75650000D02*
X127600000Y-75650000D01*
D71*
X148500000Y-68050000D02*
X142800000Y-68050000D01*
%TO.N,Net-(C105-Pad1)*%
X179662500Y-58712500D02*
X179662500Y-59275000D01*
X179050000Y-58100000D02*
X179662500Y-58712500D01*
X179050000Y-57650000D02*
X179050000Y-55950000D01*
X179050000Y-57650000D02*
X179050000Y-58100000D01*
D73*
%TO.N,/Microcontroller Board/XTAL_IN*%
X136400000Y-54100000D02*
X136400000Y-52550000D01*
X136375000Y-55500000D02*
X136375000Y-54125000D01*
X136375000Y-54125000D02*
X136400000Y-54100000D01*
D72*
%TO.N,Net-(C108-Pad1)*%
X156443450Y-64406550D02*
X156300000Y-64550000D01*
X157300000Y-63275000D02*
X157300000Y-64152026D01*
X156300000Y-64550000D02*
X156300000Y-65155000D01*
X157300000Y-64152026D02*
X157045476Y-64406550D01*
X157045476Y-64406550D02*
X156443450Y-64406550D01*
D73*
%TO.N,5V*%
X175225000Y-59350000D02*
X175225000Y-57875000D01*
X175225000Y-57875000D02*
X175200000Y-57850000D01*
D72*
%TO.N,Net-(C111-Pad1)*%
X159975000Y-50600000D02*
X161955000Y-50600000D01*
X161955000Y-50600000D02*
X161975000Y-50580000D01*
D71*
%TO.N,VDDA*%
X139812500Y-65362500D02*
X139800000Y-65350000D01*
D72*
X144625000Y-59100000D02*
X145586142Y-59100000D01*
D73*
X141530000Y-59925000D02*
X140325000Y-59925000D01*
D74*
X142900000Y-59600000D02*
X142550000Y-59600000D01*
D71*
X140900000Y-65362500D02*
X139812500Y-65362500D01*
D72*
X145700000Y-59500000D02*
X145600000Y-59600000D01*
X145586142Y-59100000D02*
X145700000Y-59213858D01*
X145600000Y-59600000D02*
X144625000Y-59600000D01*
D74*
X142225000Y-59925000D02*
X141530000Y-59925000D01*
X144625000Y-59600000D02*
X142900000Y-59600000D01*
D72*
X145700000Y-59213858D02*
X145700000Y-59500000D01*
D74*
X140325000Y-59925000D02*
X140300000Y-59950000D01*
X142550000Y-59600000D02*
X142225000Y-59925000D01*
%TO.N,/Microcontroller Board/GNDMIC_AMP_IN1*%
X109000000Y-33150000D02*
X109350000Y-33500000D01*
D75*
X99907500Y-33136000D02*
X99921500Y-33150000D01*
D73*
X110990000Y-33500000D02*
X109350000Y-33500000D01*
D74*
X99921500Y-33150000D02*
X109000000Y-33150000D01*
D75*
X97600000Y-33136000D02*
X99907500Y-33136000D01*
D74*
%TO.N,/Microphone Board/SIG_CON_IN*%
X64549000Y-39949000D02*
X72562000Y-39949000D01*
X63300000Y-33100000D02*
X64100000Y-33900000D01*
X64100000Y-39500000D02*
X64549000Y-39949000D01*
X64100000Y-33900000D02*
X64100000Y-35000000D01*
X72562000Y-39949000D02*
X73095000Y-39416000D01*
X64100000Y-35000000D02*
X64100000Y-39500000D01*
X56270000Y-33100000D02*
X63300000Y-33100000D01*
%TO.N,/Microcontroller Board/GNDMIC_AMP_IN2*%
X107400000Y-56700000D02*
X107394000Y-56706000D01*
X108950000Y-56700000D02*
X109500000Y-56150000D01*
X107400000Y-56700000D02*
X108950000Y-56700000D01*
D75*
X97600000Y-56706000D02*
X100056000Y-56706000D01*
D74*
X107394000Y-56706000D02*
X100056000Y-56706000D01*
X109500000Y-56150000D02*
X111140000Y-56150000D01*
%TO.N,/Microcontroller Board/GNDMIC_AMP_IN3*%
X109350000Y-79200000D02*
X109800000Y-78750000D01*
X99800000Y-79250000D02*
X99850000Y-79200000D01*
X109800000Y-78750000D02*
X111190000Y-78750000D01*
D75*
X97492500Y-79250000D02*
X99800000Y-79250000D01*
D74*
X99850000Y-79200000D02*
X107500000Y-79200000D01*
X107500000Y-79200000D02*
X109350000Y-79200000D01*
%TO.N,/Microcontroller Board/ADC3_INP1*%
X141000000Y-63550000D02*
X131100000Y-63550000D01*
X144601000Y-61124000D02*
X143426000Y-61124000D01*
X143426000Y-61124000D02*
X141000000Y-63550000D01*
X130500000Y-76750000D02*
X129612500Y-77637500D01*
D73*
X126812500Y-77610000D02*
X128472500Y-77610000D01*
D74*
X144625000Y-61100000D02*
X144601000Y-61124000D01*
X131100000Y-63550000D02*
X130500000Y-64150000D01*
D73*
X128472500Y-77610000D02*
X128500000Y-77637500D01*
D74*
X129612500Y-77637500D02*
X128500000Y-77637500D01*
X130500000Y-64150000D02*
X130500000Y-76750000D01*
%TO.N,/Microcontroller Board/ADC2_INP14*%
X131200000Y-62150000D02*
X130500000Y-61450000D01*
X141600000Y-62150000D02*
X131200000Y-62150000D01*
X144625000Y-60100000D02*
X143650000Y-60100000D01*
X143650000Y-60100000D02*
X141600000Y-62150000D01*
X130500000Y-58000000D02*
X130100000Y-57600000D01*
X130100000Y-57600000D02*
X128500000Y-57600000D01*
D73*
X126712500Y-57600000D02*
X128500000Y-57600000D01*
D74*
X130500000Y-61450000D02*
X130500000Y-58000000D01*
%TO.N,/Microcontroller Board/ADC1_INP16*%
X144625000Y-58100000D02*
X143550000Y-58100000D01*
D72*
X128352500Y-37990000D02*
X128400000Y-38037500D01*
D74*
X142900000Y-57450000D02*
X131400000Y-57450000D01*
D72*
X130137500Y-38037500D02*
X130500000Y-38400000D01*
X128400000Y-38037500D02*
X130137500Y-38037500D01*
D74*
X130500000Y-56550000D02*
X130500000Y-38400000D01*
X143550000Y-58100000D02*
X142900000Y-57450000D01*
D72*
X126612500Y-37990000D02*
X128352500Y-37990000D01*
D74*
X131400000Y-57450000D02*
X130500000Y-56550000D01*
D71*
%TO.N,Net-(MK200-+)*%
X40612500Y-40300000D02*
X40612500Y-38400000D01*
X38920000Y-43227500D02*
X38920000Y-40363119D01*
X38920000Y-40363119D02*
X38856881Y-40300000D01*
X38856881Y-40300000D02*
X37256881Y-40300000D01*
X38856881Y-40300000D02*
X40700000Y-40300000D01*
%TO.N,GND_MIC*%
X38920000Y-45380000D02*
X38920000Y-44177500D01*
X33300000Y-37700000D02*
X33300000Y-36500000D01*
X33250000Y-35600000D02*
X33250000Y-34350000D01*
X38856881Y-38400000D02*
X38856881Y-37300000D01*
X38900000Y-45800000D02*
X38900000Y-45400000D01*
X23850000Y-37000000D02*
X26200000Y-37000000D01*
X50450000Y-45600000D02*
X49100000Y-45600000D01*
X42100000Y-34350000D02*
X42100000Y-35500000D01*
X47442500Y-40900000D02*
X45100000Y-40900000D01*
X73985000Y-30115000D02*
X74000000Y-30100000D01*
X53832500Y-50600000D02*
X54900000Y-50600000D01*
X56217848Y-38800000D02*
X57100000Y-38800000D01*
X34950000Y-33410000D02*
X34890000Y-33410000D01*
X45550000Y-35000000D02*
X45550000Y-33850000D01*
X38900000Y-45400000D02*
X38920000Y-45380000D01*
D75*
X64200000Y-44250000D02*
X64050000Y-44250000D01*
D71*
X73985000Y-48058000D02*
X73985000Y-49785000D01*
D75*
X63950000Y-42875000D02*
X63920000Y-42905000D01*
D71*
X40400000Y-33410000D02*
X40400000Y-34300000D01*
X57170898Y-41670898D02*
X57200000Y-41700000D01*
X57170898Y-40400000D02*
X57170898Y-41670898D01*
X73985000Y-49785000D02*
X74000000Y-49800000D01*
X37256881Y-39340000D02*
X37256881Y-38500000D01*
X54300000Y-34962500D02*
X54300000Y-33700000D01*
X73985000Y-31798000D02*
X73985000Y-30115000D01*
X45550000Y-33850000D02*
X45600000Y-33800000D01*
X64100000Y-42875000D02*
X64100000Y-44125000D01*
X30362500Y-42500000D02*
X31500000Y-42500000D01*
X50500000Y-49450000D02*
X50500000Y-50600000D01*
X64100000Y-32700000D02*
X64100000Y-31400000D01*
X42350000Y-40300000D02*
X43400000Y-40300000D01*
D74*
%TO.N,/Microphone Board/MK_OUT*%
X41935000Y-43727500D02*
X41950000Y-43712500D01*
X39500000Y-43727500D02*
X41935000Y-43727500D01*
%TO.N,Net-(C203-Pad2)*%
X43850000Y-43712500D02*
X45792500Y-43712500D01*
%TO.N,/Microphone Board/BAT_SW_OUT*%
X37800000Y-32800000D02*
X37450000Y-32450000D01*
X37450000Y-34350000D02*
X37800000Y-34000000D01*
X36562500Y-34350000D02*
X37450000Y-34350000D01*
X37450000Y-32450000D02*
X36562500Y-32450000D01*
X37800000Y-34000000D02*
X37800000Y-32800000D01*
D72*
%TO.N,Net-(C205-Pad2)*%
X51512500Y-44412500D02*
X51512500Y-43600000D01*
X52200000Y-44600000D02*
X51700000Y-44600000D01*
X51700000Y-44600000D02*
X51512500Y-44412500D01*
X52350000Y-44750000D02*
X52200000Y-44600000D01*
X52350000Y-45600000D02*
X52350000Y-44750000D01*
D74*
X51405000Y-43537500D02*
X51367500Y-43500000D01*
%TO.N,Net-(U201--IN)*%
X51580000Y-41850000D02*
X49717500Y-41850000D01*
D72*
X49687500Y-41880000D02*
X49717500Y-41850000D01*
X53200000Y-41937500D02*
X53300000Y-41837500D01*
X51580000Y-41937500D02*
X53200000Y-41937500D01*
X49687500Y-43600000D02*
X49687500Y-41880000D01*
D74*
%TO.N,/Microphone Board/PREAMP_OUT*%
X47442500Y-39950000D02*
X45750000Y-39950000D01*
X47442500Y-39542500D02*
X47125000Y-39225000D01*
X51580000Y-40720000D02*
X51580000Y-40112500D01*
X51410000Y-40890000D02*
X51580000Y-40720000D01*
X49140000Y-40890000D02*
X51410000Y-40890000D01*
X47125000Y-39225000D02*
X47125000Y-38325000D01*
X48200000Y-39950000D02*
X49140000Y-40890000D01*
X45750000Y-39950000D02*
X45500000Y-39700000D01*
X47442500Y-39950000D02*
X48200000Y-39950000D01*
X47442500Y-39950000D02*
X47442500Y-39542500D01*
X51580000Y-40112500D02*
X53300000Y-40112500D01*
D71*
%TO.N,+3.3VA*%
X42100000Y-32450000D02*
X43450000Y-32450000D01*
X42437500Y-38400000D02*
X43700000Y-38400000D01*
X43450000Y-32450000D02*
X43500000Y-32500000D01*
X42100000Y-30600000D02*
X42200000Y-30500000D01*
X53825000Y-49100000D02*
X55000000Y-49100000D01*
X55000000Y-49100000D02*
X55100000Y-49000000D01*
X31400000Y-40800000D02*
X30287500Y-40800000D01*
X55300000Y-41900000D02*
X55300000Y-40429102D01*
X48425000Y-38075000D02*
X48400000Y-38100000D01*
X55300000Y-40429102D02*
X55270898Y-40400000D01*
X42100000Y-32450000D02*
X42100000Y-30600000D01*
X49700000Y-38075000D02*
X48425000Y-38075000D01*
D74*
%TO.N,VREF*%
X47442500Y-46925000D02*
X47442500Y-48742500D01*
X52175000Y-47725000D02*
X52200000Y-47700000D01*
X49300000Y-47400000D02*
X48825000Y-46925000D01*
X47442500Y-48742500D02*
X47500000Y-48800000D01*
X47442500Y-46925000D02*
X47575000Y-46925000D01*
X52175000Y-50592500D02*
X52182500Y-50600000D01*
X48825000Y-46925000D02*
X47442500Y-46925000D01*
X52175000Y-49100000D02*
X52175000Y-50592500D01*
X50500000Y-47725000D02*
X49625000Y-47725000D01*
X52175000Y-49100000D02*
X52175000Y-47725000D01*
X50525000Y-47700000D02*
X50500000Y-47725000D01*
X47575000Y-46925000D02*
X47600000Y-46950000D01*
X52200000Y-47700000D02*
X50525000Y-47700000D01*
X49625000Y-47725000D02*
X49300000Y-47400000D01*
%TO.N,/Microphone Board/BUFFER_IN*%
X47125000Y-36675000D02*
X47125000Y-35025000D01*
X53312500Y-35000000D02*
X53350000Y-34962500D01*
X47100000Y-35000000D02*
X53312500Y-35000000D01*
X47125000Y-35025000D02*
X47100000Y-35000000D01*
D73*
%TO.N,/Microcontroller Board/CONN_SWDIO*%
X167600000Y-40380000D02*
X167600000Y-41200000D01*
X167240000Y-39090000D02*
X167600000Y-39450000D01*
X167600000Y-41200000D02*
X167400000Y-41400000D01*
X167240000Y-37280000D02*
X167240000Y-39090000D01*
X167400000Y-41400000D02*
X167400000Y-42170000D01*
X167600000Y-39450000D02*
X167600000Y-40380000D01*
%TO.N,/Microcontroller Board/CONN_SWCLK*%
X165300000Y-42020000D02*
X165350000Y-42070000D01*
X165350000Y-42070000D02*
X165350000Y-41450000D01*
X165350000Y-41450000D02*
X165100000Y-41200000D01*
X165100000Y-40380000D02*
X165100000Y-39700000D01*
X164700000Y-39300000D02*
X164700000Y-37280000D01*
X165100000Y-41200000D02*
X165100000Y-40380000D01*
X165100000Y-39700000D02*
X164700000Y-39300000D01*
%TO.N,/Microcontroller Board/CONN_NRST*%
X161050000Y-38390000D02*
X161050000Y-40380000D01*
X161050000Y-42020000D02*
X161050000Y-40380000D01*
X162160000Y-37280000D02*
X161050000Y-38390000D01*
D74*
%TO.N,/Microphone Board/GNDMIC_CON_IN*%
X64500000Y-40400000D02*
X64100000Y-40800000D01*
D75*
X72632000Y-40432000D02*
X74875000Y-40432000D01*
X72600000Y-40400000D02*
X72632000Y-40432000D01*
D74*
X64100000Y-40800000D02*
X64100000Y-41690000D01*
X72600000Y-40400000D02*
X64500000Y-40400000D01*
%TO.N,Net-(U104-+)*%
X113350000Y-35800000D02*
X112010000Y-35800000D01*
X117625000Y-37990000D02*
X115540000Y-37990000D01*
X115540000Y-37990000D02*
X113350000Y-35800000D01*
%TO.N,Net-(U104--)*%
X113250000Y-33500000D02*
X112010000Y-33500000D01*
X113250000Y-33500000D02*
X116470000Y-36720000D01*
X116470000Y-36720000D02*
X117625000Y-36720000D01*
D71*
%TO.N,Net-(D109-K)*%
X172387500Y-70050000D02*
X172387500Y-71512500D01*
X172387500Y-71512500D02*
X172425000Y-71550000D01*
D74*
%TO.N,/Microphone Board/BUFFER_OUT*%
X53600000Y-36000000D02*
X53350000Y-36250000D01*
X53350000Y-36250000D02*
X53350000Y-37237500D01*
X55250000Y-34962500D02*
X55250000Y-33100000D01*
X55000000Y-36000000D02*
X55250000Y-35750000D01*
X55250000Y-35750000D02*
X55250000Y-34962500D01*
X53600000Y-36000000D02*
X55000000Y-36000000D01*
D73*
%TO.N,Net-(J100-TX)*%
X168960000Y-57490000D02*
X168960000Y-56005000D01*
X163710000Y-59830000D02*
X164220000Y-59830000D01*
X168700000Y-57750000D02*
X168960000Y-57490000D01*
X166300000Y-57750000D02*
X168700000Y-57750000D01*
X164220000Y-59830000D02*
X166300000Y-57750000D01*
%TO.N,Net-(J100-RX)*%
X171500000Y-58250000D02*
X171500000Y-56005000D01*
X166600000Y-58650000D02*
X171100000Y-58650000D01*
X171100000Y-58650000D02*
X171500000Y-58250000D01*
X164370000Y-60880000D02*
X166600000Y-58650000D01*
X163710000Y-60880000D02*
X164370000Y-60880000D01*
D72*
%TO.N,/Microcontroller Board/USB_CONN_D+*%
X187500000Y-52600000D02*
X186430000Y-52600000D01*
X187500000Y-51600000D02*
X187800000Y-51900000D01*
X183250000Y-50900000D02*
X181975000Y-50900000D01*
X186430000Y-51600000D02*
X187500000Y-51600000D01*
X186430000Y-51600000D02*
X183950000Y-51600000D01*
X187800000Y-52300000D02*
X187500000Y-52600000D01*
X183950000Y-51600000D02*
X183250000Y-50900000D01*
X187800000Y-51900000D02*
X187800000Y-52300000D01*
D76*
%TO.N,/Microcontroller Board/USB_CONN_CC2*%
X189935000Y-46900000D02*
X189935000Y-46450000D01*
X189925000Y-46890000D02*
X189925000Y-46100000D01*
X189935000Y-46900000D02*
X189925000Y-46890000D01*
X186430000Y-50600000D02*
X189450000Y-50600000D01*
X189935000Y-50115000D02*
X189935000Y-46900000D01*
X189450000Y-50600000D02*
X189935000Y-50115000D01*
%TO.N,/Microcontroller Board/USB_CONN_CC1*%
X189935000Y-54085000D02*
X189935000Y-58100000D01*
X189935000Y-58100000D02*
X189925000Y-58110000D01*
X186430000Y-53600000D02*
X189450000Y-53600000D01*
X189935000Y-58100000D02*
X189935000Y-58350000D01*
X189925000Y-58110000D02*
X189925000Y-58600000D01*
X189450000Y-53600000D02*
X189935000Y-54085000D01*
D72*
%TO.N,/Microcontroller Board/USB_CONN_D-*%
X186430000Y-53100000D02*
X185250000Y-53100000D01*
X184900000Y-52100000D02*
X183950000Y-52100000D01*
X186430000Y-52100000D02*
X184900000Y-52100000D01*
X185250000Y-53100000D02*
X184900000Y-52750000D01*
X183250000Y-52800000D02*
X181975000Y-52800000D01*
X183950000Y-52100000D02*
X183250000Y-52800000D01*
X184900000Y-52750000D02*
X184900000Y-52100000D01*
%TO.N,/Microcontroller Board/USB_D+*%
X173312499Y-51300000D02*
X174212500Y-51300000D01*
X160877026Y-51625000D02*
X172987499Y-51625000D01*
X159975000Y-51600000D02*
X159993450Y-51618450D01*
X172987499Y-51625000D02*
X173312499Y-51300000D01*
X160870476Y-51618450D02*
X160877026Y-51625000D01*
X159993450Y-51618450D02*
X160870476Y-51618450D01*
%TO.N,/Microcontroller Board/USB_CMC_D+*%
X179700000Y-50900000D02*
X178750000Y-50900000D01*
X178350000Y-51300000D02*
X176862500Y-51300000D01*
X178750000Y-50900000D02*
X178350000Y-51300000D01*
%TO.N,/Microcontroller Board/USB_CMC_D-*%
X178350000Y-52400000D02*
X176862500Y-52400000D01*
X178750000Y-52800000D02*
X178350000Y-52400000D01*
X179700000Y-52800000D02*
X178750000Y-52800000D01*
%TO.N,/Microcontroller Board/USB_D-*%
X173012499Y-52100000D02*
X159975000Y-52100000D01*
X174212500Y-52400000D02*
X173312499Y-52400000D01*
X173312499Y-52400000D02*
X173012499Y-52100000D01*
D73*
%TO.N,/Microcontroller Board/USART1_TX*%
X162030000Y-60880000D02*
X162690000Y-60880000D01*
X161750000Y-60600000D02*
X162030000Y-60880000D01*
X159975000Y-60600000D02*
X161750000Y-60600000D01*
%TO.N,/Microcontroller Board/USART1_RX*%
X159975000Y-60100000D02*
X161750000Y-60100000D01*
X161750000Y-60100000D02*
X162020000Y-59830000D01*
X162020000Y-59830000D02*
X162690000Y-59830000D01*
%TO.N,/Microcontroller Board/SWDIO*%
X158150000Y-51100000D02*
X157800000Y-50750000D01*
X158200000Y-49350000D02*
X158500000Y-49350000D01*
X158827950Y-46522050D02*
X159300000Y-46050000D01*
X158827950Y-49022050D02*
X158827950Y-46522050D01*
X159975000Y-51100000D02*
X158150000Y-51100000D01*
X159300000Y-46050000D02*
X165200000Y-46050000D01*
X165200000Y-46050000D02*
X167400000Y-43850000D01*
X167400000Y-43850000D02*
X167400000Y-43190000D01*
X157800000Y-50750000D02*
X157800000Y-49750000D01*
X158500000Y-49350000D02*
X158827950Y-49022050D01*
X157800000Y-49750000D02*
X158200000Y-49350000D01*
%TO.N,/Microcontroller Board/SWDCLK*%
X159000000Y-45550000D02*
X158300000Y-46250000D01*
X165350000Y-44600000D02*
X164400000Y-45550000D01*
X164400000Y-45550000D02*
X159000000Y-45550000D01*
X165350000Y-43090000D02*
X165350000Y-44600000D01*
X158300000Y-46250000D02*
X158300000Y-47925000D01*
D74*
%TO.N,Net-(U105-+)*%
X115700000Y-57550000D02*
X117725000Y-57550000D01*
X113950000Y-59300000D02*
X115700000Y-57550000D01*
X112010000Y-59300000D02*
X113950000Y-59300000D01*
X117725000Y-57550000D02*
X117750000Y-57575000D01*
%TO.N,/Microcontroller Board/SIG_AMP_IN1*%
X107450000Y-34800000D02*
X107450000Y-35850000D01*
D73*
X110990000Y-35800000D02*
X107500000Y-35800000D01*
D74*
X99380001Y-34152000D02*
X106802000Y-34152000D01*
X106802000Y-34152000D02*
X107450000Y-34800000D01*
X107450000Y-35850000D02*
X107500000Y-35800000D01*
%TO.N,Net-(U105--)*%
X112260000Y-56250000D02*
X117695000Y-56250000D01*
X117695000Y-56250000D02*
X117750000Y-56305000D01*
X112160000Y-56150000D02*
X112260000Y-56250000D01*
%TO.N,/Microcontroller Board/SIG_AMP_IN2*%
X110940000Y-59300000D02*
X110990000Y-59250000D01*
X107000000Y-57650000D02*
X107500000Y-58150000D01*
X107500000Y-58150000D02*
X107500000Y-59300000D01*
X106454000Y-57650000D02*
X107000000Y-57650000D01*
X106452000Y-57652000D02*
X106454000Y-57650000D01*
X107500000Y-59300000D02*
X110990000Y-59300000D01*
X99330001Y-57652000D02*
X106452000Y-57652000D01*
%TO.N,Net-(U106-+)*%
X112210000Y-81050000D02*
X113000000Y-81050000D01*
X116440000Y-77610000D02*
X117850000Y-77610000D01*
X113000000Y-81050000D02*
X116440000Y-77610000D01*
%TO.N,/Microcontroller Board/SIG_AMP_IN3*%
X107500000Y-81650000D02*
X107500000Y-81050000D01*
X100976000Y-81850000D02*
X107300000Y-81850000D01*
X107500000Y-81050000D02*
X111190000Y-81050000D01*
X99380000Y-80254000D02*
X100976000Y-81850000D01*
X107300000Y-81850000D02*
X107500000Y-81650000D01*
D76*
%TO.N,/Microcontroller Board/BOOT0*%
X149300000Y-46900000D02*
X148800000Y-46400000D01*
X149300000Y-47925000D02*
X149300000Y-46900000D01*
X148800000Y-46400000D02*
X148800000Y-46125000D01*
D74*
%TO.N,/Microcontroller Board/HSE_OUT*%
X143750000Y-55600000D02*
X143300000Y-56050000D01*
X143300000Y-56050000D02*
X139650000Y-56050000D01*
X144625000Y-55600000D02*
X144601000Y-55624000D01*
X139650000Y-56050000D02*
X139100000Y-55500000D01*
X144625000Y-55600000D02*
X143750000Y-55600000D01*
X139100000Y-55500000D02*
X138025000Y-55500000D01*
D73*
%TO.N,/Microcontroller Board/I2C1_SCL*%
X150590000Y-42740000D02*
X150590000Y-43250000D01*
X150590000Y-43660000D02*
X150300000Y-43950000D01*
X150405000Y-42555000D02*
X150590000Y-42740000D01*
X150405000Y-41430000D02*
X150405000Y-42555000D01*
X150300000Y-43950000D02*
X150300000Y-47925000D01*
X150590000Y-43250000D02*
X150590000Y-43660000D01*
%TO.N,/Microcontroller Board/I2C1_SDA*%
X149510000Y-42760000D02*
X149510000Y-43250000D01*
X149797050Y-47922050D02*
X149800000Y-47925000D01*
X149135000Y-41430000D02*
X149135000Y-42385000D01*
X149510000Y-43660000D02*
X149800000Y-43950000D01*
X149800000Y-43950000D02*
X149800000Y-47925000D01*
X149510000Y-43250000D02*
X149510000Y-43660000D01*
X149135000Y-42385000D02*
X149510000Y-42760000D01*
D74*
%TO.N,Net-(U106-SENSE)*%
X122800000Y-77610000D02*
X122800000Y-78880000D01*
D73*
X124987500Y-77610000D02*
X122800000Y-77610000D01*
%TO.N,Net-(U105-SENSE)*%
X124887500Y-57600000D02*
X122725000Y-57600000D01*
X122725000Y-57600000D02*
X122700000Y-57575000D01*
D74*
X122700000Y-57575000D02*
X122700000Y-58845000D01*
%TO.N,Net-(U104-SENSE)*%
X122575000Y-37990000D02*
X122575000Y-39260000D01*
X122575000Y-37990000D02*
X124787500Y-37990000D01*
%TO.N,/Microphone Board/PREAMP_IN*%
X47442500Y-45275000D02*
X47442500Y-43712500D01*
X47442500Y-43712500D02*
X47442500Y-41850000D01*
X45525000Y-45275000D02*
X44800000Y-46000000D01*
X47442500Y-45275000D02*
X45525000Y-45275000D01*
%TO.N,Net-(U106--)*%
X113900000Y-78750000D02*
X116310000Y-76340000D01*
X112210000Y-78750000D02*
X113900000Y-78750000D01*
X116310000Y-76340000D02*
X117850000Y-76340000D01*
D73*
%TO.N,/Microcontroller Board/PB2*%
X154600000Y-88200000D02*
X154600000Y-72794698D01*
X154600000Y-72794698D02*
X151300000Y-69494698D01*
X151300000Y-69494698D02*
X151300000Y-63275000D01*
%TO.N,/Microcontroller Board/PA6*%
X149520000Y-88200000D02*
X150093100Y-87626900D01*
X150093100Y-87626900D02*
X150093100Y-65595751D01*
X150093100Y-65595751D02*
X149004248Y-64506900D01*
X148300000Y-64173948D02*
X148300000Y-63275000D01*
X149004248Y-64506900D02*
X148632952Y-64506900D01*
X148632952Y-64506900D02*
X148300000Y-64173948D01*
%TO.N,/Microcontroller Board/PE10*%
X161699730Y-70799730D02*
X165800000Y-74900000D01*
X169000000Y-74900000D02*
X169820000Y-75720000D01*
X165800000Y-74900000D02*
X169000000Y-74900000D01*
X153300000Y-63275000D02*
X153300000Y-68700000D01*
X155389122Y-70789122D02*
X161699730Y-70789122D01*
X153300000Y-68700000D02*
X155389122Y-70789122D01*
X169820000Y-75720000D02*
X169820000Y-88200000D01*
X161699730Y-70789122D02*
X161699730Y-70799730D01*
%TO.N,/Microcontroller Board/PE11*%
X161903978Y-70296022D02*
X166001055Y-74393100D01*
X166001055Y-74393100D02*
X171793100Y-74393100D01*
X153800000Y-63275000D02*
X153800000Y-68497348D01*
X153800000Y-68497348D02*
X155598674Y-70296022D01*
X172360000Y-74940000D02*
X172360000Y-88200000D01*
X171800000Y-74400000D02*
X171820000Y-74400000D01*
X171793100Y-74393100D02*
X171800000Y-74400000D01*
X155598674Y-70296022D02*
X161903978Y-70296022D01*
X171820000Y-74400000D02*
X172360000Y-74940000D01*
%TO.N,/Microcontroller Board/PE8*%
X164700000Y-88160000D02*
X164740000Y-88200000D01*
X164700000Y-75400000D02*
X164700000Y-88160000D01*
X152300000Y-63275000D02*
X152300000Y-69100000D01*
X161100000Y-71800000D02*
X164700000Y-75400000D01*
X155000000Y-71800000D02*
X161100000Y-71800000D01*
X152300000Y-69100000D02*
X155000000Y-71800000D01*
%TO.N,/Microcontroller Board/PE14*%
X166600000Y-72900000D02*
X173252950Y-72900000D01*
X174800000Y-74447050D02*
X174800000Y-82400000D01*
X156264222Y-68800000D02*
X162500000Y-68800000D01*
X179400000Y-84600000D02*
X179980000Y-85180000D01*
X155300000Y-63275000D02*
X155300000Y-67835778D01*
X177000000Y-84600000D02*
X179400000Y-84600000D01*
X179980000Y-85180000D02*
X179980000Y-88200000D01*
X174800000Y-82400000D02*
X177000000Y-84600000D01*
X162500000Y-68800000D02*
X166600000Y-72900000D01*
X173252950Y-72900000D02*
X174800000Y-74447050D01*
X155300000Y-67835778D02*
X156264222Y-68800000D01*
%TO.N,/Microcontroller Board/PE13*%
X166402652Y-73400000D02*
X173055602Y-73400000D01*
X173055602Y-73400000D02*
X174306900Y-74651298D01*
X154800000Y-63275000D02*
X154800000Y-68100000D01*
X174306900Y-82606900D02*
X177440000Y-85740000D01*
X154800000Y-68100000D02*
X155998674Y-69298674D01*
X174306900Y-74651298D02*
X174306900Y-82606900D01*
X177440000Y-85740000D02*
X177440000Y-88200000D01*
X162301326Y-69298674D02*
X166402652Y-73400000D01*
X155998674Y-69298674D02*
X162301326Y-69298674D01*
%TO.N,/Microcontroller Board/PE12*%
X172858254Y-73900000D02*
X173813800Y-74855546D01*
X173813800Y-74855546D02*
X173813800Y-82813800D01*
X166205304Y-73900000D02*
X172858254Y-73900000D01*
X154300000Y-68300000D02*
X155791774Y-69791774D01*
X173813800Y-82813800D02*
X174900000Y-83900000D01*
X174900000Y-83900000D02*
X174900000Y-88200000D01*
X154300000Y-63275000D02*
X154300000Y-68300000D01*
X162097078Y-69791774D02*
X166205304Y-73900000D01*
X155791774Y-69791774D02*
X162097078Y-69791774D01*
%TO.N,/Microcontroller Board/PB1*%
X153200000Y-87060000D02*
X152060000Y-88200000D01*
X153200000Y-72100000D02*
X153200000Y-87060000D01*
X150800000Y-63275000D02*
X150800000Y-69700000D01*
X150800000Y-69700000D02*
X153200000Y-72100000D01*
%TO.N,/Microcontroller Board/PA5*%
X149600000Y-68000000D02*
X147000000Y-70600000D01*
X148100000Y-65000000D02*
X148800000Y-65000000D01*
X147800000Y-64700000D02*
X148100000Y-65000000D01*
X147000000Y-84100000D02*
X146980000Y-84120000D01*
X149600000Y-65800000D02*
X149600000Y-68000000D01*
X146980000Y-84120000D02*
X146980000Y-88200000D01*
X148800000Y-65000000D02*
X149600000Y-65800000D01*
X147800000Y-63275000D02*
X147800000Y-64700000D01*
X147000000Y-70600000D02*
X147000000Y-84100000D01*
%TO.N,/Microcontroller Board/PE9*%
X152800000Y-68897348D02*
X155202651Y-71300000D01*
X167280000Y-75980000D02*
X167280000Y-88200000D01*
X155202651Y-71300000D02*
X161502652Y-71300000D01*
X161502652Y-71300000D02*
X165602651Y-75400000D01*
X166700000Y-75400000D02*
X167280000Y-75980000D01*
X165602651Y-75400000D02*
X166700000Y-75400000D01*
X152800000Y-63275000D02*
X152800000Y-68897348D01*
%TO.N,/Microcontroller Board/PE7*%
X160900000Y-72300000D02*
X162200000Y-73600000D01*
X151800000Y-63275000D02*
X151800000Y-69297349D01*
X151800000Y-69297349D02*
X154802652Y-72300000D01*
X154802652Y-72300000D02*
X160900000Y-72300000D01*
X162200000Y-73600000D02*
X162200000Y-88200000D01*
%TO.N,/Microcontroller Board/PD5*%
X154200000Y-32000000D02*
X154200000Y-31430000D01*
X153300000Y-44899594D02*
X152767073Y-44366667D01*
X153300000Y-47925000D02*
X153300000Y-44899594D01*
X155265000Y-30365000D02*
X155265000Y-27000000D01*
X154200000Y-31430000D02*
X155265000Y-30365000D01*
%TO.N,/Microcontroller Board/PD1*%
X165425000Y-31325000D02*
X165425000Y-27000000D01*
X155296000Y-46613041D02*
X155296000Y-43804000D01*
X164650000Y-32100000D02*
X159300000Y-32100000D01*
D76*
X155300000Y-46617042D02*
X155296000Y-46613041D01*
D73*
X155300000Y-47925000D02*
X155300000Y-46617042D01*
X155296000Y-43804000D02*
X157400000Y-41700000D01*
X157300000Y-34100000D02*
X159300000Y-32100000D01*
X165425000Y-31325000D02*
X164650000Y-32100000D01*
%TO.N,/Microcontroller Board/PD4*%
X157800000Y-29600000D02*
X157800000Y-28300000D01*
X153800000Y-47925000D02*
X153800000Y-44134793D01*
X157805000Y-28295000D02*
X157805000Y-27000000D01*
X157800000Y-28300000D02*
X157805000Y-28295000D01*
X153800000Y-44134793D02*
X153328255Y-43663048D01*
X155100000Y-32300000D02*
X157800000Y-29600000D01*
%TO.N,/Microcontroller Board/PC10*%
X170700000Y-29800000D02*
X171500000Y-29000000D01*
X157300000Y-45600000D02*
X158600000Y-44300000D01*
X157300000Y-45900000D02*
X157300000Y-45600000D01*
X169200000Y-34700000D02*
X170700000Y-33200000D01*
X158946053Y-43953947D02*
X159800000Y-43953947D01*
X157300000Y-45744415D02*
X157300000Y-45900000D01*
X174900000Y-29000000D02*
X175585000Y-28315000D01*
X175585000Y-28315000D02*
X175585000Y-27000000D01*
X158600000Y-44300000D02*
X158946053Y-43953947D01*
X170700000Y-33200000D02*
X170700000Y-29800000D01*
X171500000Y-29000000D02*
X174900000Y-29000000D01*
X157300000Y-45900000D02*
X157300000Y-47925000D01*
%TO.N,/Microcontroller Board/PD0*%
X167965000Y-32335000D02*
X167500000Y-32800000D01*
X155800000Y-47925000D02*
X155800000Y-46408521D01*
X167500000Y-32800000D02*
X161200000Y-32800000D01*
X155797000Y-44403000D02*
X158400000Y-41800000D01*
X161200000Y-32800000D02*
X160900000Y-33100000D01*
X167965000Y-27000000D02*
X167965000Y-32335000D01*
X155797000Y-46405521D02*
X155797000Y-44403000D01*
D76*
X155800000Y-46408521D02*
X155797000Y-46405521D01*
D73*
X160900000Y-33100000D02*
X160900000Y-34800000D01*
%TO.N,/Microcontroller Board/PD3*%
X159600000Y-30800000D02*
X160345000Y-30055000D01*
X158000000Y-30800000D02*
X159600000Y-30800000D01*
X154309144Y-43390856D02*
X154300000Y-43400000D01*
X154300000Y-43400000D02*
X154300000Y-47925000D01*
X156000000Y-32800000D02*
X158000000Y-30800000D01*
X154309144Y-43109144D02*
X154309144Y-43390856D01*
X160345000Y-30055000D02*
X160345000Y-27000000D01*
%TO.N,/Microcontroller Board/PB3*%
X149305866Y-51213534D02*
X151086466Y-51213534D01*
X151086466Y-51213534D02*
X151800000Y-50500000D01*
X143600000Y-28035000D02*
X142565000Y-27000000D01*
X151800000Y-50500000D02*
X151800000Y-47925000D01*
X142266750Y-47033250D02*
X142266750Y-42133250D01*
X140400000Y-48900000D02*
X142266750Y-47033250D01*
X143600000Y-40800000D02*
X143600000Y-28035000D01*
X142266750Y-42133250D02*
X143600000Y-40800000D01*
%TO.N,/Microcontroller Board/PD2*%
X156702950Y-41699702D02*
X156702950Y-40797050D01*
X162500000Y-31500000D02*
X162900000Y-31100000D01*
X162900000Y-31100000D02*
X162885000Y-31085000D01*
X154800000Y-43602652D02*
X156702950Y-41699702D01*
X156500000Y-33600000D02*
X158600000Y-31500000D01*
X162885000Y-31085000D02*
X162885000Y-27000000D01*
X156702950Y-40797050D02*
X156800000Y-40700000D01*
X154800000Y-47925000D02*
X154800000Y-43602652D01*
X158600000Y-31500000D02*
X162500000Y-31500000D01*
%TO.N,/Microcontroller Board/PB5*%
X148800000Y-49500000D02*
X150123948Y-49500000D01*
X143252950Y-42647050D02*
X147645000Y-38255000D01*
X142500000Y-48900000D02*
X143252950Y-48147050D01*
X143252950Y-48147050D02*
X143252950Y-42647050D01*
X150800000Y-48823948D02*
X150800000Y-47925000D01*
X150123948Y-49500000D02*
X150800000Y-48823948D01*
X147645000Y-38255000D02*
X147645000Y-27000000D01*
%TO.N,/Microcontroller Board/PC12*%
X163300000Y-33900000D02*
X163700000Y-33500000D01*
X156298000Y-44902000D02*
X158600000Y-42600000D01*
X168700000Y-28805000D02*
X170505000Y-27000000D01*
X156298000Y-46015040D02*
X156298000Y-45100000D01*
X158600000Y-42600000D02*
X159046059Y-42153941D01*
X163300000Y-34800000D02*
X163300000Y-33900000D01*
D76*
X156300000Y-45900000D02*
X156300000Y-46200000D01*
X156300000Y-46200000D02*
X156300000Y-46017041D01*
D73*
X168700000Y-32600000D02*
X168700000Y-28805000D01*
X167800000Y-33500000D02*
X168700000Y-32600000D01*
X156298000Y-45100000D02*
X156298000Y-44902000D01*
X163700000Y-33500000D02*
X167800000Y-33500000D01*
X156300000Y-47925000D02*
X156300000Y-45900000D01*
X159046059Y-42153941D02*
X159800000Y-42153941D01*
D76*
X156300000Y-46017041D02*
X156298000Y-46015040D01*
D73*
%TO.N,/Microcontroller Board/PC11*%
X169500000Y-32800000D02*
X167500000Y-34800000D01*
X169500000Y-29700000D02*
X169500000Y-32800000D01*
X171645000Y-28400000D02*
X170800000Y-28400000D01*
X170800000Y-28400000D02*
X169500000Y-29700000D01*
X156799000Y-45301000D02*
X158600000Y-43500000D01*
X156799000Y-45400000D02*
X156799000Y-45301000D01*
X173045000Y-27000000D02*
X171645000Y-28400000D01*
X158600000Y-43500000D02*
X159046056Y-43053944D01*
X159046056Y-43053944D02*
X159800000Y-43053944D01*
D76*
X156800000Y-45808520D02*
X156799000Y-45807520D01*
D73*
X156800000Y-47925000D02*
X156800000Y-45808520D01*
X167500000Y-34800000D02*
X166000000Y-34800000D01*
X156799000Y-45807520D02*
X156799000Y-45400000D01*
%TO.N,/Microcontroller Board/PA15*%
X172900000Y-40400000D02*
X172900000Y-31500000D01*
X178125000Y-28375000D02*
X178125000Y-27000000D01*
X170000000Y-41900000D02*
X171400000Y-41900000D01*
X171400000Y-41900000D02*
X172900000Y-40400000D01*
X157800000Y-46000000D02*
X157800000Y-47925000D01*
X168700000Y-43200000D02*
X170000000Y-41900000D01*
X174100000Y-30300000D02*
X176200000Y-30300000D01*
X158946050Y-44853950D02*
X157800000Y-46000000D01*
X172900000Y-31500000D02*
X174100000Y-30300000D01*
X159800000Y-44853950D02*
X158946050Y-44853950D01*
X176200000Y-30300000D02*
X178125000Y-28375000D01*
%TO.N,/Microcontroller Board/PB4*%
X150512243Y-50387757D02*
X151300000Y-49600000D01*
X151300000Y-49600000D02*
X151300000Y-47925000D01*
X142759850Y-47640150D02*
X142759850Y-42440150D01*
X148947959Y-50387757D02*
X150512243Y-50387757D01*
X141599997Y-48800003D02*
X142759850Y-47640150D01*
X142759850Y-42440150D02*
X145105000Y-40095000D01*
X145105000Y-40095000D02*
X145105000Y-27000000D01*
X141599997Y-48900000D02*
X141599997Y-48800003D01*
D72*
%TO.N,Net-(D202-K)*%
X28712500Y-40800000D02*
X28712500Y-42500000D01*
%TD*%
%TA.AperFunction,Conductor*%
%TO.N,GND*%
G36*
X142186375Y-57845185D02*
G01*
X142207017Y-57861819D01*
X142560000Y-58214802D01*
X143082402Y-58214802D01*
X143149441Y-58234487D01*
X143170083Y-58251121D01*
X143319437Y-58400475D01*
X143338000Y-58411192D01*
X143386214Y-58461757D01*
X143400000Y-58518579D01*
X143400000Y-58825604D01*
X143391355Y-58855044D01*
X143384832Y-58885031D01*
X143381077Y-58890046D01*
X143380315Y-58892643D01*
X143363681Y-58913285D01*
X143296319Y-58980647D01*
X143234996Y-59014132D01*
X143208638Y-59016966D01*
X140213526Y-59016966D01*
X140146487Y-58997281D01*
X140125845Y-58980647D01*
X139936319Y-58791121D01*
X139902834Y-58729798D01*
X139900000Y-58703440D01*
X139900000Y-58106164D01*
X139908644Y-58076723D01*
X139915168Y-58046737D01*
X139918922Y-58041721D01*
X139919685Y-58039125D01*
X139936319Y-58018483D01*
X140092983Y-57861819D01*
X140154306Y-57828334D01*
X140180664Y-57825500D01*
X142119336Y-57825500D01*
X142186375Y-57845185D01*
G37*
%TD.AperFunction*%
%TD*%
%TA.AperFunction,Conductor*%
%TO.N,GND_MIC*%
G36*
X36016975Y-33000382D02*
G01*
X36018475Y-33000499D01*
X36018481Y-33000500D01*
X37106518Y-33000499D01*
X37106522Y-33000499D01*
X37108010Y-33000382D01*
X37117733Y-33000000D01*
X37141013Y-33000000D01*
X37208052Y-33019685D01*
X37228694Y-33036319D01*
X37356056Y-33163681D01*
X37389541Y-33225004D01*
X37392375Y-33251362D01*
X37392375Y-33548638D01*
X37372690Y-33615677D01*
X37356056Y-33636319D01*
X37228694Y-33763681D01*
X37201766Y-33778384D01*
X37175948Y-33794977D01*
X37169747Y-33795868D01*
X37167371Y-33797166D01*
X37141013Y-33800000D01*
X37117748Y-33800000D01*
X37108025Y-33799618D01*
X37106524Y-33799500D01*
X36018477Y-33799500D01*
X36016990Y-33799618D01*
X36007267Y-33800000D01*
X34500000Y-33800000D01*
X34493039Y-33252281D01*
X34501513Y-33222002D01*
X34508197Y-33191280D01*
X34511255Y-33187194D01*
X34511870Y-33184999D01*
X34529340Y-33163034D01*
X34656058Y-33036316D01*
X34717379Y-33002834D01*
X34743737Y-33000000D01*
X36007252Y-33000000D01*
X36016975Y-33000382D01*
G37*
%TD.AperFunction*%
%TD*%
%TA.AperFunction,Conductor*%
%TO.N,/Microphone Board/BAT_SW_OUT*%
G36*
X37215677Y-31319685D02*
G01*
X37236319Y-31336319D01*
X37463681Y-31563681D01*
X37497166Y-31625004D01*
X37500000Y-31651362D01*
X37500000Y-32548638D01*
X37491355Y-32578077D01*
X37484832Y-32608065D01*
X37481077Y-32613080D01*
X37480315Y-32615677D01*
X37463681Y-32636320D01*
X37367178Y-32732822D01*
X37305854Y-32766306D01*
X37244564Y-32764118D01*
X37212999Y-32754850D01*
X37212991Y-32754848D01*
X37141014Y-32744500D01*
X37141013Y-32744500D01*
X37117733Y-32744500D01*
X37117731Y-32744500D01*
X37107693Y-32744697D01*
X37103123Y-32744876D01*
X37102458Y-32744903D01*
X37097590Y-32744999D01*
X36027418Y-32744999D01*
X36022570Y-32744904D01*
X36017291Y-32744697D01*
X36008255Y-32744519D01*
X36007252Y-32744500D01*
X34743737Y-32744500D01*
X34743736Y-32744500D01*
X34716440Y-32745963D01*
X34716435Y-32745963D01*
X34716423Y-32745964D01*
X34716415Y-32745964D01*
X34716386Y-32745967D01*
X34690065Y-32748797D01*
X34594935Y-32778584D01*
X34594933Y-32778584D01*
X34533615Y-32812065D01*
X34475397Y-32855645D01*
X34475381Y-32855659D01*
X34441237Y-32889803D01*
X34379913Y-32923288D01*
X34356158Y-32926094D01*
X34169999Y-32929999D01*
X33736319Y-33363681D01*
X33674996Y-33397166D01*
X33648638Y-33400000D01*
X28851362Y-33400000D01*
X28784323Y-33380315D01*
X28763681Y-33363681D01*
X28436319Y-33036319D01*
X28402834Y-32974996D01*
X28400000Y-32948638D01*
X28400000Y-31751362D01*
X28419685Y-31684323D01*
X28436319Y-31663681D01*
X28763681Y-31336319D01*
X28825004Y-31302834D01*
X28851362Y-31300000D01*
X37148638Y-31300000D01*
X37215677Y-31319685D01*
G37*
%TD.AperFunction*%
%TD*%
%TA.AperFunction,Conductor*%
%TO.N,+3.3V*%
G36*
X153515677Y-40269685D02*
G01*
X153536319Y-40286319D01*
X153703681Y-40453681D01*
X153737166Y-40515004D01*
X153740000Y-40541362D01*
X153740000Y-41155000D01*
X153822836Y-41237836D01*
X154736474Y-41237836D01*
X154765914Y-41246480D01*
X154795901Y-41253004D01*
X154800916Y-41256758D01*
X154803513Y-41257521D01*
X154824155Y-41274155D01*
X154963681Y-41413681D01*
X154997166Y-41475004D01*
X155000000Y-41501362D01*
X155000000Y-42233638D01*
X154980315Y-42300677D01*
X154963681Y-42321319D01*
X154771319Y-42513681D01*
X154709996Y-42547166D01*
X154683638Y-42550000D01*
X154558868Y-42550000D01*
X154526777Y-42545775D01*
X154388201Y-42508644D01*
X154230087Y-42508644D01*
X154091510Y-42545775D01*
X154059420Y-42550000D01*
X152651362Y-42550000D01*
X152584323Y-42530315D01*
X152563681Y-42513681D01*
X152336319Y-42286319D01*
X152302834Y-42224996D01*
X152300000Y-42198638D01*
X152300000Y-40701362D01*
X152319685Y-40634323D01*
X152336319Y-40613681D01*
X152663681Y-40286319D01*
X152725004Y-40252834D01*
X152751362Y-40250000D01*
X153448638Y-40250000D01*
X153515677Y-40269685D01*
G37*
%TD.AperFunction*%
%TD*%
%TA.AperFunction,Conductor*%
%TO.N,+3.3VA*%
G36*
X55615677Y-36319685D02*
G01*
X55636319Y-36336319D01*
X55763681Y-36463681D01*
X55797166Y-36525004D01*
X55800000Y-36551362D01*
X55800000Y-38304235D01*
X55780315Y-38371274D01*
X55763681Y-38391916D01*
X55757993Y-38397603D01*
X55757990Y-38397608D01*
X55757989Y-38397609D01*
X55739269Y-38434347D01*
X55701829Y-38507827D01*
X55701829Y-38507828D01*
X55687348Y-38599264D01*
X55687348Y-39000739D01*
X55701829Y-39092170D01*
X55701829Y-39092171D01*
X55701830Y-39092174D01*
X55701831Y-39092175D01*
X55757989Y-39202391D01*
X55763679Y-39208081D01*
X55797165Y-39269401D01*
X55800000Y-39295764D01*
X55800000Y-39500000D01*
X56063681Y-39763681D01*
X56097166Y-39825004D01*
X56100000Y-39851362D01*
X56100000Y-41048638D01*
X56080315Y-41115677D01*
X56063681Y-41136319D01*
X55836319Y-41363681D01*
X55774996Y-41397166D01*
X55748638Y-41400000D01*
X54951362Y-41400000D01*
X54884323Y-41380315D01*
X54863681Y-41363681D01*
X54536319Y-41036319D01*
X54502834Y-40974996D01*
X54500000Y-40948638D01*
X54500000Y-36751362D01*
X54519685Y-36684323D01*
X54536319Y-36663681D01*
X54788181Y-36411819D01*
X54849504Y-36378334D01*
X54875862Y-36375500D01*
X55049435Y-36375500D01*
X55049436Y-36375500D01*
X55097186Y-36362705D01*
X55144938Y-36349910D01*
X55208832Y-36313020D01*
X55215422Y-36310173D01*
X55236150Y-36307625D01*
X55264609Y-36300000D01*
X55548638Y-36300000D01*
X55615677Y-36319685D01*
G37*
%TD.AperFunction*%
%TD*%
%TA.AperFunction,Conductor*%
%TO.N,+3.3V*%
G36*
X126867680Y-75250185D02*
G01*
X126913435Y-75302989D01*
X126914939Y-75306417D01*
X126972277Y-75442715D01*
X126980369Y-75470884D01*
X127007053Y-75634882D01*
X127008549Y-75649487D01*
X127021516Y-75952050D01*
X127021309Y-75966279D01*
X127014075Y-76066584D01*
X127008797Y-76094504D01*
X126981053Y-76183672D01*
X126969559Y-76209656D01*
X126923429Y-76288155D01*
X126903087Y-76314115D01*
X126844155Y-76371574D01*
X126813621Y-76393409D01*
X126742284Y-76429543D01*
X126706619Y-76441240D01*
X126618325Y-76455941D01*
X126599576Y-76457614D01*
X125279930Y-76474827D01*
X124500001Y-76484999D01*
X124499999Y-76485000D01*
X124355802Y-76660440D01*
X124343224Y-76673633D01*
X124254944Y-76753547D01*
X124224702Y-76773732D01*
X124125394Y-76820656D01*
X124090599Y-76831202D01*
X123972808Y-76848660D01*
X123954628Y-76850000D01*
X122228872Y-76850000D01*
X122214625Y-76849179D01*
X122020102Y-76826680D01*
X121992360Y-76820175D01*
X121818979Y-76757778D01*
X121786433Y-76740202D01*
X121714607Y-76686179D01*
X121683912Y-76652675D01*
X121638698Y-76580140D01*
X121622134Y-76537829D01*
X121603899Y-76442426D01*
X121601696Y-76419719D01*
X121601335Y-76341011D01*
X121602334Y-76324727D01*
X121607007Y-76288155D01*
X121621793Y-76172426D01*
X121630120Y-76140960D01*
X121685419Y-76006587D01*
X121701648Y-75978377D01*
X121789950Y-75863117D01*
X121813135Y-75839972D01*
X121928150Y-75752171D01*
X121956792Y-75735825D01*
X122090782Y-75681492D01*
X122122712Y-75673276D01*
X122274598Y-75655198D01*
X122291083Y-75654344D01*
X124110087Y-75681494D01*
X124199998Y-75682836D01*
X124199998Y-75682835D01*
X124200000Y-75682836D01*
X124200001Y-75682834D01*
X124212649Y-75678095D01*
X124282333Y-75673000D01*
X124313643Y-75684333D01*
X124329502Y-75692629D01*
X124396541Y-75712314D01*
X124396545Y-75712314D01*
X124396547Y-75712315D01*
X124408178Y-75713987D01*
X124468526Y-75722664D01*
X124468527Y-75722664D01*
X125131475Y-75722664D01*
X125132911Y-75722586D01*
X125158788Y-75721200D01*
X125185146Y-75718366D01*
X125280280Y-75688577D01*
X125341603Y-75655092D01*
X125399821Y-75611511D01*
X125444347Y-75566985D01*
X125462626Y-75546635D01*
X125479260Y-75525993D01*
X125479289Y-75525957D01*
X125479294Y-75525947D01*
X125482627Y-75520860D01*
X125482881Y-75521026D01*
X125487562Y-75513595D01*
X125489354Y-75511202D01*
X125494706Y-75503781D01*
X125513706Y-75460128D01*
X125525479Y-75437612D01*
X125526241Y-75435015D01*
X125524819Y-75434597D01*
X125534493Y-75412373D01*
X125538021Y-75396149D01*
X125571500Y-75334829D01*
X125639514Y-75266815D01*
X125700835Y-75233334D01*
X125727192Y-75230500D01*
X126800641Y-75230500D01*
X126867680Y-75250185D01*
G37*
%TD.AperFunction*%
%TD*%
%TA.AperFunction,Conductor*%
%TO.N,GND_MIC*%
G36*
X51605039Y-35619685D02*
G01*
X51637200Y-35649600D01*
X51797908Y-35863878D01*
X51875200Y-35966933D01*
X51899676Y-36032375D01*
X51900000Y-36041333D01*
X51900000Y-37426169D01*
X51896152Y-37439272D01*
X51897085Y-37452898D01*
X51886501Y-37472140D01*
X51880315Y-37493208D01*
X51869279Y-37503450D01*
X51863412Y-37514119D01*
X51835093Y-37535183D01*
X51632353Y-37645082D01*
X51573260Y-37660068D01*
X51135295Y-37660068D01*
X51077628Y-37645843D01*
X51076179Y-37645082D01*
X51060488Y-37636839D01*
X50866333Y-37534845D01*
X50816139Y-37486241D01*
X50800000Y-37425070D01*
X50800000Y-37200000D01*
X50600000Y-37000000D01*
X49062000Y-37000000D01*
X48994961Y-36980315D01*
X48962800Y-36950400D01*
X48724800Y-36633066D01*
X48700324Y-36567624D01*
X48700000Y-36558666D01*
X48700000Y-35970207D01*
X48719685Y-35903168D01*
X48760203Y-35863878D01*
X49167192Y-35619685D01*
X49170548Y-35617670D01*
X49234345Y-35600000D01*
X51538000Y-35600000D01*
X51605039Y-35619685D01*
G37*
%TD.AperFunction*%
%TD*%
%TA.AperFunction,Conductor*%
%TO.N,GND*%
G36*
X160415677Y-35596425D02*
G01*
X160436319Y-35613059D01*
X160763681Y-35940421D01*
X160797166Y-36001744D01*
X160800000Y-36028102D01*
X160800000Y-37825378D01*
X160780315Y-37892417D01*
X160763681Y-37913059D01*
X160186319Y-38490421D01*
X160124996Y-38523906D01*
X160098638Y-38526740D01*
X157401362Y-38526740D01*
X157334323Y-38507055D01*
X157313681Y-38490421D01*
X157036319Y-38213059D01*
X157002834Y-38151736D01*
X157000000Y-38125378D01*
X157000000Y-36028102D01*
X157019685Y-35961063D01*
X157036319Y-35940421D01*
X157363681Y-35613059D01*
X157425004Y-35579574D01*
X157451362Y-35576740D01*
X160348638Y-35576740D01*
X160415677Y-35596425D01*
G37*
%TD.AperFunction*%
%TD*%
%TA.AperFunction,Conductor*%
%TO.N,GND*%
G36*
X185615677Y-46769685D02*
G01*
X185636319Y-46786319D01*
X185963681Y-47113681D01*
X185997166Y-47175004D01*
X186000000Y-47201362D01*
X186000000Y-48450000D01*
X186200000Y-48650000D01*
X186334417Y-48650000D01*
X186401456Y-48669685D01*
X186403260Y-48670866D01*
X186439505Y-48695084D01*
X186439507Y-48695085D01*
X186439511Y-48695087D01*
X186576082Y-48751656D01*
X186576087Y-48751658D01*
X186576091Y-48751658D01*
X186576092Y-48751659D01*
X186721079Y-48780500D01*
X187276000Y-48780500D01*
X187284685Y-48783050D01*
X187293647Y-48781762D01*
X187317687Y-48792740D01*
X187343039Y-48800185D01*
X187348966Y-48807025D01*
X187357203Y-48810787D01*
X187371492Y-48833021D01*
X187388794Y-48852989D01*
X187391081Y-48863503D01*
X187394977Y-48869565D01*
X187400000Y-48904500D01*
X187400000Y-49007401D01*
X187380315Y-49074440D01*
X187379102Y-49076292D01*
X187320692Y-49163707D01*
X187320685Y-49163720D01*
X187275441Y-49272952D01*
X187231600Y-49327356D01*
X187165306Y-49349421D01*
X187160880Y-49349500D01*
X185680324Y-49349500D01*
X185607261Y-49364033D01*
X185597530Y-49370535D01*
X185585454Y-49378603D01*
X185518778Y-49399480D01*
X185516566Y-49399500D01*
X185059198Y-49399500D01*
X184992159Y-49379815D01*
X184962370Y-49352962D01*
X184327672Y-48559590D01*
X184301164Y-48494944D01*
X184300500Y-48482128D01*
X184300500Y-48079815D01*
X184300000Y-48072185D01*
X184300000Y-47101362D01*
X184319685Y-47034323D01*
X184336319Y-47013681D01*
X184563681Y-46786319D01*
X184625004Y-46752834D01*
X184651362Y-46750000D01*
X185548638Y-46750000D01*
X185615677Y-46769685D01*
G37*
%TD.AperFunction*%
%TD*%
%TA.AperFunction,Conductor*%
%TO.N,/Microphone Board/CON_OUT*%
G36*
X30515677Y-33819685D02*
G01*
X30536319Y-33836319D01*
X30863681Y-34163681D01*
X30897166Y-34225004D01*
X30900000Y-34251362D01*
X30900000Y-35848638D01*
X30891355Y-35878078D01*
X30884832Y-35908065D01*
X30881077Y-35913080D01*
X30880315Y-35915677D01*
X30863685Y-35936314D01*
X30800000Y-36000000D01*
X30739422Y-36060578D01*
X30678099Y-36094062D01*
X30650211Y-36096887D01*
X22850463Y-36000622D01*
X22783671Y-35980111D01*
X22764312Y-35964312D01*
X22436319Y-35636319D01*
X22402834Y-35574996D01*
X22400000Y-35548638D01*
X22400000Y-34251362D01*
X22419685Y-34184323D01*
X22436319Y-34163681D01*
X22763681Y-33836319D01*
X22825004Y-33802834D01*
X22851362Y-33800000D01*
X30448638Y-33800000D01*
X30515677Y-33819685D01*
G37*
%TD.AperFunction*%
%TD*%
%TA.AperFunction,Conductor*%
%TO.N,+3.3V*%
G36*
X126767680Y-55250185D02*
G01*
X126813435Y-55302989D01*
X126814939Y-55306417D01*
X126872277Y-55442715D01*
X126880369Y-55470884D01*
X126907053Y-55634882D01*
X126908549Y-55649487D01*
X126921516Y-55952050D01*
X126921309Y-55966279D01*
X126914075Y-56066584D01*
X126908797Y-56094504D01*
X126881053Y-56183672D01*
X126869559Y-56209656D01*
X126823429Y-56288155D01*
X126803087Y-56314115D01*
X126744155Y-56371574D01*
X126713621Y-56393409D01*
X126642284Y-56429543D01*
X126606619Y-56441240D01*
X126518325Y-56455941D01*
X126499576Y-56457614D01*
X125179930Y-56474827D01*
X124400001Y-56484999D01*
X124399999Y-56485000D01*
X124255802Y-56660440D01*
X124243224Y-56673633D01*
X124154944Y-56753547D01*
X124124702Y-56773732D01*
X124025394Y-56820656D01*
X123990599Y-56831202D01*
X123872808Y-56848660D01*
X123854628Y-56850000D01*
X122128872Y-56850000D01*
X122114625Y-56849179D01*
X121920102Y-56826680D01*
X121892360Y-56820175D01*
X121718979Y-56757778D01*
X121686433Y-56740202D01*
X121614607Y-56686179D01*
X121583912Y-56652675D01*
X121538698Y-56580140D01*
X121522134Y-56537829D01*
X121503899Y-56442426D01*
X121501696Y-56419719D01*
X121501335Y-56341011D01*
X121502334Y-56324727D01*
X121507007Y-56288155D01*
X121521793Y-56172426D01*
X121530120Y-56140960D01*
X121585419Y-56006587D01*
X121601648Y-55978377D01*
X121689950Y-55863117D01*
X121713135Y-55839972D01*
X121828150Y-55752171D01*
X121856792Y-55735825D01*
X121990782Y-55681492D01*
X122022712Y-55673276D01*
X122174598Y-55655198D01*
X122191083Y-55654344D01*
X124082321Y-55682572D01*
X124123653Y-55690922D01*
X124123656Y-55690913D01*
X124123767Y-55690945D01*
X124126902Y-55691579D01*
X124129507Y-55692631D01*
X124175801Y-55706224D01*
X124196541Y-55712314D01*
X124196545Y-55712314D01*
X124196547Y-55712315D01*
X124208178Y-55713987D01*
X124268526Y-55722664D01*
X124268527Y-55722664D01*
X124931475Y-55722664D01*
X124932911Y-55722586D01*
X124958788Y-55721200D01*
X124985146Y-55718366D01*
X125080280Y-55688577D01*
X125141603Y-55655092D01*
X125199821Y-55611511D01*
X125244347Y-55566985D01*
X125262626Y-55546635D01*
X125279260Y-55525993D01*
X125279289Y-55525957D01*
X125279294Y-55525947D01*
X125282627Y-55520860D01*
X125282881Y-55521026D01*
X125287562Y-55513595D01*
X125289354Y-55511202D01*
X125294706Y-55503781D01*
X125306798Y-55475999D01*
X125337462Y-55433391D01*
X125489369Y-55296447D01*
X125501205Y-55287022D01*
X125528312Y-55268021D01*
X125549800Y-55252960D01*
X125615995Y-55230600D01*
X125620973Y-55230500D01*
X126700641Y-55230500D01*
X126767680Y-55250185D01*
G37*
%TD.AperFunction*%
%TD*%
%TA.AperFunction,Conductor*%
%TO.N,GND*%
G36*
X126715677Y-53269685D02*
G01*
X126736319Y-53286319D01*
X127063681Y-53613681D01*
X127097166Y-53675004D01*
X127100000Y-53701362D01*
X127100000Y-54653638D01*
X127080315Y-54720677D01*
X127063681Y-54741319D01*
X126866319Y-54938681D01*
X126804996Y-54972166D01*
X126778638Y-54975000D01*
X125369999Y-54975000D01*
X125100000Y-55244999D01*
X125100000Y-55298638D01*
X125091355Y-55328078D01*
X125084832Y-55358065D01*
X125081077Y-55363080D01*
X125080315Y-55365677D01*
X125063681Y-55386319D01*
X125019155Y-55430845D01*
X124957832Y-55464330D01*
X124931474Y-55467164D01*
X124268526Y-55467164D01*
X124201487Y-55447479D01*
X124180845Y-55430845D01*
X124036319Y-55286319D01*
X124002834Y-55224996D01*
X124000000Y-55198638D01*
X124000000Y-53701362D01*
X124019685Y-53634323D01*
X124036319Y-53613681D01*
X124363681Y-53286319D01*
X124425004Y-53252834D01*
X124451362Y-53250000D01*
X126648638Y-53250000D01*
X126715677Y-53269685D01*
G37*
%TD.AperFunction*%
%TD*%
%TA.AperFunction,Conductor*%
%TO.N,+3.3VA*%
G36*
X50525908Y-37600229D02*
G01*
X50526693Y-37600010D01*
X50559373Y-37610055D01*
X50592166Y-37619685D01*
X50592850Y-37620346D01*
X50593479Y-37620540D01*
X50619858Y-37643987D01*
X50623709Y-37648546D01*
X50638404Y-37669791D01*
X50656242Y-37687064D01*
X50660249Y-37691808D01*
X50668692Y-37703038D01*
X50800000Y-37900000D01*
X51026071Y-37900000D01*
X51055767Y-37903608D01*
X51074104Y-37908132D01*
X51074105Y-37908132D01*
X51074109Y-37908133D01*
X51116251Y-37913253D01*
X51135295Y-37915568D01*
X51135300Y-37915568D01*
X51573259Y-37915568D01*
X51573260Y-37915568D01*
X51636067Y-37907728D01*
X51636075Y-37907726D01*
X51651537Y-37903805D01*
X51682019Y-37900000D01*
X51748638Y-37900000D01*
X51815677Y-37919685D01*
X51836319Y-37936319D01*
X51963681Y-38063681D01*
X51997166Y-38125004D01*
X52000000Y-38151362D01*
X52000000Y-38548638D01*
X51980315Y-38615677D01*
X51963681Y-38636319D01*
X51736319Y-38863681D01*
X51674996Y-38897166D01*
X51648638Y-38900000D01*
X50799999Y-38900000D01*
X50600000Y-39099999D01*
X50600000Y-40148638D01*
X50591355Y-40178078D01*
X50584832Y-40208065D01*
X50581077Y-40213080D01*
X50580315Y-40215677D01*
X50563681Y-40236319D01*
X50436319Y-40363681D01*
X50374996Y-40397166D01*
X50348638Y-40400000D01*
X49232400Y-40400000D01*
X49165361Y-40380315D01*
X49144719Y-40363681D01*
X48936319Y-40155281D01*
X48902834Y-40093958D01*
X48900000Y-40067600D01*
X48900000Y-37851362D01*
X48919685Y-37784323D01*
X48936319Y-37763681D01*
X49063681Y-37636319D01*
X49125004Y-37602834D01*
X49151362Y-37600000D01*
X50525127Y-37600000D01*
X50525908Y-37600229D01*
G37*
%TD.AperFunction*%
%TD*%
%TA.AperFunction,Conductor*%
%TO.N,GND*%
G36*
X126815677Y-33521679D02*
G01*
X126836319Y-33538313D01*
X127163681Y-33865675D01*
X127197166Y-33926998D01*
X127200000Y-33953356D01*
X127200000Y-34905632D01*
X127180315Y-34972671D01*
X127163681Y-34993313D01*
X126966319Y-35190675D01*
X126904996Y-35224160D01*
X126878638Y-35226994D01*
X125469999Y-35226994D01*
X125200000Y-35496993D01*
X125193104Y-35513642D01*
X125180315Y-35557197D01*
X125127511Y-35602952D01*
X125076000Y-35614158D01*
X124263526Y-35614158D01*
X124234085Y-35605513D01*
X124204099Y-35598990D01*
X124199083Y-35595235D01*
X124196487Y-35594473D01*
X124175845Y-35577839D01*
X124136319Y-35538313D01*
X124102834Y-35476990D01*
X124100000Y-35450632D01*
X124100000Y-33953356D01*
X124119685Y-33886317D01*
X124136319Y-33865675D01*
X124463681Y-33538313D01*
X124525004Y-33504828D01*
X124551362Y-33501994D01*
X126748638Y-33501994D01*
X126815677Y-33521679D01*
G37*
%TD.AperFunction*%
%TD*%
%TA.AperFunction,Conductor*%
%TO.N,+3.3V*%
G36*
X142915677Y-66169685D02*
G01*
X142936319Y-66186319D01*
X143163681Y-66413681D01*
X143197166Y-66475004D01*
X143200000Y-66501362D01*
X143200000Y-67378638D01*
X143191355Y-67408078D01*
X143184832Y-67438065D01*
X143181077Y-67443080D01*
X143180315Y-67445677D01*
X143163681Y-67466319D01*
X143036319Y-67593681D01*
X142974996Y-67627166D01*
X142948638Y-67630000D01*
X140331362Y-67630000D01*
X140264323Y-67610315D01*
X140243681Y-67593681D01*
X140236319Y-67586319D01*
X140202834Y-67524996D01*
X140200000Y-67498638D01*
X140200000Y-66401362D01*
X140208644Y-66371921D01*
X140215168Y-66341935D01*
X140218922Y-66336919D01*
X140219685Y-66334323D01*
X140236319Y-66313681D01*
X140363681Y-66186319D01*
X140425004Y-66152834D01*
X140451362Y-66150000D01*
X142848638Y-66150000D01*
X142915677Y-66169685D01*
G37*
%TD.AperFunction*%
%TD*%
%TA.AperFunction,Conductor*%
%TO.N,+3.3VA*%
G36*
X42815677Y-31719685D02*
G01*
X42836319Y-31736319D01*
X43063681Y-31963681D01*
X43097166Y-32025004D01*
X43100000Y-32051362D01*
X43100000Y-32848638D01*
X43080315Y-32915677D01*
X43063681Y-32936319D01*
X42836319Y-33163681D01*
X42774996Y-33197166D01*
X42748638Y-33200000D01*
X41551362Y-33200000D01*
X41484323Y-33180315D01*
X41463681Y-33163681D01*
X41200000Y-32900000D01*
X40730333Y-32900000D01*
X40701819Y-32895482D01*
X40701815Y-32895509D01*
X40600735Y-32879500D01*
X40199260Y-32879500D01*
X40199260Y-32879501D01*
X40098186Y-32895509D01*
X40098181Y-32895482D01*
X40069668Y-32900000D01*
X38329272Y-32900000D01*
X38316682Y-32897028D01*
X38307310Y-32898040D01*
X38273818Y-32886909D01*
X38244046Y-32872023D01*
X38192887Y-32824436D01*
X38175500Y-32761114D01*
X38175500Y-32750566D01*
X38175500Y-32750565D01*
X38175500Y-32750564D01*
X38149911Y-32655063D01*
X38116612Y-32597387D01*
X38100000Y-32535388D01*
X38100000Y-32151362D01*
X38119685Y-32084323D01*
X38136319Y-32063681D01*
X38463681Y-31736319D01*
X38525004Y-31702834D01*
X38551362Y-31700000D01*
X42748638Y-31700000D01*
X42815677Y-31719685D01*
G37*
%TD.AperFunction*%
%TD*%
%TA.AperFunction,Conductor*%
%TO.N,+3.3V*%
G36*
X147216725Y-64469685D02*
G01*
X147236084Y-64485054D01*
X147362404Y-64607768D01*
X147396772Y-64668598D01*
X147400000Y-64696708D01*
X147400000Y-65318750D01*
X147531250Y-65450000D01*
X147800330Y-65450000D01*
X147867369Y-65469685D01*
X147913124Y-65522489D01*
X147923068Y-65591647D01*
X147920105Y-65606093D01*
X147902359Y-65672322D01*
X147902359Y-65830435D01*
X147943282Y-65983162D01*
X147943285Y-65983169D01*
X148022334Y-66120088D01*
X148022340Y-66120096D01*
X148063681Y-66161437D01*
X148097166Y-66222760D01*
X148100000Y-66249118D01*
X148100000Y-67298638D01*
X148091355Y-67328078D01*
X148084832Y-67358065D01*
X148081077Y-67363080D01*
X148080315Y-67365677D01*
X148063681Y-67386319D01*
X147936319Y-67513681D01*
X147874996Y-67547166D01*
X147848638Y-67550000D01*
X146751362Y-67550000D01*
X146684323Y-67530315D01*
X146663681Y-67513681D01*
X146576853Y-67426853D01*
X146543368Y-67365530D01*
X146545347Y-67310195D01*
X146544209Y-67309948D01*
X146545147Y-67305629D01*
X146545150Y-67305623D01*
X146555500Y-67233638D01*
X146555500Y-67084156D01*
X146555500Y-67084142D01*
X146555088Y-67068796D01*
X146555110Y-67068795D01*
X146555000Y-67064666D01*
X146555000Y-66035330D01*
X146555110Y-66031190D01*
X146555088Y-66031190D01*
X146555500Y-66015809D01*
X146555500Y-65380902D01*
X146569015Y-65324607D01*
X146611017Y-65242175D01*
X146625500Y-65150735D01*
X146625499Y-64749266D01*
X146625499Y-64749260D01*
X146611018Y-64657829D01*
X146611018Y-64657828D01*
X146611017Y-64657826D01*
X146611017Y-64657825D01*
X146596988Y-64630292D01*
X146584093Y-64561625D01*
X146610369Y-64496885D01*
X146667476Y-64456628D01*
X146707474Y-64450000D01*
X147149686Y-64450000D01*
X147216725Y-64469685D01*
G37*
%TD.AperFunction*%
%TD*%
%TA.AperFunction,Conductor*%
%TO.N,GND*%
G36*
X173815677Y-58469685D02*
G01*
X173836319Y-58486319D01*
X174155845Y-58805845D01*
X174189330Y-58867168D01*
X174192164Y-58893526D01*
X174192164Y-61306474D01*
X174183519Y-61335914D01*
X174176996Y-61365901D01*
X174173241Y-61370916D01*
X174172479Y-61373513D01*
X174155845Y-61394155D01*
X174036319Y-61513681D01*
X173974996Y-61547166D01*
X173948638Y-61550000D01*
X173000000Y-61550000D01*
X172629272Y-61550000D01*
X172573818Y-61536909D01*
X172268546Y-61384273D01*
X172217387Y-61336686D01*
X172200000Y-61273364D01*
X172200000Y-58809597D01*
X172219685Y-58742558D01*
X172246536Y-58712771D01*
X172541035Y-58477172D01*
X172605681Y-58450664D01*
X172618497Y-58450000D01*
X173748638Y-58450000D01*
X173815677Y-58469685D01*
G37*
%TD.AperFunction*%
%TD*%
%TA.AperFunction,Conductor*%
%TO.N,GND*%
G36*
X146175677Y-64469685D02*
G01*
X146196319Y-64486319D01*
X146263681Y-64553681D01*
X146297166Y-64615004D01*
X146300000Y-64641362D01*
X146300000Y-66015826D01*
X146299572Y-66023798D01*
X146299678Y-66023804D01*
X146299500Y-66027128D01*
X146299500Y-67072863D01*
X146299679Y-67076180D01*
X146299572Y-67076185D01*
X146300000Y-67084156D01*
X146300000Y-67233638D01*
X146280315Y-67300677D01*
X146263681Y-67321319D01*
X146091319Y-67493681D01*
X146029996Y-67527166D01*
X146003638Y-67530000D01*
X144726362Y-67530000D01*
X144659323Y-67510315D01*
X144638681Y-67493681D01*
X144336319Y-67191319D01*
X144302834Y-67129996D01*
X144300000Y-67103638D01*
X144300000Y-64901362D01*
X144319685Y-64834323D01*
X144336319Y-64813681D01*
X144663681Y-64486319D01*
X144725004Y-64452834D01*
X144751362Y-64450000D01*
X146108638Y-64450000D01*
X146175677Y-64469685D01*
G37*
%TD.AperFunction*%
%TD*%
%TA.AperFunction,Conductor*%
%TO.N,+3.3V*%
G36*
X126338440Y-35511908D02*
G01*
X126419747Y-35526342D01*
X126424714Y-35528162D01*
X126427725Y-35528030D01*
X126460445Y-35541260D01*
X126522238Y-35577223D01*
X126555312Y-35605237D01*
X126595500Y-35653697D01*
X126603273Y-35663069D01*
X126622123Y-35694142D01*
X126682277Y-35837135D01*
X126690369Y-35865304D01*
X126717053Y-36029302D01*
X126718549Y-36043907D01*
X126731516Y-36346470D01*
X126731309Y-36360699D01*
X126724075Y-36461004D01*
X126718797Y-36488924D01*
X126691053Y-36578092D01*
X126679559Y-36604076D01*
X126633429Y-36682575D01*
X126613087Y-36708535D01*
X126554155Y-36765994D01*
X126552916Y-36766879D01*
X126552516Y-36767562D01*
X126523621Y-36787829D01*
X126452284Y-36823963D01*
X126416619Y-36835660D01*
X126328325Y-36850361D01*
X126309576Y-36852034D01*
X124989930Y-36869247D01*
X124210001Y-36879419D01*
X124209999Y-36879420D01*
X124065802Y-37054860D01*
X124053224Y-37068053D01*
X123964944Y-37147967D01*
X123934702Y-37168152D01*
X123835394Y-37215076D01*
X123800599Y-37225622D01*
X123682808Y-37243080D01*
X123664628Y-37244420D01*
X121938872Y-37244420D01*
X121924625Y-37243599D01*
X121730102Y-37221100D01*
X121702360Y-37214595D01*
X121528979Y-37152198D01*
X121496433Y-37134622D01*
X121424607Y-37080599D01*
X121393912Y-37047095D01*
X121348698Y-36974560D01*
X121332134Y-36932249D01*
X121313899Y-36836846D01*
X121311696Y-36814139D01*
X121311335Y-36735431D01*
X121312334Y-36719147D01*
X121317007Y-36682575D01*
X121331793Y-36566846D01*
X121340120Y-36535380D01*
X121395419Y-36401007D01*
X121411648Y-36372797D01*
X121499950Y-36257537D01*
X121523135Y-36234392D01*
X121638150Y-36146591D01*
X121666792Y-36130245D01*
X121800782Y-36075912D01*
X121832712Y-36067696D01*
X121984598Y-36049618D01*
X122001083Y-36048764D01*
X123820087Y-36075914D01*
X123909998Y-36077256D01*
X123909999Y-36077256D01*
X123909999Y-36077255D01*
X123910000Y-36077256D01*
X124021542Y-35977019D01*
X124039698Y-35963486D01*
X124141111Y-35901442D01*
X124183253Y-35885290D01*
X124202723Y-35881686D01*
X124256524Y-35871729D01*
X124279091Y-35869658D01*
X125076000Y-35869658D01*
X125130313Y-35863819D01*
X125181824Y-35852613D01*
X125208198Y-35845377D01*
X125288285Y-35799772D01*
X125294818Y-35796052D01*
X125294819Y-35796050D01*
X125294828Y-35796046D01*
X125347632Y-35750291D01*
X125379258Y-35717516D01*
X125412642Y-35653692D01*
X125413519Y-35652498D01*
X125413684Y-35651742D01*
X125434831Y-35623492D01*
X125466256Y-35592067D01*
X125509458Y-35564001D01*
X125582877Y-35535793D01*
X125612218Y-35528472D01*
X125737153Y-35513119D01*
X125755006Y-35510926D01*
X125770130Y-35510000D01*
X126316768Y-35510000D01*
X126338440Y-35511908D01*
G37*
%TD.AperFunction*%
%TD*%
%TA.AperFunction,Conductor*%
%TO.N,GND*%
G36*
X126915677Y-73269685D02*
G01*
X126936319Y-73286319D01*
X127263681Y-73613681D01*
X127297166Y-73675004D01*
X127300000Y-73701362D01*
X127300000Y-74653638D01*
X127280315Y-74720677D01*
X127263681Y-74741319D01*
X127066319Y-74938681D01*
X127004996Y-74972166D01*
X126978638Y-74975000D01*
X125569999Y-74975000D01*
X125300000Y-75244999D01*
X125300000Y-75298638D01*
X125291355Y-75328078D01*
X125284832Y-75358065D01*
X125281077Y-75363080D01*
X125280315Y-75365677D01*
X125263681Y-75386319D01*
X125219155Y-75430845D01*
X125157832Y-75464330D01*
X125131474Y-75467164D01*
X124468526Y-75467164D01*
X124401487Y-75447479D01*
X124380845Y-75430845D01*
X124236319Y-75286319D01*
X124202834Y-75224996D01*
X124200000Y-75198638D01*
X124200000Y-73701362D01*
X124219685Y-73634323D01*
X124236319Y-73613681D01*
X124563681Y-73286319D01*
X124625004Y-73252834D01*
X124651362Y-73250000D01*
X126848638Y-73250000D01*
X126915677Y-73269685D01*
G37*
%TD.AperFunction*%
%TD*%
%TA.AperFunction,Conductor*%
%TO.N,GND*%
G36*
X185583605Y-55320185D02*
G01*
X185585425Y-55321376D01*
X185607260Y-55335966D01*
X185625526Y-55339599D01*
X185680323Y-55350500D01*
X187160880Y-55350500D01*
X187174634Y-55354538D01*
X187188948Y-55353718D01*
X187207491Y-55364186D01*
X187227919Y-55370185D01*
X187238463Y-55381672D01*
X187249791Y-55388067D01*
X187263606Y-55409062D01*
X187270541Y-55416617D01*
X187273486Y-55422196D01*
X187273537Y-55422452D01*
X187320689Y-55536286D01*
X187382666Y-55629041D01*
X187385661Y-55634715D01*
X187391380Y-55662921D01*
X187399980Y-55690384D01*
X187400000Y-55692598D01*
X187400000Y-55795500D01*
X187380315Y-55862539D01*
X187327511Y-55908294D01*
X187276000Y-55919500D01*
X186721080Y-55919500D01*
X186576092Y-55948340D01*
X186576082Y-55948343D01*
X186439511Y-56004912D01*
X186439504Y-56004916D01*
X186421307Y-56017075D01*
X186403307Y-56029102D01*
X186336632Y-56049980D01*
X186334417Y-56050000D01*
X186199999Y-56050000D01*
X186000000Y-56249999D01*
X186000000Y-57498638D01*
X185980315Y-57565677D01*
X185963681Y-57586319D01*
X185636319Y-57913681D01*
X185574996Y-57947166D01*
X185548638Y-57950000D01*
X184651362Y-57950000D01*
X184584323Y-57930315D01*
X184563681Y-57913681D01*
X184336319Y-57686319D01*
X184302834Y-57624996D01*
X184300000Y-57598638D01*
X184300000Y-56218497D01*
X184319685Y-56151458D01*
X184327172Y-56141035D01*
X184962370Y-55347038D01*
X185019621Y-55306986D01*
X185059198Y-55300500D01*
X185516566Y-55300500D01*
X185583605Y-55320185D01*
G37*
%TD.AperFunction*%
%TD*%
%TA.AperFunction,Conductor*%
%TO.N,GND*%
G36*
X176915677Y-66569685D02*
G01*
X176936319Y-66586319D01*
X177163681Y-66813681D01*
X177197166Y-66875004D01*
X177200000Y-66901362D01*
X177200000Y-68198638D01*
X177180315Y-68265677D01*
X177163681Y-68286319D01*
X176826319Y-68623681D01*
X176764996Y-68657166D01*
X176738638Y-68660000D01*
X173761362Y-68660000D01*
X173694323Y-68640315D01*
X173673681Y-68623681D01*
X173436319Y-68386319D01*
X173402834Y-68324996D01*
X173400000Y-68298638D01*
X173400000Y-67001362D01*
X173419685Y-66934323D01*
X173436319Y-66913681D01*
X173763681Y-66586319D01*
X173825004Y-66552834D01*
X173851362Y-66550000D01*
X176848638Y-66550000D01*
X176915677Y-66569685D01*
G37*
%TD.AperFunction*%
%TD*%
%TA.AperFunction,Conductor*%
%TO.N,GND_MIC*%
G36*
X35600000Y-33999999D02*
G01*
X35600000Y-34748638D01*
X35580315Y-34815677D01*
X35563681Y-34836319D01*
X35336319Y-35063681D01*
X35274996Y-35097166D01*
X35248638Y-35100000D01*
X34851362Y-35100000D01*
X34784323Y-35080315D01*
X34763681Y-35063681D01*
X34536319Y-34836319D01*
X34502834Y-34774996D01*
X34500000Y-34748638D01*
X34500000Y-33800000D01*
X35799999Y-33800000D01*
X35600000Y-33999999D01*
G37*
%TD.AperFunction*%
%TD*%
%TA.AperFunction,Conductor*%
%TO.N,GND*%
G36*
X140546489Y-51469685D02*
G01*
X140592244Y-51522489D01*
X140603450Y-51574000D01*
X140603450Y-54295188D01*
X140594805Y-54324628D01*
X140588282Y-54354615D01*
X140584527Y-54359630D01*
X140583765Y-54362227D01*
X140567131Y-54382869D01*
X140436319Y-54513681D01*
X140374996Y-54547166D01*
X140348638Y-54550000D01*
X137151362Y-54550000D01*
X137084323Y-54530315D01*
X137063681Y-54513681D01*
X136964269Y-54414269D01*
X136930784Y-54352946D01*
X136929478Y-54307186D01*
X136930500Y-54300735D01*
X136930499Y-53899266D01*
X136930499Y-53899265D01*
X136930499Y-53899260D01*
X136916017Y-53807826D01*
X136916017Y-53807825D01*
X136913515Y-53802914D01*
X136910393Y-53789911D01*
X136905023Y-53781555D01*
X136900000Y-53746620D01*
X136900000Y-53601361D01*
X136919685Y-53534322D01*
X136936314Y-53513685D01*
X137141256Y-53308743D01*
X137154596Y-53297183D01*
X137207546Y-53257546D01*
X137247181Y-53204600D01*
X137258740Y-53191259D01*
X137400000Y-53050000D01*
X137400000Y-52001362D01*
X137408644Y-51971921D01*
X137415168Y-51941935D01*
X137418922Y-51936919D01*
X137419685Y-51934323D01*
X137436319Y-51913681D01*
X137463681Y-51886319D01*
X137525004Y-51852834D01*
X137551362Y-51850000D01*
X139250000Y-51850000D01*
X139400000Y-51700000D01*
X139400000Y-51608896D01*
X139406238Y-51587650D01*
X139407818Y-51565562D01*
X139418431Y-51546124D01*
X139419685Y-51541857D01*
X139424712Y-51534614D01*
X139447182Y-51504598D01*
X139458749Y-51491250D01*
X139463682Y-51486317D01*
X139492983Y-51470318D01*
X139503104Y-51462742D01*
X139507423Y-51462433D01*
X139525003Y-51452834D01*
X139551361Y-51450000D01*
X140479450Y-51450000D01*
X140546489Y-51469685D01*
G37*
%TD.AperFunction*%
%TD*%
%TA.AperFunction,Conductor*%
%TO.N,GND*%
G36*
X153515677Y-34969685D02*
G01*
X153536319Y-34986319D01*
X153963681Y-35413681D01*
X153997166Y-35475004D01*
X154000000Y-35501362D01*
X154000000Y-38598638D01*
X153980315Y-38665677D01*
X153963681Y-38686319D01*
X153436319Y-39213681D01*
X153374996Y-39247166D01*
X153348638Y-39250000D01*
X149151362Y-39250000D01*
X149084323Y-39230315D01*
X149063681Y-39213681D01*
X148336319Y-38486319D01*
X148302834Y-38424996D01*
X148300000Y-38398638D01*
X148300000Y-35701362D01*
X148319685Y-35634323D01*
X148336319Y-35613681D01*
X148963681Y-34986319D01*
X149025004Y-34952834D01*
X149051362Y-34950000D01*
X153448638Y-34950000D01*
X153515677Y-34969685D01*
G37*
%TD.AperFunction*%
%TD*%
%TA.AperFunction,Conductor*%
%TO.N,5V*%
G36*
X178245677Y-57199685D02*
G01*
X178266319Y-57216319D01*
X178384724Y-57334724D01*
X178418209Y-57396047D01*
X178419516Y-57441803D01*
X178417000Y-57457688D01*
X178417000Y-57842311D01*
X178432223Y-57938428D01*
X178432223Y-57938429D01*
X178432224Y-57938432D01*
X178432225Y-57938433D01*
X178486485Y-58044925D01*
X178500000Y-58101218D01*
X178500000Y-59591138D01*
X178480315Y-59658177D01*
X178463681Y-59678819D01*
X178128819Y-60013681D01*
X178067496Y-60047166D01*
X178041138Y-60050000D01*
X176099999Y-60050000D01*
X175900001Y-60329997D01*
X175900000Y-60330001D01*
X175900000Y-63598638D01*
X175880315Y-63665677D01*
X175863681Y-63686319D01*
X175600044Y-63949955D01*
X175538721Y-63983440D01*
X175512383Y-63986274D01*
X173790555Y-63986557D01*
X173723513Y-63966883D01*
X173691476Y-63937143D01*
X173424936Y-63583120D01*
X173400341Y-63517726D01*
X173400000Y-63508540D01*
X173400000Y-62301362D01*
X173419685Y-62234323D01*
X173436319Y-62213681D01*
X173663681Y-61986319D01*
X173725004Y-61952834D01*
X173751362Y-61950000D01*
X174200000Y-61950000D01*
X174425000Y-61750000D01*
X174425000Y-61441156D01*
X174427831Y-61414809D01*
X174430299Y-61403462D01*
X174432488Y-61394891D01*
X174437311Y-61378470D01*
X174437311Y-61378467D01*
X174437313Y-61378462D01*
X174447664Y-61306474D01*
X174447664Y-58893526D01*
X174446200Y-58866212D01*
X174443366Y-58839854D01*
X174430665Y-58799294D01*
X174430441Y-58797827D01*
X174430023Y-58797176D01*
X174425000Y-58762241D01*
X174425000Y-58596362D01*
X174444685Y-58529323D01*
X174461319Y-58508681D01*
X174683681Y-58286319D01*
X174745004Y-58252834D01*
X174771362Y-58250000D01*
X176900000Y-58250000D01*
X177200000Y-57950000D01*
X177200000Y-57401362D01*
X177208644Y-57371921D01*
X177215168Y-57341935D01*
X177218922Y-57336919D01*
X177219685Y-57334323D01*
X177236319Y-57313681D01*
X177333681Y-57216319D01*
X177395004Y-57182834D01*
X177421362Y-57180000D01*
X178178638Y-57180000D01*
X178245677Y-57199685D01*
G37*
%TD.AperFunction*%
%TD*%
%TA.AperFunction,Conductor*%
%TO.N,+3.3V*%
G36*
X169715677Y-62869685D02*
G01*
X169736319Y-62886319D01*
X169963681Y-63113681D01*
X169997166Y-63175004D01*
X170000000Y-63201362D01*
X170000000Y-63950000D01*
X170300000Y-64250000D01*
X175423638Y-64250000D01*
X175490677Y-64269685D01*
X175511319Y-64286319D01*
X175863681Y-64638681D01*
X175897166Y-64700004D01*
X175900000Y-64726362D01*
X175900000Y-65998638D01*
X175891355Y-66028078D01*
X175884832Y-66058065D01*
X175881077Y-66063080D01*
X175880315Y-66065677D01*
X175863681Y-66086319D01*
X175691819Y-66258181D01*
X175630496Y-66291666D01*
X175604138Y-66294500D01*
X173851361Y-66294500D01*
X173824065Y-66295963D01*
X173824060Y-66295963D01*
X173824048Y-66295964D01*
X173824040Y-66295964D01*
X173824011Y-66295967D01*
X173797689Y-66298797D01*
X173797687Y-66298798D01*
X173702558Y-66328586D01*
X173702556Y-66328586D01*
X173702556Y-66328587D01*
X173691118Y-66334832D01*
X173631692Y-66350000D01*
X170199999Y-66350000D01*
X170000000Y-66549999D01*
X170000000Y-67098638D01*
X169980315Y-67165677D01*
X169963681Y-67186319D01*
X169636319Y-67513681D01*
X169574996Y-67547166D01*
X169548638Y-67550000D01*
X167451362Y-67550000D01*
X167384323Y-67530315D01*
X167363681Y-67513681D01*
X167036319Y-67186319D01*
X167002834Y-67124996D01*
X167000000Y-67098638D01*
X167000000Y-66050000D01*
X166800000Y-65850000D01*
X166767632Y-65850000D01*
X166711338Y-65836485D01*
X166667175Y-65813983D01*
X166667174Y-65813982D01*
X166667171Y-65813981D01*
X166575735Y-65799500D01*
X166174260Y-65799500D01*
X166174260Y-65799501D01*
X166082829Y-65813981D01*
X166082825Y-65813982D01*
X166038662Y-65836485D01*
X165982368Y-65850000D01*
X164064322Y-65850000D01*
X163997283Y-65830315D01*
X163951528Y-65777511D01*
X163944548Y-65758095D01*
X163943498Y-65754179D01*
X163940561Y-65743216D01*
X163940559Y-65743213D01*
X163940558Y-65743209D01*
X163861508Y-65606290D01*
X163861502Y-65606282D01*
X163749701Y-65494481D01*
X163749693Y-65494475D01*
X163612774Y-65415426D01*
X163612771Y-65415424D01*
X163612768Y-65415423D01*
X163610336Y-65414771D01*
X163580183Y-65406691D01*
X163524598Y-65374598D01*
X163336319Y-65186319D01*
X163302834Y-65124996D01*
X163300000Y-65098638D01*
X163300000Y-63301362D01*
X163319685Y-63234323D01*
X163336319Y-63213681D01*
X163663681Y-62886319D01*
X163725004Y-62852834D01*
X163751362Y-62850000D01*
X169648638Y-62850000D01*
X169715677Y-62869685D01*
G37*
%TD.AperFunction*%
%TD*%
M02*
