M48
; DRILL file {KiCad 9.0.6} date 2026-04-01T01:48:02+0300
; FORMAT={-:-/ absolute / metric / decimal}
; #@! TF.CreationDate,2026-04-01T01:48:02+03:00
; #@! TF.GenerationSoftware,Kicad,Pcbnew,9.0.6
; #@! TF.FileFunction,NonPlated,1,4,NPTH
FMAT,2
METRIC
; #@! TA.AperFunction,NonPlated,NPTH,ComponentDrill
T1C0.500
; #@! TA.AperFunction,NonPlated,NPTH,ComponentDrill
T2C0.650
; #@! TA.AperFunction,NonPlated,NPTH,ComponentDrill
T3C1.200
; #@! TA.AperFunction,NonPlated,NPTH,ComponentDrill
T4C3.200
%
G90
G05
T1
X85.0Y-31.878
X85.0Y-32.728
X85.0Y-34.428
X85.0Y-35.278
X85.0Y-44.578
X85.0Y-45.428
X85.0Y-47.128
X85.0Y-47.978
X87.54Y-31.878
X87.54Y-32.728
X87.54Y-34.428
X87.54Y-35.278
X87.54Y-44.578
X87.54Y-45.428
X87.54Y-47.128
X87.54Y-47.978
T2
X187.875Y-49.46
X187.875Y-55.24
T3
X72.1Y-39.8
X77.1Y-34.8
X77.1Y-44.8
X79.6Y-34.8
X79.6Y-44.8
X93.0Y-32.4
X93.0Y-42.4
X93.0Y-51.9
X93.0Y-61.9
X93.0Y-72.2
X93.0Y-82.2
X95.5Y-32.4
X95.5Y-42.4
X95.5Y-51.9
X95.5Y-61.9
X95.5Y-72.2
X95.5Y-82.2
X100.5Y-37.4
X100.5Y-56.9
X100.5Y-77.2
T4
X24.0Y-25.5
X24.0Y-54.5
X80.0Y-25.5
X80.0Y-54.5
X92.5Y-89.1
X92.54Y-25.5
X188.0Y-24.5
X188.0Y-89.1
M30
