M48
; DRILL file {KiCad 9.0.6} date 2026-04-01T01:48:02+0300
; FORMAT={-:-/ absolute / metric / decimal}
; #@! TF.CreationDate,2026-04-01T01:48:02+03:00
; #@! TF.GenerationSoftware,Kicad,Pcbnew,9.0.6
; #@! TF.FileFunction,Plated,1,4,PTH
FMAT,2
METRIC
; #@! TA.AperFunction,Plated,PTH,ViaDrill
T1C0.300
; #@! TA.AperFunction,Plated,PTH,ViaDrill
T2C0.400
; #@! TA.AperFunction,Plated,PTH,ComponentDrill
T3C0.400
; #@! TA.AperFunction,Plated,PTH,ComponentDrill
T4C0.600
; #@! TA.AperFunction,Plated,PTH,ComponentDrill
T5C0.750
; #@! TA.AperFunction,Plated,PTH,ComponentDrill
T6C0.800
; #@! TA.AperFunction,Plated,PTH,ComponentDrill
T7C1.000
%
G90
G05
T1
X26.2Y-37.0
X31.4Y-40.8
X31.5Y-42.5
X31.9Y-40.0
X33.25Y-35.6
X33.3Y-36.5
X34.8Y-34.3
X35.2Y-35.0
X37.257Y-38.5
X38.857Y-37.3
X38.9Y-45.8
X40.4Y-34.3
X42.1Y-35.5
X43.4Y-40.3
X43.5Y-32.5
X43.7Y-38.4
X44.076Y-31.809
X44.336Y-39.036
X45.1Y-40.9
X45.6Y-33.8
X48.4Y-38.1
X49.1Y-45.6
X50.5Y-50.6
X51.0Y-35.9
X51.6Y-36.5
X54.2Y-47.7
X54.3Y-33.7
X54.9Y-50.6
X55.1Y-49.0
X55.3Y-41.9
X55.8Y-49.6
X56.2Y-42.3
X57.1Y-38.8
X57.2Y-41.7
X64.1Y-31.4
X65.902Y-43.557
X77.1Y-41.9
X95.5Y-39.1
X95.5Y-58.63
X95.5Y-79.0
X116.0Y-35.4
X119.2Y-39.25
X119.3Y-58.85
X119.5Y-78.85
X121.5Y-68.0
X124.2Y-34.45
X124.4Y-54.25
X124.4Y-74.25
X125.0Y-33.85
X125.0Y-53.65
X125.1Y-73.5
X127.2Y-39.7
X127.5Y-36.15
X127.5Y-55.65
X127.8Y-75.65
X128.0Y-35.2
X128.1Y-56.35
X128.3Y-76.4
X128.5Y-60.6
X128.5Y-80.6
X132.98Y-27.8
X136.4Y-49.45
X138.3Y-53.95
X139.3Y-66.15
X139.4Y-54.05
X139.8Y-65.35
X140.06Y-86.9
X140.1Y-52.75
X140.1Y-53.65
X140.3Y-47.0
X140.3Y-49.0
X140.3Y-58.15
X140.3Y-59.95
X140.3Y-60.85
X140.4Y-58.95
X141.2Y-47.0
X141.2Y-48.8
X141.9Y-51.1
X141.9Y-53.35
X142.5Y-64.25
X143.0Y-56.725
X143.6Y-43.3
X144.6Y-65.3
X145.295Y-44.847
X145.3Y-64.75
X146.0Y-52.05
X146.0Y-54.85
X146.0Y-58.55
X146.1Y-45.25
X146.102Y-53.942
X146.3Y-44.1
X146.3Y-52.9
X146.3Y-61.85
X146.4Y-42.95
X146.5Y-55.65
X146.5Y-57.4
X146.8Y-49.35
X148.503Y-65.751
X148.9Y-66.65
X150.76Y-27.8
X156.3Y-67.85
X157.8Y-61.85
X158.6Y-50.05
X159.5Y-63.8
X160.3Y-62.6
X160.56Y-36.473
X160.56Y-38.073
X160.7Y-63.8
X161.1Y-40.7
X161.7Y-48.15
X162.4Y-64.3
X162.6Y-48.15
X162.7Y-45.2
X162.9Y-55.1
X163.0Y-62.95
X163.1Y-67.1
X163.2Y-44.4
X163.2Y-63.8
X163.2Y-64.8
X163.381Y-65.975
X163.529Y-49.282
X163.9Y-62.3
X164.3Y-63.3
X164.6Y-50.55
X165.0Y-67.85
X165.2Y-63.2
X165.424Y-61.576
X165.8Y-64.0
X166.2Y-42.1
X166.2Y-44.4
X166.5Y-59.1
X166.525Y-67.25
X166.6Y-64.3
X166.7Y-63.35
X167.8Y-53.9
X169.8Y-71.8
X170.5Y-59.83
X170.5Y-60.88
X172.5Y-60.45
X173.0Y-61.15
X173.9Y-40.7
X175.2Y-57.85
X175.957Y-57.363
X176.4Y-67.05
X176.4Y-68.05
X176.95Y-63.75
X177.3Y-62.05
X177.9Y-63.0
X179.7Y-62.05
X182.7Y-49.45
X183.2Y-51.85
X184.7Y-56.45
X184.8Y-47.25
X184.8Y-57.45
X185.0Y-48.55
X185.6Y-47.85
X185.6Y-56.85
X187.2Y-46.1
X187.2Y-58.6
T2
X21.5Y-45.5
X21.5Y-48.0
X21.5Y-50.5
X24.0Y-45.5
X24.0Y-48.0
X24.0Y-50.5
X26.5Y-45.5
X26.5Y-48.0
X26.5Y-50.5
X29.0Y-23.0
X29.0Y-28.0
X29.0Y-45.5
X29.0Y-48.0
X29.0Y-50.5
X29.0Y-53.0
X29.0Y-55.5
X29.0Y-58.0
X31.5Y-45.5
X31.5Y-48.0
X31.5Y-50.5
X31.5Y-53.0
X31.5Y-55.5
X31.5Y-58.0
X34.0Y-23.0
X34.0Y-28.0
X34.0Y-30.5
X34.0Y-43.0
X34.0Y-45.5
X34.0Y-48.0
X34.0Y-50.5
X34.0Y-53.0
X34.0Y-55.5
X34.0Y-58.0
X36.5Y-23.0
X36.5Y-28.0
X36.5Y-30.5
X36.5Y-45.5
X36.5Y-48.0
X36.5Y-50.5
X36.5Y-53.0
X36.5Y-55.5
X36.5Y-58.0
X39.0Y-23.0
X39.0Y-28.0
X39.0Y-30.5
X39.0Y-48.0
X39.0Y-50.5
X39.0Y-53.0
X39.0Y-55.5
X39.0Y-58.0
X41.5Y-23.0
X41.5Y-28.0
X41.5Y-48.0
X41.5Y-50.5
X41.5Y-53.0
X41.5Y-55.5
X41.5Y-58.0
X44.0Y-23.0
X44.0Y-28.0
X44.0Y-48.0
X44.0Y-50.5
X44.0Y-53.0
X44.0Y-55.5
X44.0Y-58.0
X46.5Y-23.0
X46.5Y-28.0
X46.5Y-30.5
X46.5Y-33.0
X46.5Y-53.0
X46.5Y-55.5
X46.5Y-58.0
X49.0Y-23.0
X49.0Y-28.0
X49.0Y-30.5
X49.0Y-33.0
X49.0Y-53.0
X49.0Y-55.5
X49.0Y-58.0
X51.5Y-23.0
X51.5Y-28.0
X51.5Y-30.5
X51.5Y-33.0
X51.5Y-53.0
X51.5Y-55.5
X51.5Y-58.0
X54.0Y-23.0
X54.0Y-28.0
X54.0Y-30.5
X54.0Y-53.0
X54.0Y-55.5
X54.0Y-58.0
X56.5Y-23.0
X56.5Y-25.5
X56.5Y-28.0
X56.5Y-30.5
X56.5Y-53.0
X56.5Y-55.5
X56.5Y-58.0
X59.0Y-23.0
X59.0Y-25.5
X59.0Y-28.0
X59.0Y-30.5
X59.0Y-35.5
X59.0Y-38.0
X59.0Y-40.5
X59.0Y-43.0
X59.0Y-45.5
X59.0Y-48.0
X59.0Y-50.5
X59.0Y-53.0
X59.0Y-55.5
X59.0Y-58.0
X61.5Y-23.0
X61.5Y-25.5
X61.5Y-28.0
X61.5Y-30.5
X61.5Y-35.5
X61.5Y-38.0
X61.5Y-40.5
X61.5Y-43.0
X61.5Y-45.5
X61.5Y-48.0
X61.5Y-50.5
X61.5Y-53.0
X61.5Y-55.5
X61.5Y-58.0
X64.0Y-23.0
X64.0Y-25.5
X64.0Y-28.0
X64.0Y-30.5
X64.0Y-38.0
X64.0Y-40.5
X64.0Y-43.0
X64.0Y-45.5
X64.0Y-48.0
X64.0Y-58.0
X66.5Y-23.0
X66.5Y-25.5
X66.5Y-28.0
X66.5Y-30.5
X66.5Y-38.0
X66.5Y-40.5
X66.5Y-48.0
X66.5Y-58.0
X69.0Y-23.0
X69.0Y-25.5
X69.0Y-28.0
X69.0Y-30.5
X69.0Y-48.0
X69.0Y-58.0
X71.5Y-23.0
X71.5Y-25.5
X71.5Y-28.0
X71.5Y-30.5
X71.5Y-48.0
X71.5Y-58.0
X74.0Y-23.0
X74.0Y-25.5
X74.0Y-28.0
X74.0Y-30.5
X74.0Y-48.0
X74.0Y-58.0
X76.5Y-23.0
X76.5Y-28.0
X76.5Y-30.5
X76.5Y-48.0
X76.5Y-50.5
X76.5Y-58.0
X79.0Y-30.5
X79.0Y-48.0
X79.0Y-50.5
X81.5Y-30.5
X81.5Y-48.0
X89.0Y-45.5
X89.0Y-48.0
X91.5Y-45.5
X91.5Y-48.0
X91.5Y-65.5
X91.5Y-68.0
X94.0Y-45.5
X94.0Y-48.0
X94.0Y-65.5
X94.0Y-68.0
X96.5Y-23.0
X96.5Y-28.0
X96.5Y-45.5
X96.5Y-48.0
X96.5Y-65.5
X96.5Y-68.0
X96.5Y-85.5
X96.5Y-93.0
X99.0Y-23.0
X99.0Y-28.0
X99.0Y-45.5
X99.0Y-48.0
X99.0Y-65.5
X99.0Y-68.0
X99.0Y-85.5
X99.0Y-88.0
X99.0Y-90.5
X99.0Y-93.0
X101.5Y-23.0
X101.5Y-28.0
X101.5Y-30.5
X101.5Y-45.5
X101.5Y-48.0
X101.5Y-65.5
X101.5Y-68.0
X101.5Y-85.5
X101.5Y-88.0
X101.5Y-90.5
X101.5Y-93.0
X104.0Y-23.0
X104.0Y-28.0
X104.0Y-30.5
X104.0Y-45.5
X104.0Y-48.0
X104.0Y-65.5
X104.0Y-68.0
X104.0Y-85.5
X104.0Y-88.0
X104.0Y-90.5
X104.0Y-93.0
X106.5Y-23.0
X106.5Y-28.0
X106.5Y-30.5
X106.5Y-43.0
X106.5Y-45.5
X106.5Y-48.0
X106.5Y-50.5
X106.5Y-63.0
X106.5Y-65.5
X106.5Y-68.0
X106.5Y-70.5
X106.5Y-83.0
X106.5Y-85.5
X106.5Y-88.0
X106.5Y-90.5
X106.5Y-93.0
X107.475Y-51.8
X107.475Y-61.5
X107.5Y-32.8
X107.5Y-41.9
X107.5Y-73.2
X107.5Y-81.6
X109.0Y-23.0
X109.0Y-28.0
X109.0Y-30.5
X109.0Y-43.0
X109.0Y-45.5
X109.0Y-48.0
X109.0Y-50.5
X109.0Y-63.0
X109.0Y-65.5
X109.0Y-68.0
X109.0Y-70.5
X109.0Y-83.0
X109.0Y-85.5
X109.0Y-88.0
X109.0Y-90.5
X109.0Y-93.0
X111.5Y-23.0
X111.5Y-28.0
X111.5Y-30.5
X111.5Y-33.0
X111.5Y-43.0
X111.5Y-45.5
X111.5Y-48.0
X111.5Y-50.5
X111.5Y-53.0
X111.5Y-60.5
X111.5Y-63.0
X111.5Y-65.5
X111.5Y-68.0
X111.5Y-70.5
X111.5Y-73.0
X111.5Y-80.5
X111.5Y-83.0
X111.5Y-85.5
X111.5Y-88.0
X111.5Y-90.5
X111.5Y-93.0
X114.0Y-23.0
X114.0Y-28.0
X114.0Y-30.5
X114.0Y-33.0
X114.0Y-43.0
X114.0Y-45.5
X114.0Y-48.0
X114.0Y-50.5
X114.0Y-53.0
X114.0Y-60.5
X114.0Y-63.0
X114.0Y-65.5
X114.0Y-68.0
X114.0Y-70.5
X114.0Y-73.0
X114.0Y-80.5
X114.0Y-83.0
X114.0Y-85.5
X114.0Y-88.0
X114.0Y-90.5
X114.0Y-93.0
X116.0Y-55.0
X116.2Y-75.1
X116.5Y-23.0
X116.5Y-28.0
X116.5Y-30.5
X116.5Y-33.0
X116.5Y-43.0
X116.5Y-45.5
X116.5Y-48.0
X116.5Y-50.5
X116.5Y-53.0
X116.5Y-60.5
X116.5Y-63.0
X116.5Y-68.0
X116.5Y-70.5
X116.5Y-73.0
X116.5Y-80.5
X116.5Y-83.0
X116.5Y-85.5
X116.5Y-88.0
X116.5Y-90.5
X116.5Y-93.0
X119.0Y-23.0
X119.0Y-28.0
X119.0Y-30.5
X119.0Y-33.0
X119.0Y-43.0
X119.0Y-45.5
X119.0Y-48.0
X119.0Y-50.5
X119.0Y-53.0
X119.0Y-60.5
X119.0Y-63.0
X119.0Y-68.0
X119.0Y-70.5
X119.0Y-73.0
X119.0Y-83.0
X119.0Y-85.5
X119.0Y-88.0
X119.0Y-90.5
X119.0Y-93.0
X121.5Y-23.0
X121.5Y-28.0
X121.5Y-30.5
X121.5Y-33.0
X121.5Y-43.0
X121.5Y-45.5
X121.5Y-48.0
X121.5Y-50.5
X121.5Y-53.0
X121.5Y-60.5
X121.5Y-63.0
X121.5Y-70.5
X121.5Y-73.0
X121.5Y-83.0
X121.5Y-85.5
X121.5Y-88.0
X121.5Y-90.5
X121.5Y-93.0
X124.0Y-23.0
X124.0Y-25.5
X124.0Y-28.0
X124.0Y-30.5
X124.0Y-33.0
X124.0Y-43.0
X124.0Y-45.5
X124.0Y-48.0
X124.0Y-50.5
X124.0Y-60.5
X124.0Y-63.0
X124.0Y-65.5
X124.0Y-68.0
X124.0Y-70.5
X124.0Y-73.0
X124.0Y-83.0
X124.0Y-85.5
X124.0Y-88.0
X124.0Y-90.5
X124.0Y-93.0
X126.5Y-23.0
X126.5Y-25.5
X126.5Y-28.0
X126.5Y-30.5
X126.5Y-33.0
X126.5Y-43.0
X126.5Y-45.5
X126.5Y-48.0
X126.5Y-50.5
X126.5Y-60.5
X126.5Y-63.0
X126.5Y-65.5
X126.5Y-68.0
X126.5Y-70.5
X126.5Y-83.0
X126.5Y-85.5
X126.5Y-88.0
X126.5Y-90.5
X126.5Y-93.0
X129.0Y-28.0
X129.0Y-30.5
X129.0Y-33.0
X129.0Y-63.0
X129.0Y-65.5
X129.0Y-68.0
X129.0Y-70.5
X129.0Y-83.0
X129.0Y-85.5
X129.0Y-88.0
X129.0Y-90.5
X129.0Y-93.0
X131.5Y-30.5
X131.5Y-33.0
X131.5Y-38.0
X131.5Y-40.5
X131.5Y-43.0
X131.5Y-45.5
X131.5Y-50.5
X131.5Y-53.0
X131.5Y-55.5
X131.5Y-65.5
X131.5Y-68.0
X131.5Y-78.0
X131.5Y-80.5
X131.5Y-83.0
X131.5Y-85.5
X131.5Y-88.0
X131.5Y-90.5
X131.5Y-93.0
X134.0Y-30.5
X134.0Y-33.0
X134.0Y-38.0
X134.0Y-40.5
X134.0Y-43.0
X134.0Y-45.5
X134.0Y-50.5
X134.0Y-53.0
X134.0Y-55.5
X134.0Y-65.5
X134.0Y-68.0
X134.0Y-73.0
X134.0Y-75.5
X134.0Y-78.0
X134.0Y-80.5
X134.0Y-83.0
X134.0Y-85.5
X134.0Y-88.0
X134.0Y-90.5
X134.0Y-93.0
X136.5Y-43.0
X136.5Y-65.5
X136.5Y-68.0
X136.5Y-73.0
X136.5Y-75.5
X136.5Y-78.0
X136.5Y-80.5
X136.5Y-83.0
X136.5Y-85.5
X139.0Y-43.0
X139.0Y-68.0
X139.0Y-73.0
X139.0Y-75.5
X139.0Y-78.0
X139.0Y-80.5
X139.0Y-83.0
X139.0Y-85.5
X141.5Y-73.0
X141.5Y-75.5
X141.5Y-78.0
X141.5Y-80.5
X141.5Y-83.0
X141.5Y-85.5
X146.5Y-73.0
X146.5Y-75.5
X146.5Y-78.0
X146.5Y-80.5
X146.5Y-83.0
X146.5Y-85.5
X149.0Y-73.0
X149.0Y-75.5
X149.0Y-78.0
X149.0Y-80.5
X149.0Y-83.0
X154.0Y-73.0
X154.0Y-75.5
X154.0Y-78.0
X154.0Y-80.5
X154.0Y-83.0
X154.0Y-85.5
X156.5Y-73.0
X156.5Y-75.5
X156.5Y-78.0
X156.5Y-80.5
X156.5Y-83.0
X156.5Y-85.5
X171.2Y-58.7
X172.0Y-57.5
X174.0Y-43.0
X174.0Y-45.5
X174.0Y-55.5
X176.5Y-38.0
X176.5Y-40.5
X176.5Y-43.0
X176.5Y-45.5
X176.5Y-55.5
X176.5Y-73.0
X176.5Y-75.5
X176.682Y-64.661
X178.6Y-62.3
X179.0Y-38.0
X179.0Y-40.5
X179.0Y-43.0
X179.0Y-45.5
X179.0Y-68.0
X179.0Y-70.5
X179.0Y-73.0
X179.0Y-75.5
X181.5Y-38.0
X181.5Y-40.5
X181.5Y-43.0
X181.5Y-45.5
X181.5Y-58.0
X181.5Y-60.5
X181.5Y-63.0
X181.5Y-68.0
X181.5Y-70.5
X181.5Y-73.0
X181.5Y-75.5
X181.5Y-78.0
X181.5Y-80.5
X181.5Y-83.0
X181.5Y-85.5
X181.5Y-88.0
X181.5Y-90.5
X181.5Y-93.0
X184.0Y-28.0
X184.0Y-30.5
X184.0Y-33.0
X184.0Y-35.5
X184.0Y-38.0
X184.0Y-40.5
X184.0Y-43.0
X184.0Y-45.5
X184.0Y-60.5
X184.0Y-63.0
X184.0Y-68.0
X184.0Y-70.5
X184.0Y-73.0
X184.0Y-75.5
X184.0Y-78.0
X184.0Y-80.5
X184.0Y-83.0
X184.0Y-85.5
X184.0Y-88.0
X184.0Y-90.5
X184.0Y-93.0
X186.5Y-30.5
X186.5Y-33.0
X186.5Y-35.5
X186.5Y-38.0
X186.5Y-40.5
X186.5Y-43.0
X186.5Y-75.5
X186.5Y-78.0
X186.5Y-80.5
X186.5Y-83.0
X189.0Y-30.5
X189.0Y-33.0
X189.0Y-35.5
X189.0Y-38.0
X189.0Y-40.5
X189.0Y-43.0
X189.0Y-75.5
X189.0Y-78.0
X189.0Y-80.5
X189.0Y-83.0
X191.5Y-28.0
X191.5Y-30.5
X191.5Y-33.0
X191.5Y-35.5
X191.5Y-38.0
X191.5Y-40.5
X191.5Y-43.0
X191.5Y-75.5
X191.5Y-78.0
X191.5Y-80.5
X191.5Y-83.0
X191.5Y-85.5
T5
X23.85Y-35.0
X23.85Y-37.0
T6
X29.5Y-32.42
X29.5Y-34.96
X29.5Y-37.5
T7
X130.44Y-25.5
X132.98Y-25.5
X135.52Y-25.5
X137.52Y-89.1
X138.06Y-25.5
X140.06Y-89.1
X140.6Y-25.5
X142.6Y-89.1
X143.14Y-25.5
X145.14Y-89.1
X145.68Y-25.5
X147.68Y-89.1
X148.22Y-25.5
X150.22Y-89.1
X150.76Y-25.5
X152.76Y-89.1
X153.3Y-25.5
X155.3Y-89.1
X155.84Y-25.5
X157.84Y-89.1
X158.38Y-25.5
X160.38Y-89.1
X160.92Y-25.5
X162.78Y-37.603
X162.92Y-89.1
X163.46Y-25.5
X165.32Y-37.603
X165.46Y-89.1
X166.0Y-25.5
X167.86Y-37.603
X168.0Y-89.1
X168.54Y-25.5
X170.4Y-37.603
X170.54Y-89.1
X171.08Y-25.5
X172.94Y-37.603
X173.08Y-89.1
X173.62Y-25.5
X175.62Y-89.1
X176.16Y-25.5
X178.16Y-89.1
X178.7Y-25.5
X181.24Y-25.5
X189.6Y-62.58
X189.6Y-65.12
X189.6Y-67.66
X189.6Y-70.2
T3
G00X72.6Y-34.8
M15
G01X71.6Y-34.8
M16
G05
G00X71.6Y-44.8
M15
G01X72.6Y-44.8
M16
G05
G00X77.1Y-40.3
M15
G01X77.1Y-39.3
M16
G05
G00X95.5Y-36.9
M15
G01X95.5Y-37.9
M16
G05
G00X95.5Y-56.4
M15
G01X95.5Y-57.4
M16
G05
G00X95.5Y-76.7
M15
G01X95.5Y-77.7
M16
G05
G00X101.0Y-32.4
M15
G01X100.0Y-32.4
M16
G05
G00X100.0Y-42.4
M15
G01X101.0Y-42.4
M16
G05
G00X101.0Y-51.9
M15
G01X100.0Y-51.9
M16
G05
G00X100.0Y-61.9
M15
G01X101.0Y-61.9
M16
G05
G00X101.0Y-72.2
M15
G01X100.0Y-72.2
M16
G05
G00X100.0Y-82.2
M15
G01X101.0Y-82.2
M16
G05
T4
G00X186.795Y-48.03
M15
G01X187.895Y-48.03
M16
G05
G00X186.795Y-56.67
M15
G01X187.895Y-56.67
M16
G05
G00X191.225Y-48.03
M15
G01X191.825Y-48.03
M16
G05
G00X191.225Y-56.67
M15
G01X191.825Y-56.67
M16
G05
M30
